<svg width="219" height="169" viewBox="0 0 219 169" fill="none" xmlns="http://www.w3.org/2000/svg">
<path d="M217.213 148.342C217.213 149.329 216.672 150.431 215.328 151.637C213.988 152.84 211.954 154.048 209.241 155.226C203.822 157.579 195.918 159.722 186.076 161.53C166.407 165.143 139.194 167.384 109.107 167.384C79.0191 167.384 51.8058 165.143 32.1372 161.53C22.2948 159.722 14.3915 157.579 8.97249 155.226C6.25925 154.048 4.225 152.84 2.88467 151.637C1.54101 150.431 1 149.329 1 148.342C1 147.355 1.54101 146.253 2.88467 145.047C4.225 143.844 6.25925 142.636 8.97249 141.458C14.3915 139.104 22.2948 136.962 32.1372 135.154C51.8058 131.541 79.0191 129.3 109.107 129.3C139.194 129.3 166.407 131.541 186.076 135.154C195.918 136.962 203.822 139.104 209.241 141.458C211.954 142.636 213.988 143.844 215.328 145.047C216.672 146.253 217.213 147.355 217.213 148.342Z" stroke="#737E85" stroke-width="2"/>
<g opacity="0.4">
<path d="M38.0566 158.246C19.216 155.121 9.79735 151.451 9.80078 147.237C9.80078 144.428 14.6535 141.832 24.3589 139.448C34.0642 137.065 46.8742 135.191 62.7889 133.828C78.7138 132.454 95.5025 131.778 113.155 131.798C139.07 131.798 161.012 133.153 178.98 135.863C196.949 138.573 205.935 142.223 205.938 146.815C205.938 151.302 196.629 155.119 178.079 158.246C159.528 161.373 136.414 162.954 108.735 162.954C80.4739 162.954 56.9145 161.385 38.0566 158.246Z" fill="white"/>
</g>
<g clip-path="url(#clip0_158_4194)">
<path d="M171.862 138.386C170.791 134.808 165.552 127.304 165.219 126.564C165.965 126.822 166.656 127.217 167.258 127.727C165.914 124.707 160.796 117.46 160.388 116.66C161.195 116.744 161.993 116.896 162.774 117.113C160.953 114.039 159.542 110.74 158.577 107.3C159.145 107.756 159.565 108.371 159.784 109.066C160.026 105.941 160.796 96.8371 161.068 96.203L161.913 97.4712C163.015 94.2402 163.167 90.761 162.351 87.4463H120.395V94.3912C122.279 94.254 124.174 94.3759 126.026 94.7536C125.92 95.4028 125.875 96.0218 125.8 96.6559C123.149 100.935 122.216 106.059 123.188 110.999L125.196 107.239C124.318 109.38 124.274 111.772 125.075 113.943C125.867 116.081 126.928 118.11 128.23 119.982C127.976 118.75 127.925 117.485 128.079 116.238C130.796 121.78 134.972 126.478 140.157 129.825L139.493 126.806L140.097 127.153C142.377 130.173 146.513 131.984 148.008 135.563C148.008 134.521 147.903 133.479 147.842 132.437C148.778 133.147 149.669 133.872 150.514 134.551C151.685 135.957 152.526 137.608 152.975 139.382L154.485 137.978C155.069 138.458 155.578 139.023 155.995 139.654C156.629 141.164 155.3 141.436 155.3 141.436C148.023 141.36 146.997 146.569 147.752 149.377C148.053 150.419 150.152 151.128 151.028 151.128H168.164C171.621 148.516 171.062 142.628 169.069 136.257C170.229 136.603 171.222 137.36 171.862 138.386Z" fill="#0B101D"/>
<path d="M81.7739 118.306C82.2268 112.463 82.5892 106.318 80.2641 100.989C79.1016 90.8431 75.9915 81.0749 73.8023 77.4213C73.8023 77.4213 66.3894 68.6193 59.4445 73.5563C52.4995 78.4932 50.6576 85.0154 53.4054 96.3386C56.1532 107.662 58.5688 138.371 56.0173 140.122C54.7944 140.952 46.2793 139.141 46.2793 146.825C46.3643 147.889 46.8587 148.879 47.6584 149.585C48.4581 150.292 49.5008 150.661 50.567 150.615H59.6256C60.8039 150.618 61.9637 150.321 62.9961 149.754C64.0286 149.186 64.9001 148.365 65.5288 147.369L65.8006 146.931C66.1372 147.043 66.4386 147.241 66.6745 147.506C66.9103 147.771 67.0723 148.093 67.1443 148.441C67.5501 146.791 67.8128 145.108 67.9293 143.413L69.0919 141.466C69.743 142.354 70.1585 143.393 70.2997 144.485C71.1872 141.826 71.74 139.067 71.9453 136.272L72.2775 135.668C72.9962 136.937 73.506 138.313 73.7872 139.744C75.8867 135.966 76.7773 131.634 76.3387 127.334C76.4897 127.002 76.6256 126.685 76.7615 126.353C77.449 127.211 77.8314 128.273 77.8485 129.372C79.7993 125.711 80.4892 121.508 79.8112 117.415C79.9924 116.63 80.1433 115.905 80.249 115.15C81.08 116.013 81.6142 117.118 81.7739 118.306Z" fill="#0B101D"/>
<path d="M149.714 70.6276C149.714 70.6276 156.569 55.53 162.125 57.0397C167.681 58.5495 162.819 69.5406 159.664 74.9305C156.508 80.3203 148.718 72.6356 149.714 70.6276Z" fill="#222632"/>
<path d="M87.1187 121.385C87.5717 115.542 87.934 109.413 85.609 104.068C84.4615 93.9226 81.3514 84.1696 79.1472 80.5008C79.1472 80.5008 71.7493 71.714 64.8044 76.6509C57.8595 81.5878 56.0025 88.11 58.7653 99.4333C61.5282 110.757 63.9438 141.45 61.3923 143.141C60.1543 143.971 51.6543 142.16 51.6543 149.844C51.7356 150.907 52.2268 151.896 53.024 152.603C53.8213 153.311 54.8623 153.68 55.927 153.634H64.9856C66.1636 153.635 67.3227 153.338 68.355 152.771C69.3872 152.203 70.2589 151.383 70.8887 150.388L71.1454 149.965C71.4836 150.074 71.7866 150.272 72.0228 150.537C72.2591 150.803 72.4201 151.126 72.4891 151.475C72.8901 149.823 73.1577 148.142 73.2893 146.447L74.4367 144.485C75.098 145.367 75.5147 146.409 75.6445 147.504C76.5426 144.848 77.1006 142.088 77.3052 139.291L77.6223 138.672C78.341 139.941 78.8508 141.317 79.132 142.748C81.217 138.965 82.1066 134.638 81.6836 130.338L82.0912 129.372C82.7861 130.227 83.1742 131.29 83.1933 132.391C85.1467 128.725 85.8315 124.515 85.1409 120.419C85.3221 119.649 85.4882 118.909 85.5938 118.154C86.4313 119.043 86.9652 120.174 87.1187 121.385Z" fill="#222632"/>
<path d="M178.579 140.786C177.492 137.223 172.269 129.719 171.921 128.965C172.668 129.219 173.36 129.614 173.96 130.127C172.631 127.108 167.498 119.876 167.105 119.076C167.905 119.16 168.698 119.307 169.476 119.513C167.66 116.439 166.254 113.139 165.294 109.7C165.859 110.165 166.279 110.784 166.501 111.481C166.743 108.356 167.513 99.2373 167.77 98.6183L168.63 99.8714C170.1 95.4688 169.847 90.6726 167.921 86.4496C167.585 84.674 167.079 82.9348 166.411 81.256C167.498 81.6134 168.519 82.1491 169.43 82.8412C168.959 80.8793 168.029 79.0572 166.717 77.5245C165.404 75.9917 163.747 74.7922 161.881 74.0242C158.977 71.2255 155.292 69.3727 151.313 68.7098C129.799 64.5429 81.6676 63.954 77.2591 51.6796C75.1785 46.411 72.3845 41.453 68.9554 36.9443C67.4456 38.4541 68.9554 39.3902 67.4456 40.8697C64.3204 43.8893 61.8595 45.7463 57.4812 46.0331C56.8286 46.0699 56.1777 45.9345 55.594 45.6406C51.6888 45.2465 47.9143 44.0158 44.5273 42.0322C44.5273 42.8324 44.6783 43.6628 44.8142 44.5233C45.5854 49.4459 46.0343 54.4135 46.1579 59.3945C45.5694 62.6856 44.2086 65.7901 42.1872 68.4531L44.7991 68.3022C43.4879 73.2096 41.8847 78.0344 39.998 82.7506C41.687 81.8792 43.2426 80.771 44.6179 79.4593C43.5782 82.0903 43.1195 84.9149 43.2732 87.7397C43.4269 90.5645 44.1896 93.3226 45.5087 95.8252C45.613 94.4837 46.0887 93.1976 46.8826 92.1112L47.26 92.7754C47.3925 95.3997 48.184 97.9482 49.5614 100.186C50.9388 102.423 52.8577 104.278 55.141 105.578C54.9319 104.473 54.8207 103.351 54.8088 102.227C56.7428 104.438 58.9438 106.4 61.3613 108.069C63.5504 108.99 59.0362 101.472 72.458 105.337C85.8798 109.202 106.292 103.631 116.015 99.4637C125.738 95.2968 132.818 97.1538 132.818 97.1538C132.728 97.803 132.668 98.422 132.592 99.041C129.94 103.326 129.007 108.455 129.98 113.399L132.003 109.624C131.122 111.763 131.073 114.155 131.867 116.328C132.669 118.465 133.734 120.493 135.038 122.367C134.777 121.136 134.726 119.87 134.887 118.623C137.599 124.168 141.776 128.867 146.965 132.211L146.301 129.191L146.889 129.523C149.184 132.543 153.321 134.37 154.816 137.948C154.816 136.906 154.695 135.864 154.65 134.822C155.571 135.532 156.477 136.242 157.322 136.936C158.498 138.339 159.339 139.991 159.783 141.767L161.293 140.363C161.877 140.837 162.387 141.397 162.802 142.024C163.452 143.534 162.123 143.821 162.123 143.821C154.755 143.73 153.789 149.09 154.665 151.868C154.967 152.849 157.035 153.498 157.911 153.498H175.032C178.504 150.886 177.945 145.013 175.952 138.642C177.049 139.033 177.977 139.79 178.579 140.786Z" fill="#222632"/>
<path d="M58.9922 17.5289C58.9922 17.5289 60.7284 16.6835 61.6796 12.4259C62.6307 8.16838 65.605 -0.905298 66.6014 0.664858C67.5979 2.23501 66.8732 8.30427 67.8545 10.735C69.0177 13.1329 69.515 15.7993 69.2946 18.4553C69.0741 21.1113 68.144 23.6593 66.6014 25.8326C66.6014 25.8326 60.3359 17.6497 58.9922 17.5289Z" fill="#222632"/>
<path d="M61.0605 20.9407C61.0605 20.9407 65.5899 9.3004 65.7861 6.26577C65.9824 3.23114 66.6316 12.8182 67.2959 15.4754C67.9602 18.1325 64.7142 24.534 64.2764 24.8208C63.8385 25.1077 61.0605 20.9407 61.0605 20.9407Z" fill="#9A7168"/>
<path d="M52.1073 17.7248C52.1073 17.7248 50.4013 16.8189 49.6162 12.5312C48.8311 8.24346 46.2192 -0.950998 45.1624 0.588964C44.1055 2.12892 44.5886 8.13779 43.5318 10.5836C42.2586 12.94 41.6454 15.5965 41.7571 18.2725C41.8687 20.9486 42.7009 23.5448 44.1659 25.7869C44.1659 25.7869 50.7636 17.8003 52.1073 17.7248Z" fill="#222632"/>
<path d="M49.9034 21.047C49.9034 21.047 45.8874 9.22553 45.7667 6.1909C45.6459 3.15627 44.6646 12.698 43.9399 15.3401C43.2152 17.9822 46.1743 24.5345 46.6272 24.7912C47.0802 25.0479 49.9034 21.047 49.9034 21.047Z" fill="#9A7168"/>
<path d="M50.2494 56.466L52.2876 52.9785C52.0817 53.6097 52.0103 54.277 52.0779 54.9374C52.1455 55.5979 52.3506 56.2369 52.6801 56.8133C53.3515 57.96 54.1742 59.0112 55.1259 59.9385C54.8077 58.1696 54.9007 56.3513 55.3977 54.6241C55.9519 54.942 56.3856 55.434 56.6313 56.0238C56.877 56.6135 56.921 57.2679 56.7565 57.8852C57.7024 57.254 58.4802 56.4016 59.0221 55.4018C59.5641 54.4021 59.8539 53.2853 59.8666 52.1481C60.6356 52.4582 61.2677 53.0344 61.6474 53.7716C62.027 54.5088 62.1291 55.3579 61.9349 56.1641C63.2195 54.264 63.9417 52.0399 64.0184 49.7476C64.4344 49.9032 64.8038 50.1624 65.0918 50.5005C65.3797 50.8386 65.5767 51.2446 65.6641 51.68C66.7353 50.8728 67.5356 49.7589 67.959 48.4862C68.3823 47.2134 68.4087 45.842 68.0344 44.554C68.5433 44.6956 69.0131 44.9514 69.4081 45.302C69.8032 45.6526 70.1131 46.0887 70.3142 46.5771C71.0239 45.1072 71.5318 43.548 71.8239 41.9421C71.9644 41.1347 71.9419 40.3073 71.7578 39.5087C71.5737 38.7101 71.2318 37.9564 70.752 37.292C70.3918 36.9051 70.0683 36.4856 69.7858 36.0389C69.1667 34.816 69.8763 33.3817 70.0122 32.0078C70.1299 30.7706 69.7617 29.5361 68.9856 28.5655C69.6227 28.6571 70.2286 28.9005 70.752 29.2751C70.595 27.8378 70.0765 26.4638 69.2449 25.281C68.4133 24.0983 67.2956 23.1455 65.9962 22.5114C66.9543 22.3906 67.9248 22.6039 68.744 23.1153C68.2289 22.1225 67.4801 21.2698 66.5622 20.6307C65.6443 19.9916 64.5848 19.5852 63.4749 19.4466H64.2902C64.5921 18.8729 63.8675 18.2992 63.2485 18.0878C62.1386 17.694 60.9971 17.396 59.8364 17.197L60.7876 16.8347C60.1085 16.4186 59.3628 16.1223 58.5833 15.959C58.1898 15.8881 57.7846 15.9219 57.4083 16.057C57.032 16.1922 56.6979 16.4239 56.4394 16.729C54.8881 16.2311 53.2199 16.2311 51.6686 16.729C52.3167 16.76 52.9459 16.9576 53.4954 17.3027C51.3562 17.2963 49.2601 17.9041 47.4563 19.054C48.0666 19.0096 48.6738 19.1747 49.1775 19.5221C46.8164 20.8088 44.5688 22.2937 42.459 23.9608L44.4519 23.5532C43.5664 24.0675 42.8115 24.7792 42.2459 25.6328C41.6803 26.4865 41.3193 27.459 41.1908 28.475L42.9421 27.5842C42.4286 28.9673 42.2325 30.4481 42.3684 31.9172C42.4363 32.3524 42.4363 32.7956 42.3684 33.2308C42.1546 33.7921 41.8313 34.3053 41.4172 34.7405C40.3974 36.0463 39.7682 37.6142 39.6026 39.2628C39.4369 40.9114 39.7415 42.5731 40.4812 44.0558C40.6496 43.0681 41.0827 42.1446 41.7343 41.3835C41.4291 42.8037 41.4613 44.2757 41.8284 45.6811C42.1955 47.0866 42.8872 48.3863 43.848 49.4758C43.6902 48.5284 43.855 47.5555 44.316 46.713C44.3822 49.2273 45.4278 51.6164 47.2298 53.371C47.3532 52.25 47.5601 51.1397 47.8489 50.0495C49.3777 51.8401 50.2275 54.1117 50.2494 56.466Z" fill="#222632"/>
<path d="M59.2188 30.5279C59.3439 29.9195 59.6661 29.3694 60.1356 28.9627C60.6051 28.556 61.1955 28.3154 61.8155 28.2783C63.2196 28.2783 64.2765 29.924 64.2765 29.924C64.2765 29.924 63.1743 32.1887 61.6344 32.1887C61.127 32.1292 60.6418 31.9468 60.2209 31.6574C59.7999 31.368 59.456 30.9803 59.2188 30.5279Z" fill="#1A0A14"/>
<path d="M61.5879 31.7363C62.4217 31.7363 63.0977 31.0604 63.0977 30.2266C63.0977 29.3927 62.4217 28.7168 61.5879 28.7168C60.7541 28.7168 60.0781 29.3927 60.0781 30.2266C60.0781 31.0604 60.7541 31.7363 61.5879 31.7363Z" fill="#996633"/>
<path d="M61.5877 31.2379C62.1464 31.2379 62.5993 30.785 62.5993 30.2264C62.5993 29.6677 62.1464 29.2148 61.5877 29.2148C61.0291 29.2148 60.5762 29.6677 60.5762 30.2264C60.5762 30.785 61.0291 31.2379 61.5877 31.2379Z" fill="#111B1D"/>
<path d="M62.8274 29.6676C62.8274 29.8079 62.7858 29.9451 62.7078 30.0618C62.6298 30.1785 62.519 30.2695 62.3893 30.3232C62.2597 30.3769 62.117 30.3909 61.9793 30.3636C61.8417 30.3362 61.7152 30.2686 61.616 30.1693C61.5168 30.0701 61.4492 29.9437 61.4218 29.8061C61.3945 29.6684 61.4085 29.5257 61.4622 29.396C61.5159 29.2664 61.6068 29.1556 61.7235 29.0776C61.8402 28.9996 61.9775 28.958 62.1178 28.958C62.211 28.958 62.3032 28.9763 62.3893 29.012C62.4754 29.0477 62.5537 29.1 62.6195 29.1658C62.6854 29.2317 62.7377 29.3099 62.7733 29.396C62.809 29.4821 62.8274 29.5744 62.8274 29.6676Z" fill="#EBEBEB"/>
<path d="M52.7706 30.5279C52.6401 29.9194 52.3143 29.3703 51.8427 28.9641C51.3712 28.558 50.7798 28.3172 50.1587 28.2783C48.7546 28.2783 47.7129 29.924 47.7129 29.924C47.7129 29.924 48.815 32.1887 50.3399 32.1887C50.8491 32.129 51.3363 31.9468 51.7597 31.6575C52.1831 31.3683 52.5299 30.9806 52.7706 30.5279Z" fill="#1A0A14"/>
<path d="M50.4316 31.7363C51.2655 31.7363 51.9414 31.0604 51.9414 30.2266C51.9414 29.3927 51.2655 28.7168 50.4316 28.7168C49.5978 28.7168 48.9219 29.3927 48.9219 30.2266C48.9219 31.0604 49.5978 31.7363 50.4316 31.7363Z" fill="#996633"/>
<path d="M50.4315 31.2379C50.9901 31.2379 51.443 30.785 51.443 30.2264C51.443 29.6677 50.9901 29.2148 50.4315 29.2148C49.8728 29.2148 49.4199 29.6677 49.4199 30.2264C49.4199 30.785 49.8728 31.2379 50.4315 31.2379Z" fill="#111B1D"/>
<path d="M51.6692 29.6676C51.6692 29.8079 51.6275 29.9451 51.5496 30.0618C51.4716 30.1785 51.3608 30.2695 51.2312 30.3232C51.1015 30.3769 50.9588 30.3909 50.8211 30.3636C50.6835 30.3362 50.5571 30.2686 50.4578 30.1693C50.3586 30.0701 50.291 29.9437 50.2636 29.8061C50.2363 29.6684 50.2503 29.5257 50.304 29.396C50.3577 29.2664 50.4487 29.1556 50.5654 29.0776C50.6821 28.9996 50.8192 28.958 50.9596 28.958C51.1478 28.958 51.3283 29.0328 51.4613 29.1658C51.5944 29.2989 51.6692 29.4794 51.6692 29.6676Z" fill="#EBEBEB"/>
<path d="M66.5553 34.0459C64.8831 34.4511 63.1337 34.4095 61.4826 33.9252C59.4293 33.3967 57.1646 32.4154 55.2623 33.4722C54.9534 33.667 54.6304 33.8386 54.2961 33.9856C53.839 34.136 53.3541 34.1824 52.8769 34.1214C50.9444 33.9705 49.1176 33.2156 47.2002 32.9287C45.1483 33.032 43.1595 33.6724 41.4329 34.7857C40.413 36.0915 39.7838 37.6595 39.6182 39.308C39.4525 40.9566 39.7571 42.6184 40.4968 44.101C40.6652 43.1133 41.0983 42.1898 41.7499 41.4287C41.4446 42.8489 41.4769 44.3209 41.844 45.7263C42.2111 47.1318 42.9028 48.4315 43.8636 49.521C43.7057 48.5736 43.8706 47.6007 44.3316 46.7582C44.3979 49.2725 45.4434 51.6616 47.2455 53.4162C47.3688 52.2952 47.5757 51.1849 47.8645 50.0947C49.378 51.8755 50.2217 54.1291 50.2499 56.466L52.2881 52.9784C52.0822 53.6096 52.0108 54.2769 52.0784 54.9373C52.146 55.5978 52.3512 56.2368 52.6806 56.8132C53.352 57.96 54.1747 59.0111 55.1265 59.9384C54.8082 58.1695 54.9012 56.3512 55.3982 54.624C55.9524 54.9419 56.3861 55.434 56.6318 56.0237C56.8775 56.6134 56.9215 57.2678 56.757 57.8851C57.703 57.254 58.4807 56.4015 59.0226 55.4018C59.5646 54.402 59.8545 53.2852 59.8671 52.148C60.6362 52.4581 61.2682 53.0343 61.6479 53.7715C62.0276 54.5087 62.1296 55.3578 61.9355 56.164C63.2201 54.2639 63.9423 52.0398 64.0189 49.7475C64.4349 49.9031 64.8043 50.1623 65.0923 50.5004C65.3803 50.8386 65.5772 51.2445 65.6646 51.68C66.7358 50.8727 67.5362 49.7588 67.9595 48.4861C68.3829 47.2134 68.4092 45.842 68.0349 44.5539C68.5438 44.6956 69.0136 44.9514 69.4086 45.3019C69.8037 45.6525 70.1136 46.0886 70.3147 46.577C71.0245 45.1071 71.5323 43.548 71.8245 41.942C71.9649 41.1346 71.9424 40.3072 71.7583 39.5086C71.5743 38.7101 71.2323 37.9564 70.7525 37.2919C70.3923 36.905 70.0688 36.4856 69.7863 36.0388C69.2428 34.9065 67.8085 33.6987 66.5553 34.0459Z" fill="#494A51"/>
<path d="M61.7541 26.3764C61.9504 26.6481 61.422 26.8444 61.0747 26.8293C60.7358 26.7836 60.3914 26.8543 60.098 27.0299C59.8045 27.2054 59.5793 27.4754 59.4593 27.7956C59.4439 28.0188 59.4137 28.2407 59.3687 28.4599C59.2177 28.8675 58.7195 29.0638 58.5383 29.4563C58.3571 29.8489 58.7799 30.6943 58.8554 31.3284C58.9762 32.3551 57.9646 33.3666 58.3722 34.3479C57.4933 34.5617 56.5883 34.6481 55.6849 34.6046C55.6849 34.1064 55.2168 31.7813 56.017 32.1286C56.2949 31.3238 56.6647 30.5538 57.1191 29.8338C56.6662 29.9847 56.2284 29.4412 56.2736 28.9732C56.3837 28.4935 56.6491 28.0637 57.0285 27.7503L58.2968 26.467C58.4274 26.3562 58.522 26.209 58.5685 26.0442C58.6742 25.5309 57.9042 25.1082 58.1005 24.625C58.1911 24.3835 58.5081 24.308 58.7799 24.2627L63.8376 23.4474C64.0947 23.3782 64.3655 23.3782 64.6227 23.4474C64.7507 23.4861 64.8601 23.5706 64.9297 23.6848C64.9993 23.799 65.0244 23.9349 65.0001 24.0664C64.5063 24.1876 64.0467 24.4199 63.6564 24.7458C64.968 24.9183 66.2229 25.3882 67.3251 26.1197C66.9645 26.0298 66.5853 26.0493 66.2358 26.1756C65.8862 26.302 65.5822 26.5295 65.3625 26.8293C66.7078 26.9824 67.9627 27.5833 68.9255 28.5353C68.2584 28.5999 67.6216 28.8452 67.0836 29.2449C67.4311 29.394 67.716 29.6593 67.8896 29.9953C68.0631 30.3313 68.1144 30.7172 68.0347 31.0868L65.604 30.3168C65.6378 29.7989 65.5109 29.2832 65.2407 28.8401C64.9705 28.3969 64.5702 28.048 64.0943 27.8409C63.832 27.4432 63.4873 27.1067 63.0835 26.854C62.6798 26.6013 62.2264 26.4384 61.7541 26.3764Z" fill="#494A51"/>
<path d="M50.1592 26.3766C49.9478 26.6483 50.4762 26.8446 50.8235 26.8295C51.1624 26.7838 51.5067 26.8545 51.8002 27.03C52.0937 27.2056 52.3189 27.4756 52.4389 27.7958C52.4543 28.019 52.4845 28.2409 52.5295 28.4601C52.6805 28.8677 53.1787 29.064 53.375 29.4565C53.5712 29.849 53.1183 30.6945 53.0428 31.3286C52.922 32.3552 53.9487 33.3668 53.526 34.3481C54.4036 34.5351 55.3034 34.5961 56.1982 34.5293C56.1982 34.0311 55.383 32.0382 55.8812 32.0533C55.5918 31.2506 55.2172 30.4813 54.7639 29.7584C55.2169 29.9094 55.6698 29.3659 55.6094 28.8979C55.5044 28.4198 55.2443 27.9899 54.8696 27.6749L53.6014 26.3916C53.4666 26.2818 53.3669 26.1348 53.3146 25.9689C53.224 25.4556 53.994 25.0329 53.7977 24.5498C53.692 24.3082 53.375 24.2327 53.1032 24.1874L48.0606 23.3721C47.7981 23.3043 47.5228 23.3043 47.2604 23.3721C47.1341 23.4135 47.0268 23.4986 46.9576 23.6121C46.8885 23.7255 46.862 23.8599 46.8829 23.9911C47.3791 24.1058 47.8401 24.339 48.2267 24.6705C46.9157 24.8456 45.6614 25.3153 44.5579 26.0444C44.9186 25.9545 45.2978 25.974 45.6473 26.1004C45.9969 26.2267 46.3009 26.4543 46.5206 26.754C45.1806 26.9104 43.9315 27.511 42.9727 28.4601C43.6397 28.5246 44.2766 28.77 44.8146 29.1696C44.4633 29.3139 44.1747 29.5783 44.0005 29.9158C43.8262 30.2532 43.7776 30.6416 43.8634 31.0116L46.279 30.2416C46.2474 29.724 46.3752 29.2092 46.6452 28.7665C46.9151 28.3238 47.3142 27.9744 47.7888 27.7655C48.0591 27.3755 48.4112 27.0492 48.8206 26.8093C49.23 26.5694 49.6868 26.4217 50.1592 26.3766Z" fill="#494A51"/>
<path d="M59.7762 42.2138C59.7762 43.7236 57.9797 45.0522 55.7905 45.0522C53.6013 45.0522 51.8047 43.7839 51.8047 42.2138C51.8047 40.6436 53.5862 39.3604 55.7905 39.3604C57.9947 39.3604 59.7762 40.5681 59.7762 42.2138Z" fill="#1D1E27"/>
<path d="M51.9416 44.3273C52.8215 44.208 53.6545 43.8592 54.3568 43.3159C55.0591 42.7726 55.606 42.054 55.9425 41.2323C56.193 42.0563 56.7066 42.7755 57.4046 43.2799C58.1026 43.7843 58.9466 44.0462 59.8076 44.0254C60.1882 44.0606 60.5717 44.0001 60.923 43.8495C61.2744 43.6989 61.5826 43.4628 61.8195 43.1629C62.0565 42.8629 62.2148 42.5084 62.2801 42.1318C62.3453 41.7551 62.3153 41.3681 62.193 41.0059C61.9468 39.9519 61.3766 39.0015 60.5624 38.2883C60.2172 37.9463 59.8319 37.6472 59.415 37.3975C58.345 36.8812 57.1573 36.6573 55.9727 36.7483C54.1043 36.6148 52.2559 37.2039 50.8093 38.394C50.3102 38.8907 49.9186 39.4847 49.6588 40.1393C49.3991 40.7938 49.2768 41.4948 49.2996 42.1986C49.3107 42.6547 49.4352 43.101 49.6619 43.497C49.924 43.8374 50.2775 44.0962 50.6812 44.2432C51.0849 44.3902 51.522 44.4194 51.9416 44.3273Z" fill="#68696F"/>
<path d="M55.2936 40.7493C55.2936 40.7493 51.187 38.1828 50.9454 35.9634C50.7039 33.744 52.9685 32.7476 55.7918 32.6268C58.6151 32.506 61.9969 34.3177 60.0795 37.1561C58.1621 39.9944 57.1355 41.1268 55.2936 40.7493Z" fill="#14192C"/>
</g>
<defs>
<clipPath id="clip0_158_4194">
<rect width="139.004" height="153.226" fill="white" transform="translate(39.5762 0.408203)"/>
</clipPath>
</defs>
</svg>
