<svg width="219" height="130" viewBox="0 0 219 130" fill="none" xmlns="http://www.w3.org/2000/svg">
<path d="M217.213 109.353C217.213 110.34 216.672 111.442 215.328 112.648C213.988 113.851 211.954 115.058 209.241 116.237C203.822 118.59 195.918 120.733 186.076 122.541C166.407 126.154 139.194 128.395 109.107 128.395C79.0191 128.395 51.8058 126.154 32.1372 122.541C22.2948 120.733 14.3915 118.59 8.97249 116.237C6.25925 115.058 4.225 113.851 2.88467 112.648C1.54101 111.442 1 110.34 1 109.353C1 108.366 1.54101 107.264 2.88467 106.058C4.225 104.854 6.25925 103.647 8.97249 102.469C14.3915 100.115 22.2948 97.9723 32.1372 96.1643C51.8058 92.5513 79.0191 90.3105 109.107 90.3105C139.194 90.3105 166.407 92.5513 186.076 96.1643C195.918 97.9723 203.822 100.115 209.241 102.469C211.954 103.647 213.988 104.854 215.328 106.058C216.672 107.264 217.213 108.366 217.213 109.353Z" stroke="#737E85" stroke-width="2"/>
<g opacity="0.4">
<path d="M38.0566 119.257C19.216 116.132 9.79735 112.462 9.80078 108.248C9.80078 105.439 14.6535 102.842 24.3589 100.459C34.0642 98.0756 46.8742 96.2022 62.7889 94.8387C78.7138 93.465 95.5025 92.7884 113.155 92.8091C139.07 92.8091 161.012 94.1639 178.98 96.8736C196.949 99.5833 205.935 103.234 205.938 107.826C205.938 112.313 196.629 116.13 178.079 119.257C159.528 122.384 136.414 123.965 108.735 123.965C80.4739 123.965 56.9145 122.396 38.0566 119.257Z" fill="white"/>
</g>
<path d="M76.2997 62.5345C74.626 58.5176 71.2786 56.5091 66.927 57.1786C64.0817 57.5134 61.2364 58.8523 62.2406 62.5345C64.249 69.2293 68.2659 76.5935 69.1028 84.7947C69.9396 92.9958 68.9354 102.369 67.5964 103.038C66.2575 103.707 61.069 104.712 61.2364 108.226C61.4038 111.741 63.9143 111.741 70.4417 111.741C75.6302 111.741 77.3039 90.4852 77.806 85.6315C78.1407 82.2841 79.6471 70.0661 76.2997 62.5345Z" fill="#CCB8A4"/>
<path d="M145.09 58.184C145.09 58.184 131.533 66.8873 132.705 72.4105C133.876 77.9337 143.249 87.8085 151.785 91.3233C153.961 92.1601 149.776 107.391 148.939 107.558C148.103 107.726 143.082 108.228 143.918 111.575C144.42 113.751 149.609 113.249 152.789 113.249C155.3 113.249 155.969 111.575 156.471 109.734C157.643 105.55 159.484 97.8507 160.321 92.997C160.655 91.3233 159.986 89.4822 158.647 88.3106C156.471 86.3022 153.291 83.1221 153.793 80.4442C154.63 76.4273 159.316 62.8704 159.149 59.0209C159.316 58.8535 149.776 56.1756 145.09 58.184Z" fill="#CCB8A4"/>
<path d="M152.287 46.8015C152.287 46.8015 160.153 41.7804 161.827 33.4119C163.501 25.0435 161.66 17.5118 164.17 18.516C166.681 19.3529 173.878 26.3824 167.183 37.5962C160.488 48.81 160.153 47.1363 158.815 52.6595L152.287 46.8015Z" fill="#EBE0D4"/>
<path d="M167.688 36.5925C167.186 33.5798 165.847 30.7345 162.165 30.2324C161.998 31.2366 161.831 32.2409 161.663 33.4125C159.989 41.7809 152.123 46.802 152.123 46.802L158.65 52.66C159.989 47.1368 160.492 48.8105 167.019 37.5967C167.354 37.262 167.521 36.9272 167.688 36.5925Z" fill="#D28657"/>
<path d="M55.7129 26.0463C55.7129 26.0463 57.8887 36.0885 57.0518 43.2854C56.0476 50.6497 53.035 68.3909 69.1025 76.592C85.17 84.7932 95.8817 84.1237 120.987 74.9183C120.987 74.9183 136.385 70.9014 139.23 75.0857C142.076 79.2699 160.152 76.592 163.499 66.7172C166.847 57.0097 164.001 55.336 154.963 46.2981C154.963 46.2981 143.582 39.4359 121.991 43.7875C121.991 43.7875 95.0448 45.4612 86.509 41.4443C77.9731 37.5948 73.9562 29.2263 73.1194 23.7031C72.7846 23.7031 59.395 28.3895 55.7129 26.0463Z" fill="#EBE0D4"/>
<path d="M141.575 75.0889C138.395 71.4067 136.889 68.3941 131.868 66.8877C126.177 65.214 121.323 67.892 115.967 69.733C107.766 72.411 98.0588 77.2647 89.3556 74.4194C85.6734 73.2478 81.9913 71.4067 78.9786 69.0636C76.9702 67.5572 75.2965 65.7162 73.4554 64.0425C73.2881 64.0425 73.1207 64.0425 72.9533 64.0425C70.7775 64.2098 68.6017 64.7119 66.4259 64.5446C63.4132 64.3772 60.4006 63.7077 57.7227 62.5361C59.229 67.892 62.5764 73.0804 69.4385 76.5952C85.5061 84.7963 96.2177 84.1269 121.323 74.9215C121.323 74.9215 136.721 70.9046 139.567 75.0889C140.236 76.0931 141.91 76.7626 143.918 76.9299C142.914 76.2605 142.244 75.7584 141.575 75.0889Z" fill="#EBE0D4"/>
<path d="M164.505 62.8703C165.676 56.5102 162.496 53.9997 154.965 46.3007C154.965 46.3007 149.441 43.1207 139.064 42.4512C141.073 43.7901 142.747 45.9659 144.086 48.1417C146.094 51.1544 147.935 54.5018 150.948 56.3429C154.295 58.5187 158.647 58.5187 161.994 60.8619C162.496 61.364 163.333 62.2008 164.505 62.8703Z" fill="#D28657"/>
<path d="M130.528 56.5112C131.197 56.8459 131.867 57.1807 132.536 57.348C134.545 57.8502 136.721 56.5112 137.892 54.8375C139.064 53.1638 139.399 50.988 139.566 48.8122C139.566 48.4774 139.566 48.1427 139.566 47.808C139.399 46.3016 137.558 45.6321 136.051 45.7995C133.708 45.9669 131.532 47.1385 129.524 48.3101C128.185 48.9795 126.846 49.9838 126.511 51.3227C126.176 52.4943 126.678 53.6659 127.515 54.5028C128.52 55.3396 129.524 55.8417 130.528 56.5112Z" fill="#D28657"/>
<path d="M122.163 50.986C119.987 48.1407 117.309 45.6301 114.129 44.1238C109.945 44.1238 104.756 44.1238 99.7352 43.7891C97.7268 44.9607 96.0531 46.467 95.0489 48.6428C93.8773 50.986 93.7099 53.8313 94.8815 56.0071C96.2205 58.685 99.2331 60.1913 102.078 61.1955C104.924 62.1998 107.936 63.0366 110.28 64.8777C111.953 66.2166 113.46 68.2251 115.468 68.3924C116.974 68.3924 118.313 67.2209 119.485 66.0493C121.828 63.3713 123.334 60.1913 123.837 56.8439C124.004 55.8397 124.171 54.6681 123.837 53.6639C123.502 52.6597 122.832 51.8228 122.163 50.986Z" fill="#D28657"/>
<path d="M80.4854 45.631C79.1464 46.3005 78.4769 47.8068 77.9748 49.1458C77.6401 50.3174 77.4727 51.489 77.8075 52.6606C78.1422 53.8321 79.1464 54.8364 80.318 55.0037C80.9875 55.1711 81.657 54.8364 82.4938 54.8364C83.3307 54.8364 84.1675 55.0037 84.837 55.5058C85.6739 56.008 86.3433 56.8448 87.1802 57.5143C88.017 58.0164 89.356 58.3511 90.0255 57.5143C90.3602 56.8448 89.8581 56.0079 89.6907 55.1711C89.5234 53.8321 90.0255 52.3258 90.0255 50.9869C90.0255 48.4763 88.3518 46.1331 85.8412 45.4636C84.837 45.1289 83.8328 45.1289 82.8286 45.1289C82.1591 45.1289 81.3222 45.2963 80.4854 45.631Z" fill="#D28657"/>
<path d="M96.5538 65.7163C96.5538 64.5447 96.0517 63.2058 95.0475 62.5363C94.2106 62.0342 93.3738 62.0342 92.3696 62.0342C91.3653 62.0342 90.3611 62.0342 89.1895 62.0342C88.6874 62.0342 88.0179 62.0342 87.8506 62.5363C87.6832 62.871 87.8506 63.3731 88.0179 63.7079C89.1895 65.8837 91.5327 67.39 93.8759 67.7248C94.7127 67.8921 95.5496 67.7248 96.0517 67.0553C96.5538 66.8879 96.5538 66.2184 96.5538 65.7163Z" fill="#D28657"/>
<path d="M70.7772 38.768C71.2793 39.1027 71.4467 39.7722 71.6141 40.2743C71.9488 41.2785 72.2836 42.4501 72.953 43.287C73.6225 44.1238 74.7941 44.7933 75.7983 44.2912C77.3047 43.7891 77.6394 41.7807 78.4762 40.6091C79.1457 39.6048 80.1499 39.1027 81.3215 38.768C81.4889 38.768 81.6563 38.768 81.8236 38.768C76.3004 34.5837 73.4551 28.3911 72.7857 23.8721C72.4509 24.0394 72.2836 24.3742 72.1162 24.7089C71.6141 25.3784 71.4467 26.3826 71.112 27.2195C70.6099 28.7258 69.773 30.0648 68.7688 31.2363C67.7646 32.2406 66.593 33.2448 65.9235 34.5837C65.254 35.9227 65.4214 37.7638 66.7604 38.4333C68.0993 38.768 69.773 37.9311 70.7772 38.768Z" fill="#D28657"/>
<path d="M144.922 54.8362C143.081 54.6688 141.073 54.8362 139.734 56.0078C139.399 56.3425 139.064 57.012 139.064 57.5141C139.232 58.351 140.236 58.8531 141.073 58.8531C141.91 58.8531 142.914 58.5184 143.751 58.6857C144.922 58.8531 145.927 59.8573 147.098 60.0247C147.266 60.0247 147.6 60.0247 147.768 59.8573C148.27 59.5226 148.605 58.8531 148.437 58.351C148.27 57.6815 147.935 57.3468 147.433 56.8447C146.261 55.8404 146.763 55.0036 144.922 54.8362Z" fill="#D28657"/>
<path d="M150.446 60.1923C150.446 60.1923 136.889 69.8997 139.065 75.0882C141.24 80.1093 154.797 91.3231 156.973 92.1599C159.149 92.9968 155.132 109.232 154.295 109.399C153.458 109.566 148.437 110.069 149.274 113.416C149.776 115.592 154.965 115.09 158.145 115.09C160.655 115.09 161.325 113.416 161.827 111.575C162.998 107.391 164.84 99.6916 165.676 94.8378C166.011 93.1641 165.342 91.3231 164.003 90.1515C161.827 88.143 158.647 84.963 159.149 82.2851C159.986 78.2682 164.672 64.7112 164.505 60.8617C164.672 60.8617 155.132 58.1838 150.446 60.1923Z" fill="#EBE0D4"/>
<path d="M56.8858 43.4528C56.7185 44.457 56.5511 45.796 56.3837 47.3023C62.409 47.637 69.2712 45.1265 72.9533 41.277C74.7944 39.4359 76.8029 37.5948 78.6439 35.7538C75.1292 31.9043 73.2881 27.2179 72.786 23.7031C72.786 23.7031 59.3964 28.3895 55.5469 26.0463C55.7142 26.0463 57.8901 36.0885 56.8858 43.4528Z" fill="#EBE0D4"/>
<path d="M80.4872 65.5472C78.8135 61.5303 75.4661 59.5218 71.1145 60.1913C68.2692 60.5261 65.4239 61.865 66.4281 65.5472C68.4365 72.242 72.4534 79.6062 73.2903 87.8074C74.1271 96.0085 73.1229 105.381 71.7839 106.051C70.445 106.72 65.2565 107.724 65.4239 111.239C65.5913 114.754 68.1018 114.754 74.6292 114.754C79.8177 114.754 81.4914 93.4979 81.9935 88.6442C82.1609 85.4642 83.8346 73.0788 80.4872 65.5472Z" fill="#EBE0D4"/>
<path d="M72.6191 6.46473C72.6191 6.46473 76.1339 4.62366 77.6402 4.79103C79.3139 4.9584 81.4897 8.80791 81.4897 8.80791C81.4897 8.80791 78.3097 17.6785 76.9708 19.1848C75.6318 20.5238 72.6191 6.46473 72.6191 6.46473Z" fill="#A65B26"/>
<path d="M58.7256 4.12252C58.7256 4.12252 54.5414 1.27723 53.0351 1.4446C51.3614 1.61197 49.1855 5.46148 49.1855 5.46148C49.1855 5.46148 51.3614 14.3321 52.7003 15.8384C54.0393 17.3447 58.7256 4.12252 58.7256 4.12252Z" fill="#A65B26"/>
<path d="M65.9229 3.11822C65.9229 3.11822 60.9018 2.28137 57.5544 4.2898C54.7091 5.9635 53.3702 7.46983 52.1986 11.4867C51.027 15.5036 49.8554 16.3404 49.1859 19.6878C48.5165 23.0352 51.5291 23.8721 52.5333 30.7343C53.5376 36.9269 59.2281 43.1196 61.7387 35.588C61.7387 35.588 63.0776 41.6133 67.764 38.6006C69.7724 37.4291 70.944 32.9101 72.1156 30.9016C74.7935 26.55 78.8104 24.2068 77.6388 19.5205C76.1325 13.1604 75.9651 6.96772 70.944 4.62454C69.6051 4.12243 68.0987 3.45296 65.9229 3.11822Z" fill="#D28657"/>
<path d="M54.5417 11.3201C55.7133 9.1443 58.0564 6.96849 58.7259 4.62531C58.8933 4.29057 58.8933 3.95583 59.0607 3.62109C58.5585 3.78846 58.0564 3.95583 57.5543 4.29057C54.709 5.96427 53.3701 7.4706 52.1985 11.4875C51.529 13.6633 50.8595 14.8349 50.3574 16.1738C52.0311 15.1696 53.2027 13.8307 54.5417 11.3201Z" fill="#D8C2AB"/>
<path d="M74.4589 15.3376C74.6262 15.6723 76.1326 18.3502 77.4715 19.0197C76.2999 13.8312 75.7978 8.81013 72.7852 5.96484C73.4546 9.81435 73.1199 11.8228 74.4589 15.3376Z" fill="#D8C2AB"/>
<path d="M69.6035 25.0432C67.4276 24.8759 65.4192 23.0348 65.2518 20.6916C64.9171 15.3358 66.2561 8.30625 67.7624 3.6199C67.595 3.6199 67.4276 3.45253 67.0929 3.45253C66.7582 3.28516 66.2561 3.28516 65.9213 3.28516C65.9213 3.28516 65.5866 3.28516 65.2518 3.28516H65.0845C64.5824 3.28516 63.7455 3.28516 62.9087 3.28516C62.2392 9.47784 62.9087 15.1684 60.5655 20.859C59.5613 23.3695 56.5486 23.0348 53.3686 23.8717C52.3643 24.039 51.5275 24.7085 51.0254 25.378C51.6949 26.7169 52.3644 28.3906 52.6991 31.0686C53.2012 34.9181 55.5444 38.6002 57.8876 39.2697C58.8918 40.4413 60.9002 41.9476 62.7413 41.4455C64.2476 41.1108 65.2518 40.2739 66.0887 39.7718H66.2561H66.4234C66.5908 39.7718 66.7582 39.6044 66.9255 39.6044C66.9255 39.6044 67.0929 39.6044 67.0929 39.4371C67.2603 39.2697 67.595 39.2697 67.9298 39.1023C69.9382 37.9307 71.1098 33.4117 72.2814 31.4033C73.2856 29.897 74.2898 28.7254 75.294 27.3864C74.1224 26.2148 72.4487 25.2106 69.6035 25.0432Z" fill="#EBE0D4"/>
<path d="M77.1367 6.2986C77.1367 5.46175 77.1367 4.45753 77.9736 4.6249C78.9778 4.95964 80.9862 5.46175 82.1578 5.29438C84.1663 4.95964 84.1663 5.29438 84.6684 5.29438C85.1705 5.46175 90.6937 8.97652 90.1916 11.6544C89.6895 14.4997 87.3463 20.0229 86.5094 20.525C85.6726 21.0271 79.3125 12.1565 78.4757 9.81337C77.9736 8.97652 77.1367 7.63756 77.1367 6.2986Z" fill="#D28657"/>
<path d="M54.0403 1.61263C54.0403 1.61263 53.5382 0.273671 52.1992 0.608411C50.8603 0.943151 43.8307 3.4537 40.9854 4.45792C38.1401 5.29477 40.4833 8.14006 42.157 12.3243C43.8307 16.5086 44.5002 18.6844 46.3413 17.178C49.0192 14.8349 50.5255 7.97269 51.3624 6.13162C52.3666 4.12318 54.7098 1.44526 54.0403 1.61263Z" fill="#D28657"/>
<path d="M65.4183 36.5933C62.7403 36.0912 62.0709 34.2502 61.9035 33.748C61.7361 34.0828 61.0666 36.5933 58.3887 36.5933C57.0498 36.5933 54.3718 34.9196 54.0371 34.5849C54.874 35.9239 56.2129 37.5976 57.8866 37.7649C60.3972 38.0997 61.7361 37.0954 61.9035 35.5891C62.4056 37.0954 63.9119 38.4344 65.9204 38.0997C67.9288 37.7649 69.2678 35.7565 70.1046 34.4175C69.7699 34.9196 66.0877 36.7607 65.4183 36.5933Z" fill="#14192C"/>
<path d="M61.906 36.4255C61.906 36.4255 57.0522 34.2496 56.8849 31.0696C56.7175 27.8896 59.228 27.0527 62.4081 27.0527C65.5881 27.0527 69.1029 29.3959 67.5965 32.2412C66.2576 34.417 63.0775 36.7602 61.906 36.4255Z" fill="#14192C"/>
<path d="M67.4297 18.8514C67.4297 18.8514 67.7644 15.6714 70.7771 15.504C72.7855 15.3367 74.4592 17.3451 74.4592 17.3451C74.4592 17.3451 73.7897 20.023 71.7813 20.3578C68.6013 20.8599 67.4297 18.8514 67.4297 18.8514Z" fill="#402436"/>
<path d="M68.2676 18.8522C68.2676 18.8522 68.2676 16.1743 70.9455 16.0069C72.6192 15.8395 73.7908 17.5132 73.7908 17.5132C73.7908 17.5132 73.1213 20.0238 71.4476 20.0238C69.2718 20.1911 68.2676 18.8522 68.2676 18.8522Z" fill="#614A59"/>
<path d="M71.1106 19.688C72.1274 19.688 72.9517 18.8637 72.9517 17.8469C72.9517 16.8301 72.1274 16.0059 71.1106 16.0059C70.0938 16.0059 69.2695 16.8301 69.2695 17.8469C69.2695 18.8637 70.0938 19.688 71.1106 19.688Z" fill="#814218"/>
<path d="M72.1155 17.847C72.1155 18.3491 71.6134 18.8512 70.944 18.6838C70.2745 18.5165 69.9397 18.1817 70.1071 17.5123C70.1071 17.0101 70.6092 16.508 71.2787 16.6754C71.7808 16.8428 72.1155 17.3449 72.1155 17.847Z" fill="#0B0E19"/>
<path d="M72.6177 17.0117C72.6177 17.3464 72.2829 17.6811 71.7808 17.6811C71.4461 17.6811 71.1113 17.3464 71.1113 16.8443C71.1113 16.5095 71.4461 16.1748 71.9482 16.1748C72.2829 16.1748 72.6177 16.5095 72.6177 17.0117Z" fill="#FBFBFB"/>
<path d="M59.23 17.8459C59.23 17.8459 59.23 14.6658 56.2173 14.1637C54.3762 13.829 52.5352 15.6701 52.5352 15.6701C52.5352 15.6701 53.0373 18.348 54.8783 18.8501C57.891 19.6869 59.23 17.8459 59.23 17.8459Z" fill="#402436"/>
<path d="M58.5609 17.6788C58.5609 17.6788 58.7283 15.0008 56.2177 14.4987C54.544 14.164 53.2051 15.6703 53.2051 15.6703C53.2051 15.6703 53.5398 18.1809 55.2135 18.5156C57.3893 19.0177 58.5609 17.6788 58.5609 17.6788Z" fill="#614A59"/>
<path d="M57.8933 17.0086C57.5586 18.0128 56.387 18.5149 55.5501 18.1802C54.3785 17.8454 53.8764 16.6738 54.2112 15.6696C54.7133 14.8328 55.7175 14.3307 56.7217 14.6654C57.7259 15.0001 58.2281 16.0044 57.8933 17.0086Z" fill="#814218"/>
<path d="M57.0539 16.6748C56.8866 17.1769 56.2171 17.5116 55.715 17.3443C55.2129 17.1769 54.8781 16.5074 55.0455 16.0053C55.3802 15.5032 55.8823 15.3358 56.3845 15.5032C56.8866 15.6706 57.2213 16.1727 57.0539 16.6748Z" fill="#0B0E19"/>
<path d="M57.722 15.8377C57.5547 16.1724 57.2199 16.3398 56.8852 16.1724C56.3831 16.1724 56.2157 15.8377 56.3831 15.5029C56.5504 15.1682 56.8852 15.0008 57.2199 15.1682C57.5547 15.1682 57.8894 15.5029 57.722 15.8377Z" fill="#FBFBFB"/>
</svg>
