<svg width="219" height="207" viewBox="0 0 219 207" fill="none" xmlns="http://www.w3.org/2000/svg">
<path d="M217.615 186.195C217.615 187.183 217.074 188.284 215.731 189.49C214.39 190.694 212.356 191.901 209.643 193.079C204.224 195.433 196.321 197.576 186.478 199.384C166.81 202.997 139.596 205.238 109.509 205.238C79.4215 205.238 52.2082 202.997 32.5396 199.384C22.6971 197.576 14.7938 195.433 9.37483 193.079C6.6616 191.901 4.62735 190.694 3.28701 189.49C1.94336 188.284 1.40234 187.183 1.40234 186.195C1.40234 185.208 1.94336 184.107 3.28701 182.9C4.62735 181.697 6.6616 180.49 9.37483 179.311C14.7938 176.958 22.6971 174.815 32.5396 173.007C52.2082 169.394 79.4215 167.153 109.509 167.153C139.596 167.153 166.81 169.394 186.478 173.007C196.321 174.815 204.224 176.958 209.643 179.311C212.356 180.49 214.39 181.697 215.731 182.9C217.074 184.107 217.615 185.208 217.615 186.195Z" stroke="#737E85" stroke-width="2"/>
<path d="M38.459 196.1C19.6183 192.974 10.1997 189.305 10.2031 185.091C10.2031 182.282 15.0558 179.685 24.7612 177.302C34.4666 174.918 47.2766 173.045 63.1912 171.682C79.1162 170.308 95.9048 169.631 113.557 169.652C139.473 169.652 161.414 171.007 179.383 173.716C197.351 176.426 206.337 180.077 206.34 184.668C206.34 189.155 197.032 192.973 178.481 196.1C159.931 199.226 136.816 200.808 109.137 200.808C80.8762 200.808 57.3168 199.238 38.459 196.1Z" fill="#737E85"/>
<path d="M30.0612 84.0391C30.0612 84.0391 28.4797 105.675 41.9353 119.131C55.391 132.587 53.2686 171.372 50.1107 176.915C50.1107 176.915 45.629 178.759 46.1544 181.927C46.6799 185.096 57.2352 188.784 60.9289 179.815C64.6225 170.847 64.6225 143.935 66.2091 117.287C67.7958 90.6381 30.0612 84.0391 30.0612 84.0391Z" fill="#B25D00"/>
<path d="M46.2786 125.256C51.6258 128.862 57.1997 132.159 62.2945 136.151C63.2733 136.919 64.2263 137.697 65.169 138.495C65.473 131.644 65.7821 124.458 66.1993 117.287C67.7808 90.6381 30.0514 84.0391 30.0514 84.0391C30.0514 84.0391 28.4699 105.675 41.9256 119.131C43.6787 120.94 45.1465 123.005 46.2786 125.256V125.256Z" fill="#964B00"/>
<path d="M52.2278 165.407C51.8311 171.042 51.0172 175.333 50.1105 176.915C50.1105 176.915 45.6287 178.759 46.1542 181.927C46.6796 185.095 57.235 188.784 60.9286 179.815C62.5101 175.977 63.4168 168.843 64.0556 159.858C60.5369 162.502 56.5102 164.391 52.2278 165.407Z" fill="white"/>
<path d="M41.9355 119.131C42.3631 119.589 42.8062 120.038 43.2286 120.506C43.651 120.975 44.0219 121.485 44.398 121.985C44.774 122.484 45.1089 123.015 45.4283 123.556L46.3761 125.194L47.221 126.889C47.4888 127.461 47.7361 128.043 47.9834 128.62C48.4573 129.789 48.9055 130.974 49.2867 132.174C49.4979 132.772 49.6731 133.375 49.8431 133.983C50.0131 134.59 50.1934 135.198 50.3582 135.811C50.6725 137.037 50.93 138.269 51.1876 139.505C51.4452 140.741 51.6512 141.988 51.8264 143.235C51.9294 143.858 52.0118 144.486 52.0891 145.11C52.1664 145.733 52.2591 146.362 52.3158 146.99C52.46 148.242 52.5682 149.499 52.6661 150.756C52.764 152.013 52.8309 153.275 52.8773 154.537C52.9082 155.165 52.9185 155.799 52.9288 156.428C52.9391 157.056 52.9546 157.69 52.9288 158.323C52.9288 159.585 52.9288 160.848 52.8721 162.11C52.8155 163.372 52.764 164.629 52.6712 165.891C52.5785 167.153 52.4652 168.41 52.3106 169.667C52.1561 170.924 51.9706 172.181 51.7285 173.433C51.5023 174.726 51.1093 175.985 50.5591 177.178L50.4819 177.322L50.2964 177.41C48.9806 177.948 47.8496 178.857 47.0407 180.026C46.9582 180.171 46.9016 180.32 46.8243 180.469L46.6955 180.923C46.6955 181.083 46.6543 181.237 46.6492 181.392V181.629V181.819C46.6492 181.912 46.6955 182.015 46.7213 182.092C46.7521 182.141 46.778 182.193 46.7985 182.247C46.873 182.381 46.9592 182.509 47.0561 182.628C47.2691 182.889 47.515 183.121 47.7876 183.318C48.9703 184.151 50.343 184.673 51.78 184.838C53.214 185.036 54.675 184.859 56.0197 184.323C56.6815 184.048 57.3007 183.68 57.8588 183.231C58.4098 182.765 58.8996 182.232 59.3166 181.644C59.7245 181.044 60.0697 180.403 60.3469 179.733C60.4757 179.429 60.6045 179.027 60.7333 178.703L60.929 178.187L61.0733 177.646L61.3721 176.57C61.4597 176.209 61.5369 175.833 61.6193 175.467C61.7893 174.731 61.9284 173.979 62.0521 173.232C62.1757 172.485 62.3045 171.733 62.4075 170.975C62.5106 170.218 62.6239 169.466 62.7115 168.709C62.9175 167.194 63.0669 165.674 63.2266 164.155C63.3863 162.635 63.5099 161.11 63.6284 159.585C63.8757 156.536 64.0663 153.476 64.2569 150.421L65.3799 132.077L65.1327 141.262C65.0399 144.327 64.9575 147.387 64.8339 150.452C64.7102 153.517 64.5608 156.577 64.3702 159.637C64.2827 161.182 64.1642 162.697 64.056 164.227C63.9478 165.757 63.7984 167.287 63.6233 168.817C63.546 169.579 63.4533 170.362 63.3399 171.104C63.2266 171.846 63.1339 172.65 62.9948 173.391C62.8557 174.133 62.7372 174.937 62.5672 175.668C62.4848 176.05 62.4127 176.426 62.3199 176.807L62.0109 177.95L61.8563 178.517L61.6657 179.063C61.5318 179.434 61.4339 179.764 61.269 180.166C60.9599 180.906 60.5749 181.612 60.1203 182.273C59.6538 182.938 59.1051 183.542 58.4872 184.07C57.8538 184.587 57.1494 185.01 56.3957 185.327C54.887 185.947 53.2432 186.163 51.6255 185.956C50.0005 185.778 48.4466 185.194 47.1076 184.256C46.7603 184.003 46.4469 183.707 46.1752 183.375C46.0267 183.2 45.8971 183.01 45.7889 182.808C45.7322 182.69 45.6755 182.561 45.6292 182.437C45.5828 182.314 45.5776 182.252 45.5519 182.154V182.072V181.948V181.778V181.443C45.5519 181.216 45.5983 180.99 45.6189 180.768C45.6395 180.547 45.7425 180.336 45.8146 180.124C45.8867 179.913 45.9949 179.717 46.1031 179.532C46.5459 178.82 47.1212 178.199 47.7979 177.703C48.4476 177.213 49.1532 176.801 49.8997 176.477L49.637 176.704C50.1389 175.612 50.5006 174.461 50.7137 173.278C50.9558 172.062 51.1567 170.836 51.3061 169.6C51.4555 168.364 51.5843 167.117 51.6873 165.87C51.7903 164.624 51.8521 163.377 51.9037 162.13C51.9552 160.884 51.9809 159.627 51.9861 158.375C51.9912 157.123 51.9861 155.871 51.9449 154.625C51.9037 153.378 51.8624 152.121 51.8058 150.869C51.7491 149.617 51.6409 148.371 51.5276 147.124C51.4761 146.501 51.3988 145.882 51.337 145.259C51.2752 144.636 51.1979 144.012 51.1103 143.394C50.9558 142.153 50.7446 140.916 50.5437 139.685C50.3428 138.454 50.0749 137.223 49.7864 136.007C49.6576 135.394 49.4876 134.791 49.3331 134.189C49.1785 133.586 49.024 132.973 48.8179 132.375C48.4779 131.175 48.0658 129.99 47.6331 128.821C47.3961 128.239 47.1746 127.657 46.9273 127.08L46.1392 125.374L45.248 123.721L44.2537 122.129C43.8931 121.614 43.5171 121.099 43.1461 120.584C42.7752 120.068 42.3477 119.605 41.9355 119.131Z" fill="#964B00"/>
<path d="M111.646 103.342C111.646 103.342 109.792 129.29 121.949 140.407C134.107 151.523 147.367 155.758 144.451 172.701L143.658 177.204C143.658 177.204 140.479 178.528 140.216 180.908C139.954 183.288 150.519 186.997 152.925 179.321C155.331 171.645 152.41 165.556 153.981 155.758C155.552 145.96 151.071 149.674 144.193 142.261C137.316 134.848 141.03 126.374 145.517 114.747C150.004 103.12 118.797 100.431 111.646 103.342Z" fill="#B25D00"/>
<path d="M153.871 156.613C152.244 158.821 149.859 160.35 147.174 160.91C145.92 161.159 144.625 161.109 143.393 160.765C144.82 164.006 145.325 167.823 144.485 172.701L143.692 177.204C143.692 177.204 140.514 178.528 140.251 180.908C139.988 183.288 150.554 186.997 152.96 179.321C155.257 171.872 152.578 165.912 153.871 156.613Z" fill="white"/>
<path d="M127.326 126.951C132.142 129.431 136.651 132.465 140.762 135.992C139.386 130.047 142.245 123.237 145.516 114.747C150.014 103.099 118.78 100.452 111.63 103.362C111.321 109.561 111.753 115.775 112.918 121.871C118.013 122.613 123.04 124.694 127.326 126.951Z" fill="#964B00"/>
<path d="M50.1115 176.915L49.7509 177.137C49.519 177.276 49.1997 177.492 48.8236 177.755C48.405 178.056 48.0059 178.382 47.6285 178.734L47.3348 179.037L47.0618 179.367C46.8852 179.592 46.7364 179.838 46.6188 180.099C46.555 180.222 46.5082 180.354 46.4797 180.49C46.4561 180.554 46.4371 180.619 46.423 180.686V180.892C46.3998 181.025 46.3998 181.161 46.423 181.294C46.4286 181.422 46.4459 181.55 46.4745 181.675C46.5157 181.814 46.5569 181.948 46.593 182.087L46.6497 182.283L46.7269 182.448C46.7836 182.556 46.83 182.664 46.8815 182.767C46.933 182.87 47.0103 182.958 47.0721 183.05C47.1882 183.215 47.3212 183.367 47.4688 183.504C47.5877 183.606 47.7153 183.697 47.85 183.777C47.9679 183.856 48.0962 183.918 48.2312 183.962H48.1178C48.012 183.95 47.9081 183.924 47.8088 183.885C47.6484 183.832 47.4931 183.765 47.3451 183.684C47.1564 183.567 46.9833 183.427 46.83 183.267C46.7475 183.179 46.6548 183.087 46.5724 182.983L46.3509 182.623L46.2376 182.432L46.1603 182.242C46.1139 182.108 46.0624 181.974 46.0109 181.84C45.9594 181.683 45.9249 181.52 45.9079 181.356C45.8922 181.274 45.8819 181.191 45.877 181.108V180.861V180.603C45.877 180.521 45.9182 180.444 45.9388 180.361C45.9742 180.196 46.0296 180.035 46.1036 179.882C46.2407 179.584 46.4137 179.304 46.6188 179.048C46.8219 178.809 47.0441 178.586 47.2833 178.383C47.5035 178.196 47.7359 178.024 47.9788 177.868C48.1914 177.727 48.4115 177.598 48.6381 177.482C49.1079 177.241 49.6017 177.051 50.1115 176.915V176.915Z" fill="#964B00"/>
<path d="M50.8844 179.485L50.5547 179.727C50.3435 179.877 50.0395 180.114 49.7304 180.397C49.3549 180.707 49.0099 181.052 48.7001 181.427C48.354 181.818 48.1348 182.305 48.0716 182.823C48.0576 183.074 48.1072 183.324 48.2159 183.55C48.3276 183.777 48.4716 183.987 48.6435 184.173C48.8084 184.368 48.9971 184.541 49.205 184.688C49.3846 184.812 49.5805 184.911 49.7871 184.982C50.1196 185.092 50.4763 185.108 50.8174 185.028C50.9492 185.001 51.0772 184.958 51.1986 184.9C51.0976 184.996 50.9809 185.074 50.8534 185.131C50.5084 185.294 50.1227 185.349 49.7459 185.291C49.4892 185.253 49.2414 185.17 49.0144 185.044C48.7653 184.904 48.5365 184.731 48.3344 184.529C48.0994 184.316 47.9041 184.063 47.7574 183.782C47.6068 183.476 47.5342 183.138 47.5462 182.798C47.614 182.158 47.8995 181.562 48.355 181.108C48.7143 180.729 49.1213 180.398 49.5656 180.124C49.8738 179.929 50.1957 179.757 50.5289 179.609C50.6447 179.56 50.7634 179.519 50.8844 179.485V179.485Z" fill="#964B00"/>
<path d="M52.3256 181.289C52.3256 181.289 52.1813 181.464 51.9443 181.778C51.8259 181.938 51.6919 182.134 51.5477 182.366C51.3943 182.625 51.2601 182.896 51.1459 183.174C51.0189 183.484 50.9626 183.819 50.981 184.153C51.0046 184.323 51.0658 184.486 51.1603 184.63C51.2547 184.773 51.3801 184.894 51.5271 184.983C51.5994 185.036 51.6751 185.084 51.7537 185.127L52.0525 185.251C52.1454 185.288 52.2421 185.316 52.341 185.333C52.4353 185.361 52.5318 185.382 52.6295 185.395C53.0477 185.459 53.4734 185.459 53.8916 185.395C54.3196 185.335 54.7406 185.233 55.1486 185.091L55.7461 184.859C55.9367 184.771 56.1325 184.689 56.3128 184.596C56.6837 184.401 57.0271 184.2 57.3431 183.994C57.6573 183.777 57.9561 183.571 58.2137 183.36C58.4713 183.149 58.7288 182.943 58.9143 182.768L59.4294 182.252C59.687 181.959 59.8467 181.789 59.8467 181.789C59.8467 181.789 59.7282 181.985 59.5119 182.304L59.074 182.881C58.8754 183.122 58.6621 183.351 58.4352 183.566C58.1701 183.828 57.8897 184.074 57.5955 184.303L57.0804 184.658C56.9104 184.777 56.7198 184.88 56.5343 184.993C56.1448 185.215 55.7382 185.406 55.3186 185.565C54.8781 185.727 54.4225 185.844 53.9586 185.915C53.4857 185.987 53.0045 185.987 52.5316 185.915C52.2935 185.872 52.0605 185.805 51.8362 185.714L51.5374 185.575C51.4297 185.514 51.3264 185.445 51.2283 185.369C51.0342 185.233 50.8732 185.055 50.7573 184.848C50.6414 184.641 50.5735 184.411 50.5586 184.174C50.5603 183.777 50.6593 183.386 50.8471 183.035C50.9892 182.753 51.162 182.487 51.3622 182.242C51.5127 182.054 51.6726 181.873 51.8413 181.701C51.9945 181.554 52.1562 181.417 52.3256 181.289Z" fill="#964B00"/>
<path d="M111.646 103.342C111.569 105.135 111.579 106.948 111.646 108.725C111.713 110.502 111.816 112.305 111.991 114.088C112.313 117.652 112.929 121.185 113.83 124.648C114.282 126.374 114.829 128.073 115.468 129.738C116.113 131.395 116.885 133.001 117.776 134.539C118.654 136.079 119.705 137.514 120.908 138.815C122.149 140.086 123.467 141.28 124.854 142.39C127.605 144.677 130.521 146.764 133.354 148.974C136.188 151.184 139.021 153.502 141.282 156.387C142.433 157.826 143.37 159.424 144.064 161.131C144.745 162.846 145.165 164.654 145.311 166.494C145.444 168.321 145.374 170.158 145.1 171.97C144.837 173.778 144.497 175.519 144.198 177.296L144.152 177.564L143.884 177.683C143.066 178.047 142.324 178.561 141.694 179.197C141.396 179.496 141.152 179.845 140.973 180.228C140.824 180.568 140.705 181.088 140.819 181.196C141.016 181.53 141.289 181.813 141.617 182.02C141.987 182.272 142.38 182.486 142.792 182.659C143.639 183.013 144.532 183.245 145.445 183.349C147.242 183.632 149.079 183.193 150.555 182.128C151.24 181.559 151.785 180.84 152.147 180.027C152.242 179.822 152.326 179.612 152.399 179.398L152.456 179.239V179.172L152.482 179.084L152.58 178.739C152.698 178.275 152.853 177.801 152.93 177.348C153.312 175.495 153.484 173.604 153.445 171.712C153.445 169.801 153.27 167.88 153.167 165.948C153.044 164.005 153.027 162.056 153.115 160.111C153.146 159.137 153.254 158.164 153.368 157.195L153.579 155.748C153.651 155.279 153.733 154.79 153.785 154.331C153.915 153.403 153.948 152.464 153.883 151.529C153.84 150.642 153.499 149.796 152.914 149.128C152.236 148.494 151.469 147.961 150.637 147.547C149.798 147.078 148.948 146.594 148.134 146.048C146.499 144.955 145.019 143.647 143.734 142.158L142.817 141.04L142.009 139.788C141.512 138.935 141.111 138.03 140.814 137.089C140.26 135.202 140.085 133.223 140.298 131.268C140.488 129.332 140.878 127.421 141.463 125.565C142.014 123.706 142.684 121.892 143.379 120.089C144.074 118.286 144.811 116.483 145.532 114.711C144.863 116.524 144.183 118.317 143.534 120.146C142.884 121.975 142.251 123.788 141.741 125.643C141.192 127.489 140.838 129.389 140.685 131.309C140.524 133.206 140.74 135.116 141.318 136.929C141.61 137.83 142.004 138.694 142.493 139.505L143.266 140.68L144.198 141.782C145.46 143.206 146.909 144.454 148.505 145.491C149.303 146.006 150.133 146.47 150.983 146.934C151.888 147.371 152.723 147.94 153.46 148.623C153.833 149.005 154.124 149.459 154.316 149.958C154.502 150.442 154.621 150.95 154.671 151.467C154.754 152.459 154.733 153.457 154.609 154.444C154.558 154.96 154.486 155.408 154.419 155.897L154.233 157.314C154.161 157.788 154.14 158.267 154.094 158.741C154.048 159.215 154.027 159.694 154.006 160.168C153.932 162.082 153.958 164 154.084 165.912C154.197 167.828 154.357 169.76 154.393 171.712C154.442 173.685 154.269 175.656 153.878 177.59C153.79 178.105 153.646 178.538 153.522 179.012L153.43 179.357V179.445C153.43 179.512 153.404 179.517 153.393 179.553L153.326 179.733C153.247 179.977 153.153 180.217 153.043 180.449C152.621 181.408 151.983 182.256 151.178 182.927C150.356 183.571 149.397 184.02 148.376 184.241C147.374 184.454 146.344 184.501 145.326 184.38C144.317 184.27 143.329 184.018 142.39 183.633C141.91 183.43 141.451 183.182 141.02 182.891C140.531 182.581 140.132 182.15 139.861 181.639C139.816 181.548 139.783 181.451 139.763 181.351C139.739 181.265 139.725 181.177 139.721 181.088V180.954C139.721 180.913 139.721 181.011 139.721 180.861V180.835L139.758 180.624C139.808 180.346 139.891 180.074 140.005 179.815C140.228 179.32 140.539 178.868 140.922 178.481C141.661 177.739 142.535 177.145 143.497 176.73L143.183 177.121C143.487 175.365 143.843 173.577 144.105 171.836C144.376 170.098 144.452 168.336 144.332 166.581C144.204 164.84 143.813 163.127 143.173 161.502C142.522 159.875 141.637 158.351 140.546 156.979C138.382 154.202 135.621 151.905 132.818 149.7C130.016 147.495 127.121 145.337 124.37 143.003C122.973 141.852 121.646 140.616 120.398 139.304C119.181 137.951 118.12 136.465 117.235 134.874C115.485 131.704 114.183 128.305 113.366 124.777C112.537 121.272 111.992 117.706 111.739 114.114C111.45 110.53 111.419 106.93 111.646 103.342V103.342Z" fill="#964B00"/>
<path d="M195.584 74.7607C193.368 80.994 188.062 86.1404 182.705 88.6697C172.16 93.6615 150.518 80.3449 150.518 80.3449C150.518 80.3449 137.449 77.3725 149.411 87.2788C159.121 95.3306 182.38 101.188 193.806 86.4494C196.763 82.6219 198.53 79.1447 199.442 76.0177C198.206 75.4588 196.912 75.0373 195.584 74.7607Z" fill="#B25D00"/>
<path d="M169.482 88.7066C160.003 86.2133 150.499 80.3663 150.499 80.3663C150.499 80.3663 137.43 77.3939 149.391 87.3002C154.955 91.9365 164.969 95.8053 174.659 95.5426C172.796 93.3712 171.067 91.0883 169.482 88.7066V88.7066Z" fill="#964B00"/>
<path d="M27.5742 72.8758C27.5742 72.8758 30.3509 80.0879 30.3509 91.4624C30.3509 102.837 35.899 123.098 68.92 127.523C101.941 131.948 103.883 102.28 124.139 106.154C144.394 110.028 140.788 128.63 150.221 137.233C159.653 145.836 170.198 157.489 171.589 162.208C172.98 166.926 172.418 187.733 175.473 188.29C178.528 188.846 179.357 187.46 179.357 187.46C179.357 187.46 182.134 189.124 182.963 187.182C182.963 187.182 187.126 187.733 186.848 183.298C186.569 178.862 181.299 164.716 180.192 158.339C179.084 151.961 175.195 157.782 172.418 145.573C169.642 133.364 167.983 130.866 167.983 120.599C167.983 110.332 165.763 84.5388 137.733 70.6298C109.704 56.7208 92.7816 60.9141 92.7816 60.9141C92.7816 60.9141 75.859 50.6472 65.0358 52.3163C54.2125 53.9854 27.5742 72.8758 27.5742 72.8758Z" fill="#CD7100"/>
<path d="M180.99 161.878C179.877 163.286 178.577 164.536 177.126 165.592C175.678 166.636 174.04 167.388 172.305 167.807C172.897 175.668 173.124 187.898 175.457 188.326C178.507 188.882 179.342 187.496 179.342 187.496C179.342 187.496 182.118 189.16 182.948 187.218C182.948 187.218 187.11 187.769 186.832 183.334C186.615 179.573 182.845 168.956 180.99 161.878Z" fill="white"/>
<path d="M62.3518 71.3923C72.4642 65.7257 77.3426 58.9154 79.5526 54.6758C74.7257 52.9294 69.3888 51.6725 65.0358 52.3422C54.2177 54.0061 27.5742 72.8759 27.5742 72.8759C27.5742 72.8759 46.4441 80.2735 62.3518 71.3923Z" fill="#B25D00"/>
<path d="M81.9941 127.435C85.1778 126.846 88.2572 125.791 91.1329 124.303C93.9875 122.785 96.661 120.947 99.1022 118.827C101.575 116.741 103.878 114.469 106.314 112.316C108.751 110.162 111.322 108.117 114.356 106.84C115.873 106.207 117.478 105.809 119.116 105.66C120.753 105.518 122.403 105.596 124.02 105.892C127.261 106.425 130.364 107.593 133.153 109.328C135.915 111.14 138.21 113.58 139.85 116.447C141.525 119.27 142.679 122.33 143.848 125.344C145.017 128.357 146.202 131.366 147.969 134.003C148.413 134.66 148.902 135.284 149.432 135.873C149.947 136.466 150.54 136.996 151.137 137.553C152.327 138.645 153.512 139.763 154.671 140.891C157 143.151 159.268 145.469 161.476 147.845C163.676 150.23 165.819 152.672 167.818 155.243C168.832 156.523 169.771 157.862 170.63 159.251C170.842 159.606 171.063 159.951 171.243 160.327C171.847 161.437 172.232 162.653 172.377 163.908C172.81 167.158 172.938 170.388 173.155 173.618C173.371 176.848 173.556 180.078 174.01 183.251C174.128 184.045 174.267 184.828 174.453 185.595C174.543 185.972 174.653 186.343 174.783 186.708C174.892 187.046 175.057 187.363 175.272 187.646C175.341 187.742 175.435 187.817 175.545 187.862H175.571H175.612H175.766L176.065 187.898C176.261 187.898 176.477 187.96 176.658 187.96H177.199C177.372 187.952 177.545 187.928 177.714 187.888C177.891 187.862 178.064 187.814 178.229 187.744C178.388 187.686 178.54 187.61 178.682 187.517L178.868 187.367L178.945 187.29L178.991 187.234L179.3 186.914L179.589 187.084C179.713 187.156 179.867 187.228 180.006 187.295C180.151 187.363 180.299 187.423 180.449 187.476C180.599 187.527 180.748 187.574 180.897 187.61C180.969 187.61 181.042 187.61 181.119 187.651C181.19 187.667 181.262 187.676 181.335 187.677C181.405 187.684 181.476 187.684 181.546 187.677C181.615 187.682 181.684 187.682 181.752 187.677L181.938 187.635L182.103 187.568C182.154 187.543 182.196 187.496 182.247 187.471C182.299 187.445 182.329 187.383 182.371 187.342C182.419 187.301 182.458 187.25 182.484 187.192L182.577 187.022L182.736 186.734L183.03 186.765C183.658 186.824 184.292 186.736 184.879 186.507C185.438 186.277 185.887 185.842 186.136 185.291C186.379 184.701 186.481 184.063 186.435 183.427C186.435 183.128 186.363 182.741 186.327 182.396L186.142 181.397C185.559 178.677 184.746 175.978 183.942 173.288C183.138 170.599 182.299 167.905 181.51 165.196C181.119 163.842 180.748 162.481 180.398 161.11C180.238 160.415 180.063 159.73 179.934 159.05L179.831 158.535L179.723 158.02C179.663 157.684 179.574 157.355 179.455 157.036C179.273 156.429 178.915 155.891 178.425 155.49C177.861 155.108 177.273 154.763 176.663 154.46C176.027 154.064 175.46 153.568 174.983 152.992C174.757 152.698 174.556 152.389 174.345 152.085C174.133 151.781 174 151.446 173.83 151.127C173.226 149.826 172.75 148.47 172.408 147.078C172.042 145.697 171.738 144.342 171.408 142.957C170.77 140.216 170.048 137.506 169.373 134.766C168.662 132.024 168.171 129.23 167.905 126.41L167.756 124.293C167.725 123.587 167.725 122.876 167.704 122.17C167.668 120.754 167.704 119.353 167.632 117.956C167.538 115.154 167.254 112.36 166.782 109.596C165.862 104.055 164.106 98.686 161.574 93.6724C159.019 88.6675 155.624 84.1373 151.539 80.2786C149.496 78.3462 147.309 76.5724 144.997 74.9725C142.668 73.3931 140.242 71.9616 137.733 70.6865C140.259 71.9323 142.704 73.3363 145.053 74.8901C147.399 76.455 149.621 78.1979 151.699 80.1034C155.86 83.9472 159.329 88.4778 161.955 93.4973C164.55 98.5227 166.355 103.918 167.308 109.493C167.799 112.277 168.104 115.09 168.22 117.915C168.281 119.332 168.276 120.749 168.323 122.145C168.323 122.845 168.348 123.546 168.379 124.246L168.544 126.338C168.826 129.121 169.331 131.878 170.053 134.58C170.739 137.3 171.491 140.031 172.14 142.766C172.789 145.501 173.33 148.283 174.52 150.761C175.05 151.996 175.938 153.044 177.07 153.77C177.711 154.097 178.329 154.469 178.919 154.882C179.524 155.38 179.967 156.048 180.192 156.799C180.319 157.133 180.417 157.478 180.485 157.829C180.521 158.009 180.563 158.153 180.604 158.344L180.702 158.859C180.825 159.544 181.006 160.219 181.16 160.92C181.51 162.275 181.881 163.629 182.278 164.974C183.061 167.673 183.906 170.357 184.72 173.052C185.534 175.746 186.353 178.445 186.961 181.232L187.162 182.309C187.198 182.669 187.249 182.978 187.275 183.385C187.326 184.158 187.2 184.932 186.904 185.647C186.562 186.389 185.953 186.975 185.199 187.29C184.472 187.58 183.686 187.691 182.906 187.615L183.36 187.357L183.21 187.635C183.159 187.733 183.093 187.821 183.015 187.898C182.948 187.988 182.868 188.068 182.778 188.135C182.689 188.205 182.597 188.269 182.499 188.326L182.19 188.454C182.087 188.485 181.979 188.506 181.876 188.527C181.774 188.545 181.671 188.554 181.567 188.552C181.466 188.56 181.364 188.56 181.263 188.552C181.165 188.547 181.067 188.537 180.969 188.521C180.877 188.521 180.779 188.49 180.686 188.465C180.511 188.421 180.339 188.368 180.171 188.305C180.001 188.243 179.826 188.176 179.656 188.099C179.486 188.022 179.331 187.944 179.141 187.841L179.738 187.692C179.441 188.096 179.028 188.4 178.553 188.563C178.344 188.653 178.124 188.717 177.899 188.753C177.681 188.805 177.459 188.836 177.235 188.846H176.56C176.343 188.846 176.153 188.805 175.952 188.784L175.648 188.748H175.499H175.463C175.439 188.75 175.414 188.75 175.39 188.748L175.272 188.717C174.999 188.625 174.759 188.455 174.582 188.228C174.301 187.868 174.084 187.464 173.938 187.033C173.794 186.636 173.674 186.232 173.577 185.822C173.381 185.013 173.242 184.204 173.124 183.396C172.665 180.161 172.48 176.92 172.279 173.69C172.078 170.46 171.944 167.215 171.527 164.047C171.449 163.271 171.266 162.51 170.981 161.785C170.836 161.429 170.663 161.085 170.466 160.755C170.301 160.399 170.084 160.065 169.883 159.725C169.043 158.359 168.124 157.044 167.133 155.784C165.16 153.239 163.011 150.807 160.853 148.427C158.694 146.047 156.407 143.745 154.094 141.488C152.94 140.359 151.769 139.248 150.581 138.155C149.994 137.609 149.381 137.048 148.829 136.425C148.278 135.81 147.771 135.157 147.31 134.472C145.455 131.732 144.291 128.656 143.132 125.637C141.973 122.619 140.86 119.584 139.243 116.813C136.898 112.579 133.09 109.344 128.533 107.715C127.026 107.159 125.475 106.731 123.896 106.438C122.326 106.141 120.724 106.055 119.131 106.18C117.538 106.314 115.974 106.691 114.495 107.298C111.522 108.514 108.942 110.513 106.505 112.614C104.068 114.716 101.724 116.983 99.2207 119.043C96.7477 121.146 94.0428 122.959 91.1586 124.447C88.2669 125.887 85.179 126.894 81.9941 127.435V127.435Z" fill="#964B00"/>
<path d="M80.454 77.7079C78.2546 76.0745 75.8003 74.816 73.1904 73.9834C70.7452 74.447 68.2965 74.8969 65.8444 75.3331C61.1771 76.1676 56.5254 76.9558 51.8272 77.574C49.7666 77.8419 47.7369 78.1303 45.7176 78.4961C43.7755 86.1512 41.4985 99.0556 46.1554 105.15C53.0172 114.119 64.8914 118.075 66.4729 136.811C68.0544 155.547 68.8477 172.954 66.4729 179.022C64.098 185.09 57.7669 189.84 62.2486 192.478C66.7304 195.115 79.9285 193.271 78.8725 182.175C77.8164 171.078 79.1352 139.17 82.3033 125.447C82.3033 125.447 77.291 116.741 82.0406 107.772C86.7903 98.8032 91.8027 86.4139 80.454 77.7079Z" fill="#CD7100"/>
<path d="M78.7433 160.595C75.9374 164.696 72.2002 168.075 67.8376 170.455C67.6367 174.205 67.204 177.152 66.4725 179.042C64.0977 185.111 57.7665 189.86 62.2483 192.498C66.7301 195.135 79.9281 193.291 78.8721 182.195C78.4394 177.62 78.4085 169.496 78.7433 160.595Z" fill="white"/>
<path d="M143.61 177.25L143.317 177.441C143.126 177.564 142.863 177.755 142.559 177.982C142.215 178.239 141.888 178.52 141.581 178.821C141.239 179.147 140.963 179.535 140.767 179.965C140.673 180.174 140.62 180.4 140.612 180.629C140.599 180.739 140.599 180.85 140.612 180.959C140.612 181.011 140.612 181.078 140.638 181.114L140.695 181.289C140.755 181.493 140.842 181.689 140.952 181.871C141.054 182.04 141.177 182.196 141.318 182.335C141.53 182.548 141.777 182.722 142.049 182.85C142.155 182.903 142.266 182.948 142.379 182.984C142.259 182.979 142.14 182.961 142.024 182.932C141.708 182.857 141.411 182.72 141.148 182.53C140.971 182.399 140.813 182.242 140.679 182.067C140.527 181.867 140.404 181.647 140.313 181.412L140.251 181.242C140.226 181.165 140.215 181.108 140.195 181.036C140.164 180.899 140.148 180.759 140.148 180.619C140.151 180.334 140.208 180.052 140.318 179.79C140.539 179.3 140.869 178.866 141.282 178.522C141.624 178.227 141.997 177.97 142.394 177.755C142.78 177.543 143.188 177.374 143.61 177.25V177.25Z" fill="#964B00"/>
<path d="M43.4763 92.1221C43.4248 92.9412 43.3938 93.7602 43.4196 94.5793C43.4409 95.3979 43.5062 96.2147 43.6154 97.0263C43.7184 97.8402 43.8781 98.6438 44.0584 99.4423C44.2508 100.236 44.4881 101.019 44.7693 101.786C44.9084 102.173 45.0578 102.549 45.2278 102.92C45.3978 103.29 45.5729 103.661 45.7429 104.027C45.9129 104.393 46.1396 104.738 46.3353 105.093C46.5311 105.449 46.7732 105.779 47.0102 106.124C47.2472 106.469 47.479 106.788 47.752 107.087L48.1487 107.556C48.2671 107.685 48.4371 107.834 48.5762 107.973C49.1687 108.55 49.7714 109.101 50.3741 109.653C51.5898 110.75 52.8365 111.821 54.0677 112.903C54.6859 113.444 55.3041 113.99 55.9119 114.546C56.5198 115.103 57.1174 115.675 57.7047 116.252C58.2919 116.829 58.8637 117.426 59.4149 118.049C59.6983 118.348 59.9558 118.673 60.2237 118.992C60.4916 119.312 60.7389 119.631 60.9964 119.966C61.254 120.301 61.5116 120.625 61.7331 120.996C61.9546 121.367 62.2122 121.676 62.4131 122.026C62.614 122.377 62.851 122.737 63.0467 123.108L63.6186 124.221V124.247C64.5098 126.822 65.7204 129.357 66.2819 132.134C66.3437 132.489 66.4158 132.808 66.4673 133.195L66.5703 134.225L66.7764 136.286L67.1885 140.407C67.3225 141.777 67.477 143.153 67.5646 144.528L67.8582 148.649L68.1519 152.77L68.3012 156.917L68.4506 161.064C68.5279 162.45 68.497 163.831 68.4867 165.216L68.4506 169.368V171.429V172.444V172.573L68.3322 173.603C68.1211 175.01 67.7654 176.391 67.2709 177.724C66.7822 179.041 66.2109 180.327 65.5607 181.572C64.2882 184.055 62.8149 186.404 61.5013 188.81L61.5271 188.764L61.3416 189.279C61.303 189.449 61.2738 189.621 61.254 189.794C61.2227 190.125 61.2722 190.46 61.3983 190.768C61.5382 191.081 61.7438 191.36 62.001 191.587C62.2801 191.835 62.59 192.046 62.9231 192.215C63.2732 192.393 63.6366 192.543 64.0101 192.663C64.3904 192.789 64.7773 192.894 65.1691 192.978L65.7101 193.081L66.3385 193.117C66.7495 193.155 67.1625 193.165 67.5749 193.148C67.9715 193.117 68.3631 193.122 68.7597 193.065L69.9549 192.869L71.1243 192.545C71.5158 192.442 71.8815 192.256 72.2576 192.117C72.635 191.972 73.0017 191.8 73.3548 191.602L73.8957 191.319C74.0709 191.216 74.2357 191.097 74.4109 190.989C74.7457 190.752 75.1063 190.562 75.4412 190.299L76.4045 189.536L76.3736 189.567C76.4097 189.506 76.456 189.485 76.4921 189.397C76.5404 189.317 76.5818 189.232 76.6157 189.145C76.7033 188.96 76.7909 188.733 76.8939 188.511C76.9454 188.398 77.0124 188.29 77.0691 188.177C77.131 188.064 77.1998 187.956 77.2751 187.852C77.3449 187.745 77.4224 187.644 77.5069 187.548L77.7645 187.26L77.6718 187.393C77.9631 186.848 78.2094 186.279 78.4084 185.693C78.4868 185.427 78.5318 185.152 78.5424 184.874L78.5115 183.921L78.3724 180.032C78.3312 178.734 78.2694 177.456 78.2642 176.138L78.2024 172.238C78.2024 170.94 78.1612 169.636 78.2024 168.338L78.2436 164.438V162.491L78.3157 160.544L78.4651 156.649C78.5012 155.346 78.5939 154.074 78.6866 152.755L78.9493 148.866C79.0163 147.567 79.1812 146.29 79.2997 144.981L79.6912 141.102C79.8096 139.809 80.026 138.527 80.2063 137.239L80.7215 133.375C80.9224 132.092 81.1748 130.799 81.3963 129.537L82.0866 125.699V125.828L81.6024 124.757L81.1696 123.665L80.8039 122.547L80.4896 121.419L80.2424 120.27L80.0569 119.111L79.9333 117.946L79.8818 116.777V115.603L79.9642 114.438L80.1239 113.279L80.3557 112.13L80.6596 111.002L81.046 109.9L81.5096 108.828L82.0505 107.798L81.5354 108.828L81.1027 109.905L80.7472 111.013L80.469 112.141L80.2681 113.284L80.1393 114.438L80.0827 115.597V116.756L80.1599 117.91L80.299 119.059L80.5051 120.198L80.773 121.326L81.0975 122.433L81.4839 123.525L81.9269 124.592L82.442 125.622L82.4678 125.679V125.751L81.8548 129.589C81.6539 130.871 81.4324 132.165 81.2572 133.427L80.7781 137.285C80.6287 138.573 80.4278 139.861 80.3248 141.149L79.9796 145.017C79.8766 146.31 79.7272 147.593 79.6757 148.891L79.4542 152.776C79.3821 154.069 79.3048 155.351 79.2842 156.655L79.1812 160.539L79.1297 162.481V164.428V168.312C79.1297 169.611 79.1296 170.888 79.1657 172.197L79.243 176.081C79.243 177.374 79.3203 178.657 79.3666 179.97L79.5212 183.86L79.5572 184.854C79.5475 185.226 79.4886 185.595 79.3821 185.951C79.1721 186.597 78.9049 187.223 78.5836 187.821L78.5578 187.878L78.4909 187.955L78.2951 188.177C78.2298 188.248 78.1712 188.326 78.12 188.408C78.0625 188.487 78.0108 188.57 77.9654 188.656C77.919 188.743 77.8675 188.826 77.8263 188.923C77.7388 189.109 77.6615 189.31 77.5636 189.536C77.5116 189.658 77.4531 189.777 77.3884 189.892C77.3081 190.026 77.2149 190.152 77.1103 190.268L76.08 191.072C75.7357 191.337 75.378 191.585 75.0085 191.813C74.8282 191.927 74.6479 192.056 74.4624 192.164L73.8854 192.473C73.5074 192.688 73.115 192.878 72.7109 193.04C72.3121 193.216 71.9046 193.373 71.49 193.508C71.0676 193.627 70.6503 193.75 70.2279 193.864L68.9349 194.08C68.497 194.142 68.0488 194.142 67.6058 194.173C67.1764 194.195 66.746 194.187 66.3179 194.147L65.6894 194.111H65.6482H65.5813H65.5504H65.4731L65.3082 194.085L64.9888 194.023C64.5613 193.926 64.1337 193.823 63.7113 193.683C63.2825 193.546 62.8656 193.373 62.4646 193.168C62.0468 192.96 61.6588 192.696 61.3107 192.385C60.9321 192.057 60.6312 191.649 60.4298 191.19C60.2323 190.718 60.151 190.206 60.1928 189.696C60.2206 189.454 60.2619 189.213 60.3165 188.975L60.5483 188.305V188.274C61.8825 185.827 63.361 183.499 64.6179 181.062C65.2498 179.86 65.8072 178.619 66.287 177.348C66.7611 176.093 67.1063 174.794 67.3173 173.469L67.4358 172.439V172.31C67.4358 172.382 67.4358 172.31 67.4358 172.336V171.965V171.45V169.389L67.4822 165.268C67.4822 163.892 67.5337 162.512 67.4822 161.147L67.3482 157.026L67.2143 152.904L66.9361 148.783L66.6579 144.662C66.5858 143.287 66.4519 141.911 66.3334 140.541L65.9676 136.42L65.7873 134.359L65.6946 133.329C65.6585 133.025 65.5864 132.669 65.5297 132.345C65.2542 131.013 64.877 129.704 64.4016 128.43C63.9379 127.137 63.4228 125.854 62.9849 124.525V124.561L62.444 123.479C62.2586 123.119 62.0422 122.773 61.8413 122.423C61.6404 122.073 61.4086 121.738 61.1871 121.393C60.9655 121.048 60.7286 120.728 60.4865 120.404C60.2443 120.079 60.0022 119.749 59.7395 119.44C59.4768 119.131 59.2243 118.807 58.9513 118.508C58.4362 117.89 57.8592 117.302 57.2925 116.715C54.9898 114.397 52.4914 112.259 50.0805 110.018C49.4829 109.452 48.8853 108.885 48.3084 108.303C48.159 108.153 48.0199 108.03 47.8653 107.855L47.4738 107.37C47.2008 107.056 46.9587 106.706 46.732 106.371C46.5053 106.036 46.2838 105.676 46.0675 105.341C45.8511 105.006 45.6605 104.62 45.4854 104.243C45.3102 103.867 45.1196 103.502 44.9702 103.115C44.8208 102.729 44.656 102.348 44.5272 101.956C44.2578 101.177 44.0342 100.382 43.8575 99.5763C43.6811 98.7703 43.5504 97.9551 43.466 97.1345C43.3776 96.3166 43.3328 95.4946 43.332 94.672C43.3356 93.8201 43.3838 92.969 43.4763 92.1221V92.1221Z" fill="#964B00"/>
<path d="M69.7023 43.1727C69.7023 43.1727 66.1427 41.9363 56.5712 46.0987C46.9998 50.2611 20.0524 57.6071 21.5927 62.0683C23.133 66.5295 57.9415 57.8905 57.9415 57.8905L69.7023 43.1727Z" fill="#287F7F"/>
<path d="M66.9771 17.0084C66.9771 17.0084 58.2814 16.0811 55.6902 23.4838C53.099 30.8865 49.22 10.1724 49.22 10.1724L47.7363 6.65907C47.7363 6.65907 53.8202 -3.5254 61.6093 4.42848C69.3983 12.3824 66.9771 17.0084 66.9771 17.0084Z" fill="#AD5A00"/>
<path d="M47 6.46295C47 6.46295 50.1424 -0.0124633 57.3596 1.10026C64.5768 2.21297 70.3053 14.8083 70.3053 14.8083C70.3053 14.8083 70.1198 23.1331 68.2705 22.3913C66.4211 21.6495 62.7223 3.50085 58.0963 2.39328C53.4703 1.28571 49.7715 3.32054 48.6691 7.59627C47.5667 11.872 47 6.46295 47 6.46295Z" fill="#CD7100"/>
<path d="M3.33521 15.7098C3.33521 15.7098 12.0309 14.7877 14.6169 22.1852C17.203 29.5827 21.0923 8.86861 21.0923 8.86861L22.576 5.3553C22.576 5.3553 17.2081 -3.7113 9.43971 4.24258C1.67128 12.1965 3.33521 15.7098 3.33521 15.7098Z" fill="#AD5A00"/>
<path d="M24.4573 5.90631C24.4573 5.90631 21.3097 -0.569104 14.0977 0.543615C6.8856 1.65633 1.12109 14.2311 1.12109 14.2311C1.12109 14.2311 1.30654 22.5559 3.18168 21.8141C5.05682 21.0723 8.70407 2.95966 13.3301 1.83664C17.9561 0.713615 21.6549 2.7639 22.7624 7.01902C23.87 11.2741 24.4573 5.90631 24.4573 5.90631Z" fill="#CD7100"/>
<path d="M20.084 45.9592C20.084 45.9592 20.7743 59.5539 25.3539 66.0757C29.9336 72.5975 66.6997 48.1795 66.6997 48.1795C66.6997 48.1795 60.1779 31.3908 54.2125 25.5645C48.2471 19.7382 20.084 45.9592 20.084 45.9592Z" fill="#CD7100"/>
<path d="M32.7567 5.72088C32.7567 5.72088 21.0526 0.224261 15.7568 13.8602C9.78628 29.1704 12.2435 36.6143 17.8174 42.5333C23.3913 48.4524 40.1542 58.879 51.8532 38.6491C60.7344 23.2977 56.0723 11.4802 47.2169 6.27724C40.896 2.57848 32.7567 5.72088 32.7567 5.72088Z" fill="#CD7100"/>
<path d="M30.639 5.14905C30.639 5.14905 33.2457 13.855 28.8154 20.2892C24.3851 26.7234 15.7358 30.417 16.8949 42.9557C18.054 55.4944 20.6915 55.0823 28.7124 52.9754C36.7332 50.8684 39.3656 58.9871 45.4804 50.7602C51.5952 42.5333 46.8559 30.824 38.3096 23.2256C29.7633 15.6272 35.4454 4.96875 35.4454 4.96875C34.5269 5.10961 33.6279 5.35682 32.7666 5.70541C32.0724 5.46679 31.3612 5.28081 30.639 5.14905Z" fill="#DD8422"/>
<path d="M18.4186 33.0084C17.9862 33.9269 17.6412 34.8842 17.3883 35.8674C17.0914 36.9818 16.9017 38.1221 16.8217 39.2726C16.7192 40.755 16.825 42.2446 17.1359 43.6977C17.3059 44.4859 17.5326 45.3513 17.6871 46.2374C17.8417 47.1234 17.991 48.0352 18.2023 48.9522C18.3547 49.878 18.6266 50.7802 19.011 51.6361C19.1923 52.0463 19.456 52.4147 19.7856 52.7187C20.1153 53.0227 20.5039 53.2556 20.9274 53.4031C21.8704 53.6696 22.8605 53.7258 23.8277 53.5679C24.3428 53.5061 24.858 53.4082 25.3731 53.2949L26.9649 52.9703C27.9952 52.7385 29.1388 52.584 30.2464 52.414C30.8131 52.3779 31.3849 52.3264 31.9567 52.3006L32.8273 52.3419H33.2652C33.4106 52.3584 33.555 52.3824 33.6979 52.414L34.5582 52.5788C34.8364 52.6561 35.1043 52.7437 35.3773 52.8261C35.9285 52.9858 36.4385 53.1764 36.9639 53.3412L38.5094 53.8564L38.8957 53.9852L39.0863 54.0521L39.1842 54.0831C39.1842 54.0831 39.143 54.0831 39.1842 54.0831H39.21H39.2563L39.653 54.1861C39.7766 54.2118 39.8745 54.217 39.9879 54.2325C40.4599 54.2777 40.9363 54.2375 41.3942 54.114C41.8595 53.9774 42.3046 53.7799 42.7181 53.5267C43.5474 52.9686 44.2742 52.2715 44.8663 51.4661C46.0301 49.9079 46.9027 48.1523 47.442 46.2837C47.9452 44.6138 48.1867 42.8761 48.1581 41.1323C48.1483 40.7359 48.1173 40.3404 48.0654 39.9474L48.0293 39.6641L47.9778 39.3859C47.9417 39.1953 47.9108 39.0098 47.8748 38.8244C47.7675 38.118 47.6213 37.418 47.4369 36.7277C47.1692 35.6073 46.7895 34.5165 46.3036 33.472C46.1272 33.084 45.9241 32.7088 45.6957 32.349L45.4227 31.906L45.1548 31.566C45.0076 31.3546 44.8345 31.1625 44.6396 30.9941C44.8553 31.1417 45.0525 31.3147 45.2269 31.5093L45.5205 31.8287L45.8348 32.2511C46.0906 32.6008 46.3197 32.9693 46.5199 33.3535C47.0764 34.3908 47.5268 35.4816 47.8645 36.6093C48.0871 37.2855 48.2728 37.9734 48.4208 38.6698C48.6301 39.4519 48.7629 40.2524 48.8175 41.0601C49.033 44.9622 47.9338 48.8239 45.6957 52.0276C45.0468 52.9339 44.2449 53.7201 43.326 54.3509C42.8293 54.6672 42.2921 54.915 41.7291 55.0876C41.1399 55.2538 40.5252 55.3097 39.9157 55.2524C39.756 55.2524 39.586 55.2112 39.4418 55.1803L39.0451 55.0824L38.9164 55.0464L38.8185 55.0155L38.6227 54.9537L38.226 54.8197L36.6806 54.3046C36.1655 54.1294 35.6503 53.9388 35.1352 53.7894C34.8776 53.7173 34.62 53.6349 34.3676 53.5679L33.5949 53.4185C33.4661 53.4185 33.3424 53.3619 33.2137 53.3516H32.8221L32.0391 53.3052C31.524 53.3309 30.9779 53.3773 30.4473 53.4082C29.381 53.5628 28.3198 53.6967 27.2483 53.9234C26.1767 54.15 25.1361 54.3767 24.0234 54.49C22.9029 54.6502 21.7608 54.5587 20.6801 54.2221C20.1268 54.0302 19.6233 53.7169 19.2068 53.3052C18.812 52.9074 18.4926 52.4414 18.2641 51.9297C17.874 50.9925 17.6057 50.0092 17.4656 49.0037C17.3111 48.0558 17.1926 47.1389 17.0586 46.258C16.9247 45.3771 16.765 44.558 16.6156 43.7234C16.3501 42.2091 16.3154 40.6633 16.5126 39.1386C16.6617 37.9733 16.9205 36.8245 17.2853 35.7077C17.5178 34.9925 17.7983 34.2937 18.125 33.6162C18.2744 33.2453 18.4186 33.0084 18.4186 33.0084Z" fill="#964B00"/>
<path d="M48.5503 43.1413C48.5503 43.1413 48.9109 42.5901 49.5806 41.6422C49.7403 41.4001 49.9361 41.1271 50.0958 40.8489C50.2555 40.5707 50.4564 40.2307 50.6573 39.8856L51.2858 38.7935L51.4558 38.505L51.6103 38.2011C51.7133 37.9881 51.8215 37.7718 51.9348 37.552C52.3624 36.6659 52.8982 35.718 53.2948 34.6826L53.9542 33.1062C54.1654 32.5911 54.3354 31.9884 54.5312 31.4114C54.9228 30.2277 55.2512 29.024 55.5151 27.8054C55.7517 26.5446 55.9031 25.2693 55.9684 23.9881L56.0251 23.0248L55.9839 22.0615C55.9809 21.425 55.9309 20.7897 55.8345 20.1606C55.681 18.9373 55.4172 17.7303 55.0463 16.5545C54.8351 15.9879 54.6394 15.4264 54.4282 14.8855C54.2169 14.3446 53.913 13.8552 53.6812 13.34C53.1711 12.4285 52.5925 11.5571 51.9503 10.7334L51.5124 10.1667C51.3682 9.98125 51.1982 9.83186 51.0539 9.65156L50.2142 8.71399C49.6218 8.19884 49.1067 7.7146 48.6688 7.354C47.7364 6.67916 47.2109 6.27734 47.2109 6.27734C47.2109 6.27734 47.7828 6.60189 48.7564 7.18915C49.2355 7.51885 49.7867 7.94127 50.4512 8.43066L51.4145 9.29611C51.5794 9.45065 51.7648 9.60004 51.9297 9.78035L52.4139 10.3316C53.1421 11.1299 53.7973 11.9919 54.3715 12.9073C54.6497 13.4224 54.933 13.9376 55.2266 14.4527C55.5203 14.9679 55.7006 15.5912 55.9427 16.1733C56.3805 17.4011 56.6946 18.6695 56.8803 19.9597C56.9957 20.6199 57.0594 21.2882 57.0709 21.9584L57.1275 22.9887L57.0863 24.019C57.0201 25.3574 56.8618 26.6897 56.6124 28.0063C56.3318 29.2697 55.9757 30.5151 55.546 31.7359C55.3245 32.3232 55.1494 32.9156 54.9072 33.4668C54.6651 34.018 54.3921 34.559 54.1654 35.0844C53.7177 36.0571 53.2173 37.0047 52.6664 37.9229C52.5427 38.1341 52.4242 38.3453 52.3109 38.5513L52.1306 38.8707L51.9348 39.1592L51.2033 40.2307C50.9767 40.5707 50.7603 40.885 50.5645 41.1734C50.3688 41.4619 50.1473 41.6886 49.967 41.9256C49.2406 42.8219 48.813 43.3268 48.813 43.3268L48.5503 43.1413Z" fill="#964B00"/>
<path d="M15.7364 13.8604C15.7364 13.8604 15.6024 14.2931 15.3448 15.0452L14.8812 16.3949C14.7009 16.91 14.5464 17.5179 14.3352 18.1567C14.239 18.4795 14.136 18.8229 14.0261 19.187C13.9333 19.5373 13.8406 19.903 13.7427 20.2739L13.4388 21.4176C13.3461 21.8091 13.2688 22.216 13.1812 22.623C13.0937 23.03 12.9958 23.4472 12.9237 23.8697L12.7382 25.1575C12.6619 25.5901 12.6137 26.0272 12.594 26.466C12.594 26.9039 12.5012 27.3418 12.5064 27.7848C12.5115 28.2278 12.5064 28.6657 12.5064 29.1036C12.5064 29.5414 12.5682 29.969 12.594 30.4017C12.6276 30.8267 12.6826 31.2496 12.7588 31.669C12.7949 31.8751 12.8258 32.0863 12.8567 32.2872C12.8876 32.4881 12.9546 32.6942 13.0061 32.8899C13.1869 33.6568 13.4192 34.4106 13.7015 35.1462C13.8458 35.4966 13.9849 35.8365 14.124 36.1765L14.5721 37.1038C14.7061 37.4077 14.8709 37.6808 15.0152 37.9487C15.1594 38.2165 15.2985 38.4638 15.4324 38.7008C15.7158 39.1696 15.9476 39.5765 16.1691 39.9062C16.5967 40.5656 16.8285 40.9365 16.8285 40.9365L16.3442 41.292C16.3442 41.292 16.0558 40.9417 15.5664 40.3132C15.3242 39.9938 15.0512 39.5971 14.7164 39.1438C14.3815 38.6905 14.0467 38.1599 13.7118 37.552L13.1967 36.599L12.7176 35.5687C12.3877 34.7946 12.1207 33.9953 11.9191 33.1784C11.8676 32.9672 11.8109 32.756 11.7543 32.5396L11.6461 31.8802C11.555 31.4333 11.4948 30.9806 11.4658 30.5254C11.4658 30.072 11.3937 29.6084 11.3885 29.1448C11.3834 28.6811 11.3885 28.2227 11.4143 27.759C11.44 27.2954 11.507 26.8369 11.5482 26.3784C11.5879 25.9238 11.6515 25.4716 11.7388 25.0236C11.8264 24.5806 11.9088 24.1375 11.9912 23.7048C12.0737 23.2721 12.2128 22.8497 12.3209 22.4376C12.4291 22.0254 12.527 21.6133 12.6558 21.2218L13.0473 20.0782C13.1761 19.7073 13.2997 19.3467 13.4233 19.0015C13.547 18.6564 13.7015 18.3318 13.8303 18.0124C14.093 17.384 14.3455 16.8018 14.567 16.3073C14.7885 15.8128 15.0203 15.38 15.1903 15.0194C15.5252 14.2622 15.7364 13.8604 15.7364 13.8604Z" fill="#964B00"/>
<path d="M20.7734 53.5889C20.7734 53.5889 22.3189 59.8325 24.5237 64.407" stroke="#964B00" stroke-width="2.15" stroke-miterlimit="10"/>
<path d="M57.678 33.75C57.678 33.75 57.7604 34.3321 57.7913 35.3573C57.7913 35.8724 57.7913 36.5009 57.7913 37.2169C57.7913 37.933 57.6986 38.7624 57.5801 39.6227C57.4585 40.5721 57.2866 41.5145 57.065 42.4457C56.8206 43.4949 56.5091 44.5273 56.1325 45.5366C55.7397 46.6189 55.2608 47.668 54.7004 48.6738C54.4119 49.189 54.1132 49.7041 53.7732 50.2193C53.4332 50.7344 53.0829 51.1981 52.7429 51.6771C52.4029 52.1562 51.9598 52.5889 51.5529 53.0268C51.1459 53.4647 50.7183 53.8871 50.2496 54.2477L49.5747 54.8195C49.3532 55.005 49.1008 55.1595 48.869 55.3347L48.158 55.8498L47.4265 56.2826C47.1844 56.4216 46.9526 56.571 46.7053 56.6998L45.9687 57.0553L45.2475 57.3953L44.5211 57.6735C43.6264 58.0234 42.709 58.3125 41.7754 58.5389C40.9048 58.7089 40.1166 58.9098 39.3954 58.9716C38.6742 59.0334 38.0612 59.1468 37.546 59.1519L35.9336 59.2086L37.5202 58.9356C38.0354 58.8686 38.6278 58.6986 39.3181 58.5544C40.0084 58.4101 40.7657 58.1525 41.6054 57.9259C42.0175 57.7919 42.4348 57.6219 42.8726 57.4622C43.3255 57.3032 43.7692 57.1192 44.2017 56.911L44.8817 56.6071L45.5566 56.2413L46.2469 55.8704C46.4735 55.7417 46.695 55.5871 46.9217 55.448L47.6017 55.0153L48.2559 54.5001C48.7041 54.1808 49.1214 53.815 49.5438 53.4699C49.9662 53.1247 50.3526 52.6868 50.7647 52.3005C51.1768 51.9141 51.522 51.4556 51.8774 51.0126C52.2329 50.5696 52.5883 50.1214 52.9077 49.6372C53.2271 49.1529 53.5207 48.6893 53.8041 48.1999C54.0874 47.7105 54.3192 47.216 54.5922 46.7266C54.8653 46.2372 55.0713 45.7375 55.2619 45.2326C55.6792 44.2436 56.0089 43.2493 56.2922 42.3014C56.5756 41.3536 56.8074 40.4418 56.9774 39.5866C57.2646 38.2118 57.4761 36.8222 57.611 35.4242C57.6677 34.3373 57.678 33.75 57.678 33.75Z" fill="#964B00"/>
<path d="M1.12055 14.2316C1.12055 14.2316 1.17206 14.8858 1.306 16.0192C1.36782 16.5858 1.45539 17.2761 1.59448 18.0798C1.73711 18.9383 1.95959 19.7817 2.25902 20.5988C2.3408 20.8077 2.44624 21.0064 2.57326 21.1913C2.61343 21.2621 2.66742 21.3241 2.73202 21.3737C2.79662 21.4232 2.87051 21.4593 2.94932 21.4797C2.97658 21.4847 3.00449 21.4847 3.03175 21.4797V21.4797L3.12962 21.4437C3.1916 21.4003 3.24861 21.3502 3.29962 21.2943C3.45574 21.1131 3.58737 20.9122 3.69114 20.6967C4.17694 19.6391 4.57494 18.5433 4.88113 17.4204C5.22112 16.2561 5.54052 15.0301 5.91142 13.8143C6.28233 12.5986 6.66354 11.3159 7.10656 10.0744C7.54532 8.82932 8.06147 7.61291 8.65201 6.43227C9.24021 5.25798 10.0027 4.17942 10.9135 3.2332C11.7949 2.29707 12.9684 1.68851 14.2414 1.50746C14.5336 1.47303 14.8281 1.46098 15.1223 1.4714C15.3901 1.4714 15.6683 1.4714 15.9465 1.50231C16.4655 1.53796 16.9817 1.60678 17.4919 1.70837C18.4043 1.87584 19.2777 2.21121 20.0677 2.69745C20.673 3.07383 21.1882 3.57855 21.5771 4.17593C21.8193 4.55683 21.9937 4.9769 22.0922 5.41743C22.1298 5.56938 22.1522 5.72469 22.1592 5.88106C22.1332 5.72789 22.0917 5.57774 22.0355 5.43289C21.8866 5.02194 21.6727 4.63756 21.4019 4.29441C20.9842 3.76944 20.4567 3.34219 19.8565 3.0426C19.0788 2.66445 18.2428 2.4206 17.3838 2.32139C16.3725 2.20102 15.3505 2.20102 14.3392 2.32139C13.2719 2.54371 12.3061 3.10798 11.5883 3.92865C10.7827 4.82966 10.1097 5.84094 9.58958 6.93197C9.02283 8.07587 8.52902 9.25447 8.1111 10.4607C7.66807 11.6765 7.27141 12.9128 6.9005 14.1389C6.5296 15.3649 6.15354 16.5755 5.77748 17.7449C5.43742 18.9056 4.9854 20.0304 4.4278 21.1037C4.2771 21.3797 4.08805 21.6329 3.86628 21.8558C3.72864 21.9958 3.56386 22.1062 3.38204 22.1803L3.28417 22.2112C3.22851 22.2276 3.17168 22.2397 3.11417 22.2473C3.00999 22.2627 2.90411 22.2627 2.79993 22.2473C2.6267 22.2015 2.46468 22.1208 2.32382 22.01C2.18296 21.8993 2.06624 21.7609 1.98084 21.6034C1.83679 21.3677 1.72258 21.1151 1.64085 20.8513C1.37699 19.9749 1.21621 19.0707 1.16176 18.157C1.09994 17.3586 1.07934 16.658 1.06903 16.0964C1.05873 15.5349 1.06903 15.0661 1.06903 14.7674C1.06903 14.4686 1.12055 14.2316 1.12055 14.2316Z" fill="#964B00"/>
<path d="M70.0787 14.5095C70.0787 14.5095 70.0787 14.6744 70.1405 14.9886C70.2023 15.3029 70.2332 15.7613 70.2641 16.3486C70.295 16.9359 70.326 17.6519 70.295 18.4762C70.2888 19.4249 70.1144 20.365 69.7799 21.2528C69.663 21.5225 69.5029 21.7713 69.306 21.9895C69.0681 22.2371 68.7545 22.3984 68.4148 22.448C68.2446 22.4809 68.0697 22.4809 67.8996 22.448C67.7989 22.4205 67.702 22.3807 67.6111 22.3295C67.5327 22.2829 67.4586 22.2294 67.3896 22.1698C67.1493 21.9474 66.9459 21.6884 66.7869 21.4022C66.2141 20.306 65.7533 19.1548 65.4114 17.9662C64.6336 15.5604 63.9433 12.9795 63.0418 10.4862C62.607 9.25132 62.0907 8.04666 61.4963 6.88019C60.9639 5.77003 60.2521 4.7553 59.3894 3.87687C58.6271 3.09161 57.5882 2.63504 56.4942 2.60446C55.4641 2.60073 54.4411 2.77501 53.4703 3.11961C52.648 3.4245 51.878 3.85551 51.1882 4.39717C50.6491 4.81912 50.1599 5.30134 49.7303 5.83444C49.4517 6.17832 49.1953 6.53966 48.9628 6.91625C48.8082 7.17897 48.7413 7.32321 48.7413 7.32321L48.4219 7.18927C48.4219 7.18927 48.4837 7.01928 48.6228 6.73079C48.8293 6.31403 49.0688 5.91438 49.3388 5.53565C49.7549 4.94048 50.239 4.39589 50.7813 3.91293C51.4891 3.26683 52.3006 2.74439 53.1818 2.36749C54.2291 1.9255 55.348 1.67763 56.4839 1.63598C57.829 1.62293 59.1249 2.14129 60.09 3.0784C61.0626 4.02241 61.8674 5.12512 62.4699 6.33928C63.0823 7.55061 63.6124 8.80182 64.0566 10.0844C64.9478 12.6601 65.602 15.2359 66.2769 17.6622C66.5692 18.8027 66.9587 19.9161 67.4411 20.9901C67.5485 21.2068 67.6874 21.4065 67.8532 21.5825C67.8861 21.6134 67.9205 21.6426 67.9563 21.6701C67.9923 21.6701 67.9563 21.6701 68.049 21.7164C68.1408 21.7352 68.2354 21.7352 68.3272 21.7164C68.5302 21.6792 68.7201 21.5899 68.8782 21.4571C69.0362 21.3243 69.157 21.1527 69.2287 20.9592C69.5882 20.1422 69.8126 19.2723 69.8932 18.3834C69.9963 17.5798 70.0323 16.8741 70.0529 16.2868C70.1044 15.1792 70.0787 14.5095 70.0787 14.5095Z" fill="#964B00"/>
<path d="M18.5898 16.5909C18.6573 16.4338 18.7402 16.2837 18.8371 16.1428C19.0838 15.7542 19.3897 15.4065 19.7438 15.1125C19.9843 14.9115 20.2471 14.7387 20.5268 14.5973C20.6809 14.5171 20.8391 14.4449 21.0007 14.381C21.1656 14.314 21.3459 14.2728 21.5159 14.2161C21.6859 14.1594 21.8868 14.1491 22.0774 14.1182C22.268 14.0873 22.4689 14.1182 22.6698 14.1182L23.2622 14.18C23.458 14.211 23.6486 14.2676 23.8443 14.314H23.9165H23.9525H23.9989L24.1277 14.3655L24.375 14.4634C24.5544 14.5369 24.7268 14.6266 24.8901 14.7313C25.0744 14.8242 25.2473 14.9383 25.4052 15.0713C25.5609 15.1848 25.7042 15.3143 25.8328 15.4576C26.0813 15.7221 26.2912 16.0204 26.4561 16.3437C26.6039 16.6235 26.7147 16.9214 26.7858 17.2297C26.8483 17.4829 26.8846 17.7418 26.894 18.0024C26.9106 18.2013 26.9106 18.4012 26.894 18.6C26.8798 18.7747 26.8469 18.9474 26.7961 19.1152C26.7961 19.1152 26.7601 18.9349 26.6725 18.6309C26.6313 18.4815 26.5643 18.3012 26.4974 18.1158C26.4304 17.9303 26.3171 17.7037 26.2037 17.477C26.0742 17.2446 25.9296 17.0209 25.771 16.8073C25.5914 16.583 25.3895 16.3776 25.1683 16.1943C24.9396 16.0035 24.6888 15.8409 24.4213 15.71C24.284 15.634 24.141 15.5686 23.9937 15.5143L23.7413 15.4216L23.6177 15.37C23.6177 15.37 23.6744 15.37 23.6486 15.37H23.6177H23.561C23.4065 15.3288 23.2519 15.2825 23.0974 15.2516L22.6338 15.1794H22.1701H21.7219C21.4325 15.2166 21.1466 15.2769 20.8668 15.3597C20.6089 15.4408 20.356 15.5371 20.1095 15.6482C19.7299 15.8313 19.3648 16.0432 19.0174 16.2818C18.7341 16.4725 18.5898 16.5909 18.5898 16.5909Z" fill="#964B00"/>
<path d="M46.4334 16.5903C46.4334 16.5903 46.2892 16.4719 46.0316 16.2915C45.6835 16.054 45.3185 15.8422 44.9395 15.6579C44.693 15.5468 44.4401 15.4505 44.1822 15.3694C43.9024 15.2866 43.6165 15.2263 43.3271 15.1891H42.8789H42.4153L41.9516 15.2613C41.7971 15.2922 41.6425 15.3385 41.488 15.3797H41.4313H41.4004C41.3747 15.3797 41.4365 15.3797 41.4313 15.3797L41.3077 15.4313L41.0553 15.524C40.9075 15.5772 40.7645 15.6427 40.6277 15.7197C40.3602 15.8506 40.1094 16.0132 39.8807 16.204C39.6595 16.3873 39.4576 16.5927 39.278 16.817C39.1194 17.0306 38.9748 17.2543 38.8453 17.4867C38.7319 17.7134 38.6289 17.9246 38.5516 18.1255C38.4744 18.3264 38.4177 18.5015 38.3765 18.6406C38.2889 18.9446 38.2529 19.1249 38.2529 19.1249C38.2021 18.9571 38.1693 18.7844 38.155 18.6097C38.1384 18.4109 38.1384 18.211 38.155 18.0121C38.1618 17.7513 38.1981 17.4921 38.2632 17.2394C38.3343 16.9311 38.4451 16.6332 38.5929 16.3534C38.7578 16.0301 38.9677 15.7318 39.2162 15.4673C39.3448 15.324 39.4881 15.1945 39.6438 15.081C39.8017 14.948 39.9746 14.8339 40.1589 14.741C40.3222 14.6363 40.4946 14.5466 40.674 14.4731L40.9213 14.3752L41.0501 14.3237H41.0965H41.1325H41.2047C41.4004 14.2773 41.591 14.2207 41.7868 14.1897L42.3792 14.1279C42.5801 14.1279 42.7759 14.1279 42.9716 14.1279C43.1674 14.1279 43.3528 14.1846 43.5331 14.2258C43.7134 14.267 43.8937 14.3237 44.0483 14.3907C44.2099 14.4546 44.3681 14.5268 44.5222 14.607C44.802 14.7484 45.0647 14.9212 45.3052 15.1222C45.6593 15.4162 45.9652 15.7639 46.2119 16.1525C46.301 16.2902 46.3753 16.4369 46.4334 16.5903V16.5903Z" fill="#964B00"/>
<path d="M21.9024 23.9678C23.433 23.9678 24.6739 22.727 24.6739 21.1963C24.6739 19.6656 23.433 18.4248 21.9024 18.4248C20.3717 18.4248 19.1309 19.6656 19.1309 21.1963C19.1309 22.727 20.3717 23.9678 21.9024 23.9678Z" fill="#4C2400"/>
<path d="M20.0532 20.3565C20.0583 20.5542 20.1216 20.746 20.2353 20.9079C20.3489 21.0698 20.5078 21.1945 20.692 21.2664C20.8763 21.3384 21.0777 21.3543 21.2709 21.3123C21.4642 21.2703 21.6408 21.1721 21.7785 21.0301C21.9162 20.8882 22.0089 20.7087 22.0451 20.5142C22.0812 20.3198 22.0591 20.119 21.9816 19.937C21.9041 19.7551 21.7746 19.6 21.6093 19.4914C21.444 19.3827 21.2504 19.3252 21.0526 19.3262C20.9187 19.3261 20.7862 19.353 20.6629 19.4051C20.5396 19.4572 20.428 19.5336 20.3348 19.6297C20.2416 19.7258 20.1686 19.8397 20.1202 19.9645C20.0719 20.0894 20.0491 20.2227 20.0532 20.3565V20.3565Z" fill="white"/>
<path d="M42.8379 23.9678C44.3686 23.9678 45.6094 22.727 45.6094 21.1963C45.6094 19.6656 44.3686 18.4248 42.8379 18.4248C41.3072 18.4248 40.0664 19.6656 40.0664 21.1963C40.0664 22.727 41.3072 23.9678 42.8379 23.9678Z" fill="#4C2400"/>
<path d="M40.9888 20.3565C40.9938 20.554 41.057 20.7456 41.1704 20.9074C41.2838 21.0692 41.4424 21.1939 41.6264 21.266C41.8103 21.3381 42.0115 21.3543 42.2046 21.3127C42.3977 21.2711 42.5743 21.1735 42.7122 21.032C42.8501 20.8905 42.9433 20.7115 42.98 20.5174C43.0167 20.3233 42.9954 20.1227 42.9187 19.9406C42.8419 19.7585 42.7132 19.6031 42.5486 19.4939C42.384 19.3846 42.1909 19.3263 41.9933 19.3262C41.859 19.3254 41.7259 19.3518 41.602 19.4036C41.4781 19.4554 41.3659 19.5317 41.2721 19.6279C41.1783 19.7241 41.1049 19.8381 41.0562 19.9633C41.0076 20.0885 40.9846 20.2222 40.9888 20.3565V20.3565Z" fill="white"/>
<path d="M29.0515 46.5107L24.3379 50.9513C24.3379 50.9513 24.6006 59.2709 29.886 59.1937C35.7124 59.1009 35.7124 50.7761 35.7124 50.7761L31.2718 46.4283L30.6278 46.1553L29.0515 46.5107Z" fill="#EA7878"/>
<path d="M29.7938 46.0523C29.6258 45.7231 29.4912 45.3779 29.3919 45.022C28.9504 43.5381 28.8206 41.9788 29.0107 40.4423C29.0522 40.0805 29.1281 39.7234 29.2374 39.376C29.4058 39.7055 29.5421 40.0506 29.6444 40.4063C29.8692 41.1437 30.0109 41.904 30.0668 42.6729C30.1375 43.4431 30.1237 44.2187 30.0256 44.9859C29.9811 45.3477 29.9035 45.7047 29.7938 46.0523V46.0523Z" fill="#964B00"/>
<path d="M19.5268 49.7504C19.5268 49.7504 19.5268 49.874 19.5732 50.1007C19.6323 50.4278 19.7167 50.7499 19.8256 51.064C19.9541 51.5239 20.2524 51.9179 20.6601 52.1664C20.9058 52.2489 21.1717 52.2489 21.4174 52.1664C21.7311 52.0521 22.0289 51.898 22.3034 51.708C23.6418 50.7213 24.8946 49.6236 26.0486 48.4265C26.708 47.7825 27.3622 47.0922 28.0422 46.4019L28.5573 45.8868C28.7778 45.6091 29.0809 45.4088 29.4228 45.315C29.7745 45.2627 30.1337 45.3184 30.4531 45.4747C30.71 45.5955 30.955 45.7404 31.1846 45.9074C31.9739 46.5376 32.7239 47.2155 33.4306 47.9371C34.1312 48.6068 34.7958 49.2765 35.4912 49.8586C36.1332 50.4237 36.8344 50.9177 37.5827 51.3319C38.2109 51.6769 38.9333 51.8105 39.6433 51.7131C40.2599 51.5688 40.8381 51.2929 41.3382 50.9043C41.7382 50.59 42.1137 50.2456 42.4612 49.874C42.7548 49.5598 42.9763 49.3022 43.1206 49.1219L43.3472 48.8437L43.1721 49.1528C43.0157 49.4485 42.8437 49.7356 42.6569 50.0131C42.355 50.4534 42.0098 50.8624 41.6266 51.234C41.1172 51.7463 40.4916 52.1281 39.803 52.3467C39.3876 52.4518 38.9575 52.4866 38.5306 52.4498C38.0811 52.3926 37.6422 52.2712 37.2273 52.0892C36.3818 51.7038 35.589 51.2122 34.8679 50.6262C34.1209 50.0389 33.3894 49.3949 32.6837 48.7201C32.004 48.0446 31.285 47.4099 30.5304 46.8192C30.2752 46.5869 29.9554 46.4378 29.6134 46.3916C29.6134 46.3916 29.4898 46.4535 29.2992 46.6595L28.784 47.1747C28.0937 47.865 27.388 48.5243 26.7234 49.1528C26.0589 49.7813 25.3428 50.3686 24.6628 50.8992C24.0266 51.4146 23.3476 51.8747 22.6331 52.2746C22.4662 52.3683 22.2943 52.4525 22.118 52.527C21.951 52.5972 21.7788 52.6541 21.6028 52.697C21.2261 52.7863 20.8299 52.7388 20.485 52.5631C20.2538 52.3961 20.0589 52.184 19.9119 51.9397C19.765 51.6953 19.669 51.4237 19.6298 51.1413C19.5616 50.8022 19.5288 50.4569 19.532 50.111C19.5165 49.874 19.5268 49.7504 19.5268 49.7504Z" fill="#964B00"/>
<path d="M21.748 36.1509C21.7553 36.0712 21.7673 35.9921 21.7841 35.9139C21.8278 35.6899 21.8934 35.4708 21.9799 35.2597C22.1152 34.9236 22.288 34.6039 22.495 34.3066C22.6135 34.1315 22.7474 33.9563 22.8968 33.7915C23.0599 33.6114 23.2319 33.4394 23.412 33.2763C23.8281 32.9 24.2902 32.5781 24.7874 32.3182C25.0537 32.1671 25.331 32.0363 25.6168 31.9266C25.9082 31.7974 26.2097 31.6923 26.5183 31.6124C27.1551 31.4247 27.8065 31.2903 28.4656 31.2106L29.4959 31.123C29.5473 31.1191 29.599 31.1191 29.6504 31.123H30.521C30.8658 31.1241 31.2102 31.1499 31.5513 31.2003C31.8987 31.2297 32.2432 31.2866 32.5816 31.3703C33.2372 31.5052 33.8763 31.7108 34.4877 31.9833C35.061 32.2289 35.6066 32.5345 36.1155 32.8951C36.5717 33.2105 36.9977 33.5675 37.3879 33.9615C37.9702 34.5414 38.4679 35.2004 38.8664 35.919C39.019 36.1848 39.1466 36.4642 39.2476 36.7536C39.0742 36.5061 38.8867 36.2687 38.6861 36.0427C38.1673 35.4528 37.5909 34.9161 36.9655 34.4406C36.5546 34.1319 36.1244 33.8497 35.6776 33.5957C35.1799 33.3241 34.6634 33.0883 34.1322 32.89C33.5627 32.6843 32.9768 32.5275 32.3807 32.4212C32.081 32.3514 31.776 32.3066 31.4689 32.2872C31.1548 32.2441 30.838 32.2251 30.521 32.2306H30.0059H29.5422L28.5944 32.2924C27.9862 32.348 27.3822 32.4426 26.7862 32.5757C26.5018 32.6336 26.2214 32.7093 25.9465 32.8024C25.6792 32.8764 25.4175 32.9694 25.1635 33.0806C24.9231 33.1578 24.6875 33.2489 24.4577 33.3536C24.2376 33.4632 24.0258 33.5889 23.8241 33.7297C23.4666 33.9732 23.1336 34.251 22.8299 34.5591C22.5956 34.8037 22.3819 35.0673 22.1911 35.3472C22.0111 35.596 21.8623 35.8659 21.748 36.1509V36.1509Z" fill="#964B00"/>
<path d="M29.9799 34.0285C29.9799 34.0285 24.8902 33.8431 23.4118 36.5218C21.9333 39.2006 28.4087 42.7036 29.4235 42.9045C30.4384 43.1054 33.5447 41.6373 35.8989 37.82C37.3774 35.4143 31.5511 33.9358 29.9799 34.0285Z" fill="#964B00"/>
<path d="M24.1836 39.4633C24.1836 39.4633 26.4142 42.0699 27.563 41.1117C29.1908 39.7466 28.0781 36.8154 26.0175 36.5578C23.9569 36.3002 26.2081 39.7105 27.4445 39.9836C28.6808 40.2566 26.8212 42.3378 24.1836 39.4633Z" fill="#4C2400"/>
<path d="M34.7024 39.4633C34.7024 39.4633 32.4666 42.0699 31.3178 41.1117C29.69 39.7466 30.8027 36.8154 32.8633 36.5578C34.9239 36.3002 32.6727 39.7105 31.4415 39.9836C30.2103 40.2566 32.0648 42.3378 34.7024 39.4633Z" fill="#4C2400"/>
<path d="M23.5803 71.6956C23.5803 71.6956 35.3565 77.661 53.3816 69.2847C71.4066 60.9084 72.8232 53.3924 72.8232 53.3924L69.7014 43.1719C69.7014 43.1719 58.7752 60.656 21.5918 62.0469L23.5803 71.6956Z" fill="#74E0E8"/>
<path d="M39.8692 59.7705C33.8592 61.0867 27.7411 61.8489 21.5918 62.0475L23.5803 71.6962C23.5803 71.6962 33.9708 76.9558 50.167 70.6659C45.9428 67.7192 42.2904 64.0617 39.8692 59.7705Z" fill="#5BD1D3"/>
<path d="M144.368 179.089L144.033 179.305C143.822 179.444 143.518 179.656 143.189 179.918C142.802 180.201 142.455 180.536 142.158 180.912C142.005 181.105 141.899 181.331 141.849 181.572C141.803 181.805 141.846 182.048 141.968 182.252C142.033 182.363 142.109 182.469 142.194 182.566L142.318 182.7L142.488 182.839C142.693 183 142.918 183.133 143.158 183.236C143.603 183.427 144.07 183.562 144.549 183.638C144.889 183.702 145.233 183.743 145.579 183.761C145.831 183.761 145.981 183.761 145.981 183.761C145.498 183.846 145.007 183.873 144.518 183.844C144.007 183.822 143.501 183.724 143.019 183.555C142.88 183.509 142.751 183.442 142.617 183.385C142.481 183.311 142.35 183.229 142.225 183.138L142.055 183.009C141.978 182.947 141.937 182.901 141.875 182.844C141.757 182.73 141.657 182.6 141.576 182.458C141.392 182.165 141.327 181.813 141.396 181.474C141.46 181.164 141.602 180.875 141.808 180.634C142.147 180.241 142.551 179.91 143.003 179.656C143.434 179.412 143.892 179.222 144.368 179.089V179.089Z" fill="#964B00"/>
<path d="M145.661 180.49C145.661 180.49 145.517 180.634 145.285 180.907C144.968 181.269 144.71 181.679 144.523 182.123C144.465 182.253 144.435 182.395 144.435 182.537C144.435 182.68 144.465 182.821 144.523 182.952C144.698 183.225 144.967 183.425 145.28 183.514C145.629 183.635 145.993 183.709 146.362 183.735C146.749 183.757 147.137 183.738 147.521 183.678C148.965 183.449 150.305 182.786 151.364 181.778C151.717 181.441 152.036 181.07 152.317 180.67C152.518 180.381 152.626 180.201 152.626 180.201L152.564 180.34C152.513 180.469 152.455 180.595 152.389 180.716C152.306 180.876 152.198 181.067 152.064 181.278C151.909 181.515 151.737 181.74 151.549 181.953C150.525 183.127 149.118 183.901 147.577 184.137C146.746 184.281 145.892 184.197 145.105 183.895C144.908 183.828 144.726 183.723 144.569 183.586C144.413 183.449 144.285 183.283 144.193 183.096C144.13 182.92 144.105 182.733 144.119 182.547C144.133 182.36 144.186 182.179 144.275 182.014C144.51 181.565 144.83 181.166 145.218 180.84C145.358 180.713 145.506 180.596 145.661 180.49Z" fill="#964B00"/>
<path d="M195.583 74.7559C196.804 75.3586 198.035 75.9356 199.287 76.4919C203.759 62.2944 190.73 55.1133 190.73 55.1133C196.984 61.7741 197.711 68.7698 195.583 74.7559Z" fill="white"/>
<path d="M177.23 181.922C177.23 181.922 177.296 182.149 177.43 182.53C177.564 182.911 177.755 183.457 178.023 184.075C178.157 184.384 178.316 184.709 178.492 185.044C178.68 185.383 178.89 185.71 179.12 186.022C179.233 186.182 179.378 186.321 179.506 186.471C179.635 186.62 179.795 186.733 179.944 186.852C180.25 187.081 180.601 187.241 180.975 187.321L181.253 187.382C181.354 187.389 181.456 187.389 181.557 187.382C181.708 187.382 181.858 187.356 182 187.305C182.144 187.249 182.275 187.165 182.386 187.057C182.497 186.949 182.584 186.82 182.644 186.677C182.791 186.349 182.891 186.002 182.942 185.646C182.991 185.295 183.02 184.94 183.03 184.585C183.03 183.91 183.03 183.339 183.004 182.932L182.968 182.293C183.062 182.486 183.147 182.684 183.221 182.885C183.423 183.421 183.573 183.974 183.669 184.539C183.738 184.925 183.77 185.316 183.767 185.708C183.779 186.175 183.704 186.64 183.545 187.079C183.452 187.354 183.301 187.606 183.105 187.82C182.908 188.034 182.668 188.204 182.402 188.32C182.119 188.436 181.816 188.495 181.51 188.495C181.371 188.495 181.315 188.495 181.124 188.495L180.727 188.413C180.202 188.289 179.711 188.049 179.29 187.712C179.097 187.555 178.916 187.382 178.749 187.197C178.605 187.001 178.445 186.811 178.322 186.615C177.891 185.901 177.586 185.119 177.42 184.302C177.343 183.957 177.302 183.632 177.266 183.344C177.23 183.055 177.224 182.829 177.219 182.607C177.208 182.379 177.212 182.15 177.23 181.922V181.922Z" fill="#964B00"/>
<path d="M63.3824 184.684L62.5788 186.013C62.3469 186.409 62.0636 186.873 61.8163 187.373C61.5413 187.888 61.307 188.423 61.1157 188.975C61.026 189.244 60.9672 189.522 60.9406 189.804C60.9255 189.939 60.9255 190.076 60.9406 190.211C60.9473 190.352 60.9662 190.491 60.9973 190.628C61.0381 190.884 61.1126 191.134 61.2188 191.37C61.307 191.587 61.4268 191.791 61.5742 191.973C61.7917 192.259 62.0673 192.496 62.383 192.668C62.5051 192.742 62.6346 192.802 62.7694 192.849C62.6256 192.833 62.484 192.802 62.3469 192.756C62.1882 192.703 62.0348 192.636 61.8885 192.555C61.4566 192.313 61.1 191.957 60.8582 191.525C60.7145 191.267 60.6037 190.991 60.5285 190.706C60.4863 190.559 60.4553 190.409 60.4357 190.257C60.4081 190.096 60.3944 189.932 60.3945 189.768C60.402 189.439 60.4576 189.113 60.5594 188.8C60.7469 188.205 61.0101 187.637 61.3424 187.11C61.6382 186.663 61.9653 186.238 62.3212 185.838C62.6454 185.427 63.0002 185.041 63.3824 184.684V184.684Z" fill="#964B00"/>
<path d="M64.8238 187.718L64.592 188.027C64.4426 188.217 64.2468 188.506 64.0099 188.841C63.7431 189.22 63.4972 189.614 63.2732 190.02C63.0142 190.456 62.8395 190.937 62.758 191.437C62.7224 191.665 62.7491 191.898 62.8353 192.112C62.879 192.213 62.9344 192.308 63.0002 192.395L63.1032 192.519L63.2526 192.648C63.4229 192.809 63.6093 192.952 63.8089 193.075C63.987 193.182 64.1772 193.267 64.3756 193.328C64.682 193.424 65.0071 193.445 65.3235 193.39C65.4474 193.367 65.5683 193.331 65.6841 193.281C65.5857 193.367 65.4744 193.436 65.3544 193.487C65.2143 193.548 65.0672 193.591 64.9165 193.616C64.7168 193.648 64.5135 193.648 64.3138 193.616C64.075 193.584 63.8423 193.516 63.6235 193.415C63.3816 193.305 63.1534 193.167 62.9435 193.003L62.789 192.88L62.6138 192.71C62.5071 192.59 62.417 192.457 62.3459 192.313C62.219 192.014 62.171 191.688 62.2068 191.365C62.2943 190.786 62.5128 190.234 62.8456 189.753C63.109 189.344 63.4146 188.964 63.7574 188.619C64.0846 188.287 64.4415 187.985 64.8238 187.718V187.718Z" fill="#964B00"/>
<path d="M66.4887 188.872C66.4887 188.872 66.3599 189.124 66.1745 189.567C65.9144 190.174 65.741 190.814 65.6593 191.468C65.5985 191.874 65.6539 192.288 65.819 192.663C65.9127 192.849 66.0485 193.009 66.2157 193.132L66.3393 193.209L66.5093 193.297C66.6104 193.343 66.7156 193.379 66.8236 193.405C67.854 193.588 68.9133 193.525 69.9144 193.22C70.9496 192.95 71.9555 192.579 72.9178 192.112C73.7635 191.707 74.572 191.227 75.3338 190.68C75.8782 190.298 76.3822 189.861 76.838 189.377C77.0194 189.193 77.1914 189.001 77.3532 188.8L77.2501 188.97C77.1832 189.083 77.075 189.248 76.9308 189.444C76.5215 189.985 76.0533 190.479 75.5347 190.917C73.943 192.251 72.0769 193.219 70.069 193.75C69.5197 193.9 68.9573 193.997 68.3896 194.039C67.8246 194.098 67.2536 194.052 66.7051 193.905C66.563 193.865 66.425 193.811 66.293 193.745L66.1281 193.653C66.0405 193.601 65.9993 193.565 65.9375 193.524C65.7137 193.346 65.5368 193.116 65.4224 192.854C65.2492 192.393 65.2152 191.892 65.3245 191.412C65.4725 190.741 65.7319 190.1 66.092 189.516C66.208 189.292 66.3406 189.076 66.4887 188.872V188.872Z" fill="#964B00"/>
</svg>
