<svg width="219" height="139" viewBox="0 0 219 139" fill="none" xmlns="http://www.w3.org/2000/svg">
<path d="M217.213 118.496C217.213 119.483 216.672 120.585 215.328 121.791C213.988 122.994 211.954 124.202 209.241 125.38C203.822 127.734 195.918 129.877 186.076 131.685C166.407 135.298 139.194 137.538 109.107 137.538C79.0191 137.538 51.8058 135.298 32.1372 131.685C22.2948 129.877 14.3915 127.734 8.97249 125.38C6.25925 124.202 4.225 122.994 2.88467 121.791C1.54101 120.585 1 119.483 1 118.496C1 117.509 1.54101 116.407 2.88467 115.201C4.225 113.998 6.25925 112.791 8.97249 111.612C14.3915 109.259 22.2948 107.116 32.1372 105.308C51.8058 101.695 79.0191 99.4541 109.107 99.4541C139.194 99.4541 166.407 101.695 186.076 105.308C195.918 107.116 203.822 109.259 209.241 111.612C211.954 112.791 213.988 113.998 215.328 115.201C216.672 116.407 217.213 117.509 217.213 118.496Z" stroke="#737E85" stroke-width="2"/>
<g opacity="0.4">
<path d="M38.0566 128.4C19.216 125.275 9.79735 121.605 9.80078 117.392C9.80078 114.582 14.6535 111.986 24.3589 109.603C34.0642 107.219 46.8742 105.346 62.7889 103.982C78.7138 102.609 95.5025 101.932 113.155 101.953C139.07 101.953 161.012 103.307 178.98 106.017C196.949 108.727 205.935 112.377 205.938 116.969C205.938 121.456 196.629 125.273 178.079 128.4C159.528 131.527 136.414 133.109 108.735 133.109C80.4739 133.109 56.9145 131.539 38.0566 128.4Z" fill="white"/>
</g>
<g clip-path="url(#clip0_158_4313)">
<path d="M150.607 80.218C151.435 77.0714 152.76 74.5873 153.257 71.9375H129.078V76.7402C130.734 80.0524 136.199 88.1672 149.448 97.607C150.111 98.1038 150.442 98.6006 150.607 99.4287C151.104 101.25 151.601 105.391 148.786 110.856C148.123 112.015 146.964 112.843 145.639 112.843C143.817 113.009 141.499 113.505 141.664 116.155C141.83 119.633 145.473 119.136 150.111 118.805C151.767 118.639 153.257 117.646 153.92 116.155C156.072 111.021 160.875 99.2631 160.544 98.1038C159.882 96.6133 148.786 88.0016 150.607 80.218Z" fill="#292524"/>
<path d="M150.939 103.57C150.773 105.557 150.276 108.041 148.786 110.856C148.123 112.016 146.964 112.844 145.639 112.844C143.818 113.009 141.499 113.506 141.665 116.156C141.83 119.634 145.474 119.137 150.111 118.806C151.767 118.64 153.257 117.646 153.92 116.156C155.741 111.684 159.55 102.741 160.379 99.2637C157.894 102.079 154.582 103.238 150.939 103.57Z" fill="#B2AAA5"/>
<path d="M72.1084 62.6639C71.7772 67.1353 72.274 74.4221 75.4206 86.1804C75.4206 86.1804 80.3889 99.926 79.3952 108.206C79.2296 109.863 77.7391 111.684 75.9174 111.684C72.9365 111.85 70.1211 112.678 70.1211 114.334C70.1211 117.646 72.1084 118.143 76.2486 118.143C79.7264 118.143 81.7138 116.487 82.7074 114.334C83.8667 111.85 84.6947 108.869 86.0196 107.378C88.835 104.232 84.5291 104.397 88.0069 94.7921C91.1535 86.5116 95.2937 62.167 81.7138 57.0331C78.0704 55.5426 72.4396 58.5236 72.1084 62.6639Z" fill="#292524"/>
<path d="M89.9942 88.8301C88.3381 89.8237 86.682 90.4862 84.8603 90.983C81.8794 91.811 79.3952 91.811 77.0767 91.1486C78.4016 95.9513 80.0577 102.907 79.3952 107.875C79.2296 109.531 77.7391 111.353 75.9174 111.353C72.9365 111.519 70.1211 112.347 70.1211 114.003C70.1211 117.315 72.1084 117.812 76.2486 117.812C79.7264 117.812 81.7138 116.156 82.7074 114.003C83.8667 111.519 84.6947 108.538 86.0196 107.047C88.835 103.901 84.5291 104.066 88.0069 94.4608C88.835 93.3015 89.4974 91.1486 89.9942 88.8301Z" fill="#B2AAA5"/>
<path d="M147.296 56.7018C147.296 56.7018 154.417 48.9182 156.073 44.6123C157.067 41.797 156.901 37.8223 155.576 34.8413C153.92 31.1979 150.608 27.3889 145.805 25.5672C143.652 24.7392 144.977 23.0831 147.627 23.4143C154.914 23.9111 159.717 29.7075 161.869 34.6757C163.857 39.4784 163.526 43.453 162.035 48.5869C160.379 54.5489 152.098 63.1606 152.098 63.1606C152.098 63.1606 146.137 64.6511 147.296 56.7018Z" fill="#3A3635"/>
<path d="M61.5094 32.0264C61.5094 32.0264 61.5094 47.2624 61.1782 53.0588C60.847 58.8551 61.1782 61.5049 64.656 70.2822C67.9682 78.397 88.5038 88.9961 94.9626 88.168C111.192 86.0151 120.963 70.779 133.715 77.7346C133.715 77.7346 138.518 88.8304 154.582 100.92C155.079 101.417 155.576 101.914 155.741 102.576C156.238 104.563 156.735 108.704 153.92 114.666C153.257 115.825 152.098 116.653 150.773 116.818C148.951 116.984 146.633 117.647 146.798 120.296C146.964 123.94 150.607 123.277 155.244 123.112C156.901 122.946 158.391 121.952 158.888 120.462C161.041 114.997 165.843 104.232 165.512 101.582C165.015 97.7734 153.754 90.9834 155.741 82.8685C157.729 74.7536 163.359 70.4478 150.276 58.1927C137.193 45.9376 133.881 48.4217 117.651 48.9185C106.555 49.2498 93.3065 50.409 85.026 45.2751C81.217 42.9566 79.2297 37.1603 77.5736 33.1856C77.7392 33.02 67.1402 33.6825 61.5094 32.0264Z" fill="#3A3635"/>
<path d="M73.7649 64.1537C73.7649 59.6823 76.4147 48.4208 73.1025 43.6182C71.7776 44.6118 70.2871 45.6055 68.7967 46.4335C66.975 47.5928 62.3379 49.4145 62.5035 52.2299C62.6691 53.886 63.0003 55.5421 63.0003 57.1981C63.0003 59.6823 62.8347 62.332 62.3379 64.6506C62.8347 66.1411 63.4972 67.9628 64.4908 70.1157C66.4781 74.9184 74.7586 80.7147 82.3766 84.3581C78.5676 78.2306 73.9306 71.275 73.7649 64.1537Z" fill="#D6D2CF"/>
<path d="M123.779 74.4219C118.148 74.9187 112.517 76.4092 107.383 78.7277C102.249 81.0463 97.1155 83.5304 91.6504 83.696C91.9816 84.3584 92.3128 85.0209 92.644 85.6833C92.9753 86.5114 93.1409 87.3394 93.1409 88.0019C93.8033 88.0019 94.4658 88.1675 94.9626 88.0019C108.708 86.1802 117.651 75.2499 127.753 75.7468C126.263 75.0843 124.938 74.4219 123.779 74.4219Z" fill="#D6D2CF"/>
<path d="M156.074 106.881C155.908 109.034 155.411 111.518 153.921 114.665C153.258 115.824 152.099 116.652 150.774 116.818C148.952 116.983 146.634 117.646 146.799 120.295C146.965 123.939 150.608 123.276 155.245 123.111C156.902 122.945 158.392 121.952 158.889 120.461C160.876 115.493 164.851 106.384 165.513 102.575C163.029 104.563 159.717 106.053 156.074 106.881Z" fill="#D6D2CF"/>
<path d="M77.0774 67.6316C76.7462 72.1031 77.243 79.3899 80.3896 91.1482C80.3896 91.1482 83.8674 104.894 82.8737 113.174C82.7081 114.83 81.2176 116.652 79.3959 116.652C76.415 116.818 73.5996 117.646 73.5996 119.302C73.5996 122.614 75.5869 123.111 79.7272 123.111C83.205 123.111 85.1923 121.455 86.1859 119.302C87.3452 116.818 88.1733 113.837 89.4981 112.346C92.3135 109.2 88.0076 109.365 91.4854 99.7599C94.632 91.4794 98.7723 67.1348 85.1923 62.0009C81.5489 60.5104 77.243 63.4914 77.0774 67.6316Z" fill="#3A3635"/>
<path d="M93.804 92.4736C91.3198 93.9641 88.6701 95.4546 86.0203 95.289C84.1986 95.289 82.5425 94.9578 81.052 94.4609C82.0457 99.098 83.5362 107.378 82.8737 113.009C82.7081 114.665 81.2176 116.487 79.3959 116.487C76.415 116.653 73.5996 117.481 73.5996 119.137C73.5996 122.449 75.5869 122.946 79.7272 122.946C83.205 122.946 85.1923 121.29 86.1859 119.137C87.3452 116.653 88.1733 113.672 89.4981 112.181C92.3135 109.035 88.0076 109.2 91.4854 99.5948C92.4791 97.9388 93.1415 95.4546 93.804 92.4736Z" fill="#D6D2CF"/>
<path d="M68.3004 22.5858C68.3004 22.5858 62.5041 16.2926 56.5421 11.6556C52.5675 8.34337 42.2997 -2.58686 40.3124 1.22216C38.4907 5.03118 43.459 20.1017 45.4463 23.0826C47.268 25.898 54.2236 29.5414 61.676 29.8726C69.4597 30.0382 68.3004 22.5858 68.3004 22.5858Z" fill="#3A3635"/>
<path d="M59.1922 21.7579C59.1922 21.7579 46.109 5.85938 45.1153 7.51548C44.1217 9.17157 45.6122 16.2928 47.7651 19.4394C49.7524 22.4203 57.7017 26.5606 59.3578 26.2294C61.0139 25.8981 59.1922 21.7579 59.1922 21.7579Z" fill="#AEA198"/>
<path d="M70.9503 22.2544C70.9503 22.2544 77.0778 18.6109 84.5303 15.2987C89.1673 13.1458 103.244 5.85901 103.907 10.1649C104.569 14.3051 95.2949 27.2226 92.4795 29.5412C89.8298 31.6941 82.2117 33.1846 74.9249 31.1973C67.6381 29.21 70.9503 22.2544 70.9503 22.2544Z" fill="#3A3635"/>
<path d="M79.8941 24.2412C79.8941 24.2412 97.1175 12.8141 97.6144 14.8015C98.1112 16.7888 94.4678 22.9163 91.4868 25.4005C88.8371 27.719 79.8942 29.2095 78.4037 28.3814C76.9132 27.719 79.8941 24.2412 79.8941 24.2412Z" fill="#AEA198"/>
<path d="M77.2424 15.7959C73.1022 14.3055 66.9746 13.643 62.8344 14.8023C55.5476 16.7896 52.7322 28.0511 51.7385 32.0257C50.0824 38.8157 60.3502 50.9052 67.3058 51.8988C74.427 52.8925 86.5165 43.6184 87.0134 33.0193C87.3446 26.7262 83.7012 18.1145 77.2424 15.7959Z" fill="#3A3635"/>
<path d="M60.0198 39.8091C55.8795 42.6245 62.0071 46.4335 63.8288 47.2616C66.1473 48.4208 69.1283 48.9176 71.4468 48.2552C73.5998 47.7584 82.5427 42.7901 77.2432 39.8091C73.5998 37.8218 73.4342 35.0064 70.2876 33.3504C68.3003 32.3567 66.4786 34.0128 65.4849 35.5033C64.3256 37.8218 60.5166 39.4779 60.0198 39.8091Z" fill="#E4DED9"/>
<path d="M75.918 31.5291C75.918 31.5291 78.2365 28.0513 80.555 28.7138C82.8736 29.3762 83.8672 32.3572 83.8672 32.3572C83.8672 32.3572 82.3767 35.5038 80.0582 35.1726C77.9053 34.8413 76.0836 32.854 75.918 31.5291Z" fill="#95959A"/>
<path d="M82.8741 31.8599C82.8741 33.516 81.5492 34.8408 79.8931 34.8408C78.237 34.8408 76.9121 33.516 76.9121 31.8599C76.9121 30.2038 78.237 28.8789 79.8931 28.8789C81.5492 29.0445 82.8741 30.3694 82.8741 31.8599Z" fill="#2E2E38"/>
<path d="M81.3822 31.86C81.3822 32.6881 80.7197 33.1849 80.0573 33.1849C79.2293 33.1849 78.7324 32.5225 78.7324 31.86C78.7324 31.032 79.3949 30.5352 80.0573 30.5352C80.7197 30.5352 81.3822 31.1976 81.3822 31.86Z" fill="#16141F"/>
<path d="M82.542 31.0327C82.542 31.6952 82.0452 32.0264 81.5483 32.0264C80.8859 32.0264 80.5547 31.5295 80.5547 31.0327C80.5547 30.3703 81.0515 30.0391 81.5483 30.0391C82.0452 30.0391 82.542 30.5359 82.542 31.0327Z" fill="#F6F8F0"/>
<path d="M63.4985 31.0315C63.4985 31.0315 62.008 27.2225 59.6895 27.3881C57.3709 27.5537 55.7148 30.2034 55.7148 30.2034C55.7148 30.2034 56.5429 33.5156 58.6958 33.6812C61.0143 33.8468 63.1673 32.3563 63.4985 31.0315Z" fill="#95959A"/>
<path d="M62.5051 31.1969C62.1739 32.6874 60.6834 33.681 59.0273 33.3498C57.5368 33.0186 56.5432 31.5281 56.8744 29.872C57.2056 28.3815 58.6961 27.3879 60.3522 27.7191C61.8427 28.0503 62.8363 29.5408 62.5051 31.1969Z" fill="#2E2E38"/>
<path d="M61.0134 30.8655C60.8478 31.6935 60.0198 32.0247 59.3573 31.8591C58.5293 31.6935 58.1981 30.8655 58.3637 30.203C58.5293 29.375 59.3573 29.0438 60.0198 29.2094C60.6822 29.375 61.179 30.0374 61.0134 30.8655Z" fill="#16141F"/>
<path d="M62.3397 30.3691C62.174 30.8659 61.6772 31.3627 61.0148 31.1971C60.3523 31.0315 60.0211 30.5347 60.1867 29.8723C60.3523 29.3754 60.8492 28.8786 61.5116 29.0442C62.174 29.2098 62.5053 29.7066 62.3397 30.3691Z" fill="#F6F8F0"/>
<path d="M74.9257 26.7259C74.9257 26.7259 76.2506 22.9169 77.7411 23.5793C79.2316 24.2418 79.894 26.0635 79.5628 26.0635C79.066 26.2291 74.5945 27.7196 74.9257 26.7259Z" fill="#AF9E8E"/>
<path d="M64.3252 26.0637C64.3252 26.0637 63.3315 22.0891 61.8411 22.5859C60.3506 23.0828 59.5225 24.9045 59.8537 24.9045C60.185 25.2357 64.6564 27.223 64.3252 26.0637Z" fill="#AF9E8E"/>
<path d="M63.498 43.95C63.498 43.95 63.8293 47.2621 68.4663 47.2621C73.1034 47.2621 73.6002 44.4468 73.6002 44.4468C73.6002 44.4468 69.9568 45.7717 68.3007 43.4531C68.4663 43.6187 66.6446 46.2685 63.498 43.95Z" fill="#95959A"/>
<path d="M71.6131 44.6122C68.9633 45.109 68.9633 41.9624 68.9633 41.9624L68.6321 42.128L68.3009 41.7968C68.3009 41.7968 68.1353 44.9434 65.6511 44.4465C62.5046 43.9497 61.3453 40.4719 61.1797 41.9624C61.1797 41.9624 61.5109 44.6122 65.6511 45.2746C67.4729 45.6058 68.3009 44.6122 68.6321 43.6185C68.9633 44.6122 69.7914 45.6058 71.6131 45.2746C75.5877 44.6122 76.0845 41.9624 76.0845 41.9624C75.9189 40.6375 74.7597 43.9497 71.6131 44.6122Z" fill="#0F1321"/>
<path d="M69.1297 43.1217C68.7985 43.2873 68.4673 43.2873 68.1361 43.1217C66.9768 42.4593 64.4927 40.8032 64.6583 38.8159C64.9895 36.1661 66.6456 36.6629 68.9641 36.6629C71.2827 36.6629 73.9324 36.4973 73.6012 39.3127C73.1044 41.6312 70.7858 42.4593 69.1297 43.1217Z" fill="#0F1321"/>
</g>
<defs>
<clipPath id="clip0_158_4313">
<rect width="125.698" height="122.717" fill="white" transform="translate(39.9805 0.394531)"/>
</clipPath>
</defs>
</svg>
