<svg width="219" height="201" viewBox="0 0 219 201" fill="none" xmlns="http://www.w3.org/2000/svg">
<path d="M217.721 180.474C217.721 181.461 217.18 182.563 215.836 183.769C214.496 184.972 212.462 186.179 209.748 187.358C204.329 189.711 196.426 191.854 186.584 193.662C166.915 197.275 139.702 199.516 109.614 199.516C79.5269 199.516 52.3136 197.275 32.6451 193.662C22.8026 191.854 14.8993 189.711 9.4803 187.358C6.76707 186.179 4.73282 184.972 3.39248 183.769C2.04883 182.563 1.50781 181.461 1.50781 180.474C1.50781 179.487 2.04883 178.385 3.39248 177.179C4.73282 175.976 6.76707 174.768 9.4803 173.59C14.8993 171.236 22.8026 169.093 32.6451 167.285C52.3136 163.672 79.5269 161.432 109.614 161.432C139.702 161.432 166.915 163.672 186.584 167.285C196.426 169.093 204.329 171.236 209.748 173.59C212.462 174.768 214.496 175.976 215.836 177.179C217.18 178.385 217.721 179.487 217.721 180.474Z" stroke="#737E85" stroke-width="2"/>
<g opacity="0.4">
<path d="M38.5644 190.378C19.7238 187.253 10.3052 183.583 10.3086 179.369C10.3086 176.56 15.1613 173.964 24.8667 171.58C34.5721 169.197 47.3821 167.323 63.2967 165.96C79.2216 164.586 96.0103 163.91 113.663 163.93C139.578 163.93 161.52 165.285 179.488 167.995C197.457 170.704 206.443 174.355 206.446 178.947C206.446 183.434 197.137 187.251 178.587 190.378C160.036 193.505 136.922 195.086 109.243 195.086C80.9817 195.086 57.4223 193.517 38.5644 190.378Z" fill="white"/>
</g>
<path d="M58.914 127.247C54.6688 123.751 51.7324 118.386 49.6916 113.064C45.6014 102.387 42.0451 90.4777 40.9687 78.8184C39.5737 81.1175 27.2513 90.4863 34.4415 111.979C42.3034 135.47 48.2191 143.84 48.2191 148.834C48.2191 153.829 44.172 172.084 42.4067 171.929C40.9859 171.817 32.9949 172.394 30.8594 176.398C30.6694 176.782 30.581 177.209 30.6029 177.637C30.6247 178.065 30.7558 178.48 30.9839 178.843C31.2119 179.206 31.5292 179.504 31.9054 179.709C32.2816 179.914 32.7042 180.02 33.1327 180.015H49.993C50.7422 180.015 62.7201 152.46 62.1604 148.834C61.747 146.191 59.6201 132.697 58.914 127.247Z" fill="#DDB58E"/>
<path d="M166.464 109.542C166.585 108.216 166.628 106.959 166.662 105.685H132.33L134.293 118.679C135.154 122.485 139.391 146.69 165.035 154.251C166.308 156.379 166.956 158.823 166.903 161.303C166.619 164.954 165.336 171.946 162.529 171.946C160.135 171.946 152.549 172.764 151.137 177.173C151.04 177.479 151.016 177.803 151.067 178.119C151.118 178.436 151.242 178.736 151.429 178.996C151.616 179.256 151.862 179.469 152.146 179.618C152.43 179.766 152.745 179.846 153.065 179.851C157.457 179.955 167.704 180.135 170.391 179.851C170.391 179.851 178.812 148.249 179.234 143.478C179.656 138.708 164.027 136.038 166.464 109.542Z" fill="#DDB58E"/>
<path d="M162.926 82.332C162.926 82.332 191.936 96.1785 194.184 118.636C196.431 141.094 195.493 143.332 197.172 147.638C197.172 147.638 177.366 145.769 174.714 118.257C172.062 90.745 164.235 88.8764 164.235 88.8764L162.926 82.332Z" fill="#FAE7D6"/>
<path d="M171.339 99.9329C175.598 103.972 179.211 108.642 182.051 113.779C184.694 118.946 185.28 125.68 188.5 130.364C190.102 132.698 192.806 133.86 195.596 134.816C195.338 131.027 194.95 125.895 194.227 118.636C191.979 96.1785 162.969 82.332 162.969 82.332L164.278 88.8764C164.278 88.8764 168.127 89.815 171.339 99.9329Z" fill="#392A2D"/>
<path d="M28.1904 41.8678C28.1904 41.8678 1.67704 32.3354 22.576 91.5275C27.424 105.245 36.19 119.332 50.6479 126.083C89.1993 144.08 126.718 127.478 140.297 117.851C140.297 117.851 143.845 146.862 171.908 155.146C173.12 157.193 173.718 159.545 173.63 161.922C173.346 165.574 172.511 176.665 169.704 176.665C167.31 176.665 159.715 177.474 158.311 181.891C158.215 182.196 158.191 182.52 158.241 182.835C158.291 183.151 158.415 183.451 158.601 183.711C158.787 183.971 159.032 184.184 159.315 184.333C159.598 184.482 159.912 184.563 160.232 184.569C164.632 184.664 174.827 184.845 177.557 184.518C177.557 184.518 185.978 159.546 186.4 154.767C186.822 149.988 171.193 140.757 173.63 114.295C176.067 87.8333 160.524 72.6005 144.964 69.7933C129.404 66.9861 94.719 77.5432 77.032 66.8914C66.457 60.434 58.731 50.1993 55.4184 38.2598L28.1904 41.8678Z" fill="#FAE7D6"/>
<path d="M173.594 114.252C176.022 87.7558 160.497 72.6005 144.962 69.7933C129.428 66.9861 94.7172 77.5432 77.0302 66.8914C66.4553 60.434 58.7293 50.1993 55.4166 38.2598L49.6214 39.0261C49.5008 44.7611 55.8299 48.3863 55.5371 54.1126C55.2444 59.839 58.4821 59.2792 54.0647 67.4511C53.0055 69.4058 50.7753 72.6952 47.1759 78.7918C43.1115 85.6375 52.5922 94.6533 54.986 102.042C57.466 109.714 59.4293 117.481 67.429 121.046C78.0119 125.765 91.6173 127.323 103.156 126.256C116.727 124.998 127.766 121.253 137.316 111.703C139.899 109.12 143.654 110.618 144.816 113.684C145.806 116.267 146.607 118.954 147.399 121.623C148.634 123.313 150.316 124.625 152.256 125.412C154.59 126.428 156.837 127.763 158.172 130.036C159.644 132.55 159.963 135.203 160.281 137.855C160.536 139.954 161.311 141.957 162.537 143.68C163.763 145.404 165.4 146.794 167.299 147.723C173.646 150.831 179.656 154.035 181.077 163.119C181.344 164.842 182.722 166.194 183.419 167.778C184.745 163.538 185.727 159.199 186.356 154.801C186.786 149.996 171.157 140.757 173.594 114.252Z" fill="#392A2D"/>
<g style="mix-blend-mode:screen" opacity="0.32">
<path d="M56.063 62.8967C73.1214 72.4979 83.1274 97.1082 104.991 96.2471C118.545 95.7477 131.418 89.8147 144.98 89.8061C152.007 89.8061 160.317 90.8738 165.276 84.5361C165.595 84.1314 165.845 83.675 166.138 83.2961C161.068 76.2533 153.494 71.4188 144.972 69.7855C129.472 66.9783 94.7265 77.5354 77.0394 66.8836C66.4645 60.4262 58.7385 50.1915 55.4258 38.252L49.6306 39.0183C49.5101 44.7533 55.8391 48.3785 55.5464 54.1048C55.3053 58.5653 57.1222 59.2198 56.063 62.8967Z" fill="#392A2D"/>
</g>
<path d="M63.3492 129.744C59.104 126.239 56.1677 120.883 54.1269 115.553C50.0366 104.884 46.4803 92.9659 45.4039 81.3066C44.0089 83.6058 36.1643 97.9776 43.3545 119.471C51.2077 142.961 52.6113 146.346 52.6113 151.331C52.6113 156.317 48.5728 174.581 46.8075 174.426C45.3867 174.306 37.3957 174.882 35.2601 178.887C35.0681 179.271 34.9782 179.698 34.999 180.128C35.0198 180.557 35.1507 180.973 35.379 181.337C35.6073 181.702 35.9253 182.001 36.3026 182.206C36.6799 182.412 37.1038 182.517 37.5335 182.512H54.3938C55.143 182.512 67.1123 154.957 66.5525 151.331C66.1478 148.696 64.0209 135.212 63.3492 129.744Z" fill="#FAE7D6"/>
<path d="M63.3753 124.431C64.5981 119.471 79.521 100.656 65.4334 83.6403C53.0335 68.6658 46.6355 79.1626 45.6281 80.9451C45.6281 80.9451 45.3181 81.4101 44.8445 82.297C44.4381 83.0723 44.073 83.8685 43.7509 84.6823C43.0283 86.5342 43.0125 88.5873 43.7065 90.4501C44.4005 92.3129 45.7558 93.8552 47.5139 94.783C48.6572 95.3404 49.7493 95.9974 50.7774 96.7463C52.6718 98.7527 53.3091 102.61 52.5427 105.211C50.7602 111.308 48.3319 116.405 48.1769 122.993C48.1769 123.044 48.1769 123.087 48.1769 123.13C49.4944 128.443 51.3802 134.153 54.661 138.811C57.4424 142.746 62.3506 145.355 65.8553 146.794C64.8392 140.232 62.5831 127.625 63.3753 124.431Z" fill="#392A2D"/>
<path d="M39.2285 17.396C39.2285 17.396 53.1095 4.5398 54.9694 0.966231C57.2427 -3.42538 62.2457 8.2253 65.2424 14.3994C68.239 20.5735 66.8354 27.5915 61.1263 32.9303C55.4172 38.2691 43.3532 18.1452 39.2285 17.396Z" fill="#392A2D"/>
<path d="M41.8984 20.5738C41.8984 20.5738 53.0928 10.2406 54.5825 7.33007C56.4252 3.79095 60.4638 13.1856 62.8749 18.1627C65.2859 23.1399 64.1579 28.7973 59.551 33.1028C54.9441 37.4083 45.2223 21.1766 41.8984 20.5738Z" fill="#FAE7D6"/>
<path d="M57.8276 15.7775C57.5779 14.8561 56.8374 10.6109 55.494 13.0737C54.6815 14.763 53.6975 16.3645 52.5577 17.8528C50.5765 20.1193 48.3789 22.1872 45.9961 24.0269C48.8377 27.1096 52.3596 31.3721 55.3907 33.077C57.621 27.5057 59.4293 21.7019 57.8276 15.7775Z" fill="#B97457"/>
<path d="M30.5748 17.396C30.5748 17.396 16.7197 4.5398 14.8425 0.966231C12.5692 -3.42538 7.55759 8.2253 4.56957 14.3994C1.58155 20.5735 2.97653 27.5915 8.68563 32.9303C14.3947 38.2691 26.4587 18.1452 30.5748 17.396Z" fill="#392A2D"/>
<path d="M27.9142 20.5738C27.9142 20.5738 16.7199 10.2406 15.2216 7.33007C13.3874 3.79095 9.34889 13.1856 6.93781 18.1627C4.52672 23.1399 5.65475 28.7973 10.253 33.1028C14.8513 37.4083 24.5904 21.1766 27.9142 20.5738Z" fill="#FAE7D6"/>
<path d="M11.9834 15.7775C12.2331 14.8561 12.965 10.6109 14.3169 13.0737C15.1295 14.763 16.1135 16.3645 17.2533 17.8528C19.2345 20.1193 21.4321 22.1872 23.8149 24.0269C20.9733 27.1096 17.4514 31.3721 14.4203 33.077C12.19 27.5057 10.3731 21.7019 11.9834 15.7775Z" fill="#B97457"/>
<path d="M7.60908 54.4321C17.0812 50.6433 24.168 46.6822 35.1643 48.7575C43.9159 50.3793 52.3063 53.5552 59.9382 58.1349C63.1759 54.1049 65.587 50.1611 65.4923 47.5089C65.2081 39.9398 52.6705 12.2985 34.9404 15.0798C34.9404 15.0798 27.9569 12.9787 24.0217 16.914C20.0864 20.8492 3.69968 37.6923 5.69743 48.4905C6.08644 50.5425 6.72856 52.5383 7.60908 54.4321Z" fill="#392A2D"/>
<path d="M62.5121 54.7415C61.4613 53.3804 60.6729 51.8357 60.1871 50.1863C59.0677 45.5536 58.9299 39.5259 56.7427 38.26C54.5555 36.9942 45.9962 26.0324 45.1351 25.6363C44.274 25.2402 42.1901 24.3705 40.511 26.196C38.8318 28.0215 37.1354 28.8224 35.4907 28.5124C33.846 28.2024 33.7685 28.4435 30.5394 25.6363C27.3103 22.8291 18.484 32.5854 14.6865 36.555C11.8794 39.4828 14.4024 44.305 10.1916 49.0238C8.4694 50.9871 7.68579 52.3132 7.36719 53.9751C10.8116 61.837 17.8812 69.6471 23.7798 74.7879C30.9614 81.0567 31.3833 80.3765 33.493 84.3031C33.493 84.3031 39.0988 78.4132 43.8779 75.6921C49.2425 72.6955 57.8707 64.2911 62.5121 54.7415Z" fill="#FCF0E5"/>
<path d="M33.8113 35.9704C34.0007 33.5163 33.3807 29.4175 33.708 27.3164C33.131 26.2572 32.666 26.6706 31.4605 25.5942C31.299 25.4601 31.1154 25.3553 30.918 25.2842C31.5638 27.6694 32.5282 29.1161 32.5282 31.863C32.5282 41.447 33.3291 40.8012 33.6563 40.4051C34.2763 39.699 33.7424 36.9177 33.8113 35.9704Z" fill="#392A2D"/>
<path d="M40.1593 25.6369C38.9624 26.6788 38.4888 26.2655 37.9118 27.3591C38.239 29.4602 37.619 33.559 37.8085 36.0132C37.8774 36.9604 37.3435 39.7417 37.9635 40.4823C38.2907 40.8784 39.0915 41.5242 39.0915 31.9402C39.0915 29.1932 40.056 27.7466 40.7018 25.3613C40.5067 25.4219 40.3233 25.5151 40.1593 25.6369Z" fill="#392A2D"/>
<path d="M55.5375 54.1136C49.6304 55.5947 47.2882 56.8003 44.791 62.3285C43.7663 64.6018 42.2077 67.1593 39.4522 67.7535C34.2855 68.8815 27.767 67.7535 25.5454 62.1908C23.0826 56.0339 22.8674 53.5195 16.2369 50.6434C14.4329 49.8907 12.7031 48.9711 11.0703 47.8965C10.8079 48.288 10.5203 48.6619 10.2092 49.0159C8.48697 50.9792 7.70337 52.3053 7.38477 53.9672C10.8292 61.8291 17.8988 69.6393 23.7973 74.7801C30.9789 81.0489 31.4009 80.3686 33.5106 84.2952C33.5106 84.2952 39.1163 78.4053 43.8954 75.6842C49.2257 72.6617 57.8539 64.266 62.4952 54.7164C61.9104 53.8913 61.3811 53.0283 60.9108 52.1331C59.1979 52.9887 57.3959 53.6529 55.5375 54.1136Z" fill="#ECD5BD"/>
<path d="M40.6504 41.3687C40.6504 41.3687 41.0034 34.9104 44.3789 34.764C47.7545 34.6176 49.3561 36.7618 51.2075 36.3398C51.13 36.3398 50.9233 36.8134 50.8803 36.8823C50.5707 37.3364 50.219 37.7602 49.8297 38.1481C48.6328 39.3278 47.057 40.5592 45.4037 40.2492C41.9076 39.5862 41.3651 41.5753 40.6504 41.3687Z" fill="#14192C"/>
<path d="M47.7196 37.0203C47.782 37.5151 47.6962 38.0174 47.4733 38.4635C47.2503 38.9096 46.9001 39.2797 46.4669 39.5269C46.0337 39.7741 45.537 39.8874 45.0395 39.8524C44.542 39.8174 44.0659 39.6358 43.6716 39.3304C43.2773 39.0251 42.9823 38.6097 42.8239 38.1367C42.6656 37.6638 42.6509 37.1545 42.7819 36.6732C42.9128 36.192 43.1834 35.7603 43.5596 35.4328C43.9357 35.1053 44.4005 34.8966 44.8952 34.8331C45.2245 34.7897 45.5592 34.8119 45.8798 34.8986C46.2004 34.9852 46.5008 35.1346 46.7634 35.3379C47.026 35.5413 47.2457 35.7947 47.4098 36.0834C47.574 36.3722 47.6792 36.6906 47.7196 37.0203Z" fill="#96A6C7"/>
<path d="M46.4436 37.1844C46.474 37.4242 46.4326 37.6677 46.3247 37.884C46.2167 38.1003 46.0471 38.2797 45.8373 38.3996C45.6274 38.5196 45.3866 38.5746 45.1455 38.5578C44.9043 38.541 44.6736 38.4531 44.4824 38.3052C44.2912 38.1572 44.1481 37.956 44.0713 37.7268C43.9944 37.4976 43.9872 37.2508 44.0506 37.0175C44.1139 36.7842 44.245 36.575 44.4273 36.4161C44.6095 36.2573 44.8347 36.1561 45.0745 36.1252C45.234 36.1047 45.3959 36.1158 45.5511 36.158C45.7062 36.2001 45.8516 36.2725 45.9787 36.3708C46.1059 36.4692 46.2124 36.5917 46.2922 36.7313C46.372 36.8709 46.4234 37.0249 46.4436 37.1844Z" fill="#14192C"/>
<path d="M46.8581 35.8238C46.88 36.0278 46.821 36.2323 46.6938 36.3933C46.5666 36.5543 46.3814 36.659 46.1778 36.6849C45.9742 36.7046 45.7709 36.6448 45.6104 36.518C45.4499 36.3912 45.3447 36.2073 45.3167 36.0046C45.3015 35.8006 45.364 35.5984 45.4918 35.4386C45.6196 35.2789 45.8032 35.1734 46.0056 35.1435C46.2078 35.1262 46.4089 35.187 46.5675 35.3136C46.7262 35.4402 46.8302 35.6228 46.8581 35.8238Z" fill="#EDEEEF"/>
<path d="M30.7214 41.4641C30.7214 41.4641 30.4889 34.9973 27.1134 34.7906C23.7379 34.5839 22.1018 36.7022 20.2246 36.2373C20.3495 36.4095 20.4563 36.5942 20.5432 36.7884C20.8414 37.249 21.1847 37.6788 21.5679 38.0714C22.7476 39.2769 24.2976 40.5428 25.9595 40.2586C29.4987 39.6558 30.0067 41.6536 30.7214 41.4641Z" fill="#14192C"/>
<path d="M29.1104 37.7783C29.0369 38.2718 28.8188 38.7324 28.4836 39.1019C28.1484 39.4714 27.7113 39.7333 27.2273 39.8544C26.7434 39.9755 26.2343 39.9504 25.7646 39.7823C25.2949 39.6142 24.8856 39.3106 24.5884 38.9099C24.2912 38.5092 24.1194 38.0294 24.0949 37.5311C24.0703 37.0329 24.194 36.5385 24.4503 36.1105C24.7066 35.6825 25.0841 35.3401 25.535 35.1266C25.9858 34.913 26.4899 34.838 26.9834 34.9109C27.6449 35.0108 28.2399 35.3685 28.6384 35.9058C29.0369 36.4431 29.2066 37.1163 29.1104 37.7783Z" fill="#96A6C7"/>
<path d="M27.8292 37.5887C27.7943 37.828 27.6892 38.0516 27.5273 38.2312C27.3653 38.4107 27.1537 38.5383 26.9192 38.5976C26.6848 38.6569 26.438 38.6454 26.2101 38.5645C25.9822 38.4836 25.7834 38.3369 25.6388 38.143C25.4943 37.949 25.4105 37.7166 25.3981 37.4751C25.3857 37.2336 25.4451 36.9938 25.569 36.786C25.6928 36.5783 25.8755 36.412 26.0939 36.3081C26.3123 36.2042 26.5566 36.1673 26.7959 36.2023C27.1157 36.2513 27.4034 36.4242 27.5968 36.6836C27.7902 36.943 27.8737 37.2682 27.8292 37.5887Z" fill="#14192C"/>
<path d="M28.5688 36.3828C28.553 36.5407 28.4901 36.6902 28.3884 36.8119C28.2866 36.9337 28.1507 37.0221 27.9981 37.0657C27.8455 37.1093 27.6834 37.106 27.5327 37.0564C27.382 37.0067 27.2496 36.913 27.1528 36.7873C27.056 36.6615 26.9992 36.5096 26.9897 36.3512C26.9802 36.1929 27.0185 36.0353 27.0997 35.8989C27.1808 35.7625 27.301 35.6537 27.4447 35.5864C27.5884 35.5191 27.749 35.4966 27.9057 35.5217C28.1052 35.5536 28.2849 35.6606 28.4082 35.8206C28.5314 35.9807 28.5889 36.1818 28.5688 36.3828Z" fill="#EDEEEF"/>
<path d="M38.5828 41.748C37.8643 41.1741 36.9681 40.8686 36.0486 40.8844C35.1291 40.9001 34.2439 41.2359 33.5454 41.8341C30.2474 44.6154 24.8138 49.6443 24.3488 52.8562C23.6858 57.4975 26.028 63.1033 35.5431 59.59C35.5431 59.59 44.5761 63.5252 46.9872 56.7828C48.9763 51.1943 43.1208 45.4421 38.5828 41.748Z" fill="#FEFAF7"/>
<path d="M35.344 58.9449V58.876H35.2751H35.2062V58.9449C34.2332 59.4099 28.0849 62.8026 25.4844 56.7061C25.4988 57.3793 25.6466 58.0429 25.919 58.6587C26.1914 59.2746 26.5831 59.8303 27.0715 60.2939C27.5598 60.7574 28.1352 61.1196 28.7644 61.3596C29.3936 61.5995 30.064 61.7125 30.7371 61.6918C34.1298 61.8468 35.0426 61.2355 35.2751 60.5896C35.5076 61.2355 36.4204 61.8468 39.8217 61.6918C40.494 61.7113 41.1636 61.5975 41.7918 61.3571C42.4199 61.1166 42.9943 60.7542 43.4818 60.2907C43.9692 59.8273 44.3602 59.2719 44.632 58.6567C44.9039 58.0415 45.0513 57.3785 45.0658 56.7061C42.4653 62.8026 36.317 59.4099 35.344 58.9449Z" fill="#14192C"/>
<path d="M34.9564 59.5641C34.9564 59.5641 28.7909 56.9808 29.3593 53.1317C29.9276 49.2826 34.5259 49.782 35.542 49.8509C36.5581 49.9198 41.8969 50.712 41.1564 53.9584C40.4158 57.2047 37.092 59.0216 34.9564 59.5641Z" fill="#14192C"/>
</svg>
