<svg width="219" height="133" viewBox="0 0 219 133" fill="none" xmlns="http://www.w3.org/2000/svg">
<path d="M217.213 112.513C217.213 113.5 216.672 114.602 215.328 115.808C213.988 117.011 211.954 118.219 209.241 119.397C203.822 121.75 195.918 123.893 186.076 125.701C166.407 129.314 139.194 131.555 109.107 131.555C79.0191 131.555 51.8058 129.314 32.1372 125.701C22.2948 123.893 14.3915 121.75 8.97249 119.397C6.25925 118.219 4.225 117.011 2.88467 115.808C1.54101 114.602 1 113.5 1 112.513C1 111.526 1.54101 110.424 2.88467 109.218C4.225 108.015 6.25925 106.807 8.97249 105.629C14.3915 103.275 22.2948 101.132 32.1372 99.3244C51.8058 95.7115 79.0191 93.4707 109.107 93.4707C139.194 93.4707 166.407 95.7115 186.076 99.3244C195.918 101.132 203.822 103.275 209.241 105.629C211.954 106.807 213.988 108.015 215.328 109.218C216.672 110.424 217.213 111.526 217.213 112.513Z" stroke="#737E85" stroke-width="2"/>
<g opacity="0.4">
<path d="M38.0566 122.417C19.216 119.292 9.79735 115.622 9.80078 111.408C9.80078 108.599 14.6535 106.003 24.3589 103.619C34.0642 101.236 46.8742 99.3623 62.7889 97.9989C78.7138 96.6252 95.5025 95.9486 113.155 95.9692C139.07 95.9692 161.012 97.3241 178.98 100.034C196.949 102.743 205.935 106.394 205.938 110.986C205.938 115.473 196.629 119.29 178.079 122.417C159.528 125.544 136.414 127.125 108.735 127.125C80.4739 127.125 56.9145 125.556 38.0566 122.417Z" fill="white"/>
</g>
<g clip-path="url(#clip0_158_4225)">
<path d="M171.24 87.4036C160.581 81.9867 156.038 75.8708 154.465 69.7549H125.808L124.061 77.9676C130.002 80.5887 138.739 85.8309 144.156 90.0247C149.922 94.5679 159.358 94.3932 161.63 96.49C164.076 98.5869 163.377 104.179 163.027 105.576C162.678 106.974 161.979 105.577 157.086 106.8C154.64 107.499 154.64 108.722 155.164 109.77C155.863 111.168 157.261 111.867 158.834 111.867H166.697C169.318 111.867 171.415 109.945 171.764 107.324C173.861 89.6752 171.24 87.4036 171.24 87.4036Z" fill="#A9998D"/>
<path d="M75.8311 75.5215C78.4522 70.6288 80.0249 65.2118 80.0249 59.7949C80.0249 53.679 77.928 47.3884 70.0647 47.5631C54.1634 47.7379 58.0077 68.0077 58.8814 76.5699C59.9298 85.1321 62.2014 106.625 57.833 105.577C53.8139 104.703 48.2223 107.149 50.3192 110.819C51.0181 111.867 52.0666 112.042 52.0666 112.042H61.153C62.9004 112.042 64.4731 110.994 64.9973 109.421C66.5699 105.577 69.5405 98.7618 70.5889 97.1892C72.1616 94.9176 71.1132 84.0837 75.8311 75.5215Z" fill="#A9998D"/>
<path d="M142.232 49.4854C142.232 49.4854 156.037 35.6809 156.037 14.0132C156.037 2.65514 157.959 -0.140692 159.881 0.558267C161.803 1.08249 165.473 16.4596 163.201 26.0702C161.104 34.982 156.736 45.2916 149.222 53.3296L142.232 49.4854Z" fill="#DDD0C8"/>
<path d="M155.862 17.333C154.464 36.9038 142.232 49.4851 142.232 49.4851L149.222 53.3294C156.736 45.2913 161.104 34.9817 163.201 26.07C163.725 23.9731 163.9 21.7015 163.9 19.4299C160.93 19.7794 158.308 18.9057 155.862 17.333Z" fill="#302426"/>
<path d="M62.2014 9.47043C62.2014 9.47043 71.2879 27.2939 78.2775 35.8561C85.267 44.5931 110.08 49.1363 117.244 49.3111C124.409 49.4858 142.582 44.7678 148.348 49.3111C154.114 53.8543 159.357 58.9217 159.706 66.9598C159.881 74.9978 163.026 83.2105 177.355 90.3749C177.355 90.3749 179.976 92.6465 177.879 110.47C177.53 113.091 175.433 115.013 172.812 115.013H164.948C163.376 115.013 161.978 114.314 161.279 112.916C160.755 111.868 160.755 110.47 163.201 109.771C168.094 108.548 168.793 109.946 169.142 108.548C169.492 107.15 170.19 101.558 167.744 99.4613C165.298 97.3644 156.037 97.5392 150.095 92.996C144.329 88.4527 143.281 82.6863 135.942 80.24C128.428 77.7936 116.72 83.9095 105.712 85.8316C94.703 87.7538 86.4902 87.7538 78.4522 84.4337C78.4522 84.4337 57.4834 81.4631 51.717 66.785C48.7465 59.446 51.8918 48.0879 47.1738 33.235C42.2811 18.3821 58.1824 5.62616 62.2014 9.47043Z" fill="#E2D9D4"/>
<path d="M63.2509 39.8744C66.7457 45.9903 62.552 48.9608 59.0572 52.9799C47.0001 66.6096 74.0848 61.1926 78.2785 61.5421C82.647 61.8916 85.6176 65.2116 87.5397 68.8812C93.4809 79.8898 101.868 83.9088 114.275 80.7635C121.614 78.8413 130.001 75.696 137.69 77.0939C142.408 77.9676 147.65 81.9866 152.543 81.2877C155.863 80.9382 159.358 80.414 162.678 81.1129C163.377 81.2877 164.076 81.4624 164.775 81.4624C160.93 76.7444 159.707 72.0265 159.532 67.1338C159.358 59.0957 153.941 54.0283 148.174 49.4851C142.408 44.9418 124.41 49.6598 117.071 49.4851C109.906 49.3103 85.0934 44.7671 78.1038 36.0301C71.1142 27.2931 62.0277 9.64444 62.0277 9.64444C59.7561 7.54756 53.9897 10.3434 49.9707 15.9351C51.5434 25.1963 58.1835 31.3121 63.2509 39.8744Z" fill="#CA6B3E"/>
<path opacity="0.45" d="M49.7952 47.0385C55.9111 46.1648 57.309 43.5438 60.4543 41.9711C62.9007 40.7479 65.347 39.8742 67.9681 39.35C71.6377 38.651 74.6082 36.7289 77.2293 34.2826C70.4145 25.1961 62.3765 9.46953 62.3765 9.46953C62.027 9.46953 61.8522 9.29479 61.6775 9.12005H61.5028C61.328 9.12005 61.328 8.94531 61.1533 8.94531H60.9786C60.8038 8.94531 60.8038 8.94531 60.6291 8.94531H60.4543C60.2796 8.94531 60.2796 8.94531 60.1049 8.94531H59.9301C59.7554 8.94531 59.5806 8.94531 59.4059 8.94531H59.2312C59.0564 8.94531 58.8817 8.94531 58.7069 9.12005H58.5322C58.3575 9.12005 58.1827 9.29479 58.008 9.29479H57.8332C57.6585 9.46953 57.309 9.46953 57.1343 9.64427C54.8627 10.8674 52.4163 12.9643 50.4942 15.5854C47.1741 20.1286 45.252 26.4193 47.3489 33.0594C48.7468 38.3016 49.4457 42.8448 49.7952 47.0385Z" fill="#CA6B3E"/>
<path d="M69.7151 36.5543C71.2878 42.3207 73.3846 47.5629 78.8016 50.7082C81.4227 52.1061 83.5195 53.6788 85.6164 55.6009C88.9365 58.5715 89.8102 63.6389 91.3828 67.6579C95.2271 77.7928 113.051 76.3949 121.263 73.4243C133.32 69.2306 140.31 57.3483 152.017 52.6303C150.969 51.5819 149.746 50.7082 148.523 49.6598C142.756 45.1165 124.758 49.8345 117.419 49.6598C110.255 49.485 85.4417 44.9418 78.4521 36.2048C74.9573 31.8363 70.9383 25.1962 67.793 19.7793C67.9677 25.1962 68.1424 30.9626 69.7151 36.5543Z" fill="#1E1618"/>
<path d="M80.8995 78.667C83.5206 73.7743 85.0932 68.3573 85.0932 62.9404C85.0932 56.8245 82.9964 50.5339 75.1331 50.7086C59.2318 50.8834 63.0761 71.1532 63.9498 79.7154C64.8235 88.2777 67.2698 109.771 62.9013 108.722C58.8823 107.848 53.2906 110.295 55.3875 113.964C56.0865 115.013 57.1349 115.188 57.1349 115.188H66.2214C67.9688 115.188 69.5414 114.139 70.0656 112.566C71.6383 108.722 74.6089 101.907 75.6573 100.335C77.23 98.0631 76.1815 87.2292 80.8995 78.667Z" fill="#E2D9D4"/>
<path d="M64.4738 84.6081C67.9685 87.9281 72.8613 88.2776 77.9287 87.2291C78.4529 84.2586 79.5014 81.288 80.8993 78.4922C83.5204 73.5995 85.093 68.1825 85.093 62.7656C85.093 56.6497 82.9961 50.3591 75.1329 50.5338C59.2316 50.7086 63.0758 70.9784 63.9495 79.5406C63.9495 80.9385 64.1243 82.6859 64.4738 84.6081Z" fill="#CA6B3E"/>
<path d="M41.059 23.7983C41.059 25.0215 41.059 26.7689 41.2338 28.691C44.3791 27.1184 47.6991 25.8952 51.0192 26.4194C54.514 26.9436 57.1351 29.0405 59.232 31.6616C60.1057 30.0889 60.8046 27.9921 61.3288 25.7205C63.7752 16.2845 66.571 12.0908 64.8236 8.94545C63.0762 5.97488 55.3877 2.1306 52.9413 2.65482C52.9413 2.65482 40.3601 4.92644 40.0106 7.72227C39.4864 10.5181 41.2338 19.0803 41.059 23.7983Z" fill="#CA6B3E"/>
<path opacity="0.45" d="M42.2816 10.3438C42.4563 8.42161 42.6311 6.67422 43.1553 5.10156C41.4079 5.80052 40.1847 6.67422 40.01 7.54792C39.6605 9.12057 40.01 12.2659 40.3595 15.4112C41.4079 14.0133 42.1069 12.2659 42.2816 10.3438Z" fill="#CA6B3E"/>
<path opacity="0.45" d="M63.2504 15.5863C63.5999 16.1105 63.7746 16.6347 63.9494 17.1589C65.1725 13.1399 66.0462 10.6936 64.9978 8.77142C64.4736 7.89772 63.4251 6.84928 62.202 5.97559C61.8525 9.47038 62.0272 13.3146 63.2504 15.5863Z" fill="#CA6B3E"/>
<path opacity="0.45" d="M63.5995 14.5375C62.3763 17.1586 62.7258 20.1292 60.8036 22.4008C59.231 24.1482 57.6583 26.7693 55.3867 27.8177C56.7846 28.6914 58.1826 30.0893 59.231 31.3125C60.1047 29.7398 60.8036 27.643 61.3279 25.3714C63.25 17.5081 65.5216 13.3143 65.3469 10.3438C64.9974 11.9164 64.1237 13.1396 63.5995 14.5375Z" fill="#CA6B3E"/>
<path opacity="0.45" d="M42.6312 21.352C41.4081 18.3814 40.5344 14.8866 40.5344 11.5665C40.5344 9.99388 40.3596 8.24648 40.5344 6.67383C40.1849 7.02331 40.0101 7.37279 39.8354 7.72227C39.4859 10.5181 41.2333 19.0803 41.0586 23.7983C41.0586 25.0215 41.0586 26.7689 41.2333 28.691C42.9807 27.8173 44.5534 27.1184 46.4755 26.7689C44.7281 25.371 43.3302 23.4488 42.6312 21.352Z" fill="#CA6B3E"/>
<path d="M54.6883 22.2261C53.6398 19.4303 54.1641 15.586 54.1641 14.7123C54.6883 9.12064 54.1641 5.27637 53.4651 5.27637C51.7177 5.27637 50.4945 11.3923 50.1451 14.3628C49.4461 22.2261 46.6503 24.323 41.0586 27.2936C41.2333 32.1863 42.9807 38.8264 46.9997 38.6516C48.3977 38.6516 49.0966 38.6516 50.3198 39.0011C51.1935 39.1758 52.0672 39.3506 52.7661 38.8264C54.1641 38.1274 57.3094 35.8558 59.7557 30.0894C57.8336 27.643 55.2125 23.4493 54.6883 22.2261Z" fill="#E2D9D4"/>
<path d="M47.1753 36.7298H47.0005C45.7773 36.5551 44.7289 35.3319 44.3794 34.4582C43.8552 33.0603 43.1562 32.536 43.1562 32.536C43.1562 32.536 44.5542 32.3613 45.0784 33.934C45.4279 34.8077 45.9521 35.3319 47.0005 35.5066C47.8742 35.6814 49.7964 33.934 49.7964 33.934C49.7964 33.934 50.8448 35.6814 52.068 35.8561C52.9417 36.0308 54.3396 35.5066 54.6891 34.9824C55.9122 33.0603 56.9607 34.1087 56.9607 34.1087C56.4365 33.934 55.5628 34.9824 55.2133 35.5066C54.1648 36.7298 53.1164 37.254 52.068 37.0793C50.8448 36.9045 49.9711 36.0308 49.6216 35.5066C48.7479 36.5551 47.8742 36.7298 47.1753 36.7298Z" fill="#14192C"/>
<path d="M49.7952 34.1085C49.7952 34.1085 43.5046 30.7884 45.252 26.5947C46.3004 24.1483 56.0858 24.6725 56.0858 27.6431C55.9111 30.7884 53.4647 32.5358 49.7952 34.1085Z" fill="#14192C"/>
<path d="M55.3867 18.3821C55.3867 18.3821 55.9109 15.4115 58.1825 15.0621C59.7552 14.5378 61.1531 16.1105 62.0268 16.1105C62.0268 16.1105 60.9784 18.9063 59.4057 18.7316C57.1341 18.7316 56.4352 18.3821 55.3867 18.3821Z" fill="#402436"/>
<path d="M55.9102 18.2073C55.9102 18.2073 56.2596 15.761 58.3565 15.2368C59.7544 14.8873 60.8029 16.2852 61.5018 16.2852C61.5018 16.2852 60.6281 18.5568 59.4049 18.5568C57.6576 18.5568 56.6091 18.2073 55.9102 18.2073Z" fill="#614A59"/>
<path d="M60.1043 16.809C60.1043 17.6827 59.4053 18.3816 58.5316 18.3816C57.6579 18.3816 56.959 17.6827 56.959 16.809C56.959 15.9353 57.6579 15.2363 58.5316 15.2363C59.4053 15.2363 60.1043 15.9353 60.1043 16.809Z" fill="#814218"/>
<path d="M59.4056 16.8092C59.4056 17.3335 59.0561 17.6829 58.5319 17.6829C58.0077 17.6829 57.6582 17.3335 57.6582 16.8092C57.6582 16.285 58.0077 15.9355 58.5319 15.9355C59.0561 15.9355 59.4056 16.285 59.4056 16.8092Z" fill="#0B0E19"/>
<path d="M59.7555 15.9354C59.7555 16.2848 59.5807 16.4596 59.2312 16.4596C58.8818 16.4596 58.707 16.2848 58.707 15.9354C58.707 15.5859 58.8818 15.4111 59.2312 15.4111C59.5807 15.4111 59.7555 15.5859 59.7555 15.9354Z" fill="#FBFBFB"/>
<path d="M48.2221 17.8572C48.2221 17.8572 47.6979 14.8867 45.4263 14.5372C43.6789 14.1877 42.4557 15.7604 41.582 15.5856C41.582 15.5856 42.6305 18.3814 44.2031 18.2067C46.4747 18.2067 47.1737 17.8572 48.2221 17.8572Z" fill="#402436"/>
<path d="M47.6971 17.683C47.6971 17.683 47.3477 15.2366 45.2508 14.7124C43.8529 14.5377 42.8044 15.7608 42.1055 15.7608C42.1055 15.7608 42.9792 18.0325 44.2023 18.0325C45.9497 18.0325 46.9982 17.683 47.6971 17.683Z" fill="#614A59"/>
<path d="M46.4754 16.2846C46.4754 17.1583 45.7764 17.8572 44.9027 17.8572C44.029 17.8572 43.3301 17.1583 43.3301 16.2846C43.3301 15.4109 44.029 14.7119 44.9027 14.7119C45.7764 14.7119 46.4754 15.4109 46.4754 16.2846Z" fill="#814218"/>
<path d="M45.7767 16.2848C45.7767 16.809 45.4272 17.1585 44.903 17.1585C44.3788 17.1585 44.0293 16.809 44.0293 16.2848C44.0293 15.7606 44.3788 15.4111 44.903 15.4111C45.4272 15.4111 45.7767 15.7606 45.7767 16.2848Z" fill="#0B0E19"/>
<path d="M45.9508 15.4109C45.9508 15.7604 45.776 15.9352 45.4266 15.9352C45.0771 15.9352 44.9023 15.7604 44.9023 15.4109C44.9023 15.0615 45.0771 14.8867 45.4266 14.8867C45.776 14.8867 45.9508 15.0615 45.9508 15.4109Z" fill="#FBFBFB"/>
<path d="M41.4079 6.15014C41.4079 6.15014 39.311 4.92696 37.7384 5.9754C35.991 7.02384 30.9235 12.0913 27.9529 13.6639C24.9824 15.2366 29.7003 38.1275 36.5152 36.9043C43.33 35.6811 42.9805 26.7694 40.8837 17.5082C38.7868 8.24701 41.4079 6.15014 41.4079 6.15014Z" fill="#CA6B3E"/>
<path opacity="0.45" d="M33.8939 29.3906C32.3212 29.5653 30.7486 29.3906 29.5254 29.0411C31.2728 33.5843 33.7191 37.4286 36.515 36.9044C42.2814 35.8559 42.9803 29.2158 41.7572 21.3525C40.1845 25.1968 38.0876 28.8663 33.8939 29.3906Z" fill="#CA6B3E"/>
<path d="M64.4733 8.24641C64.4733 8.24641 65.8712 7.37271 67.6186 9.81907C69.366 12.2654 75.4819 16.4592 78.2777 18.7308C80.8988 21.0024 76.0061 35.331 64.4733 37.0784C52.9405 38.8258 62.7259 21.0024 63.4249 18.7308C63.9491 16.6339 65.5217 9.46959 64.4733 8.24641Z" fill="#CA6B3E"/>
<path opacity="0.45" d="M66.395 31.312C63.4244 30.6131 61.8518 27.992 60.8033 24.8467C58.5317 30.6131 56.7843 38.3016 64.4729 37.0785C70.2393 36.2048 74.433 32.011 76.8794 27.992C73.7341 30.4383 70.414 32.3605 66.395 31.312Z" fill="#CA6B3E"/>
</g>
<defs>
<clipPath id="clip0_158_4225">
<rect width="151.499" height="114.629" fill="white" transform="translate(27.0801 0.383789)"/>
</clipPath>
</defs>
</svg>
