<svg width="219" height="93" viewBox="0 0 219 93" fill="none" xmlns="http://www.w3.org/2000/svg">
<path d="M217.213 72.2306C217.213 73.2177 216.672 74.3194 215.328 75.5256C213.988 76.7288 211.954 77.9363 209.241 79.1146C203.822 81.4681 195.918 83.611 186.076 85.4189C166.407 89.0319 139.194 91.2727 109.107 91.2727C79.0191 91.2727 51.8058 89.0319 32.1372 85.4189C22.2948 83.611 14.3915 81.4681 8.97249 79.1146C6.25925 77.9363 4.225 76.7288 2.88467 75.5256C1.54101 74.3194 1 73.2177 1 72.2306C1 71.2435 1.54101 70.1417 2.88467 68.9356C4.225 67.7324 6.25925 66.5249 8.97249 65.3465C14.3915 62.9931 22.2948 60.8502 32.1372 59.0422C51.8058 55.4292 79.0191 53.1885 109.107 53.1885C139.194 53.1885 166.407 55.4292 186.076 59.0422C195.918 60.8502 203.822 62.9931 209.241 65.3465C211.954 66.5249 213.988 67.7324 215.328 68.9356C216.672 70.1417 217.213 71.2435 217.213 72.2306Z" stroke="#737E85" stroke-width="2"/>
<g opacity="0.4">
<path d="M38.0566 82.1347C19.216 79.0094 9.79735 75.3399 9.80078 71.126C9.80078 68.3167 14.6535 65.7203 24.3589 63.3369C34.0642 60.9535 46.8742 59.0801 62.7889 57.7167C78.7138 56.3429 95.5025 55.6664 113.155 55.687C139.07 55.687 161.012 57.0418 178.98 59.7515C196.949 62.4612 205.935 66.1119 205.938 70.7035C205.938 75.1905 196.629 79.0077 178.079 82.1347C159.528 85.2616 136.414 86.8431 108.735 86.8431C80.4739 86.8431 56.9145 85.2736 38.0566 82.1347Z" fill="white"/>
</g>
<g clip-path="url(#clip0_158_4446)">
<path d="M153.387 60.3167C153.387 60.3167 143.71 57.4992 147.385 47.6994C148.61 44.2694 149.345 41.3294 149.59 39.002H129.99V47.8219C139.79 63.3792 147.753 63.3792 148.365 65.4617C148.978 67.6666 147.875 70.3616 147.018 70.4841C146.16 70.4841 143.588 69.5041 142.975 71.8316C142.363 74.1591 145.18 74.5265 145.18 74.5265C157.062 74.5265 153.387 60.3167 153.387 60.3167Z" fill="#CFC3B0"/>
<path d="M85.5249 65.3392C85.5249 65.3392 85.1574 52.8443 82.5849 45.1269C80.135 37.4095 83.3199 28.8346 92.6298 30.3046C101.94 31.7745 93.6098 46.4744 92.6298 53.5793C91.6498 60.6842 91.2823 62.1542 90.6699 63.7467C90.1799 65.2167 88.3424 72.3216 85.2799 73.9141C84.9124 74.1591 80.9925 74.0366 80.135 73.6691C79.155 73.1791 78.7875 72.3216 79.0325 71.0966C79.5225 68.7691 81.9725 69.6266 82.8299 69.2591C83.6874 68.8916 85.4024 66.8091 85.5249 65.3392Z" fill="#CFC3B0"/>
<path d="M90.6703 10.827C90.6703 10.827 95.0803 17.9319 98.3877 19.2794C101.695 20.6269 114.19 20.5044 122.397 19.2794C130.605 18.0544 149.347 14.8694 153.145 32.6317C153.145 32.6317 154.86 38.5117 151.185 48.679C148.612 56.029 152.655 59.5814 155.35 61.0514C156.575 61.7864 157.432 63.0114 157.555 64.4814C157.922 68.0338 157.432 75.7512 152.9 76.6087C151.92 76.7312 150.94 76.7312 149.96 76.7312C149.102 76.7312 148.122 76.6087 147.387 76.1187C146.652 75.6287 146.407 74.7712 146.652 73.9138C147.265 71.4638 149.837 72.5663 150.695 72.4438C151.552 72.4438 152.532 68.4013 151.92 66.1963C151.307 63.9914 143.59 64.9714 133.79 48.8015C133.79 48.8015 126.685 55.294 112.72 55.784C98.7552 56.274 90.5478 56.764 80.9929 50.2715C71.438 43.7791 69.8456 38.8792 69.3556 29.2018C68.9881 21.1169 68.1306 19.0344 67.2731 13.7669C66.4156 8.622 87.8528 9.35699 90.6703 10.827Z" fill="#E4DACE"/>
<path opacity="0.55" d="M92.9976 27.364C95.08 25.0365 96.55 22.3415 97.775 19.5241C94.2225 17.5641 89.9351 10.9492 89.9351 10.9492C88.7101 10.3367 84.5452 9.96918 79.8902 9.84668C73.6428 9.84668 66.7829 10.8267 67.2728 13.8891C68.1303 19.0341 69.1103 21.2391 69.3553 29.324C69.3553 29.569 69.3553 29.9364 69.3553 30.1814C71.6828 30.0589 73.7653 30.059 75.2353 30.3039C81.7277 31.6514 88.0976 32.9989 92.9976 27.364Z" fill="#E4DACE"/>
<path opacity="0.45" d="M133.422 45.2493C132.687 44.2693 131.34 43.9018 129.012 44.3918C124.97 45.3718 121.05 46.7192 116.885 47.5767C108.065 49.4142 100.47 51.4967 91.6501 48.5567C85.0352 46.2292 78.9103 39.0018 77.5628 31.8969C76.2153 24.4245 77.5628 17.1971 74.3778 10.8271C72.7853 11.4396 67.5179 12.4196 67.1504 13.7671C68.0079 18.9121 68.9879 21.117 69.2329 29.2019C69.6004 38.8793 71.3153 43.6568 80.7477 50.1492C90.1801 56.6416 98.51 56.1516 112.475 55.6616C114.19 55.6616 115.905 55.4166 117.375 55.1716C118.845 54.9266 120.315 54.6816 121.662 54.3142C124.235 53.5792 126.44 52.7217 128.277 51.9867C131.83 50.2717 133.545 48.6792 133.545 48.6792C133.545 48.6792 134.28 46.2292 133.422 45.2493Z" fill="#E5DCD1"/>
<path d="M87.73 67.7887C87.73 67.7887 87.8525 55.5389 85.4025 47.699C82.83 39.9816 85.525 31.1617 94.8349 32.6316C104.145 34.1016 95.8149 48.924 94.8349 55.9064C93.8549 63.0113 93.4874 64.4813 92.8749 66.0738C92.3849 67.5438 90.5475 74.6487 87.485 76.2411C87.1175 76.4861 83.1975 76.3636 82.34 75.9961C81.3601 75.5062 80.9926 74.6487 81.2376 73.4237C81.7276 71.0962 84.1775 71.9537 85.035 71.5862C85.8925 71.2187 87.6075 69.1362 87.73 67.7887Z" fill="#E4DACE"/>
<path d="M151.062 26.507C151.062 26.507 155.349 24.6696 154.492 20.0146C153.634 15.3597 148.244 9.96973 140.649 13.8897C133.054 17.8096 135.627 27.487 141.629 28.222C147.632 28.957 150.327 20.9946 145.304 20.0146C145.304 20.0146 145.794 21.4846 144.447 22.0971C142.977 22.7096 141.262 20.3821 143.589 19.4021C145.917 18.4221 148.979 19.5246 148.244 22.8321C148.122 22.9546 150.449 25.4046 151.062 26.507Z" fill="#D7C9BD"/>
<path opacity="0.32" d="M144.568 15.9717C139.178 16.0942 139.301 20.9941 140.893 22.9541C142.486 24.7916 144.323 24.6691 145.671 23.9341C147.018 23.3216 147.141 20.9941 146.773 20.7491C146.406 20.5041 145.916 20.2591 145.181 20.1366C145.181 20.1366 145.671 21.6066 144.323 22.2191C142.853 22.8316 141.138 20.5041 143.466 19.5241C145.793 18.5442 148.856 19.6466 148.121 22.9541C148.121 22.9541 148.488 23.3216 148.978 23.9341C152.408 20.2591 148.856 15.9717 144.568 15.9717Z" fill="#D8CCBF"/>
<path d="M81.2372 1.02677C81.2372 1.02677 74.3773 0.536779 71.5598 3.35425C68.7423 6.17171 64.6999 10.5817 66.6599 16.8291C68.6198 23.0765 75.7248 27.119 79.3997 27.4865C85.5246 28.099 91.2821 22.3415 92.6296 20.8715C94.0995 19.4016 98.9995 11.9291 92.0171 5.31422C85.2796 -0.933205 84.7897 2.37426 81.2372 1.02677Z" fill="#E4DACE"/>
<path d="M75.7243 1.39471C75.7243 1.39471 73.7643 0.537215 71.3144 1.02721C68.8644 1.5172 65.1894 1.27221 64.2095 1.14971C63.2295 1.02721 61.147 2.61969 60.5345 5.92715C60.0445 9.23462 62.9845 12.9096 65.4344 14.2571C68.0069 15.6045 66.4144 9.47961 69.2319 6.78464C72.0494 4.08967 76.4593 2.1297 75.7243 1.39471Z" fill="#3D3834"/>
<path d="M87.7283 2.3744C87.7283 2.3744 90.9133 2.4969 93.1183 2.61939C95.3232 2.74189 96.4257 2.0069 97.2832 2.61939C98.1407 3.23189 101.938 5.55936 99.3657 11.3168C96.5482 17.5642 96.7932 14.3793 95.3232 13.1543C93.7307 11.9293 90.5458 9.47932 89.5658 7.15184C88.3408 4.70187 86.9933 1.8844 87.7283 2.3744Z" fill="#3D3834"/>
<path d="M86.0141 13.522C86.0141 13.522 82.2167 9.7245 84.9116 7.02953C85.2791 6.66203 85.8916 6.66203 86.2591 7.02953C87.2391 8.00952 89.4441 9.96949 90.9141 11.072C92.9965 12.4195 90.4241 17.3194 88.8316 15.9719C87.1166 14.6244 86.0141 13.522 86.0141 13.522Z" fill="#3D3834"/>
<path d="M89.5673 11.3169C89.5673 12.4193 88.7098 13.3993 87.4848 13.3993C86.2598 13.3993 85.4023 12.5418 85.4023 11.3169C85.4023 10.0919 86.2598 9.23438 87.4848 9.23438C88.7098 9.23438 89.5673 10.2144 89.5673 11.3169Z" fill="#554E46"/>
<path d="M88.5858 11.3173C88.5858 11.9298 88.0958 12.4198 87.4833 12.4198C86.8709 12.4198 86.3809 11.9298 86.3809 11.3173C86.3809 10.7048 86.8709 10.2148 87.4833 10.2148C88.0958 10.2148 88.5858 10.7048 88.5858 11.3173Z" fill="#040701"/>
<path d="M88.9544 10.2145C88.9544 10.582 88.5869 10.9495 88.2194 10.9495C87.8519 10.9495 87.4844 10.582 87.4844 10.2145C87.4844 9.84699 87.8519 9.47949 88.2194 9.47949C88.7094 9.60199 88.9544 9.84699 88.9544 10.2145Z" fill="#E8E8E8"/>
<path d="M75.3575 13.522C75.3575 13.522 79.1549 9.7245 76.4599 7.02953C76.0925 6.66203 75.48 6.66203 75.1125 7.02953C74.1325 8.00952 71.9275 9.96949 70.4575 11.072C68.375 12.4195 70.9475 17.3194 72.54 15.9719C74.255 14.6244 75.3575 13.522 75.3575 13.522Z" fill="#3D3834"/>
<path d="M75.8466 11.3169C75.8466 12.4193 74.9891 13.3993 73.7641 13.3993C72.6616 13.3993 71.6816 12.5418 71.6816 11.3169C71.6816 10.0919 72.5391 9.23438 73.7641 9.23438C74.9891 9.23438 75.8466 10.2144 75.8466 11.3169Z" fill="#554E46"/>
<path d="M74.8676 11.3173C74.8676 11.9298 74.3776 12.4198 73.7651 12.4198C73.2752 12.4198 72.7852 11.9298 72.7852 11.3173C72.7852 10.7048 73.2752 10.2148 73.8876 10.2148C74.5001 10.2148 74.8676 10.7048 74.8676 11.3173Z" fill="#040701"/>
<path d="M74.6217 10.9495C75.0276 10.9495 75.3567 10.6204 75.3567 10.2145C75.3567 9.80856 75.0276 9.47949 74.6217 9.47949C74.2158 9.47949 73.8867 9.80856 73.8867 10.2145C73.8867 10.6204 74.2158 10.9495 74.6217 10.9495Z" fill="#E8E8E8"/>
<path d="M85.7684 12.2966C84.1759 11.4391 81.2359 10.2141 79.2759 10.5816C76.2135 11.3166 72.416 14.5016 70.946 16.2166C69.721 17.8091 69.5985 20.749 71.5585 23.8115C74.2535 25.894 77.1934 27.2415 79.2759 27.4864C83.0734 27.8539 86.6258 25.894 89.1983 23.934C90.9133 22.5865 91.6483 20.3815 91.0358 18.2991C90.4233 16.4616 88.9533 14.1341 85.7684 12.2966Z" fill="#3D3834"/>
<path d="M78.7852 15.7262C79.2588 15.7262 79.6427 15.1229 79.6427 14.3787C79.6427 13.6345 79.2588 13.0312 78.7852 13.0312C78.3116 13.0312 77.9277 13.6345 77.9277 14.3787C77.9277 15.1229 78.3116 15.7262 78.7852 15.7262Z" fill="#070C02"/>
<path d="M82.2169 15.7262C82.6904 15.7262 83.0744 15.1229 83.0744 14.3787C83.0744 13.6345 82.6904 13.0312 82.2169 13.0312C81.7433 13.0312 81.3594 13.6345 81.3594 14.3787C81.3594 15.1229 81.7433 15.7262 82.2169 15.7262Z" fill="#070C02"/>
<path d="M71.8027 21.8511C71.8027 21.8511 74.6202 21.9736 76.9477 20.6261C79.2751 19.2786 80.6226 16.9512 80.5001 12.4187C80.5001 12.4187 80.6226 11.8062 80.9901 12.4187C80.9901 12.4187 80.3776 18.9111 83.4401 20.6261C86.5026 22.3411 88.9525 21.9736 88.9525 21.9736C88.9525 21.9736 87.2376 23.3211 82.7051 21.8511C81.3576 21.3611 79.8876 21.3611 78.4177 21.7286C76.5802 22.0961 74.2527 22.4636 71.8027 21.8511Z" fill="#070C02"/>
</g>
<defs>
<clipPath id="clip0_158_4446">
<rect width="97.1414" height="75.7041" fill="white" transform="translate(60.5352 0.904297)"/>
</clipPath>
</defs>
</svg>
