<svg width="219" height="168" viewBox="0 0 219 168" fill="none" xmlns="http://www.w3.org/2000/svg">
<path d="M217.213 147.806C217.213 148.793 216.672 149.895 215.328 151.101C213.988 152.304 211.954 153.511 209.241 154.69C203.822 157.043 195.918 159.186 186.076 160.994C166.407 164.607 139.194 166.848 109.107 166.848C79.0191 166.848 51.8058 164.607 32.1372 160.994C22.2948 159.186 14.3915 157.043 8.97249 154.69C6.25925 153.511 4.225 152.304 2.88467 151.101C1.54101 149.895 1 148.793 1 147.806C1 146.819 1.54101 145.717 2.88467 144.511C4.225 143.308 6.25925 142.1 8.97249 140.922C14.3915 138.568 22.2948 136.425 32.1372 134.617C51.8058 131.004 79.0191 128.764 109.107 128.764C139.194 128.764 166.407 131.004 186.076 134.617C195.918 136.425 203.822 138.568 209.241 140.922C211.954 142.1 213.988 143.308 215.328 144.511C216.672 145.717 217.213 146.819 217.213 147.806Z" stroke="#737E85" stroke-width="2"/>
<g opacity="0.4">
<path d="M38.0566 157.71C19.216 154.585 9.79735 150.915 9.80078 146.701C9.80078 143.892 14.6535 141.296 24.3589 138.912C34.0642 136.529 46.8742 134.655 62.7889 133.292C78.7138 131.918 95.5025 131.242 113.155 131.262C139.07 131.262 161.012 132.617 178.98 135.327C196.949 138.036 205.935 141.687 205.938 146.279C205.938 150.766 196.629 154.583 178.079 157.71C159.528 160.837 136.414 162.418 108.735 162.418C80.4739 162.418 56.9145 160.849 38.0566 157.71Z" fill="white"/>
</g>
<g clip-path="url(#clip0_158_3982)">
<path d="M176.663 107.534C168.169 102.469 161.725 91.2336 161.309 73.667H131.353V79.998C132.362 80.2064 130.07 80.3987 130.07 80.3987C144.495 111.156 166.55 114.41 170.06 117.664C174.676 121.927 179.805 133.387 179.805 136.464C179.805 139.542 177.625 139.782 177.625 139.782C174.083 139.91 172.817 141.257 172.512 142.699C172.432 143.146 172.448 143.605 172.558 144.046C172.669 144.486 172.872 144.898 173.154 145.254C173.436 145.61 173.79 145.903 174.193 146.111C174.597 146.32 175.04 146.441 175.493 146.466C179.324 146.77 185.575 147.283 187.61 145.039C189.39 143.084 185.687 125.918 183.235 116.67C182.33 112.879 179.969 109.597 176.663 107.534Z" fill="#BCB3AA"/>
<path d="M46.4211 62.3352C46.4211 62.3352 62.2406 58.4405 62.7535 70.0767C63.2664 81.713 58.1375 91.6183 56.9354 98.6385C55.7333 105.659 55.012 117.263 54.6113 120.501C54.2106 123.738 47.8796 145.68 43.6002 146.017C39.3207 146.354 29.6078 147.427 29.5918 144.318C29.5918 139.189 34.7207 139.013 38.1346 139.189C41.5486 139.365 45.5075 124.091 46.1486 117.936C46.7897 111.781 45.6197 88.3806 44.081 79.3248C42.5423 70.2691 42.7026 62.8802 46.4211 62.3352Z" fill="#BCB3AA"/>
<path d="M143.229 89.4062C143.229 89.4062 129.894 84.2772 124.605 86.8417C119.316 89.4062 75.3834 110.595 52.4795 94.5351C29.5756 78.4751 37.1248 61.165 35.3136 47.3489C33.5025 33.5329 47.3505 46.1308 47.8634 47.3489C48.3763 48.5671 110.228 60.3476 124.413 64.627C138.597 68.9065 143.053 88.3804 143.229 89.4062Z" fill="#CAC3BB"/>
<path d="M145.281 50.2666C145.281 50.2666 158.103 50.8597 163.681 53.5524C169.259 56.245 179.34 62.8165 183.748 72.7858C189.951 86.7942 197.9 91.5385 204.44 93.9747C210.979 96.411 197.9 100.514 187.771 89.7433C177.641 78.9726 179.42 64.6276 159.033 61.0534C159.033 61.0534 143.197 51.2924 145.281 50.2666Z" fill="#D2CBC5"/>
<path d="M40.3617 4.44238C40.3617 4.44238 52.1582 20.4703 57.0147 28.7407C59.9799 33.7254 67.7374 40.2327 75.2865 44.7686C80.0949 47.7177 93.8949 50.3143 97.7256 49.8495C109.73 48.407 127.185 44.6083 136.673 45.3777C149.223 46.4035 166.149 58.2 166.918 78.1868C167.607 96.1861 174.74 107.326 183.811 111.845C184.789 112.296 185.658 112.951 186.361 113.767C187.063 114.583 187.582 115.54 187.883 116.574C190.11 124.716 195.223 146.193 193.188 148.421C191.152 150.649 184.933 150.152 181.103 149.848C180.609 149.823 180.127 149.685 179.695 149.444C179.263 149.203 178.893 148.865 178.614 148.456C178.334 148.048 178.153 147.581 178.084 147.091C178.016 146.601 178.061 146.102 178.218 145.632C178.699 144.366 180.029 143.276 183.186 143.18C183.186 143.18 185.366 142.924 185.366 139.846C185.366 136.769 179.051 122.328 176.15 118.513C173.249 114.698 152.733 114.538 138.388 83.7805C138.388 83.7805 130.519 80.3666 102.502 86.1687C74.4851 91.9708 63.8747 91.8105 53.2802 84.1171C42.6858 76.4238 37.7331 69.5958 36.3707 55.0745C35.0084 40.5532 29.9596 28.7567 26.754 19.1881C23.5484 9.61942 40.3617 4.44238 40.3617 4.44238Z" fill="#E2D9D4"/>
<g style="mix-blend-mode:multiply">
<path d="M35.0897 46.1951C37.6061 45.7463 40.1385 45.2495 42.6228 44.5923C43.4723 44.3679 50.4765 41.8836 47.912 43.1658C51.9991 41.1142 50.9573 42.6209 53.8744 38.9825C55.3421 36.7266 56.6284 34.3577 57.7211 31.8982C57.9134 31.4654 58.0898 31.0006 58.2501 30.5519C57.7852 29.9268 57.3685 29.3177 57.0159 28.7407C52.2075 20.5344 40.3629 4.44238 40.3629 4.44238C40.3629 4.44238 23.79 9.60337 26.8674 19.172C29.2876 26.7051 32.958 35.6487 35.0897 46.1951Z" fill="#E2D9D4"/>
</g>
<path d="M49.8512 66.6143C49.8512 66.6143 65.6547 62.7036 66.1676 74.3398C66.6805 85.9761 61.5516 95.8973 60.3495 102.902C59.1474 109.906 58.4261 121.526 58.0254 124.78C57.6247 128.033 51.2937 149.943 47.0303 150.296C42.7669 150.649 33.0219 151.706 33.0059 148.581C33.0059 143.372 38.1348 143.292 41.5487 143.452C44.9627 143.612 48.9215 128.37 49.5627 122.215C50.2038 116.06 49.0498 92.6437 47.5111 83.5879C45.9724 74.5321 46.1487 67.1593 49.8512 66.6143Z" fill="#E2D9D4"/>
<path d="M49.8512 66.6143C49.8512 66.6143 65.6547 62.7036 66.1676 74.3398C66.6805 85.9761 61.5516 95.8973 60.3495 102.902C59.1474 109.906 58.4261 121.526 58.0254 124.78C57.6247 128.033 51.2937 149.943 47.0303 150.296C42.7669 150.649 33.0219 151.706 33.0059 148.581C33.0059 143.372 38.1348 143.292 41.5487 143.452C44.9627 143.612 48.9215 128.37 49.5627 122.215C50.2038 116.06 49.0498 92.6437 47.5111 83.5879C45.9724 74.5321 46.1487 67.1593 49.8512 66.6143Z" fill="#E2D9D4"/>
<path d="M75.3187 51.1642C75.1745 51.8695 75.8637 52.5266 75.8156 53.2319C76.1506 53.241 76.481 53.1517 76.7658 52.9751C77.0507 52.7985 77.2775 52.5423 77.4184 52.2381C77.6717 51.6408 77.7921 50.9954 77.771 50.3469L77.3542 50.1064C76.4887 50.1545 75.479 50.3789 75.3187 51.1642Z" fill="#2F2627"/>
<path d="M120.068 60.2358C119.219 60.5404 119.7 62.2553 118.979 62.7362C119.767 63.7461 120.916 64.4122 122.184 64.5954C123.018 64.6048 123.823 64.2885 124.428 63.7139L123.995 62.8003C122.841 61.454 121.03 59.8832 120.068 60.2358Z" fill="#2F2627"/>
<path d="M43.7593 27.4742C42.1718 26.4575 40.4856 25.6037 38.7265 24.9258C35.4247 24.9258 32.3154 28.2115 30.1035 30.9843C30.2071 31.8355 30.266 32.6915 30.2798 33.5488C30.2798 36.7544 33.4854 38.0046 36.3383 37.3635C37.078 37.2691 37.8266 37.2691 38.5662 37.3635C39.6308 37.7589 40.7789 37.8752 41.9012 37.7012C43.0234 37.5273 44.0825 37.0689 44.9774 36.3697C45.7787 35.6952 46.4148 34.8461 46.8371 33.8876C47.2594 32.9291 47.4566 31.8866 47.4136 30.8401C46.4763 29.4471 45.2245 28.2941 43.7593 27.4742Z" fill="#C7B6AC"/>
<path d="M41.74 0.515625C41.74 0.515625 29.8473 0.788108 28.3246 4.10588C26.802 7.42366 24.1895 16.3993 26.5295 21.2397C28.8696 26.0801 30.232 28.7087 30.2801 33.5491C30.3281 38.3896 37.0438 35.761 38.0055 34.2383C38.0055 34.2383 41.3393 38.6941 44.9296 36.322C48.5198 33.9499 46.5324 29.3979 48.1352 27.8752C49.738 26.3526 57.2871 20.7589 54.2418 9.07454C52.3184 2.07035 44.0801 1.06057 41.74 0.515625Z" fill="#E2D9D4"/>
<path d="M33.6622 1.65347C33.6596 1.9069 33.7261 2.15625 33.8546 2.37472C33.9781 2.54962 34.1512 2.68359 34.3514 2.7594C34.613 2.8494 34.8919 2.87714 35.1661 2.84045C35.4403 2.80377 35.7022 2.70366 35.9309 2.54807C36.1596 2.39248 36.3489 2.18571 36.4837 1.94417C36.6185 1.70262 36.6952 1.43296 36.7075 1.15661C36.7149 1.08736 36.7149 1.0175 36.7075 0.948242C35.7459 1.07647 34.72 1.23674 33.7263 1.4451C33.6782 1.49319 33.6622 1.57333 33.6622 1.65347Z" fill="#2F2627"/>
<path d="M33.7752 33.2288C33.9313 33.3746 34.1329 33.4621 34.346 33.4767C34.5591 33.4913 34.7707 33.432 34.9452 33.309C35.1536 33.0846 35.2017 32.6839 35.5062 32.6037L35.1536 31.9947C34.4452 31.8663 33.7228 31.8339 33.0059 31.8985C33.0402 32.16 33.1259 32.4121 33.2579 32.6404C33.3899 32.8687 33.5657 33.0686 33.7752 33.2288Z" fill="#2F2627"/>
<path d="M47.9108 18.7551C44.0161 19.6206 43.984 23.9481 42.0767 26.769C40.7143 28.7885 36.7074 29.5098 35.4091 26.5126C34.6435 24.7 34.1051 22.7996 33.8063 20.8548C32.9248 15.5495 28.3728 17.8255 26.5938 21.4959C28.8537 26.16 30.1679 28.7885 30.216 33.5488C30.2641 38.3091 36.9798 35.7607 37.9415 34.238C37.9415 34.238 41.2753 38.6938 44.8656 36.3217C48.4558 33.9495 46.4683 29.3976 48.0711 27.8749C49.9123 26.3202 51.4924 24.4803 52.7513 22.4255C52.0941 20.6303 50.3952 18.2101 47.9108 18.7551Z" fill="#D6CDCA"/>
<g style="mix-blend-mode:multiply" opacity="0.55">
<path d="M26.3209 18.3383C26.4957 16.5954 26.9617 14.8942 27.6994 13.3055C29.3022 9.49088 31.7704 5.78846 32.3955 1.7334C30.7782 1.9545 29.3143 2.80745 28.3244 4.10552C26.8178 7.39124 24.2373 16.2386 26.4812 21.1111C26.3414 20.1939 26.2878 19.2656 26.3209 18.3383Z" fill="#E2D9D4"/>
</g>
<path d="M28.6947 21.528C28.3807 21.4433 28.0494 21.448 27.7379 21.5415C27.4264 21.6349 27.1472 21.8134 26.9316 22.057C27.4926 23.211 27.9895 24.2528 28.4062 25.2625C28.5264 25.1402 28.6338 25.006 28.7268 24.8618C29.0993 24.3475 29.3513 23.7558 29.464 23.1308C29.5276 22.8163 29.4869 22.4897 29.3481 22.2004C29.2093 21.9112 28.9799 21.6751 28.6947 21.528Z" fill="#2F2627"/>
<path d="M44.9294 35.2797C41.3391 37.6358 38.0053 33.18 38.0053 33.18C37.0757 34.6225 31.0813 37.0588 30.344 33.18H30.2638C30.2558 33.3134 30.2558 33.4473 30.2638 33.5807C30.2638 38.3891 37.0276 35.7926 37.9893 34.2699C37.9893 34.2699 41.3231 38.7257 44.9133 36.3535C45.4825 35.9836 45.9562 35.4844 46.296 34.8968C46.6358 34.3091 46.8321 33.6495 46.8687 32.9717C46.3378 33.8311 45.6845 34.6086 44.9294 35.2797Z" fill="#080D0F"/>
<path d="M43.375 16.0308C43.5719 15.1582 44.0475 14.3735 44.7299 13.7951C45.4124 13.2168 46.2645 12.8763 47.1576 12.8252C49.1771 12.8252 50.6997 15.2133 50.6997 15.2133C50.6997 15.2133 49.0969 18.4189 46.8851 18.4189C46.1508 18.3334 45.4481 18.0716 44.8369 17.6557C44.2257 17.2399 43.7242 16.6824 43.375 16.0308Z" fill="#1A0A14"/>
<path d="M49.3534 15.5977C49.3534 16.0897 49.2073 16.5707 48.9336 16.9795C48.6599 17.3884 48.2709 17.7068 47.8161 17.8944C47.3612 18.0819 46.8608 18.1302 46.3785 18.033C45.8961 17.9359 45.4535 17.6976 45.1067 17.3486C44.76 16.9995 44.5246 16.5554 44.4306 16.0724C44.3365 15.5895 44.388 15.0895 44.5785 14.6358C44.769 14.1821 45.0899 13.7952 45.5005 13.5242C45.9112 13.2532 46.3931 13.1102 46.8851 13.1133C47.2106 13.1133 47.5329 13.1777 47.8334 13.3027C48.1339 13.4278 48.4067 13.611 48.6361 13.8419C48.8655 14.0728 49.047 14.3469 49.1701 14.6482C49.2932 14.9495 49.3555 15.2722 49.3534 15.5977Z" fill="#674043"/>
<path d="M48.3437 15.5977C48.3436 15.89 48.2567 16.1758 48.094 16.4186C47.9313 16.6614 47.7 16.8504 47.4296 16.9615C47.1592 17.0726 46.862 17.1009 46.5755 17.0427C46.289 16.9845 46.0263 16.8424 45.8208 16.6346C45.6152 16.4268 45.476 16.1625 45.4209 15.8754C45.3659 15.5883 45.3974 15.2914 45.5114 15.0222C45.6255 14.7531 45.817 14.5239 46.0616 14.3638C46.3062 14.2038 46.5928 14.12 46.8851 14.1231C47.078 14.1231 47.269 14.1614 47.447 14.2357C47.625 14.31 47.7865 14.4188 47.9222 14.556C48.0578 14.6931 48.1649 14.8558 48.2373 15.0346C48.3096 15.2134 48.3458 15.4048 48.3437 15.5977Z" fill="#111B1D"/>
<path d="M48.9364 14.5717C48.9364 14.8438 48.8283 15.1047 48.6359 15.297C48.4435 15.4894 48.1826 15.5975 47.9106 15.5975C47.7077 15.5975 47.5094 15.5373 47.3407 15.4246C47.172 15.3119 47.0405 15.1517 46.9629 14.9642C46.8852 14.7768 46.8649 14.5706 46.9045 14.3716C46.944 14.1726 47.0418 13.9898 47.1852 13.8464C47.3287 13.7029 47.5115 13.6052 47.7105 13.5656C47.9094 13.526 48.1157 13.5464 48.3031 13.624C48.4905 13.7016 48.6508 13.8331 48.7635 14.0018C48.8762 14.1705 48.9364 14.3688 48.9364 14.5717Z" fill="#EBEBEB"/>
<path d="M36.9966 15.6782C36.7973 14.8069 36.321 14.0235 35.6391 13.4456C34.9571 12.8677 34.1063 12.5264 33.214 12.4727C31.1945 12.4727 29.6719 14.8608 29.6719 14.8608C29.6719 14.8608 31.2747 18.0664 33.4865 18.0664C34.2212 17.9822 34.9245 17.7209 35.5359 17.3049C36.1473 16.8889 36.6486 16.3307 36.9966 15.6782Z" fill="#1A0A14"/>
<path d="M33.5976 17.7294C34.9697 17.7294 36.0819 16.6171 36.0819 15.2451C36.0819 13.873 34.9697 12.7607 33.5976 12.7607C32.2256 12.7607 31.1133 13.873 31.1133 15.2451C31.1133 16.6171 32.2256 17.7294 33.5976 17.7294Z" fill="#674043"/>
<path d="M33.5976 16.7196C34.412 16.7196 35.0722 16.0595 35.0722 15.2451C35.0722 14.4307 34.412 13.7705 33.5976 13.7705C32.7832 13.7705 32.123 14.4307 32.123 15.2451C32.123 16.0595 32.7832 16.7196 33.5976 16.7196Z" fill="#111B1D"/>
<path d="M34.6234 15.2449C35.19 15.2449 35.6492 14.7857 35.6492 14.2191C35.6492 13.6526 35.19 13.1934 34.6234 13.1934C34.0569 13.1934 33.5977 13.6526 33.5977 14.2191C33.5977 14.7857 34.0569 15.2449 34.6234 15.2449Z" fill="#EBEBEB"/>
<path d="M37.8942 33.9177C37.1005 33.631 36.3547 33.2257 35.6824 32.7156C34.32 31.5455 31.3068 27.4103 34.0796 25.1504C37.4294 22.5058 44.1932 24.2528 43.9047 27.7309C43.6297 29.242 42.9113 30.6372 41.841 31.7389C40.7707 32.8406 39.3968 33.599 37.8942 33.9177Z" fill="#080D0F"/>
<path d="M30.2647 2.48671C30.2647 2.48671 30.6814 0.723642 26.2577 2.48671C21.834 4.24978 18.6124 5.80448 15.1985 6.81424C11.7845 7.824 11.3358 13.6902 12.8905 17.4888C14.4452 21.2874 17.8752 26.4805 18.6124 28.9007C19.3497 31.3209 19.7985 30.776 21.7379 28.468C24.3519 25.1136 25.7175 20.9544 25.6006 16.7034C25.3281 11.9752 28.0048 4.4902 30.2647 2.48671Z" fill="#2F2627"/>
<path d="M49.3698 3.44863C49.3698 3.44863 48.9531 1.68556 53.3768 3.44863C57.8005 5.2117 61.0221 6.78244 64.4361 7.7922C67.85 8.80196 68.2988 14.6682 66.7441 18.4668C65.1894 22.2654 61.7594 27.4424 61.0221 29.8786C60.2848 32.3149 59.8201 31.7539 57.8967 29.4459C55.2887 26.0884 53.9238 21.9314 54.034 17.6814C54.3064 12.9692 51.6298 5.46814 49.3698 3.44863Z" fill="#2F2627"/>
<path d="M55.8297 20.2944C55.9533 20.3427 56.0906 20.3427 56.2143 20.2944C57.3363 20.0701 57.9293 18.884 58.3461 17.8422C58.4582 17.5697 58.5384 17.201 58.3461 17.0568C58.2375 17.0162 58.118 17.0162 58.0094 17.0568C57.3444 17.1666 56.7436 17.519 56.3232 18.046C55.9029 18.5729 55.6928 19.2369 55.7335 19.9097C55.7177 20.0454 55.7518 20.1822 55.8297 20.2944Z" fill="#E2D9D4"/>
<path d="M66.1359 15.4696C65.7353 15.4622 65.3465 15.6052 65.046 15.8703C64.903 16.1091 64.8144 16.3767 64.7867 16.6538C64.759 16.9308 64.7928 17.2106 64.8857 17.4731C65.014 18.018 65.1262 18.5629 65.2544 19.0758C65.2886 19.3365 65.3759 19.5875 65.5108 19.8131C65.6975 19.8289 65.8851 19.8289 66.0718 19.8131C66.3122 19.3002 66.5366 18.8194 66.7289 18.3546C67.0945 17.4109 67.3421 16.4258 67.4663 15.4215C67.0224 15.3906 66.5764 15.4067 66.1359 15.4696Z" fill="#E2D9D4"/>
<path d="M19.8462 5.61204C20.04 6.00539 20.3165 6.35222 20.6568 6.62885C20.997 6.90548 21.393 7.10536 21.8176 7.21483C22.2658 7.39083 22.7639 7.39083 23.212 7.21483C23.5278 7.01659 23.7645 6.71446 23.8816 6.36049C23.9986 6.00651 23.9885 5.62282 23.8531 5.27544C23.6184 4.71787 23.222 4.24339 22.7152 3.91309C21.6894 4.36187 20.6956 4.76255 19.75 5.14722C19.772 5.30406 19.8042 5.45933 19.8462 5.61204Z" fill="#E2D9D4"/>
<path d="M12.1523 11.3661C12.0794 11.9616 12.0473 12.5614 12.0561 13.1612C12.202 13.1136 12.3419 13.049 12.4728 12.9689C12.7455 12.7814 12.9604 12.5215 13.0935 12.2186C13.2265 11.9156 13.2725 11.5815 13.2261 11.2539H13.0178L12.1523 11.3661Z" fill="#E2D9D4"/>
<path d="M15.8867 23.3874C16.5759 24.6375 17.217 25.8396 17.746 26.8654C17.9523 26.8678 18.157 26.8278 18.3472 26.7478C18.5374 26.6679 18.7092 26.5497 18.8519 26.4006C19.0984 26.0393 19.1976 25.5974 19.129 25.1654C19.0605 24.7334 18.8295 24.3438 18.4833 24.0765C17.765 23.567 16.8941 23.3181 16.015 23.3713L15.8867 23.3874Z" fill="#E2D9D4"/>
<g style="mix-blend-mode:multiply" opacity="0.55">
<path d="M26.9636 8.6582C25.3608 10.6457 24.2068 13.6269 22.7643 14.9412C21.3348 16.1786 19.5358 16.9079 17.6482 17.0151C15.7606 17.1224 13.8906 16.6017 12.3301 15.5342C12.4542 16.2024 12.6421 16.8572 12.8911 17.4896C14.4939 21.2882 17.8758 26.4812 18.613 28.9015C19.3503 31.3217 19.7991 30.7767 21.7385 28.4687C24.3525 25.1144 25.7181 20.9552 25.6012 16.7042C25.5731 13.9625 26.0345 11.2378 26.9636 8.6582Z" fill="#2F2627"/>
</g>
<g style="mix-blend-mode:multiply" opacity="0.55">
<path d="M58.3456 18.8512C57.3085 18.5182 56.3624 17.95 55.5811 17.191C54.7998 16.432 54.2046 15.5027 53.8418 14.4756C54.0209 15.5341 54.0854 16.6088 54.0341 17.6812C53.9239 21.9311 55.2888 26.0882 57.8969 29.4456C59.8202 31.7537 60.285 32.2986 61.0223 29.8784C61.7596 27.4582 65.1735 22.2651 66.7442 18.4665C67.2056 17.2826 67.4761 16.0329 67.5456 14.7641C66.611 16.3013 65.2292 17.5164 63.585 18.2468C61.9409 18.9773 60.1129 19.1882 58.3456 18.8512Z" fill="#2F2627"/>
</g>
<path d="M47.8472 54.4658C47.4698 53.8875 46.9424 53.4226 46.3214 53.1205C45.7004 52.8185 45.0091 52.6907 44.3211 52.7508C43.6016 52.8948 42.9627 53.3048 42.5319 53.8989C42.1012 54.493 41.9102 55.2277 41.9971 55.9564C42.166 56.8077 42.611 57.5796 43.2633 58.1522C43.7886 58.7786 44.5136 59.205 45.3163 59.3597C46.119 59.5144 46.9505 59.3879 47.671 59.0017C48.2577 58.4021 48.6006 57.6059 48.6332 56.7677C48.6658 55.9295 48.3856 55.1091 47.8472 54.4658Z" fill="#2F2627"/>
<path d="M91.8115 82.0978C92.0509 81.5894 92.0863 81.0085 91.9104 80.4748C91.7345 79.9411 91.3606 79.4951 90.8658 79.2288C89.8467 78.7278 88.7128 78.5066 87.5801 78.5876C86.8663 78.5342 86.1496 78.6382 85.4804 78.8922C85.1465 79.0252 84.8669 79.2666 84.6867 79.5777C84.5064 79.8887 84.436 80.2513 84.4867 80.6072C84.647 81.2964 85.3522 81.681 85.9933 81.9375C86.8051 82.2722 87.6409 82.5455 88.4937 82.7549C89.6637 83.0594 91.1543 83.1075 91.8115 82.0978Z" fill="#2F2627"/>
<path d="M91.5876 68.9551C92.7591 69.4773 94.0443 69.6924 95.3221 69.5802C95.9543 69.5065 96.5383 69.206 96.9657 68.7344C97.3931 68.2627 97.6349 67.6521 97.6461 67.0157C97.579 66.6038 97.4261 66.2107 97.1974 65.8617C96.6938 65.0327 96.0288 64.3132 95.242 63.746C95.1373 63.4551 94.9661 63.1927 94.7423 62.9796C94.5184 62.7664 94.2479 62.6085 93.9522 62.5182C93.6566 62.428 93.3439 62.408 93.0392 62.4597C92.7344 62.5115 92.4459 62.6336 92.1967 62.8164C92.0494 62.9636 91.9103 63.1188 91.7799 63.2812L89.8566 65.5892C89.611 65.8475 89.4202 66.1529 89.2956 66.4868C89.2395 66.7976 89.2679 67.1177 89.3779 67.4137C89.4878 67.7098 89.6753 67.9709 89.9207 68.1697C90.4266 68.5261 90.9906 68.7919 91.5876 68.9551Z" fill="#2F2627"/>
<path d="M141.001 56.9656C141.722 56.7172 142.494 56.6565 143.245 56.7893C143.871 57.0675 144.421 57.4924 144.847 58.0281C145.274 58.5638 145.566 59.1945 145.697 59.8667C146.034 60.7117 146.187 61.6186 146.146 62.5273C146.067 63.0604 145.873 63.5699 145.578 64.0206C145.282 64.4713 144.892 64.8525 144.435 65.1376C143.978 65.4227 143.464 65.6049 142.929 65.6717C142.394 65.7385 141.851 65.6883 141.338 65.5245C141.025 64.9065 140.573 64.3702 140.016 63.9583C139.46 63.5464 138.814 63.2704 138.132 63.1524C136.758 62.927 135.447 62.4136 134.286 61.6457C133.873 61.3336 133.598 60.8742 133.516 60.3635C133.42 59.1294 134.911 58.4722 136.113 58.1677L141.001 56.9656Z" fill="#2F2627"/>
<path d="M154.641 68.4256C154.535 68.719 154.476 69.0273 154.465 69.3392C154.337 71.0221 154.193 72.689 154.064 74.3559C155.078 74.4343 156.097 74.309 157.062 73.9872C157.903 73.753 158.649 73.2594 159.193 72.5768C159.462 72.2365 159.629 71.827 159.674 71.3958C159.72 70.9645 159.642 70.5293 159.45 70.1406C159.345 69.9548 159.204 69.7917 159.036 69.661C158.867 69.5302 158.674 69.4345 158.469 69.3792C158.263 69.324 158.048 69.3104 157.836 69.3393C157.625 69.3682 157.422 69.439 157.238 69.5475C157.387 69.2032 157.393 68.8139 157.254 68.4652C157.116 68.1165 156.845 67.8371 156.501 67.6883C156.156 67.5395 155.767 67.5336 155.418 67.6719C155.07 67.8101 154.79 68.0812 154.641 68.4256Z" fill="#2F2627"/>
<path d="M156.404 82.7384C156.056 83.1057 155.812 83.5595 155.699 84.0527C155.282 85.4212 155.044 86.8382 154.994 88.268C154.863 89.3833 155.105 90.5106 155.683 91.4736C155.986 91.9379 156.454 92.2703 156.992 92.4041C157.53 92.5379 158.099 92.4631 158.584 92.1948C158.522 90.7414 158.996 89.3158 159.914 88.1878C160.528 87.6192 161.028 86.9394 161.389 86.1844C161.854 84.6938 160.539 83.1872 159.097 82.5941C158.68 82.3621 158.206 82.2525 157.73 82.278C157.253 82.3036 156.794 82.4631 156.404 82.7384Z" fill="#2F2627"/>
<path d="M174.805 107.421C174.661 107.023 174.661 106.586 174.805 106.187C173.63 105.244 172.16 104.745 170.654 104.777C169.901 104.761 169.162 104.98 168.538 105.402C168.232 105.62 167.998 105.923 167.864 106.274C167.73 106.625 167.702 107.007 167.785 107.373C167.959 107.795 168.24 108.164 168.6 108.445C168.959 108.726 169.385 108.909 169.836 108.976C171.664 109.409 174.004 109.136 174.805 107.421Z" fill="#2F2627"/>
<path d="M184.773 120.116C183.892 120.468 184.212 121.718 184.677 122.632C185.142 123.545 185.478 124.042 185.863 124.748C186.225 124.627 186.56 124.435 186.847 124.183C187.134 123.932 187.368 123.625 187.536 123.282C187.703 122.938 187.8 122.565 187.821 122.184C187.842 121.802 187.787 121.421 187.658 121.061C187.498 120.981 187.306 120.885 187.29 120.709C187.274 120.532 187.578 120.388 187.61 120.564C186.745 121.045 185.703 119.731 184.773 120.116Z" fill="#2F2627"/>
<path d="M58.2976 102.164C57.7601 102.254 57.2544 102.479 56.8281 102.818C56.4018 103.158 56.0691 103.6 55.8613 104.104C55.4531 105.121 55.3528 106.236 55.5728 107.309V107.582C55.3537 108.592 55.4778 109.647 55.9254 110.579C56.2604 111.107 56.7904 111.481 57.4 111.621C58.0021 111.83 58.657 111.83 59.2592 111.621C59.5797 108.495 59.9484 105.37 60.3812 102.838C60.3812 102.741 60.3812 102.629 60.3812 102.517C59.7231 102.24 59.01 102.12 58.2976 102.164Z" fill="#2F2627"/>
<path d="M51.2452 127.248C52.2766 125.38 53.1093 123.408 53.7295 121.366C53.6015 121.094 53.4033 120.862 53.1553 120.693C52.9073 120.524 52.6186 120.424 52.3191 120.404C51.647 120.403 50.9874 120.586 50.4117 120.933C50.1393 121.061 49.9149 121.238 49.6584 121.382C49.6584 121.671 49.6584 121.975 49.6584 122.215C49.3705 124.493 48.926 126.747 48.3281 128.963C48.9337 129.026 49.5435 128.893 50.0684 128.585C50.5932 128.276 51.0056 127.808 51.2452 127.248Z" fill="#2F2627"/>
<path d="M54.3217 82.5301C53.9371 82.5301 53.5524 82.6102 53.1677 82.5301C52.3022 82.3698 51.9336 81.3761 51.5649 80.5587C51.2619 79.6809 50.744 78.8929 50.0583 78.2667C49.7093 77.9594 49.2875 77.7466 48.833 77.6484C48.3785 77.5502 47.9065 77.5699 47.4618 77.7057C47.1675 78.2436 46.9721 78.8299 46.8848 79.4367C47.029 80.767 47.2214 82.1615 47.4778 83.5879C47.8625 85.8639 48.2151 89.0214 48.5357 92.5956L48.744 92.7399C49.1047 93.0228 49.5279 93.2151 49.9782 93.3009C50.8597 93.381 51.581 92.6277 52.158 91.9545C53.7608 89.9671 55.5559 87.8033 55.7803 85.2228C55.9406 84.0848 55.5238 82.6583 54.3217 82.5301Z" fill="#2F2627"/>
<path d="M76.5212 58.1363C76.4921 58.6755 76.6382 59.2097 76.9379 59.659C77.275 60.3273 77.7716 60.9021 78.3839 61.3327C78.9962 61.7632 79.7051 62.0361 80.448 62.1273C81.9386 62.1273 83.4453 60.6527 82.9484 59.2422C82.3714 58.7293 82.3714 57.7676 81.8104 57.2387C81.4107 56.9216 80.9249 56.7317 80.416 56.6938C79.6487 56.5422 78.8592 56.5422 78.0919 56.6938C77.7194 56.7583 77.3732 56.9286 77.0947 57.1843C76.8162 57.4401 76.6171 57.7705 76.5212 58.1363Z" fill="#2F2627"/>
<path d="M48.9219 69.0665C49.0885 69.2404 49.3086 69.3533 49.547 69.3871C49.8733 69.4823 50.2181 69.4954 50.5508 69.4255C50.8835 69.3557 51.1938 69.2048 51.4543 68.9864C51.5685 68.8677 51.6551 68.7252 51.708 68.5692C51.7609 68.4132 51.7789 68.2475 51.7605 68.0838C51.7422 67.9201 51.6879 67.7624 51.6018 67.622C51.5156 67.4816 51.3996 67.3619 51.262 67.2714C50.9094 67.2714 50.5888 67.015 50.2522 67.031C50.0222 67.0659 49.8091 67.1725 49.6432 67.3355C49.3444 67.5218 49.0922 67.774 48.9059 68.0728C48.8104 68.2216 48.7609 68.3953 48.7638 68.5721C48.7666 68.7488 48.8217 68.9209 48.9219 69.0665Z" fill="#2F2627"/>
<path d="M130.856 52.0612C130.849 52.3571 130.933 52.648 131.096 52.8946C131.28 53.2704 131.555 53.5937 131.897 53.8347C132.239 54.0756 132.636 54.2264 133.052 54.273C133.255 54.281 133.458 54.2432 133.646 54.1624C133.833 54.0815 133.999 53.9597 134.133 53.8059C134.267 53.6521 134.365 53.4702 134.419 53.2736C134.473 53.0771 134.482 52.8708 134.446 52.6702C134.11 52.3817 134.11 51.8528 133.805 51.5643C133.587 51.3845 133.318 51.278 133.036 51.2598C132.607 51.1712 132.166 51.1712 131.737 51.2598C131.53 51.2971 131.337 51.3921 131.182 51.5338C131.026 51.6755 130.913 51.8583 130.856 52.0612Z" fill="#2F2627"/>
<path d="M145.554 77.9626C145.701 78.2218 145.925 78.429 146.195 78.5557C146.546 78.7758 146.947 78.9057 147.361 78.9336C147.775 78.9616 148.189 78.8868 148.567 78.7159C148.746 78.6165 148.9 78.4782 149.018 78.3111C149.136 78.1441 149.215 77.9526 149.248 77.751C149.282 77.5493 149.27 77.3425 149.213 77.1461C149.156 76.9497 149.056 76.7686 148.92 76.6163C148.503 76.6163 148.23 76.0874 147.814 75.9912C147.527 75.9688 147.239 76.0241 146.98 76.1515C146.568 76.282 146.186 76.4946 145.858 76.7765C145.696 76.9223 145.581 77.1126 145.527 77.3236C145.473 77.5346 145.482 77.7569 145.554 77.9626Z" fill="#2F2627"/>
</g>
<defs>
<clipPath id="clip0_158_3982">
<rect width="194.13" height="150.246" fill="white" transform="translate(12.041 0.515625)"/>
</clipPath>
</defs>
</svg>
