<svg width="219" height="208" viewBox="0 0 219 208" fill="none" xmlns="http://www.w3.org/2000/svg">
<path d="M217.567 187.609C217.567 188.596 217.026 189.697 215.682 190.904C214.342 192.107 212.307 193.314 209.594 194.493C204.175 196.846 196.272 198.989 186.429 200.797C166.761 204.41 139.548 206.651 109.46 206.651C79.3726 206.651 52.1593 204.41 32.4908 200.797C22.6483 198.989 14.745 196.846 9.326 194.493C6.61277 193.314 4.57852 192.107 3.23819 190.904C1.89453 189.697 1.35352 188.596 1.35352 187.609C1.35352 186.621 1.89453 185.52 3.23819 184.313C4.57852 183.11 6.61277 181.903 9.326 180.724C14.745 178.371 22.6483 176.228 32.4908 174.42C52.1593 170.807 79.3726 168.566 109.46 168.566C139.548 168.566 166.761 170.807 186.429 174.42C196.272 176.228 204.175 178.371 209.594 180.724C212.307 181.903 214.342 183.11 215.682 184.313C217.026 185.52 217.567 186.621 217.567 187.609Z" stroke="#737E85" stroke-width="2"/>
<g opacity="0.4">
<path d="M38.4101 197.513C19.5695 194.387 10.1509 190.718 10.1543 186.504C10.1543 183.695 15.007 181.098 24.7124 178.715C34.4178 176.331 47.2278 174.458 63.1424 173.095C79.0673 171.721 95.856 171.044 113.508 171.065C139.424 171.065 161.366 172.42 179.334 175.129C197.302 177.839 206.288 181.49 206.292 186.081C206.292 190.568 196.983 194.386 178.432 197.513C159.882 200.64 136.767 202.221 109.088 202.221C80.8274 202.221 57.268 200.652 38.4101 197.513Z" fill="white"/>
</g>
<g clip-path="url(#clip0_158_4570)">
<path d="M52.6511 91.4902C52.6511 91.4902 58.522 103.05 55.1776 124.662C51.9967 145.201 51.9967 149.255 52.5602 163.014C52.6313 164.531 52.4155 166.048 51.924 167.486C50.2336 172.466 46.9982 183.553 44.5262 188.443C44.1667 189.139 43.6212 189.721 42.9506 190.125C42.28 190.529 41.5104 190.74 40.7273 190.733H35.0563C34.0879 190.752 33.1272 190.558 32.2417 190.165C31.3561 189.773 30.5673 189.191 29.9306 188.461C29.5693 188.09 29.2915 187.646 29.1159 187.158C28.9402 186.671 28.8707 186.152 28.912 185.636C28.9533 185.119 29.1044 184.618 29.3553 184.165C29.6062 183.712 29.9511 183.317 30.3668 183.008C31.8085 181.88 33.5891 181.271 35.4199 181.281C35.4199 181.281 39.8912 181.845 41.1999 176.428C42.5086 171.012 43.472 142.802 39.146 130.588C37.3284 125.607 32.3299 115.701 31.1484 112.193C26.4589 98.1973 29.9851 99.7786 35.0382 91.4357C41.3817 81.057 51.6695 89 52.6511 91.4902Z" fill="#201F34"/>
<path d="M52.2875 152.162L51.7059 152.598C50.525 153.887 49.1365 154.968 47.598 155.797C47.2345 155.979 46.8528 156.088 46.4711 156.252C46.0894 156.415 45.635 156.67 45.2533 156.833C44.2876 157.238 43.2981 157.584 42.2905 157.87C42.4605 164.118 42.0957 170.369 41.1999 176.555C39.8912 182.008 35.4199 181.408 35.4199 181.408C33.5891 181.398 31.8085 182.006 30.3668 183.135C29.9511 183.444 29.6062 183.838 29.3553 184.291C29.1044 184.744 28.9533 185.246 28.912 185.762C28.8707 186.278 28.9402 186.798 29.1159 187.285C29.2915 187.772 29.5693 188.216 29.9306 188.588C30.5673 189.317 31.3561 189.899 32.2417 190.292C33.1272 190.684 34.0879 190.878 35.0563 190.86H40.7273C41.5104 190.866 42.28 190.656 42.9506 190.252C43.6212 189.847 44.1667 189.265 44.5262 188.569C46.9982 183.68 50.2336 172.592 51.924 167.612C52.4155 166.175 52.6313 164.658 52.5602 163.141C52.3784 158.687 52.2693 155.307 52.2875 152.162Z" fill="#895834"/>
<g style="mix-blend-mode:multiply" opacity="0.55">
<path d="M45.8167 156.489C44.6872 157.013 43.5052 157.415 42.2905 157.688C42.4702 163.973 42.1053 170.261 41.1999 176.483C39.8912 181.936 35.4199 181.336 35.4199 181.336C33.5891 181.326 31.8085 181.934 30.3668 183.063C29.9511 183.372 29.6062 183.766 29.3553 184.219C29.1044 184.672 28.9533 185.174 28.912 185.69C28.8707 186.206 28.9402 186.726 29.1159 187.213C29.2915 187.7 29.5693 188.144 29.9306 188.515C30.5673 189.245 31.3561 189.827 32.2417 190.22C33.1272 190.612 34.0879 190.806 35.0563 190.788H40.7273C41.5104 190.794 42.28 190.584 42.9506 190.18C43.6212 189.775 44.1667 189.193 44.5262 188.497C46.9982 183.608 50.2336 172.52 51.924 167.54C52.4155 166.103 52.6313 164.586 52.5602 163.069C52.3784 158.688 52.2693 155.307 52.2875 152.054C50.3463 153.825 48.1686 155.317 45.8167 156.489Z" fill="#895834"/>
</g>
<path d="M186.956 158.979C186.956 154.507 182.012 152.544 182.012 152.544L179.485 150.345C179.485 150.345 162.836 139.548 159.491 123.081C158.801 119.718 158.11 116.501 157.31 113.483H123.175L121.357 120.936C122.921 122.099 132.263 123.626 133.572 125.698C149.222 149.545 164.872 157.379 171.47 158.506C178.068 159.633 179.285 172.575 179.413 178.028C179.54 183.481 176.195 184.026 176.195 184.026C171.942 184.517 171.215 186.171 171.542 187.661C171.768 188.523 172.279 189.284 172.992 189.818C173.705 190.353 174.578 190.631 175.468 190.606C184.048 190.606 185.847 189.915 186.883 186.807C187.919 183.699 186.956 163.45 186.956 158.979Z" fill="#201F34"/>
<path d="M186.736 157.488H167.688C168.935 157.982 170.225 158.359 171.541 158.615C178.121 159.724 179.357 172.684 179.484 178.137C179.611 183.59 176.267 184.135 176.267 184.135C172.013 184.626 171.286 186.28 171.614 187.77C171.839 188.632 172.35 189.393 173.063 189.927C173.776 190.462 174.649 190.74 175.54 190.715C184.119 190.715 185.918 190.024 186.954 186.916C187.991 183.808 186.954 163.432 186.954 158.961C186.948 158.462 186.875 157.967 186.736 157.488Z" fill="#895834"/>
<g style="mix-blend-mode:multiply" opacity="0.55">
<path d="M186.701 157.343H167.361C168.728 157.906 170.146 158.332 171.596 158.615C178.176 159.724 179.412 172.684 179.54 178.137C179.667 183.589 176.322 184.135 176.322 184.135C172.069 184.625 171.342 186.28 171.669 187.77C171.895 188.632 172.405 189.393 173.118 189.927C173.831 190.462 174.704 190.739 175.595 190.715C184.174 190.715 185.974 190.024 187.01 186.916C188.046 183.808 187.01 163.432 187.01 158.96C186.983 158.409 186.879 157.865 186.701 157.343Z" fill="#895834"/>
</g>
<path d="M151.166 97.4699C151.166 97.4699 162.708 84.7465 164.962 87.4002C167.216 90.054 160.109 102.323 158.055 106.413C156.001 110.502 151.166 97.4699 151.166 97.4699Z" fill="#28273B"/>
<path d="M185.539 153.38C185.539 153.38 168.889 142.583 165.545 126.116C162.2 109.648 159.146 97.0333 141.915 91.8349C126.338 87.0908 88.6222 88.9267 65.0838 77.8572C60.7578 75.8215 49.7066 52.5376 48.3433 43.7402H27.7677C30.0034 48.2116 33.3661 64.6067 29.5854 77.6573C26.6408 87.9633 18.825 103.595 36.8559 117.791C41.6727 121.59 42.018 127.515 51.1243 130.969C94.3659 147.327 123.83 104.867 139.48 128.733C155.129 152.598 170.798 160.414 177.377 161.541C183.957 162.668 185.193 175.61 185.339 181.063C185.484 186.516 182.121 187.061 182.121 187.061C177.85 187.552 177.123 189.206 177.45 190.696C177.678 191.557 178.19 192.315 178.902 192.849C179.615 193.384 180.486 193.662 181.376 193.641C189.955 193.641 191.755 192.95 192.791 189.842C193.827 186.734 192.791 166.358 192.791 161.887C192.791 157.415 187.847 155.452 187.847 155.452L185.539 153.38Z" fill="#3E3D4F"/>
<g style="mix-blend-mode:multiply" opacity="0.32">
<path d="M30.8575 71.5502C32.1958 71.0242 33.6046 70.6995 35.0381 70.5869C42.1996 70.0052 50.1245 71.3321 53.687 63.4799C53.996 62.7892 54.305 62.0985 54.5958 61.4078C51.8069 55.804 49.684 49.8927 48.2705 43.7949H27.7676C29.6761 47.5756 32.348 59.9355 30.8575 71.5502Z" fill="#3E3D4F"/>
</g>
<g style="mix-blend-mode:screen" opacity="0.15">
<path d="M119.121 98.7606C126.028 97.8154 131.845 93.3077 138.37 90.9993C121.23 87.364 87.058 88.2183 65.1191 77.9668C68.5908 92.9078 88.7302 102.977 119.121 98.7606Z" fill="#3E3D4F"/>
</g>
<g style="mix-blend-mode:multiply" opacity="0.55">
<path d="M192.917 161.96C192.917 157.488 187.973 155.525 187.973 155.525L185.538 153.38C181.503 150.582 177.838 147.284 174.632 143.565C171.767 144.219 168.772 143.997 166.034 142.929C158 139.73 152.039 132.95 146.295 126.661C136.661 116.119 127.428 112.811 113.286 115.755C96.5461 119.281 79.8602 125.698 63.2288 117.464C54.4568 113.057 46.8236 106.681 40.9264 98.833C40.1448 97.8333 39.4178 96.7972 38.7271 95.743C36.346 96.47 28.9664 97.0881 25.6583 93.3438C24.8403 101.123 26.7125 109.702 37.0548 117.791C41.8716 121.59 42.2169 127.515 51.3233 130.969C94.5649 147.328 124.029 104.868 139.679 128.733C155.328 152.599 170.996 160.414 177.576 161.541C184.156 162.668 185.392 175.61 185.538 181.063C185.683 186.516 182.32 187.061 182.32 187.061C178.049 187.552 177.322 189.206 177.649 190.696C177.877 191.557 178.389 192.315 179.101 192.85C179.814 193.384 180.685 193.663 181.575 193.641C190.154 193.641 191.954 192.95 192.99 189.842C194.026 186.734 192.917 166.431 192.917 161.96Z" fill="#6C6979"/>
</g>
<path d="M189.264 180.336C189.046 173.992 188.155 160.342 179.812 158.906C176.638 158.615 173.444 158.615 170.27 158.906C172.556 160.125 175.004 161.013 177.54 161.541C184.12 162.65 185.356 175.61 185.501 181.063C185.647 186.516 182.284 187.061 182.284 187.061C178.013 187.552 177.286 189.206 177.613 190.696C177.841 191.557 178.353 192.315 179.065 192.849C179.777 193.384 180.649 193.662 181.539 193.641C190.118 193.641 191.918 192.95 192.954 189.842C193.022 189.616 193.071 189.385 193.099 189.151C190.858 186.732 189.506 183.624 189.264 180.336Z" fill="#895834"/>
<path d="M55.4497 94.871C55.4497 94.871 61.3207 106.413 57.9762 128.043C54.7772 148.564 54.7954 152.636 55.3588 166.377C55.4219 167.894 55.2063 169.409 54.7226 170.848C53.0141 175.829 49.7968 186.934 47.3249 191.806C46.9669 192.503 46.4219 193.086 45.7509 193.49C45.0799 193.895 44.3095 194.105 43.526 194.096H37.855C36.8865 194.114 35.9258 193.92 35.0403 193.528C34.1548 193.135 33.366 192.554 32.7292 191.824C32.367 191.454 32.0879 191.011 31.9108 190.524C31.7336 190.038 31.6625 189.519 31.702 189.002C31.7416 188.486 31.8911 187.984 32.1403 187.53C32.3896 187.077 32.7329 186.681 33.1473 186.371C34.5889 185.218 36.3731 184.579 38.2185 184.553C38.2185 184.553 42.6899 185.117 43.9986 179.7C45.3073 174.284 46.0343 146.31 41.9447 133.987C37.855 121.663 31.4932 105.286 37.8368 94.8528C44.1803 84.4196 54.4682 92.3627 55.4497 94.871Z" fill="#3E3D4F"/>
<path d="M54.3955 156.507L53.214 157.343C50.8029 159.104 47.9681 160.196 44.9983 160.506C45.2215 166.969 44.887 173.44 43.9986 179.845C42.6899 185.298 38.2185 184.698 38.2185 184.698C36.3731 184.724 34.5889 185.364 33.1473 186.516C32.7329 186.827 32.3896 187.222 32.1403 187.676C31.8911 188.13 31.7416 188.632 31.702 189.148C31.6625 189.664 31.7336 190.183 31.9108 190.669C32.0879 191.156 32.367 191.599 32.7292 191.969C33.366 192.699 34.1548 193.281 35.0403 193.673C35.9258 194.066 36.8865 194.259 37.855 194.241H43.526C44.3095 194.25 45.0799 194.04 45.7509 193.636C46.4219 193.231 46.9669 192.648 47.3249 191.951C49.7968 187.08 53.0141 175.974 54.7226 170.993C55.2063 169.554 55.4219 168.039 55.3588 166.522C55.1952 162.614 55.0862 159.488 55.068 156.543C54.8499 156.452 54.6681 156.452 54.3955 156.507Z" fill="#895834"/>
<path d="M43.5801 25.4551C43.5801 25.4551 48.0696 16.5305 49.033 11.2594C49.9963 5.98822 51.3596 -3.53619 52.6683 3.37083C52.85 4.27965 52.1957 8.4784 53.5044 12.1318C54.8131 15.7853 57.4668 27.6545 57.0306 29.2722C56.5943 30.8899 54.395 33.2164 51.9049 36.4336C49.4147 39.6508 43.5801 25.4551 43.5801 25.4551Z" fill="#3E3D4F"/>
<path d="M48.7601 33.271C49.7053 32.0713 50.7777 30.9808 51.7411 29.7993C53.5587 27.4909 53.1406 25.1098 52.7589 22.4015C52.5226 20.5839 51.9228 16.0398 49.9416 19.9477C49.1782 21.4382 48.5784 22.965 47.8695 24.4736C47.1519 26.0275 46.2086 27.4669 45.0703 28.7451C45.9549 30.6307 46.9692 32.4527 48.1058 34.198C48.3239 33.9072 48.5056 33.5982 48.7601 33.271Z" fill="#A15225"/>
<path d="M35.5645 25.4551C35.5645 25.4551 31.0749 16.5305 30.1115 11.2594C29.1482 5.98822 27.7668 -3.53619 26.4763 3.37083C26.2945 4.27965 26.9489 8.4784 25.6402 12.1318C24.3315 15.7853 21.6959 27.6545 22.1322 29.2722C22.5684 30.8899 24.7677 33.2164 27.2579 36.4336C29.7481 39.6508 35.5645 25.4551 35.5645 25.4551Z" fill="#3E3D4F"/>
<path d="M30.4024 33.271C29.4391 32.0713 28.3667 30.9808 27.4215 29.7993C25.6039 27.4909 26.0038 25.1098 26.3855 22.4015C26.6399 20.5839 27.2216 16.0398 29.221 19.9477C29.9662 21.4382 30.566 22.965 31.2749 24.4736C31.9925 26.0275 32.9358 27.4669 34.0741 28.7451C33.1895 30.6307 32.1752 32.4527 31.0386 34.198C30.8205 33.9072 30.6387 33.5982 30.4024 33.271Z" fill="#A15225"/>
<path d="M50.3064 28.7088C49.2885 26.673 45.2352 25.0735 42.3997 24.2192C40.501 23.6196 38.4638 23.6196 36.5651 24.2192C33.7114 25.0917 29.658 26.673 28.6402 28.7088C26.7516 32.2658 25.7009 36.2075 25.5684 40.2326C25.5684 44.2678 27.7314 52.1927 30.1488 55.2281C30.617 56.9621 30.9452 58.7309 31.1303 60.5174C31.403 63.2257 33.2206 66.661 37.8556 65.316C38.9119 65.007 40.0347 65.007 41.091 65.316C45.726 66.661 47.5436 63.2257 47.8344 60.5174C48.0087 58.7307 48.3309 56.9616 48.7977 55.2281C51.2152 52.1927 53.36 44.3223 53.3782 40.2326C53.2547 36.2062 52.2035 32.2625 50.3064 28.7088Z" fill="#3E3D4F"/>
<path d="M52.0873 41.7952C51.342 40.7773 50.0333 47.1209 48.0703 46.7028C44.1079 45.8667 43.1445 51.2469 39.4002 51.2469C36.8555 51.2469 34.7471 45.6486 30.9482 46.2847C29.4214 46.5392 27.0039 39.7957 26.8221 41.4861C26.6949 42.7221 26.7131 45.5395 28.6398 52.6646C29.035 53.5741 29.5353 54.4342 30.1302 55.2275C30.5984 56.9615 30.9266 58.7303 31.1118 60.5168C31.3844 63.2251 33.202 64.6428 37.837 63.2978C38.9021 63.0072 40.0255 63.0072 41.0906 63.2978C45.7074 64.6428 47.525 63.2978 47.8159 60.5168C47.9902 58.7301 48.3124 56.961 48.7792 55.2275C49.5924 54.1085 50.2526 52.886 50.7422 51.5923C52.1418 46.7392 52.5053 42.3768 52.0873 41.7952Z" fill="#895834"/>
<path d="M43.7617 37.8332C43.7617 37.8332 45.2158 35.4885 46.8517 35.7429C47.901 35.9366 48.8442 36.505 49.5055 37.3424C49.5055 37.3424 48.4694 40.3779 46.6336 40.3779C44.7977 40.3779 43.7617 37.8332 43.7617 37.8332Z" fill="#1A0A14"/>
<path d="M48.6516 38.0514C48.6516 38.454 48.5322 38.8476 48.3085 39.1823C48.0848 39.5171 47.7668 39.778 47.3949 39.9321C47.0229 40.0862 46.6136 40.1266 46.2187 40.048C45.8238 39.9695 45.461 39.7756 45.1763 39.4909C44.8916 39.2062 44.6978 38.8434 44.6192 38.4485C44.5407 38.0536 44.5809 37.6443 44.735 37.2723C44.8891 36.9003 45.15 36.5824 45.4848 36.3587C45.8196 36.135 46.2132 36.0156 46.6158 36.0156C47.1558 36.0156 47.6736 36.2301 48.0553 36.6119C48.4371 36.9936 48.6516 37.5115 48.6516 38.0514Z" fill="#672E28"/>
<path d="M46.6157 39.2508C47.2782 39.2508 47.8153 38.7137 47.8153 38.0512C47.8153 37.3887 47.2782 36.8516 46.6157 36.8516C45.9531 36.8516 45.416 37.3887 45.416 38.0512C45.416 38.7137 45.9531 39.2508 46.6157 39.2508Z" fill="#111B1D"/>
<path d="M48.3062 37.2148C48.3062 37.3846 48.2556 37.5504 48.1609 37.6913C48.0662 37.8321 47.9317 37.9416 47.7746 38.0057C47.6174 38.0698 47.4447 38.0856 47.2785 38.0511C47.1123 38.0166 46.9601 37.9335 46.8414 37.8122C46.7227 37.6909 46.6428 37.5369 46.6119 37.37C46.581 37.2031 46.6006 37.0308 46.668 36.8751C46.7355 36.7193 46.8478 36.5872 46.9907 36.4956C47.1335 36.4039 47.3004 36.3569 47.4701 36.3605C47.6935 36.3653 47.9062 36.4574 48.0625 36.6171C48.2188 36.7768 48.3063 36.9914 48.3062 37.2148Z" fill="#EBEBEB"/>
<path d="M35.0367 37.8332C35.0367 37.8332 33.5826 35.4885 31.9467 35.7429C30.8974 35.9366 29.9543 36.505 29.293 37.3424C29.293 37.3424 30.3472 40.3779 32.1648 40.3779C33.9824 40.3779 35.0367 37.8332 35.0367 37.8332Z" fill="#1A0A14"/>
<path d="M32.1647 40.0871C33.289 40.0871 34.2004 39.1757 34.2004 38.0514C34.2004 36.9271 33.289 36.0156 32.1647 36.0156C31.0403 36.0156 30.1289 36.9271 30.1289 38.0514C30.1289 39.1757 31.0403 40.0871 32.1647 40.0871Z" fill="#672E28"/>
<path d="M32.1664 39.2508C32.829 39.2508 33.3661 38.7137 33.3661 38.0512C33.3661 37.3887 32.829 36.8516 32.1664 36.8516C31.5039 36.8516 30.9668 37.3887 30.9668 38.0512C30.9668 38.7137 31.5039 39.2508 32.1664 39.2508Z" fill="#111B1D"/>
<path d="M33.855 37.2148C33.855 37.3846 33.8044 37.5504 33.7097 37.6913C33.615 37.8321 33.4805 37.9416 33.3233 38.0057C33.1662 38.0698 32.9935 38.0856 32.8273 38.0511C32.6611 38.0166 32.5089 37.9335 32.3902 37.8122C32.2715 37.6909 32.1916 37.5369 32.1608 37.37C32.1299 37.2031 32.1494 37.0308 32.2168 36.8751C32.2843 36.7193 32.3966 36.5872 32.5394 36.4956C32.6823 36.4039 32.8492 36.3569 33.0189 36.3605C33.2423 36.3653 33.455 36.4574 33.6113 36.6171C33.7676 36.7768 33.8551 36.9914 33.855 37.2148Z" fill="#EBEBEB"/>
<path d="M36.6377 35.052C36.518 35.3065 36.31 35.509 36.0524 35.622C35.7948 35.735 35.505 35.7508 35.2366 35.6665C34.9682 35.5823 34.7395 35.4036 34.5927 35.1636C34.446 34.9236 34.3912 34.6386 34.4384 34.3613C34.5474 34.0985 34.7547 33.8887 35.0162 33.7767C35.2777 33.6646 35.5726 33.6591 35.838 33.7614C35.9754 33.7935 36.105 33.8524 36.2195 33.9347C36.3341 34.0169 36.4313 34.121 36.5056 34.2408C36.5798 34.3607 36.6298 34.4941 36.6524 34.6332C36.6751 34.7724 36.6701 34.9147 36.6377 35.052Z" fill="#895834"/>
<path d="M42.308 35.052C42.4277 35.3065 42.6357 35.509 42.8933 35.622C43.1509 35.735 43.4407 35.7508 43.7091 35.6665C43.9774 35.5823 44.2062 35.4036 44.353 35.1636C44.4997 34.9236 44.5545 34.6386 44.5073 34.3613C44.3983 34.0985 44.191 33.8887 43.9295 33.7767C43.668 33.6646 43.3732 33.6591 43.1077 33.7614C42.9704 33.7935 42.8407 33.8524 42.7261 33.9347C42.6116 34.0169 42.5144 34.121 42.4401 34.2408C42.3659 34.3607 42.3159 34.4941 42.2933 34.6332C42.2706 34.7724 42.2756 34.9147 42.308 35.052Z" fill="#895834"/>
<path d="M40.1272 55.2828H39.9637L40.2 54.7012L39.4547 55.0465L38.7095 54.7012C38.7095 54.7012 38.7095 54.9375 38.9276 55.2828H38.764C37.9708 57.1703 36.7217 58.8315 35.1287 60.1177C34.4653 60.428 33.7263 60.54 33.0007 60.44C32.2751 60.3401 31.5939 60.0324 31.0391 59.5542C34.947 63.9711 38.1097 61.6809 39.4911 58.8817C40.8543 61.6809 44.017 63.9711 47.9431 59.5542C47.3552 60.0418 46.6373 60.3464 45.8781 60.4304C45.119 60.5144 44.3519 60.3741 43.6717 60.0268C42.1335 58.7463 40.9191 57.1209 40.1272 55.2828Z" fill="#14192C"/>
<path d="M42.0352 41.0144C41.0719 39.7057 39.3997 40.7417 39.3997 40.7417C39.3997 40.7417 37.7093 39.7057 36.7459 41.0144C35.7826 42.3231 32.7835 47.5397 33.3833 49.8663C33.2924 53.2107 37.3639 58.3364 39.3997 58.3364C41.4172 58.3364 45.416 53.4288 45.416 49.8844C44.9998 46.7037 43.8417 43.6653 42.0352 41.0144Z" fill="#494859"/>
<path d="M42.6344 49.2117C40.4667 49.1026 38.2949 49.1026 36.1272 49.2117C35.5722 49.2575 35.045 49.4744 34.6185 49.8325C34.192 50.1907 33.8872 50.6723 33.7461 51.2111C33.7461 54.0284 37.3814 58.318 39.399 58.318C41.4711 58.318 45.0518 54.0284 45.0337 51.2111C44.7909 50.732 44.4529 50.3076 44.0403 49.9638C43.6277 49.62 43.1493 49.364 42.6344 49.2117Z" fill="#14192C"/>
<path d="M43.7625 52.6472C43.6983 53.1217 43.4893 53.5649 43.164 53.9162C42.8387 54.2675 42.413 54.5099 41.9449 54.6103C41.7422 54.643 41.5348 54.6314 41.337 54.5762C41.1393 54.5209 40.9559 54.4234 40.7995 54.2903C40.6432 54.1572 40.5176 53.9917 40.4315 53.8053C40.3454 53.6189 40.3008 53.416 40.3008 53.2107C40.3008 53.0054 40.3454 52.8025 40.4315 52.6161C40.5176 52.4297 40.6432 52.2643 40.7995 52.1312C40.9559 51.9981 41.1393 51.9005 41.337 51.8453C41.5348 51.79 41.7422 51.7784 41.9449 51.8111C42.781 51.8111 43.7625 51.8657 43.7625 52.6472Z" fill="#070C02"/>
<path d="M35 52.6472C35.0697 53.1342 35.2921 53.5865 35.635 53.9393C35.9779 54.292 36.4238 54.5268 36.9086 54.6103C37.1112 54.643 37.3186 54.6314 37.5164 54.5762C37.7141 54.5209 37.8975 54.4234 38.0538 54.2903C38.2102 54.1572 38.3358 53.9917 38.4219 53.8053C38.508 53.6189 38.5526 53.416 38.5526 53.2107C38.5526 53.0054 38.508 52.8025 38.4219 52.6161C38.3358 52.4297 38.2102 52.2643 38.0538 52.1312C37.8975 51.9981 37.7141 51.9005 37.5164 51.8453C37.3186 51.79 37.1112 51.7784 36.9086 51.8111C36.0179 51.8111 35 51.8657 35 52.6472Z" fill="#070C02"/>
</g>
<defs>
<clipPath id="clip0_158_4570">
<rect width="171.385" height="193.16" fill="white" transform="translate(22.0234 0.953125)"/>
</clipPath>
</defs>
</svg>
