<svg width="219" height="121" viewBox="0 0 219 121" fill="none" xmlns="http://www.w3.org/2000/svg">
<path d="M217.213 100.798C217.213 101.785 216.672 102.887 215.328 104.093C213.988 105.296 211.954 106.504 209.241 107.682C203.822 110.035 195.918 112.178 186.076 113.986C166.407 117.599 139.194 119.84 109.107 119.84C79.0191 119.84 51.8058 117.599 32.1372 113.986C22.2948 112.178 14.3915 110.035 8.97249 107.682C6.25925 106.504 4.225 105.296 2.88467 104.093C1.54101 102.887 1 101.785 1 100.798C1 99.8109 1.54101 98.7091 2.88467 97.5029C4.225 96.2997 6.25925 95.0923 8.97249 93.9139C14.3915 91.5604 22.2948 89.4176 32.1372 87.6096C51.8058 83.9966 79.0191 81.7559 109.107 81.7559C139.194 81.7559 166.407 83.9966 186.076 87.6096C195.918 89.4176 203.822 91.5604 209.241 93.9139C211.954 95.0923 213.988 96.2997 215.328 97.5029C216.672 98.7091 217.213 99.8109 217.213 100.798Z" stroke="#737E85" stroke-width="2"/>
<g opacity="0.4">
<path d="M38.0566 110.702C19.216 107.577 9.79735 103.907 9.80078 99.6933C9.80078 96.8841 14.6535 94.2877 24.3589 91.9043C34.0642 89.5209 46.8742 87.6475 62.7889 86.284C78.7138 84.9103 95.5025 84.2338 113.155 84.2544C139.07 84.2544 161.012 85.6092 178.98 88.3189C196.949 91.0286 205.935 94.6792 205.938 99.2709C205.938 103.758 196.629 107.575 178.079 110.702C159.528 113.829 136.414 115.41 108.735 115.41C80.4739 115.41 56.9145 113.841 38.0566 110.702Z" fill="white"/>
</g>
<path d="M65.6202 83.7844C65.6202 83.7844 69.3827 98.3642 64.0525 98.9913C62.328 99.1481 56.3706 98.6778 55.1164 101.343C54.4894 102.597 56.0571 104.949 58.0951 104.949C61.0738 105.105 64.0525 105.419 70.1666 104.635C70.1666 104.635 78.3187 94.1314 75.9671 86.136C73.4588 78.1406 66.7176 79.3948 65.6202 83.7844Z" fill="#A94408"/>
<path d="M61.5446 99.1475C59.0363 99.1475 55.7441 99.461 54.9602 101.342C54.3331 102.596 55.9008 104.948 57.9389 104.948C60.9175 105.105 63.8962 105.418 70.0103 104.634C70.0103 104.634 70.6374 103.851 71.4213 102.596C68.1291 102.283 64.3665 101.185 61.5446 99.1475Z" fill="#D78A5E"/>
<path d="M145.572 85.1949C145.572 85.1949 162.974 98.3638 157.644 98.9909C155.919 99.1476 149.962 98.6773 148.708 101.342C148.081 102.597 149.648 104.948 151.686 104.948C154.665 105.105 157.644 105.419 163.758 104.635C163.758 104.635 167.677 94.2877 163.601 85.3517C160.152 77.6698 146.826 80.8053 145.572 85.1949Z" fill="#A94408"/>
<path d="M157.174 99.1475C155.136 99.3042 149.649 98.8339 148.552 101.499C147.925 102.753 149.493 105.105 151.531 105.105C154.509 105.262 157.488 105.575 163.602 104.791C163.602 104.791 164.072 103.38 164.543 101.342C162.191 101.342 159.526 100.558 157.174 99.1475Z" fill="#D78A5E"/>
<path d="M52.9223 38.4759C52.9223 38.4759 52.452 56.0344 50.414 67.1652C48.3759 78.296 65.6209 105.418 99.0134 97.4222C132.406 89.4269 113.907 83.3127 140.401 91.7784C166.896 100.244 162.82 85.5075 160.155 78.6096C157.96 72.809 170.345 53.8396 147.77 50.3906C143.537 49.7635 135.855 50.077 128.957 50.5473C84.5903 53.2125 79.5736 34.243 73.3027 23.5825C66.8751 12.922 48.5327 29.3831 52.9223 38.4759Z" fill="#DA7B45"/>
<path opacity="0.32" d="M159.841 77.983C147.926 72.1825 134.757 67.7929 121.588 70.3012C111.555 72.0257 101.208 74.2205 90.8609 73.1231C81.9249 72.1825 74.7134 67.3225 70.3238 59.4839C67.0315 53.6833 64.2096 47.8828 59.3497 43.1796C56.9981 40.9848 54.6465 38.9468 52.4517 36.752C52.6085 37.379 52.7653 38.0061 52.922 38.4764C52.922 38.4764 52.4517 56.0349 50.4137 67.1658C48.5324 78.2966 65.6206 105.418 99.0131 97.4228C132.406 89.4274 113.906 83.3133 140.401 91.779C166.895 100.245 162.819 85.5081 160.154 78.6101C159.997 78.4534 159.997 78.1398 159.841 77.983Z" fill="#D37B45"/>
<path d="M77.2215 27.6591C77.8486 28.1295 78.4757 28.443 79.1028 28.9133C77.3783 26.0914 75.9673 23.4263 74.7132 21.2315C71.4209 15.5877 64.3662 18.4096 59.9766 23.4263C65.6204 22.956 71.4209 23.8966 77.2215 27.6591Z" fill="#FAE7D6"/>
<path d="M148.71 89.8972C146.829 89.1133 145.105 88.0159 143.537 86.9185C142.283 86.7617 141.185 86.605 139.931 86.1346C136.325 84.8805 133.347 82.8424 129.427 82.0586C122.059 80.6476 116.259 80.1773 109.204 82.8424C100.738 86.1346 85.5312 90.2107 78.3196 82.0586C73.3029 76.258 77.379 68.7329 82.866 67.1652C83.3363 65.5975 83.9634 63.873 84.4338 62.3053C94.1536 55.4073 91.175 44.9035 91.175 44.9035C80.2009 38.9462 76.9087 29.8534 73.1461 23.5825C66.8753 12.922 48.5329 29.3831 52.9225 38.4759C52.9225 38.4759 52.9225 39.5733 52.7658 41.4546C48.3761 40.2004 43.5162 38.9462 42.1052 39.4165C41.7917 45.5306 49.3168 52.7422 47.749 69.2032C46.3381 83.4695 65.6211 105.574 99.0136 97.4222C132.406 89.4269 113.907 83.3127 140.401 91.7784C152.159 95.541 157.803 94.7571 160.312 92.092C156.549 92.4055 152.63 91.7784 148.71 89.8972Z" fill="#FAE7D6"/>
<path d="M148.71 89.8988C146.828 89.1149 145.104 88.0175 143.536 86.9201C142.282 86.7633 141.185 86.6066 139.93 86.1362C136.325 84.8821 133.346 82.844 129.427 82.0602C122.058 80.6492 116.258 80.1789 109.203 82.844C100.737 86.1363 85.5305 90.2123 78.319 82.0602C75.6539 78.9247 75.4971 75.4757 76.9081 72.4971C70.6372 75.4757 64.8366 79.7086 57.4683 78.1409C54.4896 77.5138 51.1974 76.2596 48.2188 74.5351C51.3542 88.1743 69.8533 104.322 99.0129 97.2671C132.405 89.2717 113.906 83.1576 140.401 91.6233C152.159 95.3858 157.803 94.6019 160.311 91.9368C156.548 92.4071 152.629 91.7801 148.71 89.8988Z" fill="#FAE7D6"/>
<path d="M155.452 52.9004C155.452 52.9004 164.701 56.0358 171.129 71.086C176.303 83.3142 180.379 84.8819 182.417 86.6064C182.417 86.6064 175.048 94.7586 162.036 77.0433C148.554 58.8577 155.452 52.9004 155.452 52.9004Z" fill="#C26636"/>
<path d="M80.5135 32.2066C80.5135 32.2066 87.4115 21.8597 87.4115 12.7669C87.4115 8.84758 85.3735 4.45796 82.3948 2.41992C82.3948 2.41992 73.1452 6.33923 67.6582 18.0971C67.6582 18.0971 70.9504 28.6009 80.5135 32.2066Z" fill="#DA7B45"/>
<path d="M82.5514 7.2793C82.5514 7.2793 75.967 11.1986 70.6367 21.3888C72.9883 22.3294 76.5941 25.7784 77.5347 27.8165C81.6108 24.3675 86.941 11.1986 82.5514 7.2793Z" fill="#E2C4AA"/>
<path d="M78.4744 14.9624C78.4744 14.9624 78.4744 14.8057 78.3176 14.8057C76.1228 17.1572 74.3983 19.9791 72.6738 22.6443C73.7712 23.4281 75.966 25.1526 76.9067 26.25C78.1609 24.0552 78.9447 22.174 79.2583 19.5088C79.415 18.4114 79.1015 15.9031 78.4744 14.9624Z" fill="#BC8571"/>
<path d="M78.9451 30.4811C78.4748 30.6378 78.1613 30.7946 77.6909 30.9514C75.4961 31.7352 72.9878 31.1082 71.1065 29.6972C68.9117 27.9727 67.1872 25.9347 67.1872 22.956C67.344 19.6638 67.1872 20.918 65.7763 18.2528C65.3059 17.469 64.8356 16.5283 64.3653 15.7445C62.6408 15.5877 60.9163 15.7445 59.1918 15.7445C58.8783 16.9987 58.5647 18.4096 58.408 19.6638C57.7809 23.2695 55.8996 25.9347 52.6074 27.6592C49.6287 29.2269 42.574 29.2269 42.574 33.1462C42.574 35.6546 42.4172 38.1629 41.6333 40.5145C41.6333 40.6713 41.4766 40.828 41.4766 40.9848C43.2011 43.8067 45.0823 48.1963 47.5907 51.175C53.7048 58.3865 55.5861 68.1064 55.5861 68.1064C58.8783 65.598 71.1065 51.9589 73.9284 49.9208C76.1232 48.3531 78.0045 46.4718 80.0425 43.6499C82.3941 38.9468 81.6103 34.0868 78.9451 30.4811Z" fill="#FAE7D6"/>
<path d="M46.023 30.168C46.023 30.168 40.2225 20.2914 39.5954 11.5121C39.2818 6.96575 40.6928 2.7329 43.985 0.538086C43.985 0.538086 53.2346 4.77094 58.408 16.5289C58.408 16.5289 55.7429 26.719 46.023 30.168Z" fill="#DA7B45"/>
<path d="M45.5528 6.18066C45.5528 6.18066 52.1372 10.1 57.4675 20.2902C55.1159 21.2308 50.5695 25.1501 49.6288 27.1881C45.5528 23.7392 41.1631 10.1 45.5528 6.18066Z" fill="#E2C4AA"/>
<path d="M48.5319 14.3345C48.5319 14.3345 48.5319 14.1777 48.6887 14.1777C50.8835 16.5293 52.608 19.3512 54.3325 22.0163C53.2351 22.8002 51.0403 24.5247 50.0996 25.6221C48.8455 23.4273 48.0616 21.546 47.748 18.8809C47.748 17.9403 48.0616 15.2751 48.5319 14.3345Z" fill="#BC8571"/>
<path d="M67.5018 24.2102C67.5018 23.8966 67.345 23.4263 67.345 22.956C67.5018 19.6638 67.345 20.918 65.934 18.2528C65.4637 17.469 64.9934 16.5283 64.5231 15.7445C62.7986 15.5877 61.0741 15.7445 59.3496 15.7445C59.0361 16.9987 58.7225 18.4096 58.5657 19.6638C58.5657 19.9773 58.409 20.4476 58.2522 20.7612C58.2522 21.2315 58.2522 21.7018 58.0954 22.1721C57.7819 23.1128 57.4683 24.2102 57.3116 25.1508C58.2522 28.443 60.7606 34.0868 57.4683 36.9087C54.4897 39.4171 52.2949 42.5525 52.9219 44.9041C53.2355 46.1583 55.7438 48.3531 57.9387 49.137C59.9767 49.9208 62.6418 49.9208 64.8366 49.2937C66.4044 48.8234 68.1289 48.0396 69.383 46.9422C69.6966 46.6286 73.3023 45.0609 66.2476 36.2816C65.7773 35.6546 63.5825 30.1675 67.5018 24.2102Z" fill="#FDF8F2"/>
<path d="M64.523 47.5697C63.2688 47.5697 62.3282 46.9426 61.7011 46.002C61.074 46.7858 60.1334 47.2561 59.1927 47.2561C58.7224 47.2561 58.2521 47.2561 57.7818 47.0994C57.7818 47.0994 57.7818 47.0994 57.625 47.0994C59.3495 48.6671 62.3282 49.4509 64.0527 47.8832C64.3662 47.8832 64.523 47.7264 64.523 47.5697Z" fill="#45262C"/>
<path d="M96.977 71.5563C93.8416 66.3828 91.1764 62.3067 88.9816 59.6416C80.8295 65.5989 69.6987 67.1667 70.7961 80.6491C70.9528 82.2168 70.9528 83.6278 71.1096 85.1955C71.2664 88.0174 71.7367 90.8393 72.3638 93.6612C73.3044 98.6779 69.3851 100.089 67.1903 100.716C66.72 100.873 66.0929 101.029 65.4658 101.186C64.5252 101.813 63.271 102.284 61.86 102.754C60.9194 103.538 60.9194 104.949 62.8007 106.83H73.7747C73.9315 106.83 103.875 82.5303 96.977 71.5563Z" fill="#DA7B45"/>
<path d="M66.2456 101.028C63.4237 101.655 59.1908 102.753 62.9534 106.829H73.9274C73.9274 106.829 75.9655 105.104 78.9441 102.439C74.5545 103.223 70.1649 103.066 66.2456 101.028Z" fill="#FAE7D6"/>
<path opacity="0.32" d="M79.8889 83.0004C76.2831 82.2166 73.3044 80.6488 70.7961 78.7676C70.7961 79.3947 70.7961 80.0218 70.7961 80.6488C70.9528 82.2166 70.9528 83.6275 71.1096 85.1952C71.2664 88.0171 71.7367 90.839 72.3638 93.6609C73.3044 98.6777 69.3851 100.089 67.1903 100.716C66.72 100.872 66.0929 101.029 65.4658 101.186C64.5252 101.813 63.271 102.283 61.86 102.754C60.9194 103.538 60.9194 104.949 62.8007 106.83H73.7747C73.7747 106.83 91.9603 91.9364 96.8202 80.1785C91.8035 83.0004 86.003 84.4114 79.8889 83.0004Z" fill="#E8AD8B"/>
<path d="M123.937 62.7768C121.899 67.9503 122.056 77.5134 130.364 85.6656C130.364 85.6656 142.122 93.0339 158.427 93.3474C158.427 93.3474 162.816 99.9318 162.032 101.5C162.032 101.5 154.194 100.716 153.253 102.911C152.313 105.262 154.821 106.83 155.605 106.83C157.172 106.987 160.621 106.83 165.952 106.83C165.952 106.83 171.752 96.3261 172.223 94.6016C172.693 92.8771 163.914 92.4068 163.914 74.6915C163.914 55.8788 153.096 46.3157 136.165 50.8621C130.835 52.4298 125.975 57.7601 123.937 62.7768Z" fill="#DA7B45"/>
<path d="M166.11 102.126C164.699 101.969 163.445 101.656 162.191 101.186C162.191 101.342 162.191 101.499 162.034 101.499C162.034 101.499 154.196 100.715 153.255 102.91C152.314 105.262 154.823 106.829 155.607 106.829C157.174 106.986 160.623 106.829 165.953 106.829C165.953 106.829 167.208 104.635 168.462 102.126C167.678 102.283 166.894 102.283 166.11 102.126Z" fill="#FAE7D6"/>
<path opacity="0.32" d="M163.918 74.6915C163.918 74.5348 163.918 74.2212 163.918 74.0645C162.507 75.6322 161.096 77.0431 159.215 77.9838C154.826 80.1786 149.652 83.1572 144.635 83.314C137.267 83.4708 130.212 79.865 123.941 75.3186C125.039 78.7676 127.077 82.3734 130.526 85.6656C130.526 85.6656 142.284 93.0339 158.588 93.3474C158.588 93.3474 162.978 99.9319 162.194 101.5C162.194 101.5 154.355 100.716 153.415 102.911C152.474 105.262 154.982 106.83 155.766 106.83C157.334 106.987 160.783 106.83 166.113 106.83C166.113 106.83 171.914 96.3261 172.384 94.6016C172.698 93.0339 163.918 92.5636 163.918 74.6915Z" fill="#E8AD8B"/>
<path d="M83.0202 35.3416C82.2364 31.1088 80.1983 26.7192 77.2196 23.7405C74.7113 21.3889 72.83 18.8806 70.6352 16.9993C68.5972 16.0587 66.4024 15.7451 64.0508 15.7451C64.8346 16.9993 65.932 19.5077 65.6185 23.2702C65.305 26.5624 64.6779 32.363 66.5591 35.3416C67.4998 36.7526 69.8514 35.4984 70.792 34.7146C71.4191 34.2442 72.5165 33.4604 74.3977 33.4604C76.5926 33.6172 79.728 35.9687 80.3551 37.85C81.4525 41.9261 79.1009 45.5318 79.1009 45.5318C79.1009 45.5318 84.4312 42.0829 83.0202 35.3416Z" fill="#DA7B45"/>
<path d="M55.8985 16.0587C54.0173 16.9993 52.2928 18.4102 50.7251 20.1347C48.687 22.4863 46.3354 24.3676 44.7677 27.0327C43.3568 29.5411 41.6323 32.2062 40.8484 35.0281C39.751 38.4771 40.5349 41.6125 43.8271 44.2777C43.2 41.9261 42.8864 39.4177 43.5135 36.9094C44.2974 33.9307 47.5896 32.0494 50.5683 32.0494C53.547 32.0494 55.4282 37.85 57.9366 34.7146C60.1314 32.2062 59.6611 26.5624 59.8178 23.427C59.9746 20.9186 60.7585 17.9399 62.3262 15.7451C60.2882 15.7451 57.9366 16.0587 55.8985 16.0587Z" fill="#DA7B45"/>
<path d="M52.4512 30.7934C52.4512 30.7934 54.4892 28.4418 56.3705 28.7553C58.2517 29.0689 59.1924 31.8908 59.1924 31.8908C59.1924 31.8908 57.4679 34.0856 55.4298 33.6153C53.3918 33.145 52.4512 30.7934 52.4512 30.7934Z" fill="#2D312A"/>
<path d="M55.8983 33.1453C56.8507 33.1453 57.6228 32.3732 57.6228 31.4208C57.6228 30.4684 56.8507 29.6963 55.8983 29.6963C54.9459 29.6963 54.1738 30.4684 54.1738 31.4208C54.1738 32.3732 54.9459 33.1453 55.8983 33.1453Z" fill="#996959"/>
<path d="M56.9975 31.4216C56.9975 32.0487 56.5272 32.519 55.9001 32.519C55.2731 32.519 54.8027 32.0487 54.8027 31.4216C54.8027 30.7945 55.2731 30.3242 55.9001 30.3242C56.5272 30.3242 56.9975 30.7945 56.9975 31.4216Z" fill="#2D312A"/>
<path d="M56.3688 31.2649C56.6285 31.2649 56.8391 31.0543 56.8391 30.7945C56.8391 30.5348 56.6285 30.3242 56.3688 30.3242C56.109 30.3242 55.8984 30.5348 55.8984 30.7945C55.8984 31.0543 56.109 31.2649 56.3688 31.2649Z" fill="#F4CAA4"/>
<path d="M72.3603 31.2669C72.3603 31.2669 70.4791 28.7585 68.5978 29.072C66.7165 29.3856 65.6191 32.0507 65.6191 32.0507C65.6191 32.0507 67.1869 34.4023 69.2249 33.932C71.2629 33.7752 72.3603 31.2669 72.3603 31.2669Z" fill="#2D312A"/>
<path d="M70.7913 31.7367C70.7913 32.6774 69.8507 33.4612 68.91 33.4612C67.9694 33.4612 67.1855 32.5206 67.1855 31.58C67.1855 30.6393 68.1262 29.8555 69.0668 29.8555C70.0074 30.0122 70.7913 30.7961 70.7913 31.7367Z" fill="#996959"/>
<path d="M70.0093 31.7371C70.0093 32.3641 69.5389 32.8345 68.9119 32.8345C68.2848 32.8345 67.8145 32.3641 67.8145 31.7371C67.8145 31.11 68.2848 30.6396 68.9119 30.6396C69.5389 30.6396 70.0093 31.11 70.0093 31.7371Z" fill="#2D312A"/>
<path d="M69.8527 31.2652C69.8527 31.5788 69.696 31.7356 69.3824 31.7356C69.0689 31.7356 68.9121 31.5788 68.9121 31.2652C68.9121 30.9517 69.0689 30.7949 69.3824 30.7949C69.696 30.7949 69.8527 30.9517 69.8527 31.2652Z" fill="#F4CAA4"/>
<path d="M69.3834 44.4349C68.7563 44.1214 68.286 44.2782 67.9725 44.4349C67.3454 44.7485 67.6589 46.1594 64.837 46.9433C63.4261 47.4136 61.7016 46.7865 62.0151 46.0027C62.1719 45.5323 61.5448 45.3756 61.388 45.5323C61.2313 45.6891 61.388 46.3162 61.388 46.3162C61.388 46.3162 62.0151 48.1975 65.3073 47.2568C67.1886 46.7865 67.9725 45.6891 68.286 45.062C68.286 44.9052 69.8537 44.7485 69.3834 44.4349Z" fill="#434640"/>
<path d="M54.0174 44.4326C54.6445 44.1191 55.1148 44.2759 55.4284 44.5894C56.0554 44.9029 55.5851 46.3139 58.2503 47.2545C59.5044 47.7248 61.3857 47.0978 61.2289 46.3139C61.0722 45.8436 61.6992 45.53 61.856 45.8436C62.0128 46.0003 61.6992 46.7842 61.6992 46.7842C61.6992 46.7842 60.9154 48.6655 57.7799 47.7248C55.8987 47.2545 55.1148 46.1571 55.1148 45.3733C54.958 44.9029 53.5471 44.5894 54.0174 44.4326Z" fill="#434640"/>
<path d="M61.6993 46.7855C61.6993 46.7855 57.78 46.4719 57.6232 43.1797C57.4664 40.5146 59.6612 40.3578 60.9154 40.9849C61.6993 41.2984 62.4831 41.2984 63.267 41.1417C64.2076 40.9849 65.305 40.8281 65.7754 41.9255C66.4024 43.4932 65.305 46.6287 61.6993 46.7855Z" fill="#434640"/>
</svg>
