<svg width="219" height="173" viewBox="0 0 219 173" fill="none" xmlns="http://www.w3.org/2000/svg">
<path d="M217.567 152.366C217.567 153.353 217.026 154.455 215.682 155.661C214.342 156.865 212.307 158.072 209.594 159.25C204.175 161.604 196.272 163.747 186.429 165.555C166.761 169.168 139.548 171.408 109.46 171.408C79.3726 171.408 52.1593 169.168 32.4908 165.555C22.6483 163.747 14.745 161.604 9.326 159.25C6.61277 158.072 4.57852 156.865 3.23819 155.661C1.89453 154.455 1.35352 153.353 1.35352 152.366C1.35352 151.379 1.89453 150.277 3.23819 149.071C4.57852 147.868 6.61277 146.661 9.326 145.482C14.745 143.129 22.6483 140.986 32.4908 139.178C52.1593 135.565 79.3726 133.324 109.46 133.324C139.548 133.324 166.761 135.565 186.429 139.178C196.272 140.986 204.175 143.129 209.594 145.482C212.307 146.661 214.342 147.868 215.682 149.071C217.026 150.277 217.567 151.379 217.567 152.366Z" stroke="#737E85" stroke-width="2"/>
<g opacity="0.4">
<path d="M38.4101 162.27C19.5695 159.145 10.1509 155.476 10.1543 151.262C10.1543 148.452 15.007 145.856 24.7124 143.473C34.4178 141.089 47.2278 139.216 63.1424 137.852C79.0673 136.479 95.856 135.802 113.508 135.823C139.424 135.823 161.366 137.178 179.334 139.887C197.302 142.597 206.288 146.248 206.292 150.839C206.292 155.326 196.983 159.143 178.432 162.27C159.882 165.397 136.767 166.979 109.088 166.979C80.8274 166.979 57.268 165.409 38.4101 162.27Z" fill="white"/>
</g>
<g clip-path="url(#clip0_158_4569)">
<path d="M168.024 121.188C152.336 111.179 156.668 92.7768 156.668 92.7768C157.107 88.2012 157.145 83.596 156.783 79.0137H118.131V85.5584C120.191 91.4759 123.489 96.8867 127.804 101.431C132.118 105.974 137.351 109.547 143.155 111.91C144.65 112.516 146.005 113.419 147.139 114.567C158.862 126.443 159.247 136.915 159.536 141.766C159.565 142.35 159.388 142.926 159.036 143.394C158.685 143.862 158.18 144.191 157.611 144.326C153.761 145.231 150.469 147.733 150.7 151.178C150.97 155.221 163.424 154.181 170.989 153.277C178.554 152.372 168.024 121.188 168.024 121.188Z" fill="#CCB8A4"/>
<path d="M65.2122 75.2788C65.2122 75.2788 55.4915 67.9641 50.0825 70.9477C44.6735 73.9314 40.2847 79.0901 43.8073 98.2237C47.3298 117.357 49.813 140.572 46.8294 143.17C43.8458 145.769 36.2809 143.863 36.4541 148.791C36.6273 153.719 39.1682 154.989 46.5599 154.989C53.9515 154.989 56.3769 148.137 57.2816 144.498C58.1863 140.86 62.0362 134.489 64.2883 117.165C66.5405 99.8406 71.9879 81.0343 65.2122 75.2788Z" fill="#CCB8A4"/>
<path d="M177.05 128.021C176.438 126.053 175.3 124.289 173.759 122.92C162.036 112.391 164.654 96.337 164.654 96.337C167.618 61.9774 151.179 55.4904 145.713 50.1392C140.246 44.7879 105.694 53.1228 96.4927 51.5251C87.2916 49.9274 64.5777 38.4165 59.1687 31.968C57.7058 30.2164 55.7616 27.791 53.7212 25.1924C45.0206 33.9122 29.2364 41.9968 19.3809 39.8602C19.8599 44.6182 21.1285 49.2631 23.1345 53.6041C28.7359 64.6915 22.6532 71.1784 36.4548 86.0002C50.2564 100.822 90.3522 110.678 105.751 101.4C116.069 95.1628 115.684 91.6402 121.459 89.9848C122.681 89.653 123.981 89.7719 125.123 90.3197C126.264 90.8674 127.171 91.8076 127.676 92.9684C135.915 111.217 151.449 114.508 151.449 114.508C165.193 127.193 167.368 140.263 167.657 145.307C167.693 145.893 167.52 146.473 167.167 146.942C166.814 147.412 166.305 147.739 165.732 147.867C161.882 148.752 158.533 151.274 158.763 154.739C159.033 158.781 169.947 157.722 177.512 156.837C183.499 156.125 179.514 136.067 177.05 128.021Z" fill="#EBE0D4"/>
<path d="M70.2551 77.9358C70.2551 77.9358 60.5151 70.6404 55.1061 73.624C49.6971 76.6076 48.3497 85.366 51.8723 104.423C55.3949 123.479 54.8366 143.075 51.8723 145.75C48.9079 148.426 41.3238 146.443 41.4971 151.352C41.6703 156.26 44.2112 157.569 51.6028 157.569C58.9945 157.569 61.4198 150.717 62.3245 147.079C63.2292 143.44 67.0791 137.05 69.3312 119.745C71.5834 102.44 77.0308 83.7105 70.2551 77.9358Z" fill="#EBE0D4"/>
<path d="M173.758 122.921C162.035 112.392 164.653 96.3378 164.653 96.3378C167.618 61.9782 151.179 55.4912 145.712 50.14C140.245 44.7887 105.693 53.1236 96.4921 51.5259C87.2911 49.9283 64.5772 38.4173 59.1682 31.9688C57.7053 30.2172 52.7583 24.2692 50.6986 21.6514C44.6736 27.6956 38.2444 37.0506 29.7363 39.2065C32.6756 39.7776 35.5754 40.5363 38.4177 41.4779C39.4481 41.8824 40.4402 42.3784 41.382 42.9601C47.022 41.5164 57.2818 40.3037 57.2818 49.062C57.2818 58.2439 46.9835 61.0157 41.0741 65.366C35.5881 69.4083 49.3319 72.8924 51.0065 74.8173C51.438 75.322 51.8428 75.8489 52.2192 76.3958C49.3704 80.8616 49.1009 89.4851 51.8728 104.519C52.4695 107.81 52.9507 111.121 53.3357 114.355C56.2794 112.422 58.7207 109.815 60.4579 106.752C62.4983 103.287 63.7495 99.6872 66.5791 96.7805C68.6773 94.6439 70.6021 93.0847 73.2393 93.7777C79.6892 96.9616 86.7777 98.6399 93.9705 98.6862C108.715 98.359 123.595 83.5757 125.982 84.2494C132.911 86.1743 137.724 98.0125 151.16 101.343C157.454 102.902 165.866 125.616 171.583 125.25C173.117 125.155 174.654 125.365 176.106 125.866C175.49 124.762 174.697 123.767 173.758 122.921Z" fill="#D2864A"/>
<path d="M157.013 60.5535C157.013 60.5535 160.497 47.2909 148.794 46.0205C137.09 44.75 144.944 61.4197 154.972 58.1474C154.972 58.1474 154.01 75.4716 130.391 67.4832C104.29 58.7248 114.896 26.7136 135.435 25.1352C155.973 23.5568 173.067 37.3391 170.603 53.4506C168.678 65.8085 161.19 67.5217 161.19 67.5217C161.19 67.5217 157.918 61.6507 157.013 60.5535Z" fill="#E3D4C3"/>
<g style="mix-blend-mode:multiply" opacity="0.55">
<path d="M59.1687 31.9686C57.7058 30.217 54.3565 26.1939 52.2968 23.6338C43.6155 32.3536 29.1979 41.9974 19.3809 39.8608C19.8599 44.6187 21.1285 49.2637 23.1345 53.6046C23.8038 54.9475 24.3576 56.3448 24.7898 57.7817C27.012 59.3235 29.6162 60.2226 32.3162 60.3803C34.7477 59.5424 37.0385 58.3418 39.1112 56.8192C46.6086 50.8177 53.1849 43.7486 58.6298 35.8377L60.4392 33.2968C59.9644 32.8605 59.5409 32.4178 59.1687 31.9686Z" fill="#E2D2C0"/>
</g>
<path d="M139.727 25.1162C136.908 27.0178 134.622 29.6086 133.086 32.6426C131.469 35.5677 131.046 39.0053 131.907 42.235C132.769 45.4646 134.847 48.2354 137.706 49.9668C139.717 51.4523 141.894 52.699 144.193 53.6818C141.902 49.832 142.499 45.4048 148.793 46.0785C160.497 47.3489 157.013 60.6115 157.013 60.6115C157.917 61.7087 161.19 67.6374 161.19 67.6374C161.19 67.6374 168.716 65.9243 170.602 53.5664C172.893 38.5328 158.302 25.6359 139.727 25.1162Z" fill="#D2864A"/>
<g style="mix-blend-mode:multiply">
<path d="M141.21 36.1075C136.898 37.4356 132.49 39.8033 130.95 44.3461C130.084 47.037 130.036 49.9247 130.814 52.6425C131.592 55.3603 133.16 57.7857 135.319 59.6106L135.454 59.7261C140.805 64.1149 150.68 64.1726 154.973 58.1477C145.021 61.4585 137.071 44.7696 148.794 46.0208C160.517 47.272 157.013 60.5538 157.013 60.5538C157.433 61.1209 157.818 61.7123 158.168 62.3248C160.014 59.9564 161.18 57.1307 161.543 54.1502C161.906 51.1698 161.451 48.1467 160.228 45.4048C157.263 39.0911 148.601 33.8553 141.21 36.1075Z" fill="#EBE0D4"/>
</g>
<path d="M36.8398 11.6608C38.7172 10.4038 40.2573 8.70502 41.3249 6.71377C42.6338 3.84565 44.578 0.93904 48.755 0.669553C52.9321 0.400066 53.009 15.6069 49.5635 19.7839C49.602 19.7839 39.7272 11.6608 36.8398 11.6608Z" fill="#D2864A"/>
<path d="M49.5621 13.2583C49.8124 12.1804 50.1396 1.30464 47.6372 2.80606C43.3447 5.42394 42.1128 9.06204 38.8789 12.3344C41.9769 14.1354 44.8854 16.2442 47.5603 18.6288C47.8682 16.7617 49.0424 15.4527 49.5621 13.2583Z" fill="#BEA497"/>
<path d="M46.4647 9.5431C46.2144 4.53834 42.8266 10.4286 41.3251 11.9108L40.1895 13.0464C42.2115 14.3559 44.141 15.803 45.9642 17.3775C46.0027 14.8559 46.6379 12.1802 46.4647 9.5431Z" fill="#B09181"/>
<path d="M27.466 10.8527C25.4842 9.71163 23.7967 8.12302 22.5382 6.21369C20.9598 3.42257 18.6884 0.689189 14.5499 0.66994C10.4113 0.650691 11.7395 15.8382 15.5701 19.7843C15.6663 19.7843 24.6364 11.0259 27.466 10.8527Z" fill="#D2864A"/>
<path d="M14.9908 13.2775C14.6251 12.2188 13.2584 1.38162 15.857 2.72906C20.3806 5.0582 21.959 8.50376 25.4816 11.6414C22.5653 13.6426 19.8683 15.946 17.4355 18.5133C16.9927 16.6654 15.6645 15.4142 14.9908 13.2775Z" fill="#BEA497"/>
<path d="M17.6875 9.35103C17.4565 4.34627 21.4025 9.98628 23.0387 11.3722L24.2707 12.4309C22.3524 13.8585 20.5443 15.4286 18.8617 17.1277C18.6884 14.6253 17.803 12.0074 17.6875 9.35103Z" fill="#B09181"/>
<path d="M50.776 42.1511C51.9732 39.3473 52.5762 36.3258 52.547 33.2773C52.1235 29.0425 49.0051 27.6373 47.1765 24.288C46.06 22.2668 44.8858 18.802 42.2294 18.2823C40.9841 18.2308 39.7638 17.9159 38.6491 17.3583C38.2641 17.1466 37.9176 16.8963 37.5519 16.6846C36.2237 16.9733 34.8763 17.2428 33.7021 17.5893C32.2629 18.0097 30.7243 17.9352 29.3326 17.3776C26.0987 18.34 22.9034 19.3024 19.708 20.2264C18.2259 22.1513 16.8977 24.0762 16.5319 24.4612C12.6821 29.081 12.1431 33.9895 12.0469 39.8605C14.761 44.3455 20.3432 48.4841 31.4692 50.948C31.4114 50.9672 43.7309 49.6968 50.776 42.1511Z" fill="#EBE0D4"/>
<path d="M13.9139 31.4105C15.1844 29.1968 16.7051 28.9466 18.6685 27.5606C21.2863 25.7897 20.8436 22.6329 22.9802 20.4C23.6509 19.7369 24.5204 19.3119 25.4557 19.1902C26.3909 19.0685 27.3403 19.2569 28.1582 19.7263C29.5249 20.477 32.3545 22.3249 35.0109 20.9582C35.8337 20.3626 36.7825 19.9643 37.7838 19.7941C38.7852 19.6239 39.8123 19.6863 40.7856 19.9766C41.7139 20.3319 42.5347 20.9207 43.1687 21.6862C43.8027 22.4517 44.2283 23.3679 44.4045 24.3461C45.3092 27.0602 48.6778 28.6194 49.8135 29.6781C53.2206 32.8927 51.7384 38.1092 50.3332 42.652C52.7394 40.2458 55.3379 37.243 55.3379 33.2392C55.3379 22.1709 46.7913 12.6811 40.3622 10.1402C38.8266 9.63487 37.2239 9.36239 35.6076 9.33181C33.4649 9.58016 31.2953 9.44982 29.1977 8.94681C28.1198 8.67732 26.9648 9.31255 26.0794 9.2548C23.808 9.12006 9.77539 20.6695 9.77539 32.3537C9.83144 34.809 10.474 37.2153 11.6493 39.3718C12.8247 41.5283 14.4987 43.3724 16.5318 44.7501C13.837 40.8426 11.989 34.7406 13.9139 31.4105Z" fill="#D2864A"/>
<path d="M34.4523 30.6016C33.8083 30.2514 33.0838 30.076 32.3509 30.0929C31.618 30.1098 30.9024 30.3184 30.2752 30.6979C28.9656 31.4014 27.8129 32.3641 26.8873 33.5275C25.3667 35.6641 19.8615 40.1106 21.6901 44.8267C23.5188 49.5427 30.9682 45.3657 31.9114 45.5389C32.8546 45.7122 39.9382 49.1385 41.9401 44.7497C43.2876 41.8046 41.074 38.0125 38.1866 34.105C37.1862 32.7014 35.9168 31.5106 34.4523 30.6016Z" fill="#F2EBE3"/>
<path d="M34.2016 43.5175C32.9367 43.0521 31.5596 42.9849 30.2555 43.325C29.1625 43.6646 27.9974 43.6979 26.8869 43.4213C26.7942 43.6336 26.7483 43.8634 26.7522 44.095C26.7522 45.7504 29.0235 47.0786 31.8339 47.0786C34.6443 47.0786 36.8387 45.7504 36.8387 44.1912C36.8387 44.095 36.8387 44.018 36.8387 43.9217C35.9506 43.8542 35.0691 43.7191 34.2016 43.5175Z" fill="#F2EBE3"/>
<path d="M23.3651 41.0156C23.3651 41.0156 23.1149 44.8654 28.4084 44.4034C33.7019 43.9414 31.5268 43.8452 35.7808 44.75C40.0349 45.6547 40.6123 43.364 40.5546 41.9011C40.2057 42.6205 39.6248 43.2016 38.9055 43.5508C38.1862 43.8999 37.3704 43.9969 36.5893 43.826C34.6644 43.4602 33.5287 42.2475 31.8925 42.132C30.2563 42.0166 27.4652 43.3832 26.3295 43.287C25.1938 43.1908 24.2699 42.8058 23.3651 41.0156Z" fill="#14192C"/>
<path d="M33.6627 40.4768C33.0561 40.7441 32.4006 40.8821 31.7378 40.8821C31.0749 40.8821 30.4194 40.7441 29.8129 40.4768C27.3297 39.6683 25.3856 36.011 28.5039 34.1054C31.6223 32.1997 35.8955 33.9128 36.4153 35.626C37.2045 37.8781 35.8378 39.4566 33.6627 40.4768Z" fill="#14192C"/>
<path d="M34.6454 28.8882C34.9468 28.1652 35.4229 27.5282 36.0309 27.0344C36.639 26.5406 37.3601 26.2053 38.1295 26.0586C40.6704 25.7314 41.5366 26.7708 42.1526 26.4821C42.1526 26.4821 40.7474 29.5812 39.092 29.8315C37.4366 30.0817 34.3952 29.408 34.6454 28.8882Z" fill="#2D312A"/>
<path d="M38.1281 26.0586C37.6607 26.1298 37.2105 26.2864 36.7999 26.5207C36.6395 26.7743 36.5528 27.0676 36.5496 27.3676C36.466 27.6545 36.4503 27.9569 36.5037 28.2509C36.5572 28.5449 36.6783 28.8225 36.8576 29.0616C37.0369 29.3006 37.2694 29.4946 37.5367 29.6283C37.804 29.7619 38.0987 29.8315 38.3975 29.8315C38.6964 29.8315 38.9911 29.7619 39.2584 29.6283C39.5257 29.4946 39.7581 29.3006 39.9374 29.0616C40.1167 28.8225 40.238 28.5449 40.2914 28.2509C40.3449 27.9569 40.3291 27.6545 40.2454 27.3676C40.2393 27.1148 40.1835 26.8657 40.0811 26.6345C39.9787 26.4033 39.8318 26.1946 39.6487 26.0202C39.142 25.9768 38.632 25.9897 38.1281 26.0586Z" fill="#221316"/>
<path d="M38.5724 26.04H38.1297H37.9564C37.7827 26.1185 37.6356 26.2458 37.5331 26.4065C37.4306 26.5671 37.377 26.7542 37.379 26.9447C37.379 27.2153 37.4865 27.4748 37.6778 27.6661C37.8691 27.8574 38.1286 27.9649 38.3992 27.9649C38.6697 27.9649 38.9292 27.8574 39.1205 27.6661C39.3119 27.4748 39.4194 27.2153 39.4194 26.9447C39.4003 26.7207 39.3064 26.5097 39.1527 26.3456C38.9991 26.1814 38.7947 26.0738 38.5724 26.04Z" fill="#121011"/>
<path d="M40.2651 26.8679C40.2651 27.067 40.186 27.258 40.0452 27.3987C39.9044 27.5395 39.7135 27.6187 39.5144 27.6187C39.3153 27.6187 39.1243 27.5395 38.9835 27.3987C38.8428 27.258 38.7637 27.067 38.7637 26.8679C38.7637 26.6688 38.8428 26.4779 38.9835 26.3371C39.1243 26.1963 39.3153 26.1172 39.5144 26.1172C39.7135 26.1172 39.9044 26.1963 40.0452 26.3371C40.186 26.4779 40.2651 26.6688 40.2651 26.8679Z" fill="#DDDBDB"/>
<path d="M30.0247 28.8882C29.7233 28.1652 29.2473 27.5282 28.6392 27.0344C28.0312 26.5406 27.3101 26.2053 26.5406 26.0586C24.019 25.7314 23.1335 26.7708 22.5176 26.4821C22.5176 26.4821 23.9228 29.5812 25.5782 29.8315C27.2336 30.0817 30.2749 29.408 30.0247 28.8882Z" fill="#2D312A"/>
<path d="M26.5417 26.0585C27.0143 26.1331 27.4703 26.2895 27.8892 26.5206C28.0353 26.7793 28.1147 27.0704 28.1202 27.3675C28.1525 27.7015 28.097 28.0381 27.9592 28.344C27.8214 28.6499 27.606 28.9144 27.3344 29.1114C27.0628 29.3084 26.7444 29.431 26.4108 29.467C26.0773 29.503 25.7401 29.4512 25.4327 29.3167C25.1253 29.1823 24.8584 28.9698 24.6585 28.7004C24.4585 28.4309 24.3324 28.1139 24.2928 27.7807C24.2531 27.4476 24.3013 27.1098 24.4324 26.801C24.5635 26.4922 24.7731 26.2229 25.0403 26.0201C25.5406 25.9769 26.0442 25.9898 26.5417 26.0585Z" fill="#221316"/>
<path d="M26.1181 26.04H26.5416H26.7148C26.8885 26.1185 27.0357 26.2458 27.1382 26.4065C27.2408 26.5671 27.2943 26.7542 27.2924 26.9447C27.2924 27.2153 27.1848 27.4748 26.9935 27.6661C26.8022 27.8574 26.5427 27.9649 26.2722 27.9649C26.0016 27.9649 25.742 27.8574 25.5507 27.6661C25.3594 27.4748 25.252 27.2153 25.252 26.9447C25.2752 26.7191 25.373 26.5076 25.5299 26.3438C25.6867 26.18 25.8937 26.0731 26.1181 26.04Z" fill="#121011"/>
<path d="M27.792 27.1951C27.7631 27.376 27.6707 27.5406 27.5314 27.6595C27.392 27.7784 27.2148 27.8437 27.0317 27.8437C26.8485 27.8437 26.6713 27.7784 26.532 27.6595C26.3926 27.5406 26.3002 27.376 26.2713 27.1951C26.2538 27.0851 26.2603 26.9726 26.2904 26.8654C26.3206 26.7581 26.3736 26.6587 26.4459 26.574C26.5182 26.4893 26.608 26.4212 26.7091 26.3746C26.8102 26.3279 26.9203 26.3037 27.0317 26.3037C27.143 26.3037 27.2531 26.3279 27.3542 26.3746C27.4554 26.4212 27.5452 26.4893 27.6175 26.574C27.6897 26.6587 27.7428 26.7581 27.7729 26.8654C27.803 26.9726 27.8095 27.0851 27.792 27.1951Z" fill="#DDDBDB"/>
</g>
<defs>
<clipPath id="clip0_158_4569">
<rect width="170.951" height="156.996" fill="white" transform="translate(9.69727 0.650391)"/>
</clipPath>
</defs>
</svg>
