<svg width="219" height="176" viewBox="0 0 219 176" fill="none" xmlns="http://www.w3.org/2000/svg">
<path d="M217.213 155.911C217.213 156.898 216.672 158 215.328 159.206C213.988 160.409 211.954 161.617 209.241 162.795C203.822 165.149 195.918 167.292 186.076 169.1C166.407 172.713 139.194 174.953 109.107 174.953C79.0191 174.953 51.8058 172.713 32.1372 169.1C22.2948 167.292 14.3915 165.149 8.97249 162.795C6.25925 161.617 4.225 160.409 2.88467 159.206C1.54101 158 1 156.898 1 155.911C1 154.924 1.54101 153.822 2.88467 152.616C4.225 151.413 6.25925 150.206 8.97249 149.027C14.3915 146.674 22.2948 144.531 32.1372 142.723C51.8058 139.11 79.0191 136.869 109.107 136.869C139.194 136.869 166.407 139.11 186.076 142.723C195.918 144.531 203.822 146.674 209.241 149.027C211.954 150.206 213.988 151.413 215.328 152.616C216.672 153.822 217.213 154.924 217.213 155.911Z" stroke="#737E85" stroke-width="2"/>
<g opacity="0.4">
<path d="M38.0566 165.815C19.216 162.69 9.79735 159.021 9.80078 154.807C9.80078 151.997 14.6535 149.401 24.3589 147.018C34.0642 144.634 46.8742 142.761 62.7889 141.397C78.7138 140.024 95.5025 139.347 113.155 139.368C139.07 139.368 161.012 140.722 178.98 143.432C196.949 146.142 205.935 149.793 205.938 154.384C205.938 158.871 196.629 162.688 178.079 165.815C159.528 168.942 136.414 170.524 108.735 170.524C80.4739 170.524 56.9145 168.954 38.0566 165.815Z" fill="white"/>
</g>
<g clip-path="url(#clip0_158_4042)">
<path d="M180.276 131.81C179.793 129.296 178.406 127.046 176.377 125.485C171.92 121.981 164.283 114.703 164.283 106.311C164.283 83.6875 153.196 72.4385 143.151 66.275C138.946 63.6873 128.524 62.6811 117.311 62.4834V104.963C117.752 104.667 118.249 104.464 118.772 104.367C119.294 104.269 119.831 104.28 120.349 104.398C120.868 104.516 121.357 104.738 121.786 105.052C122.215 105.365 122.575 105.763 122.845 106.221C137.58 133.913 158.982 123.796 165.631 130.301C171.579 136.123 171.651 144.551 171.561 147.623C171.543 147.754 171.5 147.88 171.433 147.995C171.367 148.109 171.278 148.209 171.173 148.289C171.068 148.369 170.948 148.428 170.821 148.462C170.693 148.495 170.56 148.504 170.429 148.486C168.2 148.378 162.917 148.486 162.612 152.817C162.217 158.207 178.461 157.201 181.57 155.26C183.87 153.805 181.57 139.124 180.276 131.81Z" fill="#D27A14"/>
<path d="M34.9188 144.623C35.8045 144.71 36.6922 144.477 37.4209 143.966C38.1496 143.455 38.6708 142.7 38.8901 141.837C40.687 136.051 40.687 121.657 36.2845 97.8837C30.049 64.64 41.9988 65.1611 53.1759 67.7487C64.353 70.3363 68.486 95.7992 58.5668 114.236C51.8641 126.815 51.0016 141.28 48.5038 149.277C47.9742 150.786 47.0724 152.137 45.882 153.205C44.6915 154.273 43.2508 155.023 41.6933 155.386C33.643 155.386 27.2098 155.979 28.1982 149.115C28.8451 144.874 32.6187 144.677 34.9188 144.623Z" fill="#D27A14"/>
<path d="M138.621 62.4658C138.621 62.4658 169.349 63.9932 175.315 80.5791C181.281 97.1651 180.005 99.5371 185.198 106.276C190.391 113.014 200.508 122.089 198.172 128.055C198.172 128.055 191.937 126.941 190.984 125.719C190.984 125.719 184.749 126.258 183.365 123.922C183.365 123.922 171.937 123.221 167.947 107.12C163.958 91.0195 156.483 72.5827 138.621 62.4658Z" fill="#DA812F"/>
<path d="M56.5 17.7397C54.7141 21.6769 54.0072 26.018 54.4515 30.3184C55.5476 36.8414 60.2197 40.7947 63.9034 44.5144C71.1811 51.8819 93.5173 60.2737 100.777 60.2198C108.037 60.1659 137.183 56.8954 147.282 63.4723C157.381 70.0492 168.576 82.0528 168.576 106.186C168.576 115.171 176.267 122.88 180.742 126.617C182.814 128.328 184.204 130.726 184.659 133.374C185.989 141.155 188.253 156.734 185.971 158.352C182.862 160.436 166.492 161.478 166.887 155.764C167.193 151.074 172.512 151.02 174.758 151.146C174.894 151.163 175.032 151.153 175.164 151.117C175.296 151.08 175.42 151.017 175.527 150.931C175.634 150.846 175.723 150.739 175.789 150.619C175.854 150.498 175.895 150.366 175.908 150.229C175.908 146.959 174.56 136.375 168.576 130.175C161.874 123.239 137.615 124.623 126.833 104.515C126.573 104.032 126.214 103.61 125.778 103.278C125.342 102.945 124.84 102.71 124.305 102.587C123.771 102.465 123.217 102.458 122.679 102.567C122.142 102.677 121.635 102.899 121.19 103.221C112.655 109.474 105.269 121.047 64.3347 115.944C64.3347 115.944 35.0802 109.852 28.0541 93.9847C28.0541 93.9847 22.2679 91.7025 20.3631 78.3691C20.3631 78.3691 14.1636 70.75 15.9067 57.758C17.6497 44.766 22.1062 24.7299 22.1062 24.7299C18.0091 15.0263 56.5 17.7397 56.5 17.7397Z" fill="#E2954A"/>
<g style="mix-blend-mode:multiply" opacity="0.32">
<path d="M41.191 51.2344L40.7598 51.5758L41.191 51.2344Z" fill="#CE8654"/>
</g>
<g style="mix-blend-mode:multiply" opacity="0.32">
<path d="M42.5919 50.1926L41.2441 51.2348C42.5919 50.1207 45.0537 48.2159 42.5919 50.1926Z" fill="#CE8654"/>
</g>
<g style="mix-blend-mode:multiply" opacity="0.32">
<path d="M42.5934 50.1928C44.3903 48.8271 48.3257 44.4964 50.0148 44.1191C53.4337 43.2391 56.7474 41.9919 59.8981 40.3993C56.9956 37.7093 54.9674 34.21 54.076 30.3543C53.5269 26.3632 54.1513 22.2985 55.8729 18.6561C55.8729 18.3327 55.8729 18.0092 55.9987 17.7217L52.5665 17.524C42.8449 17.1467 18.8915 16.9849 22.18 24.7119C22.18 24.7119 21.4611 27.9105 20.5087 32.5466C20.5087 33.535 20.4189 34.5053 20.2931 35.4936C19.6805 39.6823 18.7615 43.8204 17.5438 47.8747C17.5438 48.1263 17.5438 48.3778 17.418 48.6474C25.9895 52.7624 35.7829 55.4938 42.5934 50.1928Z" fill="#CE8654"/>
</g>
<path d="M118.64 104.622C108.038 109.15 99.0892 109.168 88.0918 105.43C77.0945 101.693 70.9129 95.1518 66.762 84.8732C60.8684 84.078 55.3351 81.5799 50.8409 77.6853C48.4217 75.8918 45.6837 74.5746 42.7725 73.8039C41.5791 74.274 40.3281 74.5822 39.0528 74.7204C27.2288 75.7087 18.7292 67.5325 17.7588 60.7939C15.8361 74.1993 20.2926 78.476 20.2926 78.476C22.1973 91.8095 27.9835 94.0916 27.9835 94.0916C35.0097 109.959 64.2642 116.05 64.2642 116.05C104.318 121.028 111.991 110.067 120.563 103.741C119.952 104.029 119.287 104.352 118.64 104.622Z" fill="#E6A563"/>
<path d="M143.923 118.172C140.545 113.392 139.179 107.39 135.747 102.808C132.315 98.2255 127.212 100.292 122.701 102.628C123.509 102.469 124.347 102.574 125.091 102.926C125.835 103.279 126.446 103.861 126.834 104.587C131.65 113.572 139.143 118.262 146.601 121.316C145.622 120.345 144.726 119.293 143.923 118.172Z" fill="#E6A563"/>
<path d="M180.742 126.653L179.269 125.377L174.237 127.551C172.079 128.477 169.785 129.047 167.445 129.24C167.846 129.535 168.224 129.86 168.577 130.211C174.561 136.41 175.98 146.994 175.909 150.265C175.895 150.401 175.855 150.534 175.789 150.654C175.724 150.775 175.635 150.881 175.527 150.966C175.42 151.052 175.297 151.115 175.165 151.152C175.033 151.189 174.895 151.199 174.759 151.181C172.512 151.055 167.193 151.181 166.888 155.799C166.493 161.514 182.863 160.472 185.972 158.387C188.308 156.842 185.972 141.19 184.66 133.409C184.204 130.761 182.814 128.364 180.742 126.653Z" fill="#E6A563"/>
<path d="M39.4291 149.312C40.3136 149.391 41.1973 149.152 41.9216 148.638C42.646 148.125 43.1639 147.37 43.3824 146.509C45.1793 140.723 45.1793 126.329 40.7948 102.556C34.5593 69.3118 46.5091 69.833 57.6682 72.4206C68.8274 75.0082 72.9963 100.471 63.0591 118.908C56.3385 131.487 55.4939 145.862 52.9961 153.949C52.4606 155.457 51.5546 156.807 50.3616 157.875C49.1685 158.942 47.7264 159.693 46.1677 160.058C38.1352 160.058 31.6842 160.651 32.6725 153.787C33.3554 149.546 37.2008 149.348 39.4291 149.312Z" fill="#E2954A"/>
<path d="M42.9884 116.051C45.1448 131.882 44.7854 141.927 43.3838 146.509C43.1652 147.37 42.6474 148.125 41.923 148.638C41.1986 149.152 40.315 149.391 39.4304 149.312C37.1303 149.312 33.3567 149.546 32.7457 153.787C31.7574 160.651 38.1366 160.058 46.2409 160.058C47.7997 159.693 49.2417 158.942 50.4348 157.875C51.6279 156.807 52.5338 155.457 53.0693 153.949C54.9741 147.839 55.9265 137.938 59.2689 128.001C52.9795 126.689 47.5886 121.765 42.9884 116.051Z" fill="#E6A563"/>
<path d="M27.2107 4.19056C27.2107 4.19056 21.0292 1.36933 17.9923 4.96324C14.9555 8.55716 19.7893 20.5608 23.1496 22.4836C26.5099 24.4063 27.2107 4.19056 27.2107 4.19056Z" fill="#D27C17"/>
<path d="M22.0711 3.4713C22.0711 3.4713 25.3416 8.05356 24.2634 12.2405C23.1852 16.4274 20.6695 18.0986 20.6695 25.52C20.6695 32.9414 21.7476 40.273 16.3029 37.1283C10.8581 33.9837 -0.193202 19.8596 2.34051 12.5639C4.87422 5.26826 12.8168 7.53244 15.4943 5.14249C18.4772 2.46502 21.4062 2.4111 22.0711 3.4713Z" fill="#E2954A"/>
<g style="mix-blend-mode:multiply" opacity="0.32">
<path d="M21.5134 19.1588C20.0095 20.5452 18.1378 21.4685 16.1225 21.8184C13.7071 22.2472 11.2267 22.1361 8.85927 21.493C6.49185 20.8499 4.29613 19.6907 2.42969 18.0986C4.3704 25.4662 12.0434 34.6666 16.3022 37.1284C21.6931 40.2731 20.7227 32.9595 20.6688 25.5201C20.612 23.3683 20.8971 21.2212 21.5134 19.1588Z" fill="#E2AA68"/>
</g>
<path d="M48.3602 5.89766C48.3602 5.89766 56.3208 4.28038 58.4771 8.41339C60.6335 12.5464 52.3495 23.3641 48.6118 24.586C44.8742 25.808 48.3602 5.89766 48.3602 5.89766Z" fill="#D27C17"/>
<path d="M40.0046 1.36876C38.6379 0.868977 37.1703 0.708655 35.7279 0.901561C31.7206 1.45862 23.5445 2.9321 22.8077 5.73536C21.8194 9.47303 16.8958 18.0625 20.8311 25.1785C23.0086 29.754 24.4055 34.6615 24.9641 39.6979C25.3594 43.8129 30.6425 43.0402 33.1941 42.6449C35.7458 42.2496 37.3452 46.0771 40.6516 43.0043C43.958 39.9315 44.0119 30.5334 47.2644 28.8083C53.1584 25.6996 53.2123 10.8387 50.9661 7.71202C49.4387 5.60958 44.2095 2.98602 40.0046 1.36876Z" fill="#E2954A"/>
<g style="mix-blend-mode:multiply" opacity="0.32">
<path d="M33.1938 42.6989C34.9908 42.4294 36.5721 44.1545 38.5847 44.2264C39.4087 44.0743 40.1635 43.6654 40.741 43.0583C44.0654 39.9676 44.1013 30.5874 47.3538 28.8623C53.2479 25.7536 53.3018 10.8928 51.0556 7.76605C50.5818 7.16244 50.0182 6.63519 49.3844 6.20271C47.5875 8.68251 48.3781 11.5936 48.2523 15.8344C48.0547 22.8425 45.8624 32.007 36.9494 31.5937C34.996 31.5462 33.1082 30.8792 31.5586 29.689C25.5028 27.4428 20.9026 20.3987 22.5738 14.0913C23.4722 10.8388 26.4552 8.95204 27.0842 5.73548C27.2746 4.75701 27.3948 3.76615 27.4436 2.77051L26.6888 3.04004H26.5451L25.9161 3.29164L25.7005 3.38147L25.1974 3.61508L24.9278 3.75884L24.5145 3.99245L24.245 4.17213L23.9395 4.38776L23.6699 4.60341L23.4543 4.81904C23.3671 4.90236 23.2943 4.99951 23.2387 5.10656L23.0949 5.26828C23.0057 5.41948 22.9391 5.58295 22.8973 5.75347C22.1605 8.55672 19.1955 14.0914 19.4291 19.6799C19.4443 20.1491 19.4863 20.6171 19.5549 21.0815C19.7554 22.525 20.2182 23.9196 20.9206 25.1966C21.1913 25.6686 21.4372 26.1545 21.6574 26.6521C23.3836 30.8302 24.5264 35.2261 25.0536 39.716C25.3591 43.831 30.6421 43.0583 33.1938 42.6989Z" fill="#E2954A"/>
</g>
<path d="M54.0218 6.84984C54.0218 6.84984 49.8888 10.6773 50.0865 14.99C50.2841 19.3027 52.4405 21.4591 50.8592 28.7188C49.2778 35.9785 46.6003 42.0702 52.5662 40.1115C58.5321 38.1529 74.2196 27.7485 73.2313 20.0934C72.2429 12.4384 63.2043 11.2704 61.0839 8.39522C60.3412 7.26699 59.1869 6.47382 57.8674 6.18508C56.5479 5.89634 55.1678 6.1349 54.0218 6.84984Z" fill="#E2954A"/>
<g style="mix-blend-mode:multiply" opacity="0.32">
<path d="M67.9298 29.9046C59.9334 31.3062 54.0752 27.4068 51.6134 19.7338C51.1282 18.2064 50.679 16.6251 50.086 15.0977C50.3196 19.3385 52.4221 21.5307 50.8587 28.7186C49.2954 35.9064 46.5999 42.07 52.5658 40.1113C58.3438 37.7125 63.6127 34.2365 68.0916 29.8686L67.9298 29.9046Z" fill="#E2AA68"/>
</g>
<path d="M31.5055 19.7878C31.2931 18.8522 30.7785 18.0126 30.0412 17.3987C29.3039 16.7848 28.385 16.4309 27.4264 16.3915C26.5395 16.3494 25.6569 16.5394 24.8659 16.9428C24.0748 17.3462 23.4028 17.949 22.916 18.6916C23.1951 19.6763 23.7851 20.5443 24.598 21.1661C25.4109 21.7879 26.403 22.1302 27.4264 22.1418C28.2478 22.1166 29.0502 21.8885 29.762 21.4777C30.4738 21.067 31.0727 20.4864 31.5055 19.7878Z" fill="#924A1C"/>
<path d="M40.6523 22.3395C40.8683 21.4025 41.3864 20.5624 42.1267 19.9487C42.867 19.335 43.7886 18.9817 44.7494 18.9432C45.6363 18.9011 46.5189 19.0912 47.3099 19.4945C48.101 19.8979 48.773 20.5007 49.2597 21.2434C48.9872 22.2347 48.4001 23.1107 47.5866 23.7394C46.7731 24.3681 45.7774 24.7156 44.7494 24.7295C43.9223 24.7002 43.1152 24.4666 42.4003 24.0496C41.6854 23.6326 41.0849 23.0451 40.6523 22.3395Z" fill="#924A1C"/>
<path d="M24.209 18.9069C24.5497 18.328 25.0458 17.8561 25.641 17.5449C26.2363 17.2336 26.9069 17.0954 27.5767 17.1459C28.2465 17.1964 28.8887 17.4337 29.4306 17.8307C29.9724 18.2277 30.3921 18.7686 30.6421 19.3921C30.4733 20.1563 30.0174 20.8267 29.3688 21.2647C28.7201 21.7027 27.928 21.875 27.156 21.7461C26.4229 21.6575 25.7387 21.3325 25.2069 20.8202C24.6751 20.3079 24.3248 19.6362 24.209 18.9069Z" fill="#D4AD90"/>
<path d="M29.8513 19.3384C29.8549 19.8083 29.7188 20.2686 29.4603 20.661C29.2019 21.0535 28.8327 21.3603 28.3996 21.5426C27.9665 21.7249 27.489 21.7744 27.0277 21.6849C26.5664 21.5955 26.1421 21.371 25.8086 21.04C25.475 20.709 25.2473 20.2863 25.1543 19.8257C25.0613 19.3651 25.1072 18.8873 25.2862 18.4528C25.4652 18.0184 25.7692 17.6469 26.1597 17.3854C26.5502 17.124 27.0094 16.9844 27.4793 16.9844C28.1053 16.9844 28.706 17.2318 29.1503 17.6728C29.5946 18.1137 29.8466 18.7124 29.8513 19.3384Z" fill="#4A4240"/>
<path d="M48.1632 21.3331C47.8209 20.7592 47.3254 20.292 46.7322 19.9842C46.1391 19.6763 45.4719 19.5399 44.8055 19.5903C44.1391 19.6407 43.5 19.8759 42.9599 20.2695C42.4198 20.6631 42.0001 21.1994 41.748 21.8184C41.9129 22.5812 42.3651 23.2513 43.0109 23.6896C43.6566 24.1279 44.4463 24.3008 45.2162 24.1724C45.9514 24.0896 46.6389 23.7665 47.1717 23.2531C47.7046 22.7397 48.0531 22.0648 48.1632 21.3331Z" fill="#D4AD90"/>
<path d="M42.5919 21.7467C42.5883 22.2173 42.7249 22.6784 42.9841 23.0712C43.2434 23.464 43.6136 23.7708 44.0478 23.9525C44.4819 24.1343 44.9604 24.1828 45.4222 24.0918C45.8839 24.0009 46.3082 23.7746 46.6411 23.4418C46.9739 23.109 47.2001 22.6847 47.2911 22.2229C47.382 21.7611 47.3335 21.2827 47.1518 20.8486C46.97 20.4144 46.6632 20.0442 46.2704 19.7849C45.8776 19.5256 45.4165 19.3891 44.9459 19.3926C44.323 19.3973 43.727 19.6469 43.2866 20.0873C42.8461 20.5278 42.5966 21.1238 42.5919 21.7467Z" fill="#4A4240"/>
<path d="M27.3193 18.6915C27.3671 18.926 27.5049 19.1325 27.703 19.2668C27.9011 19.4011 28.1439 19.4527 28.3795 19.4103C28.4946 19.4013 28.6067 19.3694 28.7092 19.3163C28.8117 19.2632 28.9025 19.1901 28.9762 19.1013C29.05 19.0124 29.1051 18.9097 29.1384 18.7992C29.1717 18.6887 29.1825 18.5727 29.1702 18.4579C29.1223 18.227 28.9872 18.0235 28.7931 17.8896C28.599 17.7557 28.3608 17.7018 28.1279 17.7391C28.0113 17.7457 27.8972 17.776 27.7926 17.8281C27.688 17.8801 27.5951 17.9529 27.5195 18.042C27.4439 18.1311 27.3872 18.2345 27.3527 18.3462C27.3183 18.4578 27.3069 18.5753 27.3193 18.6915Z" fill="#F7EFE5"/>
<path d="M45.0185 21.3152C45.0704 21.5475 45.209 21.7513 45.4061 21.8848C45.6031 22.0184 45.8437 22.0718 46.0787 22.034C46.3093 22.0112 46.5216 21.8984 46.6697 21.7202C46.8177 21.5419 46.8894 21.3125 46.8694 21.0816C46.8257 20.8485 46.6916 20.6421 46.4964 20.5075C46.3011 20.3728 46.0605 20.3208 45.8271 20.3628C45.7105 20.3695 45.5964 20.3997 45.4918 20.4518C45.3872 20.5039 45.2943 20.5767 45.2187 20.6657C45.1431 20.7548 45.0863 20.8583 45.0519 20.9699C45.0175 21.0816 45.0062 21.1991 45.0185 21.3152Z" fill="#F7EFE5"/>
<path d="M40.3832 32.1689H40.2753C39.4126 32.7282 38.4574 33.1297 37.4542 33.3548C37.4217 33.5685 37.3306 33.769 37.191 33.9339C37.0514 34.0989 36.8688 34.2219 36.6635 34.2893C35.6708 34.6488 34.7191 35.1126 33.8243 35.6729C33.0516 34.9182 32.1711 34.0557 31.4164 33.247C31.3593 33.1027 31.3593 32.9421 31.4164 32.7978C30.2196 32.2601 29.1713 31.44 28.3615 30.4079C28.1638 30.4079 27.9842 30.4079 27.7865 30.4079C26.7982 30.3 25.9896 30.5875 23.6895 32.8158C24.3188 35.0892 24.7694 37.4083 25.0372 39.752C25.2348 41.9084 26.8341 42.6991 28.6311 42.9327C30.2398 42.88 31.7737 42.2409 32.9438 41.1357C33.7133 42.0692 34.6922 42.808 35.8009 43.292C37.4721 44.0288 39.5386 45.089 41.3895 42.6811C42.6653 41.0638 43.1864 38.0449 44.1209 35.2956C42.7192 32.6001 41.4973 33.2471 40.3832 32.1689Z" fill="#F6B87C"/>
<path d="M41.0105 40.0399C39.9561 40.4476 38.8755 40.7838 37.776 41.0462C35.9353 40.6188 34.2906 39.5877 33.1039 38.1172C32.6005 38.7243 31.9918 39.2356 31.3069 39.6266C30.2687 39.9967 29.1746 40.1851 28.0724 40.1837C26.9044 40.1837 25.916 38.3867 25.916 38.3867C25.916 38.8539 26.5989 41.0462 27.8208 41.2798C28.9593 41.4262 30.1164 41.2777 31.1811 40.8485C31.8622 40.6119 32.4779 40.2179 32.9781 39.6985C34.0056 40.6557 35.1912 41.4279 36.4821 41.9806C39.1776 43.1487 40.7948 40.4173 41.0105 40.0399Z" fill="#111B1D"/>
<path d="M33.6082 28.1082C32.525 27.9745 31.4276 28.0109 30.3557 28.216C29.8326 28.3371 29.3496 28.5908 28.953 28.9528C28.5564 29.3147 28.2597 29.7726 28.0915 30.2825C27.0493 33.6428 31.2722 36.8594 32.548 38.0993C34.1473 39.6626 39.5382 35.1703 40.5265 33.6788C40.8326 33.2898 41.0249 32.8235 41.082 32.3318C41.1391 31.8401 41.0588 31.3423 40.8499 30.8935C40.1312 28.9707 35.2434 28.3238 33.6082 28.1082Z" fill="#623727"/>
<g style="mix-blend-mode:screen">
<path d="M39.3935 31.5941C39.2149 32.2743 38.7808 32.8594 38.1817 33.2276C37.5825 33.5958 36.8644 33.7188 36.1769 33.5708C34.5237 33.4091 33.2658 32.277 33.3736 31.0371C33.5523 30.3559 33.9856 29.7693 34.5841 29.3982C35.1826 29.027 35.9006 28.8997 36.5902 29.0424C38.2614 29.2041 39.5013 30.3362 39.3935 31.5941Z" fill="#623727"/>
</g>
<path d="M40.166 17.3803C40.175 16.5012 40.4717 15.6491 41.0106 14.9544C43.6341 11.8098 47.6054 13.0137 49.9056 16.4819C49.2597 16.6453 48.5764 16.5687 47.9828 16.2662C48.4324 16.7648 48.7097 17.3949 48.7735 18.0632C48.3828 17.7617 47.9611 17.5027 47.5156 17.2905C46.4102 16.6009 45.1303 16.2429 43.8277 16.2588C42.525 16.2748 41.2542 16.664 40.166 17.3803Z" fill="#D17D27"/>
<path d="M32.4028 16.3376C32.6184 15.9962 32.0614 14.343 31.6661 13.75C29.1144 9.90453 25.0173 9.8686 22.5195 12.5281C23.1159 12.8763 23.8135 13.0094 24.4962 12.9054C23.9391 13.1211 23.8134 13.8219 23.5977 14.4149C24.0286 14.249 24.4737 14.1227 24.9275 14.0375C26.2664 13.7591 27.654 13.824 28.961 14.2262C30.2681 14.6283 31.452 15.3547 32.4028 16.3376Z" fill="#D17D27"/>
</g>
<defs>
<clipPath id="clip0_158_4042">
<rect width="196.533" height="159.229" fill="white" transform="translate(1.98047 0.847656)"/>
</clipPath>
</defs>
</svg>
