<svg width="219" height="112" viewBox="0 0 219 112" fill="none" xmlns="http://www.w3.org/2000/svg">
<path d="M217.213 91.8624C217.213 92.8495 216.672 93.9513 215.328 95.1575C213.988 96.3607 211.954 97.5681 209.241 98.7465C203.822 101.1 195.918 103.243 186.076 105.051C166.407 108.664 139.194 110.905 109.107 110.905C79.0191 110.905 51.8058 108.664 32.1372 105.051C22.2948 103.243 14.3915 101.1 8.97249 98.7465C6.25925 97.5681 4.225 96.3607 2.88467 95.1575C1.54101 93.9513 1 92.8495 1 91.8624C1 90.8753 1.54101 89.7736 2.88467 88.5674C4.225 87.3642 6.25925 86.1567 8.97249 84.9784C14.3915 82.6249 22.2948 80.482 32.1372 78.6741C51.8058 75.0611 79.0191 72.8203 109.107 72.8203C139.194 72.8203 166.407 75.0611 186.076 78.6741C195.918 80.482 203.822 82.6249 209.241 84.9784C211.954 86.1567 213.988 87.3642 215.328 88.5674C216.672 89.7736 217.213 90.8753 217.213 91.8624Z" stroke="#737E85" stroke-width="2"/>
<g opacity="0.4">
<path d="M38.0566 101.767C19.216 98.6413 9.79735 94.9717 9.80078 90.7578C9.80078 87.9485 14.6535 85.3522 24.3589 82.9688C34.0642 80.5853 46.8742 78.7119 62.7889 77.3485C78.7138 75.9748 95.5025 75.2982 113.155 75.3188C139.07 75.3188 161.012 76.6737 178.98 79.3833C196.949 82.093 205.935 85.7437 205.938 90.3354C205.938 94.8223 196.629 98.6396 178.079 101.767C159.528 104.893 136.414 106.475 108.735 106.475C80.4739 106.475 56.9145 104.905 38.0566 101.767Z" fill="white"/>
</g>
<path d="M168.305 85.4543C167.772 80.8378 163.511 78.5295 158.539 74.8008C156.231 73.0252 154.988 70.0067 153.923 66.4555C150.904 65.2126 147.886 65.0351 144.867 65.2126C140.783 67.3433 136.522 68.9413 132.261 71.072C131.373 71.4272 129.952 71.072 129.064 71.6047C136.877 84.744 145.933 84.3889 151.082 84.9216C156.408 85.4543 159.96 84.2114 159.96 88.4728C159.96 92.5566 157.119 91.4913 152.502 93.0893C149.306 94.1546 150.371 96.2853 151.437 97.3507C151.969 97.8834 152.502 98.0609 153.212 98.0609H166.352C169.548 97.8834 168.838 89.8932 168.305 85.4543Z" fill="#252239"/>
<path d="M168.127 84.7441H158.894C158.717 84.9217 158.539 85.0993 158.361 85.0993C159.604 85.4544 160.137 86.3422 160.137 88.1178C160.137 92.2016 157.296 91.1362 152.68 92.7343C149.483 93.7996 150.549 95.9303 151.614 96.9957C152.147 97.5284 152.68 97.7059 153.39 97.7059H166.529C169.725 97.7059 169.015 89.8933 168.482 85.2768C168.127 85.0993 168.127 85.0993 168.127 84.7441Z" fill="#A06941"/>
<path opacity="0.32" d="M168.127 84.7441H158.894C158.717 84.9217 158.539 85.0993 158.361 85.0993C159.604 85.4544 160.137 86.3422 160.137 88.1178C160.137 92.2016 157.296 91.1362 152.68 92.7343C149.483 93.7996 150.549 95.9303 151.614 96.9957C152.147 97.5284 152.68 97.7059 153.39 97.7059H166.529C169.725 97.7059 169.015 89.8933 168.482 85.2768C168.127 85.0993 168.127 85.0993 168.127 84.7441Z" fill="#8A6951"/>
<path opacity="0.32" d="M161.913 85.278C160.847 85.278 159.782 85.4555 158.894 85.6331C159.604 86.1658 160.137 86.876 160.137 88.2965C160.137 92.3803 157.296 91.315 152.68 92.913C149.483 93.9783 150.549 96.109 151.614 97.1744C152.147 97.7071 152.68 97.8846 153.39 97.8846H166.529C169.37 97.8846 169.015 91.315 168.482 86.5209C166.174 85.9882 164.043 85.1004 161.913 85.278Z" fill="#8A6951"/>
<path d="M65.6754 89.0052C65.6754 89.0052 67.4509 84.5663 59.4608 74.2679C55.7321 69.4738 47.2093 53.4935 61.0588 49.7648C74.9084 46.0361 71.8899 67.8758 74.1982 79.2395C76.5064 90.6033 74.7308 98.0607 68.8714 98.0607H57.3301C56.6199 98.0607 55.9096 97.7056 55.377 96.9954C54.3116 95.5749 53.0687 93.2666 55.377 92.5564C58.573 91.491 64.9651 92.3788 65.6754 89.0052Z" fill="#A06941"/>
<path opacity="0.32" d="M65.6754 89.0052C65.6754 89.0052 67.4509 84.5663 59.4608 74.2679C55.7321 69.4738 47.2093 53.4935 61.0588 49.7648C74.9084 46.0361 71.8899 67.8758 74.1982 79.2395C76.5064 90.6033 74.7308 98.0607 68.8714 98.0607H57.3301C56.6199 98.0607 55.9096 97.7056 55.377 96.9954C54.3116 95.5749 53.0687 93.2666 55.377 92.5564C58.573 91.491 64.9651 92.3788 65.6754 89.0052Z" fill="#8A6951"/>
<path d="M153.569 55.4479C153.569 55.4479 162.092 58.644 167.063 57.0459C171.68 55.6255 177.717 49.9436 177.007 43.0188C177.007 42.6637 177.362 42.3086 177.717 42.6637C179.493 44.0842 183.044 48.3456 177.895 57.5786C174.876 62.9054 164.933 65.3912 158.541 63.9707C153.214 62.5502 150.55 58.9991 153.569 55.4479Z" fill="#4F4C5F"/>
<path d="M68.3402 13.366C68.3402 13.366 63.0135 27.5707 68.3402 34.8506C73.667 42.1305 95.1516 50.4757 107.936 49.943C120.72 49.4104 151.082 46.9245 155.521 55.0922C159.96 63.4375 159.96 72.8481 164.932 76.5768C169.726 80.3055 174.165 82.6138 174.698 87.2303C175.23 91.8468 175.941 99.6594 172.745 99.6594H159.605C158.895 99.6594 158.362 99.3043 157.83 98.9492C156.942 97.8838 155.699 95.9307 158.895 94.6878C163.512 93.0897 166.352 94.1551 166.352 90.0712C166.352 85.9874 163.334 86.6976 158.007 86.165C152.68 85.6323 143.803 87.2303 134.57 71.9603C134.57 71.9603 119.655 71.7827 110.954 77.4646C104.562 81.5484 93.0208 85.9874 77.7508 83.8567C70.4709 82.7913 59.995 77.4646 53.7804 74.091C41.5289 67.1662 52.5375 37.1588 47.0332 24.3746C47.2108 24.0195 66.7422 5.73097 68.3402 13.366Z" fill="#4F4C5F"/>
<path d="M174.695 87.0529C174.695 86.3427 174.518 85.81 174.163 85.2773C173.63 86.3427 172.565 87.2305 170.434 87.408C168.481 87.5856 166.528 87.2305 164.752 86.8754C165.817 87.408 166.528 88.2958 166.528 90.0714C166.528 94.1553 163.687 93.0899 159.07 94.6879C155.874 95.7533 156.939 97.884 158.005 98.9493C158.537 99.482 159.07 99.6596 159.78 99.6596H172.92C175.938 99.6596 175.228 91.6694 174.695 87.0529Z" fill="#A06941"/>
<path opacity="0.32" d="M84.8532 52.2512C95.8619 62.9047 107.581 60.9515 121.43 58.8208C126.047 58.1106 131.196 57.7555 135.813 58.6433C141.494 59.8862 149.485 63.2598 154.811 59.7086C155.522 59.1759 156.232 58.6433 156.764 58.1106C156.409 57.2228 155.877 56.1575 155.521 55.2697C151.083 46.9244 120.72 49.4102 107.936 50.1205C98.8804 50.4756 85.741 46.5693 76.6855 41.5977C79.1714 45.6815 82.0123 49.5878 84.8532 52.2512Z" fill="#373349"/>
<path opacity="0.55" d="M47.921 41.4222C50.9395 39.8242 55.2009 36.6281 57.6867 35.5628C59.8174 34.675 61.593 35.2077 64.0788 35.2077C65.4993 35.2077 66.7422 35.0301 68.1627 35.0301C62.8359 27.7502 68.1627 13.5455 68.1627 13.5455C66.5646 5.91052 47.0332 24.199 47.0332 24.199C48.9863 28.4604 49.3415 34.1423 47.921 41.4222Z" fill="#6C6979"/>
<path opacity="0.55" d="M113.086 76.044C119.478 73.0255 127.113 71.7826 134.215 71.7826C132.795 69.6519 131.374 67.6988 129.421 65.9232C123.207 63.4374 117.525 65.3905 111.665 67.8763C105.628 70.5397 99.5914 73.3807 93.0217 74.446C87.1623 75.3338 80.7702 74.446 75.621 71.25C71.182 68.409 68.3411 64.1476 66.9206 59.176C59.6407 58.8209 53.7813 59.8862 47.9219 57.4004C47.9219 63.7925 48.6321 70.8948 54.6691 74.2684C60.8836 77.8196 67.4533 81.1932 74.3781 82.9688C81.4804 84.922 89.6481 84.5668 96.928 82.9688C99.9465 82.2586 102.965 81.3708 105.983 79.9503C108.292 78.885 110.6 77.2869 113.086 76.044Z" fill="#6C6979"/>
<path d="M78.2825 89.0051C79.5254 82.9681 80.0581 76.9311 79.5254 70.7165C78.8152 60.063 77.7498 48.6993 67.4514 51.3627C53.6019 55.0914 62.1247 71.0717 65.8534 75.8657C73.8435 86.1641 72.0679 90.6031 72.0679 90.6031C71.1802 93.9767 64.9656 93.0889 61.7695 93.9767C59.4613 94.6869 60.8818 96.9952 61.7695 98.4157C62.3022 99.1259 63.0125 99.481 63.7227 99.481H72.2455C74.0211 99.481 75.6191 98.2381 76.1518 96.4625C76.862 94.6869 77.7498 91.846 78.2825 89.0051Z" fill="#4F4C5F"/>
<path d="M77.0397 94.6879C77.9275 91.1367 78.8153 87.5855 79.1704 84.0344C76.1519 84.7446 72.9559 83.5017 70.1149 82.2588C70.2925 82.6139 70.4701 82.969 70.6476 83.3241C71.5354 85.2773 72.7783 87.9407 72.2456 90.2489C72.2456 90.4265 72.2456 90.4265 72.2456 90.604C71.5354 93.6225 66.5638 93.445 64.2555 93.6225C63.0126 93.8001 60.5268 93.8001 60.7043 95.5757C60.8819 97.1737 62.1248 99.3044 63.9004 99.3044H72.6008C74.5539 99.3044 76.1519 98.0615 76.6846 96.1083C76.6846 95.9308 76.8622 95.2206 77.0397 94.6879Z" fill="#A06941"/>
<path d="M56.0908 0.937102C55.3806 0.937102 54.6704 0.937102 53.9601 0.937102C51.6519 0.581985 45.7924 1.11466 43.8393 3.9556C41.531 7.50677 40.8208 10.3477 42.9515 14.4315C45.2598 18.6929 45.6149 24.5524 48.8109 27.926C52.007 31.2996 59.1093 30.9445 61.4176 25.9728C63.9034 21.0012 65.679 17.8052 67.4546 11.7682C69.0526 6.79653 65.5014 0.226868 56.0908 0.937102Z" fill="#4F4C5F"/>
<path opacity="0.55" d="M65.5018 3.77734C66.0345 5.37537 66.5672 6.9734 66.3896 8.92654C66.3896 12.1226 65.1467 15.3186 63.7262 17.982C61.0629 22.7761 60.7077 25.0844 54.3156 25.7946C50.2318 26.1497 47.0357 20.1127 45.7928 16.384C44.5499 12.1226 45.2602 10.5246 44.7275 7.15095C44.5499 6.0856 44.1948 5.02025 43.8397 3.77734C42.4192 6.0856 41.709 7.86119 41.709 9.99189C41.8865 11.5899 42.4192 13.0104 43.1295 14.4309C45.4377 18.6923 45.7928 24.5517 48.9889 27.9253C52.1849 31.2989 59.2873 30.9438 61.5955 25.9722C63.9038 21.1781 65.8569 17.2718 67.6325 11.7675C68.3428 9.1041 67.6325 5.90805 65.5018 3.77734Z" fill="#6C6979"/>
<path d="M43.6582 5.73066C43.6582 5.73066 43.6582 5.02043 43.8357 3.95508C42.5928 5.02043 41.1724 5.73066 39.9295 6.4409C39.5743 6.61846 39.2192 6.61846 38.8641 6.79601C36.7334 7.68381 34.9578 8.92671 33.7149 10.7023C31.9393 13.3657 31.4067 16.2066 32.1169 19.2251C32.1169 19.4027 32.2944 19.5802 32.2944 19.7578C33.7149 22.9538 36.0232 26.505 39.2192 30.0562C40.107 31.1215 41.705 31.6542 42.948 31.1215C44.7235 30.4113 46.3216 28.103 45.0787 20.6456C42.5928 6.97357 43.6582 5.73066 43.6582 5.73066Z" fill="#4F4C5F"/>
<path opacity="0.55" d="M44.5447 17.8037C44.5447 19.4017 44.3671 20.8222 43.6569 22.0651C41.7037 25.7938 37.6199 25.0836 34.4238 22.2427C33.7136 21.5324 33.0034 20.8222 32.4707 20.2895C33.8912 23.308 36.1994 26.6816 39.2179 30.0552C40.1057 31.1206 41.7037 31.6533 42.9467 31.1206C44.7222 30.4104 46.3203 28.1021 45.0774 20.6446C44.7222 19.5793 44.5447 18.6915 44.5447 17.8037Z" fill="#6C6979"/>
<path d="M65.8555 4.31138C65.8555 4.31138 67.8086 11.4137 67.2759 15.8527C66.7433 20.2916 62.837 27.9267 66.5657 32.5432C70.2944 37.1597 80.5928 22.5999 80.5928 16.5629C80.5928 10.3484 72.6027 9.99325 70.2944 6.7972C67.8086 3.60115 65.8555 4.31138 65.8555 4.31138Z" fill="#4F4C5F"/>
<path opacity="0.55" d="M77.0412 22.9526C75.0881 24.7282 72.9574 27.5691 70.1165 27.5691C67.4531 27.5691 66.2102 24.9058 65.6775 22.4199C64.7897 25.9711 64.4346 29.6998 66.5653 32.3632C69.5838 36.0919 77.0412 27.214 79.7046 20.4668C78.8168 21.3546 77.929 22.0648 77.0412 22.9526Z" fill="#6C6979"/>
<path d="M55.3786 12.8335C52.3601 12.4784 48.6314 20.646 47.2109 25.2626C47.7436 26.3279 48.6314 27.5708 48.9865 27.9259C52.1826 31.2996 59.2849 30.9444 61.5932 25.9728C61.9483 25.2626 62.3034 24.5523 62.481 24.0197C60.5278 20.8236 58.2196 13.1886 55.3786 12.8335Z" fill="#A06941"/>
<path d="M58.2188 11.2352C58.2188 11.2352 59.4617 6.61868 61.7699 7.68403C64.2557 8.57182 64.966 10.8801 64.966 10.8801C64.966 10.8801 63.1904 13.1883 61.9475 13.1883C60.3495 13.0108 58.2188 11.2352 58.2188 11.2352Z" fill="#111627"/>
<path d="M59.2812 11.0569C59.2812 11.0569 59.8139 7.50575 61.9446 8.21599C64.0753 8.92622 64.4304 10.7018 64.4304 10.7018C64.4304 10.7018 63.01 12.8325 61.9446 12.6549C60.5242 12.6549 59.2812 11.0569 59.2812 11.0569Z" fill="#827776"/>
<path d="M63.7245 10.5243C63.7245 11.5896 62.6591 12.4774 61.5938 12.4774C60.5284 12.4774 59.6406 11.412 59.6406 10.3467C59.6406 9.28135 60.706 8.39355 61.7713 8.39355C62.8367 8.39355 63.7245 9.28135 63.7245 10.5243Z" fill="#372D33"/>
<path d="M63.19 9.81375C63.19 10.1689 62.8349 10.524 62.4798 10.524C62.1246 10.524 61.7695 10.1689 61.7695 9.81375C61.7695 9.45863 62.1246 9.10352 62.4798 9.10352C62.8349 9.10352 63.19 9.28107 63.19 9.81375Z" fill="#F0EEF1"/>
<path d="M52.5379 11.0577C52.5379 11.0577 51.8277 6.4412 49.1643 7.15143C46.6785 7.86167 45.4355 9.99237 45.4355 9.99237C45.4355 9.99237 47.2111 12.4782 48.454 12.6557C50.2296 12.6557 52.5379 11.0577 52.5379 11.0577Z" fill="#111627"/>
<path d="M51.4716 10.7032C51.4716 10.7032 51.2941 6.97445 49.1634 7.68468C47.0327 8.39491 46.5 9.99294 46.5 9.99294C46.5 9.99294 47.5654 12.1236 48.6307 12.1236C50.0512 12.1236 51.4716 10.7032 51.4716 10.7032Z" fill="#827776"/>
<path d="M51.117 9.99398C51.117 11.0593 50.0517 11.9471 48.9863 11.9471C47.921 11.9471 47.0332 10.8818 47.0332 9.81642C47.0332 8.75107 48.0986 7.86328 49.1639 7.86328C50.2293 7.86328 51.2946 8.75107 51.117 9.99398Z" fill="#372D33"/>
<path d="M50.7603 9.28181C50.7603 9.63693 50.4052 9.99205 50.0501 9.99205C49.695 9.99205 49.3398 9.63693 49.3398 9.28181C49.3398 8.9267 49.695 8.57158 50.0501 8.57158C50.4052 8.39402 50.7603 8.74914 50.7603 9.28181Z" fill="#F0EEF1"/>
<path d="M54.1393 27.5732C50.233 28.2834 48.8125 26.5078 48.8125 26.5078C49.1676 28.461 53.9617 28.9936 53.9617 28.9936C53.9617 28.9936 58.7558 28.8161 59.2884 27.0405C59.466 26.8629 57.868 28.461 54.1393 27.5732Z" fill="#14192C"/>
<path d="M52.1849 27.2183C52.1849 27.2183 47.5684 25.6203 49.344 21.714C50.7644 18.1628 53.2503 20.1159 54.6707 20.2935C55.7361 20.4711 58.3995 19.0506 59.6424 21.8915C60.8853 24.5549 58.2219 27.751 53.9605 27.5734C53.4278 27.3958 52.7176 27.3958 52.1849 27.2183Z" fill="#14192C"/>
</svg>
