<svg width="219" height="154" viewBox="0 0 219 154" fill="none" xmlns="http://www.w3.org/2000/svg">
<path d="M217.213 133.366C217.213 134.353 216.672 135.455 215.328 136.661C213.988 137.865 211.954 139.072 209.241 140.25C203.822 142.604 195.918 144.747 186.076 146.555C166.407 150.168 139.194 152.408 109.107 152.408C79.0191 152.408 51.8058 150.168 32.1372 146.555C22.2948 144.747 14.3915 142.604 8.97249 140.25C6.25925 139.072 4.225 137.865 2.88467 136.661C1.54101 135.455 1 134.353 1 133.366C1 132.379 1.54101 131.277 2.88467 130.071C4.225 128.868 6.25925 127.661 8.97249 126.482C14.3915 124.129 22.2948 121.986 32.1372 120.178C51.8058 116.565 79.0191 114.324 109.107 114.324C139.194 114.324 166.407 116.565 186.076 120.178C195.918 121.986 203.822 124.129 209.241 126.482C211.954 127.661 213.988 128.868 215.328 130.071C216.672 131.277 217.213 132.379 217.213 133.366Z" stroke="#737E85" stroke-width="2"/>
<g opacity="0.4">
<path d="M38.0566 143.27C19.216 140.145 9.79735 136.476 9.80078 132.262C9.80078 129.452 14.6535 126.856 24.3589 124.473C34.0642 122.089 46.8742 120.216 62.7889 118.852C78.7138 117.479 95.5025 116.802 113.155 116.823C139.07 116.823 161.012 118.178 178.98 120.887C196.949 123.597 205.935 127.248 205.938 131.839C205.938 136.326 196.629 140.143 178.079 143.27C159.528 146.397 136.414 147.979 108.735 147.979C80.4739 147.979 56.9145 146.409 38.0566 143.27Z" fill="white"/>
</g>
<g clip-path="url(#clip0_158_4156)">
<path d="M161.349 67.8492C162.382 65.0196 163.202 62.1168 163.802 59.165H126.43L127.146 78.2245C129.591 84.6425 134.007 90.1204 139.761 93.8712C145.274 98.0019 149.364 103.748 151.461 110.31C152.299 113.357 152.985 125.134 151.461 126.033C149.938 126.932 143.737 126.231 143.737 131.076C143.737 135.921 151.918 134.976 158.134 134.976C164.35 134.976 163.665 107.857 160.938 94.7853C158.211 81.7134 161.349 67.8492 161.349 67.8492Z" fill="#BFB6A9"/>
<path d="M65.7626 60.1246C64.5581 57.9992 62.6007 56.4024 60.2767 55.6494C57.9527 54.8963 55.4308 55.0417 53.2087 56.0567C50.2835 57.4736 47.6935 60.6273 47.5869 67.3157C47.3431 82.9167 56.7281 98.2129 54.9151 111.392C53.1021 124.57 53.7115 125.027 51.1367 126.535C48.9276 127.846 42.1174 130.527 44.2351 134.153C44.6144 134.735 45.1343 135.212 45.7469 135.539C46.3594 135.867 47.0446 136.035 47.7392 136.027C50.7863 136.027 56.9718 136.134 57.9012 136.027C59.1657 135.829 61.5882 130.725 63.0965 122.696C64.8809 119.038 65.7588 115.004 65.656 110.934C65.656 110.934 69.1449 107.659 67.6214 99.6755C67.6214 99.6755 74.5991 90.3362 71.1102 76.0912C69.0534 67.6508 67.5299 63.1259 65.7626 60.1246Z" fill="#BFB6A9"/>
<path d="M159.979 35.9766C159.979 35.9766 172.258 45.1178 173.843 56.4224C175.427 67.727 175.366 86.8931 177.255 91.4637C179.145 96.0343 193.831 114.865 191.104 119.421C188.377 123.976 181.567 112.367 181.567 112.367C181.567 112.367 174.985 113.509 173.843 108.741C172.7 103.972 166.575 104.642 163.62 89.6507C160.664 74.6591 165.661 53.2992 163.391 47.6164C161.933 43.8379 160.791 39.9445 159.979 35.9766Z" fill="#E4DACE"/>
<path d="M176.128 85.0957C175.321 77.2342 175.016 64.7717 173.843 56.438C172.319 45.0877 159.979 35.9922 159.979 35.9922C160.793 39.9446 161.935 43.8226 163.391 47.5863C165.661 53.269 160.664 74.629 163.62 89.6206C165.478 99.0513 168.586 102.281 170.933 104.566C170.596 97.6937 172.412 90.8871 176.128 85.0957Z" fill="#A54E31"/>
<path d="M53.2085 4.17983C53.2085 4.17983 67.6973 13.321 74.797 20.8473C81.8967 28.3736 101.885 35.0619 109.838 32.9289C117.791 30.796 148.247 27.0938 158.927 34.4525C169.607 41.8111 172.334 56.2542 165.965 73.7596C165.965 73.7596 162.781 87.5933 165.508 100.665C168.235 113.737 168.921 140.856 162.705 140.856C156.489 140.856 148.323 141.816 148.323 136.971C148.323 132.126 154.524 132.842 156.047 131.928C157.571 131.014 158.165 119.74 157.327 116.693C155.803 111.193 148.186 97.0697 145.139 94.495C142.488 92.2401 134.169 88.8883 130.086 81.6211C129.898 81.2817 129.636 80.9894 129.318 80.7664C129.001 80.5434 128.637 80.3955 128.254 80.3339C127.87 80.2722 127.478 80.2985 127.107 80.4106C126.736 80.5228 126.395 80.7179 126.11 80.9812C123.87 83.0685 120.396 85.5518 116.816 85.11C116.816 85.11 108.939 93.7332 102.343 90.3357C102.343 90.3357 93.4755 96.2318 87.3509 94.4188C87.3509 94.4188 78.484 102.372 73.2582 98.9894C68.0325 95.6071 58.0229 95.8204 58.0229 95.8204C58.0229 95.8204 49.1559 97.3439 45.9717 82.8551C45.9717 82.8551 36.4344 81.9562 35.0633 66.9494C35.0633 66.9494 31.5134 64.2223 29.8375 57.4121C28.1616 50.6019 25.7544 49.0784 28.0245 28.3279C30.2946 7.57732 49.095 1.48317 53.2085 4.17983Z" fill="#E4DACE"/>
<path d="M33.0689 64.741C34.3995 62.039 36.277 59.6431 38.5823 57.7049C40.8876 55.7668 43.5705 54.3287 46.4608 53.482C56.379 50.892 63.7377 50.2673 68.9177 40.1968C71.8277 34.5445 74.0825 28.5875 77.5561 23.2703C76.5743 22.537 75.6522 21.727 74.7985 20.8479C67.6989 13.2302 53.21 4.18045 53.21 4.18045C49.0965 1.48379 30.2352 7.51698 27.9651 28.2675C25.695 49.0181 28.1175 50.5416 29.7781 57.3518C30.3857 60.0049 31.5033 62.5145 33.0689 64.741Z" fill="#B06040"/>
<g style="mix-blend-mode:multiply" opacity="0.55">
<path d="M33.0689 64.741C34.3995 62.039 36.277 59.6431 38.5823 57.7049C40.8876 55.7668 43.5705 54.3287 46.4608 53.482C56.379 50.892 63.7377 50.2673 68.9177 40.1968C71.8277 34.5445 74.0825 28.5875 77.5561 23.2703C76.5743 22.537 75.6522 21.727 74.7985 20.8479C67.6989 13.2302 53.21 4.18045 53.21 4.18045C49.0965 1.48379 30.2352 7.51698 27.9651 28.2675C25.695 49.0181 28.1175 50.5416 29.7781 57.3518C30.3857 60.0049 31.5033 62.5145 33.0689 64.741Z" fill="#BC8168"/>
</g>
<path d="M148.429 86.9848L149.953 88.2493C152.929 89.617 155.654 91.4764 158.012 93.7493C160.77 96.5526 163.04 101.641 166.133 104.414C165.919 103.043 165.691 101.763 165.447 100.575C162.72 87.5028 165.904 73.6691 165.904 73.6691C172.273 56.1637 169.545 41.6749 158.865 34.3619C148.185 27.049 117.654 30.7969 109.777 32.8384C104.734 34.1791 94.7399 31.9395 86.33 28.1611C86.33 28.7705 86.2538 29.3952 86.2081 30.0656C85.8729 34.5295 88.0668 37.7899 89.9255 41.6292C90.8097 43.5201 91.1361 45.624 90.8662 47.6939C90.5963 49.7638 89.7414 51.7137 88.402 53.3147C83.5724 59.805 76.6403 61.1761 76.7774 71.0182C76.9602 84.0139 89.0419 85.9945 98.0155 79.5043C103.485 75.5431 107.431 75.1622 114.104 75.7411C118.395 76.3913 122.77 75.3358 126.292 72.8007C128.016 71.7215 130.093 71.3554 132.082 71.7799C136.942 72.3284 138.1 77.7827 140.37 81.1497C142.64 84.5167 145.55 84.73 148.429 86.9848Z" fill="#B06040"/>
<g style="mix-blend-mode:screen" opacity="0.32">
<path d="M90.4298 43.0601C93.9949 44.8274 97.956 44.995 102.222 44.7817C107.195 44.6887 112.148 44.1276 117.015 43.1058C119.317 42.3133 121.742 41.9367 124.176 41.9937C134.475 43.4106 141.438 45.2997 149.863 37.4231C151.645 35.7472 153.367 34.1017 155.21 32.6392C142.443 27.901 116.878 31.1156 109.763 33.02C104.721 34.3607 94.7261 32.1211 86.3162 28.3428C86.3162 28.9522 86.2401 29.5768 86.1944 30.2472C85.8592 34.7111 88.0531 37.9715 89.9118 41.8108C90.1084 42.2169 90.2814 42.634 90.4298 43.0601Z" fill="#B06040"/>
</g>
<path d="M70.471 65.0141C69.2664 62.8886 67.31 61.2909 64.9867 60.5353C62.6634 59.7796 60.1415 59.9208 57.9171 60.931C54.9919 62.3631 52.4019 65.5016 52.2952 72.1899C52.0515 87.8062 61.4364 103.102 59.6234 116.281C57.8104 129.46 58.4198 129.993 55.8451 131.425C53.6359 132.72 46.841 135.417 48.9434 139.043C49.3199 139.631 49.8414 140.112 50.4578 140.44C51.0742 140.769 51.7647 140.933 52.4628 140.917C55.5099 140.917 61.6802 141.038 62.6248 140.917C63.8741 140.719 66.2965 135.599 67.8048 127.586C69.5803 123.956 70.463 119.955 70.3796 115.915C70.3796 115.915 73.8685 112.64 72.345 104.656C72.345 104.656 79.3227 95.3172 75.8338 81.0722C73.7618 72.5404 72.2383 67.9697 70.471 65.0141Z" fill="#E4DACE"/>
<path d="M46.7502 0.40212C46.7502 0.40212 36.0854 -0.664351 32.6575 5.09461C29.2295 10.8536 28.7267 10.7012 28.5744 15.3937C28.4525 19.0502 31.0882 26.9116 32.5508 31.9393C32.9622 33.3714 31.8805 41.37 33.2364 43.3658C33.7127 44.1992 34.3558 44.9253 35.1256 45.4988C37.6699 46.8699 38.2945 43.2896 43.0327 43.0306C48.7155 42.7412 47.1768 48.6068 52.0521 46.0777C54.8554 44.6304 53.5756 35.8853 54.3374 34.2094C56.3609 29.6102 58.1508 24.9117 59.7002 20.1319C60.6821 15.7846 60.4449 11.2506 59.0146 7.02951C58.1157 5.24697 52.9662 1.75807 46.7502 0.40212Z" fill="#B06040"/>
<path d="M45.3937 30.0814V14.1452C45.0448 14.0363 44.7466 13.8056 44.5536 13.4951C44.3606 13.1847 44.2857 12.8152 44.3425 12.4541C44.152 12.354 43.9816 12.2197 43.8397 12.058C42.6209 10.6258 41.2802 7.57876 39.0253 8.50811C37.1971 9.23941 36.2525 11.2657 34.729 13.7338C33.5406 15.6535 31.4229 18.0302 32.0171 19.2033C32.6113 20.3764 33.8606 21.7476 33.9672 23.1341C34.0434 24.1548 33.7844 26.9277 33.6168 30.0814H45.3937Z" fill="#3A3635"/>
<path d="M42.3633 29.6543L45.2275 13.9619C45.5991 13.917 45.9412 13.7369 46.1885 13.4559C46.4358 13.1749 46.571 12.8127 46.5683 12.4384C46.7717 12.3757 46.9625 12.2777 47.132 12.1489C48.6555 10.9605 50.4532 8.20294 52.4948 9.51318C54.1707 10.5797 54.7344 12.7278 55.7856 15.4245C56.6083 17.5422 58.269 20.2388 57.4768 21.3053C56.6845 22.3718 55.1914 23.4688 54.841 24.8095C54.582 25.815 54.3535 28.5726 53.9422 31.7111L42.3633 29.6543Z" fill="#3A3635"/>
<path d="M51.7165 2.0015C50.7414 1.59015 49.7054 1.05691 48.6694 0.615082C47.53 0.174376 46.3082 -0.0127894 45.0891 0.0666082C43.8809 0.129525 42.6791 0.282306 41.4936 0.523673C40.3814 7.34911 43.7941 13.8546 41.0669 20.5886C40.1071 22.9806 35.5517 22.2797 34.5005 24.3975C32.4133 28.6634 33.8454 35.565 32.6266 40.3489C32.3185 40.9518 32.1355 41.6108 32.0884 42.2863C32.0412 42.9617 32.131 43.6397 32.3524 44.2796C32.6918 44.7687 33.1487 45.1645 33.6812 45.4308C34.2136 45.697 34.8045 45.8251 35.3994 45.8032C38.2941 45.5594 38.3094 43.2588 43.0171 42.9998C48.6999 42.7103 47.9229 49.0025 52.722 46.3516C53.1685 45.7375 53.4795 45.0356 53.6345 44.2924C53.7894 43.5491 53.7848 42.7814 53.6209 42.04C53.2705 39.4043 53.8951 35.9459 55.1444 29.3337C56.1347 24.108 48.4256 24.8545 48.3495 20.5125C48.1971 11.1732 51.5336 7.47099 51.7165 2.0015Z" fill="#E4DACE"/>
<path d="M48.5014 45.8789C49.2229 45.1571 49.693 44.2223 49.8421 43.2127C49.8456 41.5654 49.7233 39.9203 49.4765 38.2917C49.4837 37.0329 49.6683 35.7814 50.0249 34.5742C50.4668 32.944 51.4114 30.415 51.1981 29.0133C50.8324 26.5604 49.0651 26.1186 47.1759 25.5549C47.0329 25.5039 46.8847 25.4681 46.7341 25.4483C43.0929 25.4483 36.8464 22.7212 36.9226 29.3181C37.2157 32.6133 37.0722 35.9328 36.496 39.1905C35.9795 40.5265 35.8838 41.9884 36.2217 43.3803C36.32 44.1084 36.639 44.7891 37.1359 45.3304C37.8519 44.9495 38.4461 44.4163 39.2993 43.9592C39.2993 43.8678 42.3464 40.1961 43.3976 40.6532C44.5365 41.4506 45.4836 42.4914 46.1704 43.7002C47.0395 44.3212 47.8232 45.0536 48.5014 45.8789Z" fill="#4E5A68"/>
<path d="M35.6885 3.57084C35.6885 3.57084 34.3326 1.07225 31.5293 3.26614C28.726 5.46003 22.967 7.28828 18.046 8.2024C13.125 9.11652 13.2317 17.5569 16.7967 22.5541C20.3618 27.5513 20.377 34.9252 22.51 37.7894C24.1249 39.9681 26.4864 40.7146 28.1166 32.9903C29.1767 28.156 29.5359 23.1943 29.1831 18.2577C28.6651 8.44615 34.8963 3.7689 35.6885 3.57084Z" fill="#B06040"/>
<g style="mix-blend-mode:multiply" opacity="0.32">
<path d="M29.2461 15.3174C28.4416 16.67 27.5133 17.9451 26.4732 19.1262C25.3519 20.4631 23.954 21.5409 22.3758 22.2852C20.7977 23.0296 19.0769 23.4228 17.332 23.4378C20.3791 28.3893 20.4553 35.0929 22.4663 37.8048C24.0813 39.9834 26.4427 40.7299 28.0729 33.0056C29.1331 28.1713 29.4923 23.2096 29.1394 18.273C29.0974 17.2866 29.1331 16.2983 29.2461 15.3174Z" fill="#B06040"/>
</g>
<path d="M54.9023 3.57064C54.9023 3.57064 56.1974 2.59557 60.2957 4.3324C64.394 6.06923 67.7305 8.79636 70.8385 10.5484C73.9465 12.3005 77.0545 14.7077 74.5559 19.781C72.0573 24.8544 66.9383 31.299 65.1862 35.9915C63.4341 40.684 58.7417 42.0856 57.9647 38.2615C57.1877 34.4375 60.8289 23.27 60.2957 19.0345C59.7624 14.7991 59.5644 5.74929 54.9023 3.57064Z" fill="#B06040"/>
<g style="mix-blend-mode:multiply" opacity="0.32">
<path d="M67.1797 29.044C62.6091 27.7033 61.3598 23.4678 60.9484 19.1562C60.7856 17.3091 60.402 15.4882 59.8058 13.7324C60.0648 15.7283 60.2019 17.6327 60.3695 19.0343C60.9027 23.2698 57.3224 34.483 58.0384 38.2613C58.7545 42.0397 63.4927 40.6838 65.26 35.9913C66.2523 33.6367 67.4664 31.3818 68.886 29.2572C68.3093 29.2823 67.7325 29.2102 67.1797 29.044Z" fill="#B06040"/>
</g>
<path d="M48.8965 20.3594C49.0896 19.5191 49.5536 18.7656 50.2171 18.215C50.8806 17.6644 51.7067 17.3472 52.5682 17.3123C53.3633 17.2762 54.1541 17.4484 54.8622 17.8119C55.5703 18.1753 56.1713 18.7173 56.6056 19.3843C56.3499 20.2589 55.819 21.0278 55.0917 21.5767C54.3644 22.1256 53.4794 22.4254 52.5682 22.4314C51.8326 22.4166 51.1121 22.2196 50.4713 21.8579C49.8305 21.4963 49.2894 20.9815 48.8965 20.3594Z" fill="#0C1300"/>
<path d="M52.69 21.9444C53.8596 21.9444 54.8077 20.9963 54.8077 19.8267C54.8077 18.6571 53.8596 17.709 52.69 17.709C51.5204 17.709 50.5723 18.6571 50.5723 19.8267C50.5723 20.9963 51.5204 21.9444 52.69 21.9444Z" fill="#924A1C"/>
<path d="M51.5333 19.8422C51.5333 20.0742 51.6021 20.301 51.731 20.4939C51.8599 20.6868 52.0431 20.8372 52.2575 20.926C52.4718 21.0148 52.7077 21.038 52.9353 20.9927C53.1628 20.9474 53.3719 20.8357 53.5359 20.6717C53.7 20.5076 53.8117 20.2986 53.857 20.071C53.9023 19.8434 53.879 19.6076 53.7902 19.3932C53.7015 19.1788 53.5511 18.9956 53.3582 18.8667C53.1653 18.7378 52.9384 18.669 52.7064 18.669C52.5518 18.667 52.3983 18.6959 52.255 18.7541C52.1118 18.8124 51.9817 18.8987 51.8723 19.008C51.763 19.1174 51.6767 19.2475 51.6184 19.3908C51.5602 19.534 51.5313 19.6875 51.5333 19.8422Z" fill="#221D1C"/>
<path d="M52.8123 19.4462C52.8565 19.6543 52.9795 19.8372 53.1556 19.9565C53.3318 20.0758 53.5472 20.1223 53.7569 20.0861C53.8604 20.0785 53.9614 20.0502 54.0538 20.0029C54.1463 19.9556 54.2283 19.8903 54.295 19.8107C54.3618 19.7312 54.4119 19.639 54.4425 19.5398C54.473 19.4406 54.4834 19.3362 54.4729 19.2329C54.4287 19.0248 54.3057 18.842 54.1296 18.7227C53.9534 18.6033 53.738 18.5569 53.5283 18.593C53.424 18.5985 53.3219 18.6254 53.2284 18.672C53.135 18.7186 53.0521 18.784 52.9849 18.864C52.9177 18.9441 52.8678 19.037 52.8381 19.1371C52.8084 19.2373 52.7996 19.3425 52.8123 19.4462Z" fill="#F7EFE5"/>
<path d="M40.8673 19.5381C40.6718 18.699 40.2071 17.9469 39.5441 17.3967C38.8812 16.8465 38.0563 16.5284 37.1956 16.491C36.4004 16.455 35.6097 16.6271 34.9016 16.9906C34.1934 17.354 33.5925 17.896 33.1582 18.5631C33.4138 19.4377 33.9447 20.2065 34.6721 20.7555C35.3994 21.3044 36.2844 21.6041 37.1956 21.6101C37.9306 21.5926 38.6501 21.3945 39.2904 21.0331C39.9308 20.6718 40.4723 20.1583 40.8673 19.5381Z" fill="#0C1300"/>
<path d="M37.2134 21.1221C38.383 21.1221 39.3311 20.174 39.3311 19.0044C39.3311 17.8349 38.383 16.8867 37.2134 16.8867C36.0438 16.8867 35.0957 17.8349 35.0957 19.0044C35.0957 20.174 36.0438 21.1221 37.2134 21.1221Z" fill="#924A1C"/>
<path d="M36.0392 19.0046C36.0361 19.2373 36.1024 19.4656 36.2294 19.6605C36.3565 19.8554 36.5386 20.0082 36.7527 20.0993C36.9668 20.1904 37.2031 20.2158 37.4317 20.1723C37.6602 20.1288 37.8707 20.0183 38.0363 19.8548C38.2019 19.6914 38.3151 19.4824 38.3616 19.2544C38.4081 19.0264 38.3858 18.7898 38.2975 18.5746C38.2092 18.3593 38.0588 18.1752 37.8656 18.0456C37.6724 17.916 37.4449 17.8468 37.2123 17.8468C37.0589 17.8448 36.9068 17.8732 36.7645 17.9305C36.6223 17.9878 36.4928 18.0728 36.3837 18.1805C36.2745 18.2882 36.1879 18.4165 36.1288 18.558C36.0696 18.6995 36.0391 18.8513 36.0392 19.0046Z" fill="#221D1C"/>
<path d="M37.3204 18.6076C37.3646 18.8167 37.487 19.0009 37.6626 19.1227C37.8382 19.2445 38.0536 19.2946 38.2649 19.2628C38.3685 19.2551 38.4695 19.2268 38.5619 19.1795C38.6544 19.1322 38.7364 19.0669 38.8031 18.9874C38.8699 18.9078 38.92 18.8157 38.9506 18.7165C38.9811 18.6172 38.9915 18.5129 38.981 18.4096C38.9368 18.2005 38.8143 18.0163 38.6388 17.8945C38.4632 17.7727 38.2477 17.7226 38.0364 17.7545C37.9329 17.7621 37.8319 17.7903 37.7395 17.8376C37.647 17.8849 37.565 17.9503 37.4982 18.0299C37.4315 18.1094 37.3814 18.2015 37.3508 18.3007C37.3203 18.4 37.3099 18.5043 37.3204 18.6076Z" fill="#F7EFE5"/>
<path d="M38.7817 41.1721C39.177 40.047 39.8226 39.0263 40.6697 38.1871C41.5169 37.3478 42.5436 36.7119 43.6723 36.3272C45.4111 37.774 46.6526 39.7295 47.2221 41.9186C47.5247 42.5144 47.9568 43.0349 48.4867 43.4421C48.5933 41.2482 47.8468 38.3078 44.4493 35.3674L44.6626 28.999L43.3371 29.1361L43.1543 35.1084C41.5394 35.7787 37.6086 37.866 37.2734 42.2385C37.8561 42.0122 38.3741 41.6459 38.7817 41.1721Z" fill="#080D0F"/>
<path d="M43.7802 32.7614C43.7802 32.7614 38.0517 29.3791 38.5392 25.1437C39.0267 20.9083 50.6208 22.4013 50.3466 26.5453C50.0724 30.6893 45.8522 32.2586 43.7802 32.7614Z" fill="#080D0F"/>
</g>
<defs>
<clipPath id="clip0_158_4156">
<rect width="177.218" height="140.851" fill="white" transform="translate(14.2227 0.0527344)"/>
</clipPath>
</defs>
</svg>
