<svg width="219" height="99" viewBox="0 0 219 99" fill="none" xmlns="http://www.w3.org/2000/svg">
<path d="M217.213 78.4913C217.213 79.4784 216.672 80.5802 215.328 81.7864C213.988 82.9896 211.954 84.197 209.241 85.3754C203.822 87.7289 195.918 89.8717 186.076 91.6797C166.407 95.2927 139.194 97.5334 109.107 97.5334C79.0191 97.5334 51.8058 95.2927 32.1372 91.6797C22.2948 89.8717 14.3915 87.7289 8.97249 85.3754C6.25925 84.197 4.225 82.9896 2.88467 81.7864C1.54101 80.5802 1 79.4784 1 78.4913C1 77.5042 1.54101 76.4025 2.88467 75.1963C4.225 73.9931 6.25925 72.7856 8.97249 71.6073C14.3915 69.2538 22.2948 67.111 32.1372 65.303C51.8058 61.69 79.0191 59.4492 109.107 59.4492C139.194 59.4492 166.407 61.69 186.076 65.303C195.918 67.111 203.822 69.2538 209.241 71.6073C211.954 72.7856 213.988 73.9931 215.328 75.1963C216.672 76.4025 217.213 77.5042 217.213 78.4913Z" stroke="#737E85" stroke-width="2"/>
<g opacity="0.4">
<path d="M38.0566 88.3954C19.216 85.2702 9.79735 81.6006 9.80078 77.3867C9.80078 74.5774 14.6535 71.9811 24.3589 69.5977C34.0642 67.2143 46.8742 65.3408 62.7889 63.9774C78.7138 62.6037 95.5025 61.9271 113.155 61.9477C139.07 61.9477 161.012 63.3026 178.98 66.0122C196.949 68.7219 205.935 72.3726 205.938 76.9643C205.938 81.4512 196.629 85.2685 178.079 88.3954C159.528 91.5224 136.414 93.1039 108.735 93.1039C80.4739 93.1039 56.9145 91.5344 38.0566 88.3954Z" fill="white"/>
</g>
<g clip-path="url(#clip0_158_4520)">
<path d="M125.156 41.8615C125.156 41.8615 133.778 35.6683 139.971 38.2185C146.165 40.7686 151.872 44.6546 153.087 49.0263C154.301 53.398 153.208 57.5268 151.872 59.3483C151.872 59.3483 152.965 66.3916 150.415 69.6704C150.415 69.6704 153.815 76.3494 156.122 78.2923C156.122 78.2923 146.165 83.8784 141.307 71.6133C136.45 59.3483 126.006 41.4972 125.156 41.8615Z" fill="#EBE0D4"/>
<path d="M146.771 48.054C145.314 47.6896 143.978 47.8111 142.643 48.1754C142.885 48.4183 143.128 48.6611 143.371 48.904C144.464 50.1184 145.8 51.0899 147.014 52.3042C148.472 53.8829 149.443 55.4615 150.536 57.2831C151.143 58.376 151.629 59.4689 152.115 60.5619C151.993 59.8332 151.993 59.3475 151.993 59.3475C152.479 58.6189 152.965 57.6474 153.329 56.433C152.236 52.79 150.05 48.7826 146.771 48.054Z" fill="#CBA992"/>
<path d="M151.143 64.2058C149.079 61.1699 148.472 57.2839 145.921 54.6123C145.314 54.0051 143.371 52.7908 142.643 52.1836C143.007 54.0051 142.885 54.7337 144.221 56.191C147.136 59.5912 148.35 65.7844 150.9 68.9418C151.629 67.7274 151.993 66.2702 152.115 64.6915C151.75 64.6915 151.386 64.5701 151.143 64.2058Z" fill="#CBA992"/>
<path d="M102.448 32.268C102.448 32.268 109.37 40.0399 112.284 40.89C115.077 41.74 120.299 42.9544 122.242 41.9829C124.185 41.0114 127.342 40.2828 128.921 40.5257C130.378 40.7685 142.765 48.0547 144.465 55.3408C146.044 62.627 147.379 78.1708 160.98 77.4422C160.98 77.4422 161.223 84.9712 152.844 83.6354C152.844 83.6354 146.408 88.25 133.657 83.3926C133.657 83.3926 131.228 87.8857 120.542 83.0283C120.542 83.0283 122.606 88.25 108.641 85.6998C108.641 85.6998 104.512 89.7072 93.3403 83.8783C93.3403 83.8783 85.6899 89.7072 73.6677 84.4855C73.6677 84.4855 76.7036 83.0283 75.2464 76.9565C73.6677 70.8847 69.9032 66.2701 75.2464 50.1191C80.5896 33.7252 94.5547 24.739 102.448 32.268Z" fill="#DFCEBB"/>
<path d="M110.341 67.4844C109.491 61.4126 109.977 55.3408 109.612 49.1475C109.37 45.383 108.641 41.6185 107.912 37.9754C107.912 37.854 107.791 37.7326 107.791 37.6111C105.119 35.1824 102.569 32.2679 102.569 32.2679C94.5543 24.6175 80.7106 33.7252 75.3675 49.9976C70.0243 66.27 73.7888 70.7631 75.3675 76.8349C76.9461 82.9067 73.7888 84.364 73.7888 84.364C85.811 89.5857 93.4614 83.7568 93.4614 83.7568C104.634 89.5857 108.762 85.5783 108.762 85.5783C113.62 86.4284 116.534 86.4284 118.234 85.9426C113.62 81.3281 111.313 74.0419 110.341 67.4844Z" fill="#EBE0D4"/>
<path opacity="0.55" d="M78.0398 59.955C82.1686 59.5907 83.9901 58.012 87.2689 56.0691C89.2119 54.9761 91.5192 53.6403 93.8264 54.1261C99.2911 55.219 104.513 59.8336 109.856 61.1694C109.735 57.162 109.856 53.276 109.613 49.2686C109.37 45.5041 108.642 41.7396 107.913 38.0965C107.913 37.9751 107.792 37.8537 107.792 37.7322C105.12 35.3035 102.57 32.389 102.57 32.389C94.5551 24.7386 80.7114 33.8463 75.3682 50.1187C74.1538 54.0046 73.4252 57.162 72.9395 59.8336C74.6396 59.8336 76.3397 60.0764 78.0398 59.955Z" fill="#DDCAB6"/>
<path opacity="0.55" d="M105.12 53.8829C106.699 54.0043 108.277 53.64 109.735 53.3971C109.735 52.0613 109.613 50.7255 109.613 49.3897C109.37 45.5038 108.642 41.6178 107.792 37.8533C105.12 35.4246 102.57 32.5101 102.57 32.5101C94.5552 24.8597 80.7115 33.9674 75.3683 50.2398C74.8826 51.5756 74.5183 52.7899 74.2754 54.0043C77.0684 54.3686 79.74 53.64 82.7759 51.8185C83.7474 51.2113 88.9691 47.6896 91.3979 48.0539C92.6122 48.0539 101.356 53.64 105.12 53.8829Z" fill="#9E786A"/>
<path d="M95.7694 80.1137C93.705 76.1063 93.0979 72.0989 93.4622 67.8486C92.1264 70.7631 91.6406 74.4062 91.6406 77.5635C91.6406 79.9922 92.3692 81.9352 93.4622 83.7567C96.3766 85.3354 98.8053 86.1855 100.87 86.5498C98.9268 85.0925 96.8624 82.2995 95.7694 80.1137Z" fill="#CBA992"/>
<path d="M109.371 84.1208C106.942 82.4207 104.756 80.5992 103.177 78.049C101.841 75.8632 100.02 72.7058 99.4128 69.6699C98.927 72.0986 98.927 74.5274 99.6556 76.7132C101.234 81.6921 104.392 83.8779 108.763 85.578C110.342 85.8209 111.678 86.0638 112.892 86.1852C111.678 85.6995 110.585 84.9709 109.371 84.1208Z" fill="#CBA992"/>
<path d="M118.72 82.2996C116.17 79.5065 113.863 76.1063 112.77 72.3418C112.041 75.6206 112.406 79.2636 114.349 82.0567C115.32 83.3925 116.777 84.8497 118.477 85.5783C118.72 85.5783 118.842 85.6998 119.085 85.6998C120.178 85.214 120.663 84.6068 120.785 83.9996C119.935 83.3925 119.327 82.9067 118.72 82.2996Z" fill="#C39C81"/>
<path d="M133.657 83.2711C136.328 84.2425 138.636 84.8497 140.7 85.214C138.636 83.9997 136.814 82.5424 135.114 80.7209C131.835 77.1993 126.492 72.4632 124.428 67.4844C124.428 74.0419 128.435 79.628 133.657 83.2711Z" fill="#C39C81"/>
<path d="M148.714 83.0284C145.8 81.0854 143.614 77.8067 141.428 75.1351C140.821 74.4065 140.335 73.6778 139.85 72.9492C140.092 78.8996 144.1 83.6356 149.564 84.9714C150.293 84.7285 150.9 84.4856 151.386 84.3642C150.536 83.9999 149.564 83.5142 148.714 83.0284Z" fill="#C39C81"/>
<path d="M78.647 82.6635C77.5541 83.5135 76.3397 84.2421 75.0039 84.7279C76.704 85.3351 78.2827 85.8208 79.7399 86.0637C81.9258 83.8778 83.7473 81.4491 84.1116 78.6561C84.5973 75.6202 83.9902 73.07 83.383 70.3984C83.0187 75.013 82.5329 79.5061 78.647 82.6635Z" fill="#CBA992"/>
<path d="M90.3043 15.3882C90.3043 15.3882 83.261 14.4167 76.5821 18.3027C69.9031 22.1886 66.6243 32.9964 68.4459 42.347C70.2674 51.6976 69.6602 57.5265 66.8672 57.6479C66.8672 57.6479 78.1607 61.1696 81.0752 54.1263C83.8682 47.2044 87.8756 33.3607 90.9115 33.3607C97.2262 33.3607 95.8904 53.8834 102.812 56.1907C109.734 58.498 115.684 56.3121 116.777 53.0334C116.777 53.0334 112.041 53.0334 111.556 50.8475C110.706 47.6902 114.592 31.6606 108.884 23.0387C103.541 15.0239 90.3043 15.3882 90.3043 15.3882Z" fill="#EBE0D4"/>
<path d="M95.284 38.8251C96.9841 38.3394 98.6842 37.6107 100.141 36.5178C100.87 36.0321 101.356 35.4249 101.72 34.8177C102.813 32.1461 102.449 29.2317 101.72 26.5601C101.599 26.3172 101.72 26.0743 101.72 25.8315C101.356 24.86 100.991 23.767 100.384 22.917H81.1974C80.9546 23.2813 80.7117 23.6456 80.3474 23.8885C75.0042 30.5675 80.7117 36.3964 86.2977 40.0395C87.8764 36.275 89.4551 33.4819 90.7909 33.4819C92.9767 33.3605 94.1911 35.6678 95.284 38.8251Z" fill="#BDA590"/>
<path d="M79.618 31.1743C80.9538 24.4954 84.2325 22.9167 90.7901 24.0096C90.9115 24.0096 91.0329 24.1311 91.1544 24.1311C95.0403 22.431 100.019 25.7097 101.598 29.2314C103.298 33.4816 102.691 43.8037 104.512 51.2113C105.605 55.9473 111.313 58.2546 115.199 55.2187C116.049 54.6115 116.534 53.8829 116.899 53.0328C116.899 53.0328 112.163 53.0328 111.677 50.847C110.827 47.6896 114.713 31.6601 109.005 23.0381C103.662 14.7805 90.5472 15.2662 90.5472 15.2662C90.5472 15.2662 83.261 14.4162 76.5821 18.3021C69.9031 22.1881 66.6243 32.9959 68.4459 42.3465C70.2674 51.697 69.6602 57.526 66.8672 57.6474C69.2959 58.376 72.0889 57.7688 73.789 55.9473C76.0963 53.64 77.7964 50.847 78.1607 48.7826C79.3751 42.9536 78.4036 37.0033 79.618 31.1743Z" fill="#DFCEBB"/>
<path d="M75.8529 29.2319C77.7959 24.4959 82.1676 22.6743 85.3249 19.0312C77.0673 21.5814 72.6956 28.1389 70.7526 36.6395C70.2669 38.7039 69.5382 40.7683 68.4453 42.7113C68.5667 43.4399 68.6882 44.1685 68.8096 44.8971C70.874 42.7113 72.5741 39.7968 72.9384 38.461C73.9099 35.3037 74.6385 32.1463 75.8529 29.2319Z" fill="#CBA992"/>
<path d="M70.7541 50.4835C75.0044 47.3262 76.0973 42.9545 77.5545 38.2185C78.7689 34.2111 79.1332 29.4751 81.0762 25.832C80.9547 25.9535 80.9547 25.9535 80.8333 26.0749C76.9473 30.3252 76.583 35.7898 74.6401 40.8901C73.9114 42.9545 71.7256 45.869 69.2969 47.8119C69.4183 49.0263 69.5397 50.2407 69.5397 51.2121C69.9041 51.0907 70.3898 50.7264 70.7541 50.4835Z" fill="#CBA992"/>
<path d="M99.1693 21.2173C98.3192 20.853 97.4692 20.3672 96.6191 20.0029C97.8335 21.0959 102.327 25.2247 103.298 26.439C105.363 28.9892 106.941 32.8751 109.006 35.4253C110.22 37.004 111.191 38.4612 112.042 40.1613C112.042 38.9469 112.163 37.7326 112.042 36.3968C111.556 35.1824 110.949 33.9681 110.22 32.6323C106.334 25.2247 102.812 22.6745 99.1693 21.2173Z" fill="#CBA992"/>
<path d="M107.062 44.0468C107.305 46.3541 108.519 49.0257 110.098 50.7258C110.583 51.2116 111.069 51.4544 111.676 51.5759C111.555 51.4544 111.434 51.2116 111.434 51.0901C111.312 50.8473 111.312 50.3615 111.312 49.8758C111.069 49.39 110.705 48.9043 110.583 48.2971C109.491 44.8969 109.733 41.0109 107.062 35.9106C105.119 32.389 103.297 29.4745 102.447 28.6245C102.447 28.503 106.09 36.1535 107.062 44.0468Z" fill="#CBA992"/>
<path d="M97.8339 28.8671C97.8339 29.9601 96.9838 30.9316 95.7695 30.9316C94.5551 30.9316 93.7051 30.0815 93.7051 28.8671C93.7051 27.7742 94.5551 26.8027 95.7695 26.8027C96.9838 26.8027 97.8339 27.7742 97.8339 28.8671Z" fill="#554E46"/>
<path d="M96.8632 28.8673C96.8632 29.4745 96.3775 29.9603 95.7703 29.9603C95.1631 29.9603 94.7988 29.4745 94.7988 28.8673C94.7988 28.2602 95.2846 27.7744 95.8918 27.7744C96.4989 27.7744 96.8632 28.3816 96.8632 28.8673Z" fill="#040701"/>
<path d="M97.2268 27.8956C97.2268 28.2599 96.8625 28.6242 96.4981 28.6242C96.1338 28.6242 95.7695 28.2599 95.7695 27.8956C95.7695 27.5313 96.1338 27.167 96.4981 27.167C96.8625 27.167 97.2268 27.4099 97.2268 27.8956Z" fill="#E8E8E8"/>
<path d="M88.1191 28.8671C88.1191 29.9601 87.269 30.9316 86.0546 30.9316C84.9617 30.9316 83.9902 30.0815 83.9902 28.8671C83.9902 27.7742 84.8403 26.8027 86.0546 26.8027C87.1476 26.9242 88.1191 27.7742 88.1191 28.8671Z" fill="#554E46"/>
<path d="M87.1468 28.8673C87.1468 29.4745 86.661 29.9603 86.0539 29.9603C85.4467 29.9603 84.9609 29.4745 84.9609 28.8673C84.9609 28.2602 85.4467 27.7744 86.0539 27.7744C86.661 27.8959 87.1468 28.3816 87.1468 28.8673Z" fill="#040701"/>
<path d="M87.5119 27.8956C87.5119 28.2599 87.1476 28.6242 86.7833 28.6242C86.419 28.6242 86.0547 28.2599 86.0547 27.8956C86.0547 27.5313 86.419 27.167 86.7833 27.167C87.1476 27.167 87.5119 27.4099 87.5119 27.8956Z" fill="#E8E8E8"/>
<path d="M99.5331 43.44C100.262 42.347 100.747 41.0113 100.747 39.1897C100.626 32.875 94.3113 29.9606 91.154 30.2035C87.8752 30.082 81.5605 32.875 81.5605 39.1897C81.5605 40.8898 82.0463 42.2256 82.7749 43.44C84.9608 46.7187 82.4106 49.7546 82.4106 49.7546C82.4106 49.7546 88.4824 49.7546 87.7538 44.4115C87.268 40.8898 87.0252 36.0324 90.9111 36.1538C91.0326 36.1538 91.154 36.1538 91.2754 36.1538C91.3969 36.1538 91.5183 36.1538 91.6397 36.1538C95.6471 36.0324 95.4042 40.8898 94.7971 44.4115C93.947 49.7546 100.14 49.7546 100.14 49.7546C100.14 49.7546 97.3472 46.8402 99.5331 43.44Z" fill="#E8E8E8"/>
<path d="M91.5181 36.3965C91.1538 36.5179 90.7895 36.5179 90.4252 36.3965C89.2108 35.7893 86.7821 34.3321 87.5107 32.7534C88.4822 30.689 94.7969 31.0533 94.7969 33.3606C94.7969 35.1821 93.0968 35.6679 91.5181 36.3965Z" fill="#0F1321"/>
<path d="M85.5687 21.0956C83.5043 21.0956 81.3185 21.217 79.3755 22.067C77.4325 22.9171 75.8539 24.7386 75.7324 26.8031C76.461 26.0744 77.3111 25.5887 78.404 25.4673C77.7968 25.4673 77.4325 26.0744 77.1897 26.5602C76.2182 28.5032 75.9753 30.8104 76.7039 32.8749C76.9468 33.6035 77.3111 34.3321 77.3111 35.0607C77.4325 35.9107 77.1897 36.7608 76.7039 37.4894C79.2541 36.5179 81.197 34.2106 81.8042 31.5391C82.0471 30.4461 82.0471 29.2318 82.29 28.0174C82.5328 26.8031 83.0186 25.7101 83.9901 24.9815C84.9616 24.3743 86.5402 24.3743 87.1474 25.4673C87.2688 25.5887 87.2688 25.7101 87.3903 25.8316C87.7546 26.3173 88.6046 26.0744 89.0904 25.7101C90.1833 24.7386 90.1833 22.9171 89.3333 21.7027C88.4832 20.4884 87.026 19.8812 85.5687 19.7598C84.9616 19.7598 84.2329 19.7598 83.6258 20.1241C84.4758 20.2455 85.083 20.6098 85.5687 21.0956Z" fill="#EBE0D4"/>
<path d="M95.7687 21.0959C97.8331 21.0959 100.019 21.2173 101.962 22.0674C103.905 22.9174 105.484 24.739 105.605 26.8034C104.876 26.0748 104.026 25.7105 103.055 25.4676C103.662 25.4676 104.026 26.0748 104.269 26.5605C105.241 28.5035 105.484 30.6893 104.755 32.7538C104.512 33.4824 104.148 34.211 104.148 34.9396C104.026 35.7897 104.269 36.6397 104.755 37.3683C102.205 36.3968 100.262 34.0896 99.6547 31.418C99.4118 30.325 99.4118 29.1107 99.1689 27.8963C98.9261 26.8034 98.4403 25.589 97.4688 24.8604C96.4974 24.2532 94.9187 24.2532 94.3115 25.3462C94.1901 25.4676 94.1901 25.589 94.0686 25.7105C93.7043 26.1962 92.8543 25.9533 92.3685 25.589C91.2756 24.6175 91.2756 22.796 92.1257 21.5816C92.9757 20.3673 94.4329 19.7601 95.8902 19.6387C96.4974 19.6387 97.226 19.6387 97.7117 20.003C96.9831 20.2459 96.2545 20.6102 95.7687 21.0959Z" fill="#EBE0D4"/>
<path d="M93.705 10.0449C92.9764 10.7735 91.8835 11.2593 91.3977 12.2308C91.0334 10.5306 90.5477 8.70911 91.2763 7.13044C91.762 6.15895 92.6121 5.3089 93.0978 4.33741C93.705 3.24449 93.8265 1.9087 94.0693 0.694336C94.9194 2.15157 95.5266 3.85167 95.648 5.55177C95.5266 7.13044 94.9194 8.83055 93.705 10.0449Z" fill="#EBE0D4"/>
<path d="M100.018 5.91637C99.4112 7.13073 98.1968 7.85935 96.9824 8.46653C95.4038 9.31658 93.8251 10.1666 92.125 10.8952C92.9751 8.95227 94.3108 7.25217 95.8895 5.79494C96.861 4.94489 97.8325 4.21627 98.6825 3.24478C99.1683 2.51617 99.654 1.78755 99.8969 0.9375C100.383 2.51617 100.747 4.45914 100.018 5.91637Z" fill="#D2C1B3"/>
<path d="M107.305 11.3808C106.94 11.5022 106.697 11.7451 106.333 11.988C105.24 12.7166 103.904 13.5666 102.569 13.3238C101.597 13.2023 100.747 12.5951 100.383 11.7451C100.14 11.3808 100.018 10.895 99.7756 10.6522C99.2898 10.2879 98.6826 10.4093 98.0755 10.5307C95.8896 11.0165 93.5823 11.5022 91.3965 11.988C93.5823 9.92354 96.2539 8.34488 99.0469 7.49482C99.5327 7.37339 99.897 7.25195 100.383 7.25195C101.354 7.37339 102.083 8.34488 102.69 9.19493C103.783 10.5307 105.483 11.5022 107.305 11.3808Z" fill="#EBE0D4"/>
<path d="M102.69 16.7238C103.419 16.9667 104.269 16.8453 104.997 16.8453C104.147 17.8168 103.176 18.7882 101.84 19.274C100.626 19.7597 98.9255 19.5169 98.1969 18.4239C97.8326 17.9382 97.7111 17.4524 97.5897 16.8453C97.3468 15.8738 97.104 14.9023 96.8611 13.9308C96.2539 13.5665 95.4038 13.3236 94.6752 13.3236C93.9466 13.3236 93.218 13.4451 92.4894 13.2022C91.8822 12.9593 91.3965 11.9878 92.0036 11.5021C93.0966 10.8949 94.4324 10.5306 95.6467 10.2877C97.104 10.0449 98.9255 10.1663 99.897 11.2592C100.626 12.1093 100.747 13.2022 100.99 14.1737C101.233 15.1452 101.719 16.2381 102.69 16.7238Z" fill="#D2C1B3"/>
<path d="M89.0901 1.78711C88.8472 2.51573 87.9972 2.88003 87.39 3.48721C86.2971 4.58014 86.2971 6.52311 87.1471 7.73747C87.8758 9.07327 89.5759 11.1377 91.1545 11.502C91.6403 10.0448 91.0331 7.13029 90.183 5.91593C89.9402 5.67306 89.6973 5.43019 89.5759 5.06588C89.0901 4.09439 89.333 2.88003 89.0901 1.78711Z" fill="#D2C1B3"/>
<path d="M90.6677 10.2873C90.4248 9.31584 89.5748 8.58722 88.8461 7.98004C87.9961 7.37286 87.146 6.88712 86.1745 6.52281C85.2031 6.27994 84.1101 6.27994 83.2601 6.76568C82.7743 7.12999 82.2886 7.61574 81.8029 7.98004C80.3456 9.1944 78.0383 9.55871 76.2168 8.70866C77.0668 11.1374 80.1027 12.716 82.5315 11.7446C83.1386 11.5017 83.6244 11.1374 84.2316 10.8945C86.1745 10.1659 88.4818 9.80158 90.6677 10.2873Z" fill="#DFCEBB"/>
<path d="M79.3752 16.7236C80.8324 17.6951 83.0183 17.8166 84.3541 16.6022C85.0827 15.8736 85.5684 14.9021 86.0542 14.052C86.5399 13.202 87.39 12.2305 88.4829 12.2305C89.0901 12.2305 89.9401 12.3519 90.4259 11.9876C90.7902 11.5019 90.5473 10.5304 89.9401 10.1661C89.3329 9.80178 88.6043 9.80178 87.9972 9.92321C86.1756 10.0446 84.1112 10.2875 82.8968 11.6233C82.1682 12.4734 81.8039 13.6877 80.9539 14.4163C80.2253 15.145 79.0109 15.5093 77.918 15.2664C78.2823 15.8736 78.8895 16.3593 79.3752 16.7236Z" fill="#D2C1B3"/>
<path d="M88.1193 11.624C88.1193 11.624 87.1478 15.6314 88.1193 15.9957C89.0908 16.36 94.3125 17.6958 94.7983 15.6314C95.284 13.6884 95.0411 11.7454 93.9482 11.2597C92.9767 10.6525 89.3336 10.1667 88.1193 11.624Z" fill="#3E3D4F"/>
</g>
<defs>
<clipPath id="clip0_158_4520">
<rect width="93.9914" height="86.341" fill="white" transform="translate(66.8672 0.573242)"/>
</clipPath>
</defs>
</svg>
