<svg width="219" height="87" viewBox="0 0 219 87" fill="none" xmlns="http://www.w3.org/2000/svg">
<path d="M217.213 66.5314C217.213 67.5184 216.672 68.6202 215.328 69.8264C213.988 71.0296 211.954 72.2371 209.241 73.4154C203.822 75.7689 195.918 77.9117 186.076 79.7197C166.407 83.3327 139.194 85.5735 109.107 85.5735C79.0191 85.5735 51.8058 83.3327 32.1372 79.7197C22.2948 77.9117 14.3915 75.7689 8.97249 73.4154C6.25925 72.2371 4.225 71.0296 2.88467 69.8264C1.54101 68.6202 1 67.5184 1 66.5314C1 65.5443 1.54101 64.4425 2.88467 63.2363C4.225 62.0331 6.25925 60.8257 8.97249 59.6473C14.3915 57.2938 22.2948 55.151 32.1372 53.343C51.8058 49.73 79.0191 47.4893 109.107 47.4893C139.194 47.4893 166.407 49.73 186.076 53.343C195.918 55.151 203.822 57.2938 209.241 59.6473C211.954 60.8257 213.988 62.0331 215.328 63.2363C216.672 64.4425 217.213 65.5443 217.213 66.5314Z" stroke="#737E85" stroke-width="2"/>
<g opacity="0.4">
<path d="M38.0566 76.4355C19.216 73.3102 9.79735 69.6406 9.80078 65.4267C9.80078 62.6175 14.6535 60.0211 24.3589 57.6377C34.0642 55.2543 46.8742 53.3809 62.7889 52.0174C78.7138 50.6437 95.5025 49.9672 113.155 49.9878C139.07 49.9878 161.012 51.3426 178.98 54.0523C196.949 56.762 205.935 60.4126 205.938 65.0043C205.938 69.4913 196.629 73.3085 178.079 76.4355C159.528 79.5624 136.414 81.1439 108.735 81.1439C80.4739 81.1439 56.9145 79.5744 38.0566 76.4355Z" fill="white"/>
</g>
<g clip-path="url(#clip0_158_4482)">
<path d="M122.956 56.8197C122.956 56.8197 125.932 66.6639 124.787 67.8086C123.642 68.9533 120.437 68.0376 120.208 69.7546C119.979 71.4716 121.811 72.5018 126.733 72.5018C131.655 72.5018 130.053 62.1997 132.113 55.5605L122.956 56.8197Z" fill="#C59570"/>
<path d="M127.305 58.3079C127.305 58.3079 130.281 68.1522 129.137 69.2968C127.992 70.4415 124.787 69.5258 124.558 71.2428C124.329 72.9598 126.161 73.99 131.083 73.99C134.173 73.99 133.83 67.9232 134.402 63.0011C134.631 60.3683 135.776 58.4224 136.463 56.0186L127.305 58.3079Z" fill="#DBAC8B"/>
<path d="M85.1822 56.8197C85.1822 56.8197 88.1583 66.6639 87.0136 67.8086C85.869 68.9533 82.6639 68.0376 82.4349 69.7546C82.206 71.4716 84.0375 72.5018 88.9596 72.5018C93.8817 72.5018 92.2792 62.1997 94.3396 55.5605L85.1822 56.8197Z" fill="#C59570"/>
<path d="M89.4165 58.308C89.4165 58.308 92.3927 68.1522 91.248 69.2969C90.1033 70.4416 86.8982 69.5258 86.6693 71.2429C86.4404 72.9599 88.2718 73.9901 93.194 73.9901C98.1161 73.9901 96.5135 63.688 98.574 57.0488L89.4165 58.308Z" fill="#DBAC8B"/>
<path d="M145.278 25.5702C144.362 23.9677 136.121 11.4907 129.71 14.4668C123.3 17.443 117.577 21.4494 112.769 21.4494C107.961 21.4494 105.443 18.1298 102.124 15.0392C101.208 14.2379 99.8342 12.7498 98.4606 11.2617C96.6291 12.4064 94.1108 12.2919 91.5925 12.063C85.9836 13.6655 80.2602 14.6958 75.4525 12.5209C73.9644 16.5272 72.3619 20.7626 72.1329 22.0217C71.5606 24.3111 65.3793 31.4081 68.6989 40.3366C68.6989 40.3366 67.7832 44.2285 71.1027 46.6323C71.1027 46.6323 70.8738 50.2953 77.1695 52.4702C77.1695 52.4702 77.3985 51.0966 77.8563 50.7532C77.8563 50.7532 81.1759 58.4225 85.8691 58.1936C85.8691 58.1936 88.5019 62.2 90.5623 61.3987C90.5623 61.3987 94.2253 64.6038 95.9423 62.6578C95.9423 62.6578 98.6895 63.4591 99.9487 63.2302C102.124 62.8868 103.841 60.9408 103.841 60.9408C110.022 62.7723 111.739 60.254 111.739 60.254C117.462 62.7723 121.24 59.7961 121.24 59.7961C125.818 62.5434 128.68 59.7961 128.68 59.7961C135.548 62.5434 134.747 59.6817 134.747 59.6817C141.615 60.5974 142.645 55.6753 142.645 55.6753C148.369 53.6149 147.224 47.777 147.224 47.777C151.23 46.1744 150.429 41.3668 150.429 41.3668C153.978 35.6434 146.194 27.1728 145.278 25.5702Z" fill="#F1DBC7"/>
<path d="M140.812 35.7576C141.843 37.0168 143.674 37.2457 145.048 36.5589C148.482 34.7274 148.024 30.95 147.452 28.7751C147.108 27.5159 144.132 28.2028 143.56 27.1725C142.186 26.1423 140.355 24.6542 138.18 21.907C136.577 19.7321 137.836 18.244 135.89 16.4126C135.203 15.7257 134.402 15.0389 133.601 14.4666C132.227 14.0087 130.854 14.0087 129.595 14.5811C123.184 17.5572 117.461 21.5636 112.653 21.5636C107.846 21.5636 105.327 18.244 102.008 15.1534C101.435 14.5811 100.634 13.8943 99.8329 12.9785C100.176 19.6177 101.435 26.0279 101.435 32.667C101.435 37.3602 96.7422 45.2585 97.8869 49.8372C99.146 54.8738 108.647 51.2108 108.761 47.6623C108.761 47.6623 111.394 51.2108 115.858 50.524C118.377 50.0661 120.094 48.3491 122.04 45.8308C122.04 45.9453 125.817 48.4636 129.022 47.2044C132.113 46.0597 136.234 40.6798 133.83 37.8181C132.8 36.6734 130.854 34.8419 130.854 32.5525C130.739 30.721 137.493 31.8657 140.812 35.7576Z" fill="#DBAC8B"/>
<path d="M101.665 25.1118C99.6045 20.8765 97.3151 16.6412 96.056 12.177C94.6823 12.4059 93.0798 12.2914 91.5917 12.0625C85.9828 13.6651 80.2594 14.6953 75.4517 12.5204C73.9636 16.5267 72.3611 20.7621 72.1322 22.0212C71.6743 24.1961 63.2037 31.1786 68.8126 40.3361C68.8126 40.3361 67.8968 44.228 71.2164 46.6318C71.2164 46.6318 70.9875 50.2948 77.2832 52.4697C77.2832 52.4697 77.5121 51.0961 77.97 50.7527C77.97 50.7527 81.2896 58.422 85.9828 58.1931C85.9828 58.1931 87.013 59.6812 88.2721 60.7114C88.6155 59.9101 88.8445 58.7654 89.8747 58.3075C99.9479 54.759 97.2006 50.2948 97.2006 50.2948C98.6887 50.6382 98.6887 53.1565 98.6887 53.1565C103.611 50.8671 102.352 45.7161 102.352 45.7161C107.503 43.8846 105.671 38.3901 105.671 38.3901C109.563 32.5523 103.954 29.9195 101.665 25.1118Z" fill="#F1DBC7"/>
<path d="M123.528 11.261C125.245 10.2308 127.878 9.31508 132.113 8.97168C132.113 8.97168 137.15 8.97168 139.897 10.0019C139.897 10.0019 137.15 10.4598 136.348 10.4598C136.348 10.4598 141.499 11.9478 142.873 14.0083C142.873 14.0083 138.18 13.0925 136.348 13.5504C136.348 13.5504 145.735 13.3215 148.596 22.9368C148.596 22.9368 143.331 18.587 139.782 18.587C139.782 18.587 147.91 22.5934 147.108 29.8048C147.108 29.8048 145.391 27.401 143.56 26.1419C143.56 26.1419 148.596 31.064 144.361 36.6729C144.361 36.6729 144.247 31.5219 142.759 29.9193C141.27 28.2023 137.608 26.5997 136.348 24.3104C136.348 24.3104 137.722 27.63 139.668 28.6602C139.668 28.6602 133.258 31.2929 129.938 27.0576C126.619 22.8223 126.848 20.9908 126.848 20.9908C126.848 20.9908 125.474 22.7078 127.763 26.0274C127.763 26.0274 122.612 25.9129 120.094 21.6776C118.606 19.2738 118.72 17.0989 119.293 15.7253C119.751 14.5806 121.239 12.5202 123.528 11.261Z" fill="#F1DBC7"/>
<path d="M100.406 9.88756C100.406 9.88756 93.7666 7.5982 92.1641 3.93523C92.1641 3.93523 95.9415 1.30247 98.0019 0.959064C98.5743 0.844596 99.1466 1.30247 99.1466 1.87481L100.406 9.88756Z" fill="#DBAC8B"/>
<path d="M98.4601 9.08637C98.4601 9.08637 94.2248 8.17062 93.0801 5.65233C93.0801 5.65233 95.1405 4.27871 96.6286 3.70637C97.2009 3.47744 97.8877 3.82084 98.0022 4.50765L98.4601 9.08637Z" fill="#D9866D"/>
<path d="M74.4219 8.39958C74.4219 8.39958 81.4044 7.2549 82.778 3.47746C82.778 3.47746 78.8861 1.07363 76.7112 0.386826C75.91 0.0434226 75.2232 0.615762 75.1087 1.30257L74.4219 8.39958Z" fill="#DBAC8B"/>
<path d="M75.9102 8.28492C75.9102 8.28492 80.031 7.02577 81.0612 4.50748C81.0612 4.50748 78.1995 2.79046 76.8259 2.56152C76.4825 2.56152 76.2536 2.79046 76.1391 3.13386L75.9102 8.28492Z" fill="#D9866D"/>
<path d="M88.501 4.16434C87.4708 4.39327 86.4405 4.27881 85.5248 3.9354C84.3801 3.47753 82.7776 3.01966 82.2052 3.36306C79.1146 5.42348 73.7346 6.68263 73.2767 10.0022C73.2767 10.0022 69.1559 12.0626 69.7282 15.4967C69.7282 15.4967 66.6376 18.5873 70.5295 23.2805C70.5295 23.2805 69.4993 25.5698 72.8189 28.546C72.8189 28.546 72.361 31.5222 77.1686 32.8958C77.1686 32.8958 77.8555 35.643 80.7172 35.0707C80.7172 35.0707 82.2052 36.6732 82.2052 38.2758C82.2052 38.2758 85.5248 38.1613 86.4405 35.9864C86.4405 35.9864 89.4167 36.2154 90.3325 33.6971C90.3325 33.6971 92.6218 34.6128 94.5678 31.6366C94.5678 31.6366 97.8873 32.4379 98.8031 28.546C98.8031 28.546 102.237 28.7749 102.466 24.0818C102.466 24.0818 105.671 23.2805 104.87 18.7018C104.87 18.7018 106.472 15.8401 103.496 13.7796C103.496 13.7796 104.641 11.6048 99.8333 9.54433C99.8333 9.54433 93.652 4.04987 92.2784 3.9354C91.2482 3.82093 89.5312 3.9354 88.501 4.16434Z" fill="#DBAC8B"/>
<path d="M84.1511 30.2631C89.0732 29.004 98.803 28.0882 96.2847 21.2202C95.2545 18.244 89.989 19.7321 87.5851 18.9308C86.8983 18.7019 86.326 18.244 85.9826 17.7861C84.7234 18.4729 83.2354 18.9308 81.5183 19.1597C80.2592 19.3887 78.8856 19.3887 77.7409 19.6176C72.3609 20.7623 76.4818 25.4555 78.7711 26.7146C80.946 27.7448 82.663 28.7751 84.1511 30.2631Z" fill="#CC9872"/>
<path d="M92.6211 18.816C89.8739 19.8462 88.0424 18.0147 86.6688 15.8398C85.5241 17.3279 84.036 18.4726 82.319 18.4726C81.4033 18.4726 80.7164 18.2437 80.0296 17.7858C79.3428 17.4424 77.7403 18.3581 77.2824 19.7318C76.5956 21.9066 78.0837 23.3947 79.4573 23.2803C85.0662 22.8224 85.1807 22.3645 85.5241 20.8764C85.5241 22.3645 84.4939 22.479 90.3318 23.8526C92.85 24.4249 95.0249 23.0513 94.5671 20.6475C94.4526 19.7318 93.1935 18.5871 92.6211 18.816Z" fill="#E2BCA2"/>
<path d="M85.8673 19.7315C85.8673 19.7315 80.2584 19.3881 80.4873 22.0209C80.7162 24.6536 87.3554 28.0877 90.6749 23.1655C93.0788 19.7315 85.8673 19.7315 85.8673 19.7315Z" fill="#EDD5C5"/>
<path d="M88.8438 16.6416C88.8438 16.6416 89.5306 15.0391 90.9042 15.0391C92.2778 15.0391 92.9646 16.6416 92.9646 16.6416C92.9646 16.6416 92.2778 18.3586 90.9042 18.5876C90.1029 18.702 89.0727 17.9008 88.8438 16.6416Z" fill="#494D5A"/>
<path d="M92.1637 16.8709C92.1637 17.6722 91.4769 18.359 90.6756 18.359C89.8743 18.359 89.1875 17.6722 89.1875 16.8709C89.1875 16.0696 89.8743 15.3828 90.6756 15.3828C91.5913 15.3828 92.1637 16.0696 92.1637 16.8709Z" fill="#111627"/>
<path d="M91.9345 16.2979C91.9345 16.6413 91.7056 16.8703 91.3622 16.8703C91.0188 16.8703 90.9043 16.6413 90.9043 16.2979C90.9043 15.9545 91.1332 15.7256 91.4766 15.7256C91.82 15.7256 91.9345 16.069 91.9345 16.2979Z" fill="#FBFBFB"/>
<path d="M83.9216 16.1833C83.9216 16.1833 83.3493 14.5807 82.0901 14.4662C80.7165 14.3518 79.8008 15.8399 79.8008 15.8399C79.8008 15.8399 80.2587 17.6713 81.6323 17.9003C82.4335 18.0147 83.5782 17.4424 83.9216 16.1833Z" fill="#494D5A"/>
<path d="M83.4644 16.1834C83.4644 16.9847 82.7776 17.6715 81.9764 17.6715C81.1751 17.6715 80.4883 16.9847 80.4883 16.1834C80.4883 15.3821 81.1751 14.6953 81.9764 14.6953C82.7776 14.6953 83.4644 15.3821 83.4644 16.1834Z" fill="#111627"/>
<path d="M83.2345 15.6114C83.2345 15.9548 83.0056 16.1837 82.6622 16.1837C82.3188 16.1837 82.0898 15.9548 82.0898 15.6114C82.0898 15.268 82.3188 15.0391 82.6622 15.0391C83.0056 15.1535 83.2345 15.3825 83.2345 15.6114Z" fill="#FBFBFB"/>
<path d="M81.5176 22.5939C81.5176 22.5939 82.5478 24.082 84.0359 23.853C85.4095 23.6241 85.7529 22.3649 85.7529 22.3649C85.7529 22.3649 86.0963 23.9675 87.3554 23.9675C88.6146 23.9675 89.1869 23.6241 89.4159 22.9373C89.4159 22.9373 88.0423 23.853 87.4699 23.5096C86.8976 23.2807 85.9818 22.2505 85.8674 21.9071C85.7529 21.5637 85.1806 22.2505 85.1806 22.5939C85.0661 22.8228 84.2648 23.7386 83.4635 23.2807C82.4333 22.9373 81.9754 22.7083 81.5176 22.5939Z" fill="#111627"/>
<path d="M85.8674 22.708C85.7529 22.708 85.6385 22.708 85.524 22.708C84.8372 22.479 83.0057 21.5633 83.3491 19.8463C83.807 17.9003 88.8436 18.7016 88.6146 20.5331C88.3857 22.0212 86.7831 22.479 85.8674 22.708Z" fill="#111627"/>
<path d="M82.7773 12.2911C82.7773 12.2911 84.4944 12.8634 84.9522 14.2371C85.5246 15.6107 87.4705 15.9541 88.3863 14.6949C89.302 13.4358 90.7901 12.8634 91.3624 12.6345C91.4769 12.6345 86.5548 9.4294 82.7773 12.2911Z" fill="#CC9872"/>
</g>
<defs>
<clipPath id="clip0_158_4482">
<rect width="84.4773" height="73.7174" fill="white" transform="translate(66.8672 0.272461)"/>
</clipPath>
</defs>
</svg>
