<svg width="219" height="154" viewBox="0 0 219 154" fill="none" xmlns="http://www.w3.org/2000/svg">
<path d="M217.567 133.011C217.567 133.998 217.026 135.1 215.682 136.306C214.342 137.509 212.307 138.717 209.594 139.895C204.175 142.248 196.272 144.391 186.429 146.199C166.761 149.812 139.548 152.053 109.46 152.053C79.3726 152.053 52.1593 149.812 32.4908 146.199C22.6483 144.391 14.745 142.248 9.326 139.895C6.61277 138.717 4.57852 137.509 3.23819 136.306C1.89453 135.1 1.35352 133.998 1.35352 133.011C1.35352 132.024 1.89453 130.922 3.23819 129.716C4.57852 128.513 6.61277 127.305 9.326 126.127C14.745 123.773 22.6483 121.63 32.4908 119.822C52.1593 116.21 79.3726 113.969 109.46 113.969C139.548 113.969 166.761 116.21 186.429 119.822C196.272 121.63 204.175 123.773 209.594 126.127C212.307 127.305 214.342 128.513 215.682 129.716C217.026 130.922 217.567 132.024 217.567 133.011Z" stroke="#737E85" stroke-width="2"/>
<g opacity="0.4">
<path d="M38.4101 142.915C19.5695 139.79 10.1509 136.12 10.1543 131.906C10.1543 129.097 15.007 126.501 24.7124 124.117C34.4178 121.734 47.2278 119.86 63.1424 118.497C79.0673 117.123 95.856 116.447 113.508 116.467C139.424 116.467 161.366 117.822 179.334 120.532C197.302 123.241 206.288 126.892 206.292 131.484C206.292 135.971 196.983 139.788 178.432 142.915C159.882 146.042 136.767 147.623 109.088 147.623C80.8274 147.623 57.268 146.054 38.4101 142.915Z" fill="white"/>
</g>
<g clip-path="url(#clip0_158_4568)">
<path d="M27.2504 2.84964C27.2504 2.84964 26.0294 -0.115514 24.2852 1.10543C22.7154 2.32638 14.8665 3.37291 10.3315 3.72175C5.79658 4.24501 8.93616 10.6986 10.3315 14.0126C11.7269 17.501 11.9013 21.3383 11.5525 22.9081C11.2036 24.4778 15.2153 24.8267 24.2852 11.2219C24.2852 11.2219 26.0294 3.54733 27.2504 2.84964Z" fill="#3A3635"/>
<path opacity="0.55" d="M23.5877 9.6522C20.7969 12.4429 18.0062 14.0127 13.8201 13.6639C12.2503 13.6639 10.6805 12.9662 9.28516 11.9197C9.634 12.6174 9.98284 13.4895 10.3317 14.1872C11.7271 17.6756 11.9015 21.5128 11.5526 23.0826C11.2038 24.3036 15.2155 24.8268 24.2854 11.222C24.2854 11.222 24.6342 9.82662 24.983 8.25684C24.6342 8.60568 24.1109 9.12894 23.5877 9.6522Z" fill="#7A7877"/>
<path d="M50.2734 4.76837C50.2734 4.76837 51.8432 2.5009 53.413 3.54742C54.9828 4.76837 63.0062 5.8149 67.5411 6.16374C72.0761 6.687 68.9365 13.1406 67.5411 16.4546C66.1458 19.943 65.9713 23.7803 66.3202 25.35C66.4946 26.7454 62.6573 27.2687 53.5874 13.4894C53.413 13.6638 51.4944 5.46606 50.2734 4.76837Z" fill="#3A3635"/>
<path opacity="0.55" d="M68.9365 13.141C67.1923 16.1061 64.0527 17.8503 60.2154 16.9782C54.9828 15.7573 54.634 7.38508 50.6223 4.59434C50.6223 4.59434 50.4479 4.59434 50.4479 4.41992C50.2734 4.59434 50.2734 4.76876 50.2734 4.76876C51.4944 5.29203 53.413 13.6642 53.413 13.6642C62.6573 27.2691 66.4946 26.9202 66.1458 25.5249C65.9713 24.1295 65.9713 20.1178 67.3667 16.6294C67.89 15.7573 68.4132 14.3619 68.9365 13.141Z" fill="#7A7877"/>
<path d="M55.3324 80.6418C61.2627 83.4325 67.8907 86.9209 74.8676 87.2698V71.5719L35.7972 61.6299C34.4019 81.3395 40.5066 95.4676 44.1695 105.758C49.2277 120.584 45.216 129.131 45.216 129.131C36.1461 129.131 34.5763 132.794 34.7507 135.584C34.9251 137.503 36.4949 138.898 38.2391 138.898C42.4252 139.073 50.0998 139.073 51.3207 138.898C52.8905 138.55 55.6812 124.073 56.5533 119.886C56.7278 119.189 56.7278 118.317 56.5533 117.619C51.3207 96.5141 55.3324 80.6418 55.3324 80.6418Z" fill="#201B1A"/>
<path d="M57.251 106.979C54.2859 108.724 49.2277 113.956 46.6114 113.782C46.4369 113.782 46.4369 113.782 46.2625 113.782C48.0067 123.724 45.216 129.48 45.216 129.48C36.1461 129.48 34.5763 133.143 34.7507 135.933C34.9251 137.852 36.4949 139.247 38.2391 139.247C42.4252 139.422 50.0998 139.422 51.3207 139.247C52.8905 138.899 55.6812 124.422 56.5533 120.235C56.7278 119.538 56.7278 118.666 56.5533 117.968C55.8557 115.352 57.5999 109.073 57.251 106.979Z" fill="#956129"/>
<path d="M177.428 104.712C175.335 102.619 166.614 94.5954 161.73 88.3163C157.544 83.0836 155.451 83.6069 154.23 72.2695H124.578V73.6649C124.927 73.4905 124.927 73.4905 124.927 73.4905C129.636 95.6419 163.997 108.375 163.997 108.375C168.358 117.968 168.707 124.421 168.358 127.735C168.183 129.305 166.962 130.526 165.393 130.526C160.683 130.701 158.241 131.747 157.02 133.142C154.927 135.236 156.497 138.898 159.637 139.073C165.044 139.247 175.858 139.422 177.428 138.898C179.346 138.026 179.346 106.63 177.428 104.712Z" fill="#201B1A"/>
<path d="M163.124 107.852C163.821 108.2 164.17 108.2 164.17 108.2C168.531 117.794 168.879 124.247 168.531 127.561C168.356 129.131 167.135 130.352 165.565 130.352C160.856 130.526 158.414 131.573 157.193 132.968C155.1 135.061 156.67 138.724 159.81 138.899C165.217 139.073 176.031 139.247 177.601 138.724C179.345 138.201 179.519 116.224 178.473 107.852H163.124Z" fill="#956129"/>
<path d="M149.52 49.2461C149.52 49.2461 159.113 51.8624 163.822 59.3625C168.532 66.8626 177.427 86.3978 199.753 82.9093C199.753 82.9093 201.497 83.0838 200.8 85.0024C200.102 86.921 194.172 97.7351 175.334 88.142C156.322 78.5488 149.171 50.8159 149.52 49.2461Z" fill="#262221"/>
<path d="M55.3328 87.9673C55.3328 87.9673 61.4375 98.6069 82.1936 95.1185C90.5659 93.7232 98.9381 91.9789 107.136 89.8859C114.287 88.1417 131.555 78.8974 135.741 84.13C140.276 89.8859 133.648 69.8275 133.648 69.8275L85.5076 72.0949C85.5076 72.0949 23.4138 34.7689 25.5068 46.4551C34.7511 100.351 55.3328 87.9673 55.3328 87.9673Z" fill="#BB8D51"/>
<path d="M182.311 107.503C180.218 105.41 171.497 97.3865 166.614 91.1073C161.555 84.8281 159.462 86.9212 158.59 66.1651C157.718 45.409 141.322 42.9671 135.915 42.2694C130.508 41.5717 116.031 43.4904 103.473 44.5369C93.7055 45.409 67.1936 38.4322 64.4028 35.467C62.4842 33.5484 58.4725 25.1762 56.205 20.4668C52.0189 26.0483 45.5654 30.7576 39.2862 31.4553C36.1466 31.8042 28.8209 30.2344 22.8906 28.839C22.8906 46.1067 33.1815 62.8511 33.7047 67.0372C35.7978 82.7351 45.5654 95.8167 50.1003 108.724C55.1585 123.55 51.1468 132.096 51.1468 132.096C42.0769 132.096 40.5071 135.759 40.6816 138.55C40.856 140.294 42.4258 141.864 44.17 141.864C48.3561 142.038 56.0306 142.038 57.2516 141.864C58.8214 141.515 61.6121 127.038 62.4842 122.852C62.6586 122.329 62.6586 121.631 62.4842 121.108C60.5656 109.596 62.6586 101.224 63.1819 95.6422C63.5307 91.2817 67.8912 88.6654 72.0773 89.8864C102.601 100.003 124.578 78.549 130.16 76.2815C134.869 98.433 169.23 111.166 169.23 111.166C173.59 120.759 173.939 127.212 173.59 130.526C173.416 132.096 172.195 133.317 170.625 133.317C165.916 133.492 163.474 134.538 162.253 135.933C160.16 138.027 161.73 141.689 164.869 141.864C169.055 142.038 176.904 141.864 180.567 141.515C181.614 141.515 183.184 140.294 183.358 138.899C184.23 131.399 184.056 109.247 182.311 107.503Z" fill="#3A3635"/>
<path d="M61.7859 108.026C58.8208 111.34 55.8556 114.829 52.0184 116.573C53.7626 126.515 50.9718 132.271 50.9718 132.271C41.9019 132.271 40.3322 135.934 40.5066 138.724C40.681 140.469 42.2508 142.038 43.995 142.038C48.1811 142.213 55.8556 142.213 57.0766 142.038C58.6464 141.69 61.4371 127.213 62.3092 123.027C62.4836 122.503 62.4836 121.806 62.3092 121.282C61.6115 116.224 61.6115 111.864 61.7859 108.026Z" fill="#BB8D51"/>
<path d="M143.414 96.165C145.682 98.0837 147.949 99.6535 150.216 101.223C147.949 99.3046 145.856 97.5604 143.414 96.165Z" fill="#BB8D51"/>
<path d="M167.659 110.468C168.532 110.817 169.055 110.991 169.055 110.991C173.415 120.584 173.764 127.038 173.415 130.352C173.241 131.922 172.02 133.142 170.45 133.142C165.741 133.317 163.299 134.363 162.078 135.759C159.985 137.852 161.555 141.515 164.694 141.689C168.88 141.864 176.729 141.689 180.392 141.34C181.439 141.34 183.009 140.119 183.183 138.724C184.055 133.84 184.055 122.328 183.532 114.654C180.392 109.247 174.113 110.642 167.659 110.468Z" fill="#BB8D51"/>
<path opacity="0.32" d="M119.17 50.2922C127.018 46.1061 134.693 43.3153 143.588 44.1874C143.763 44.1874 143.937 44.1874 144.112 44.1874C140.623 42.7921 137.484 42.2688 135.565 42.0944C130.158 41.3967 115.681 43.3153 103.123 44.3619C94.2273 45.234 71.2038 39.3036 65.2734 36.1641C69.8084 63.1993 106.437 57.0946 119.17 50.2922Z" fill="#3A3635"/>
<path opacity="0.55" d="M39.9825 54.1295C54.285 54.8271 58.6456 44.5363 62.8317 33.7222C60.7386 30.4082 57.7735 24.3035 56.0293 20.6406C51.8432 26.2221 45.3896 30.9315 39.1104 31.6291C35.9708 31.978 28.6452 30.4082 22.7148 29.0128C22.7148 36.8618 25.68 47.5015 28.4707 54.3039C32.1336 53.2573 35.622 53.955 39.9825 54.1295Z" fill="#7A7877"/>
<path opacity="0.55" d="M130.333 77.6771C130.507 76.2817 129.984 75.2352 128.065 75.4096C118.647 75.7585 111.67 79.9446 102.774 81.8632C96.495 83.2586 89.867 84.1307 83.5879 82.7353C79.5762 82.0376 74.1692 79.7702 70.1575 80.119C66.669 80.2934 64.0527 83.6074 64.0527 87.0959C64.0527 89.0145 64.2272 90.7587 64.0527 92.6773C65.6225 90.2354 68.7621 88.8401 71.9017 89.8866C102.425 100.003 124.402 78.5492 129.984 76.2817C129.984 76.805 130.158 77.1539 130.333 77.6771Z" fill="#7A7877"/>
<path d="M39.8081 0.408205C39.8081 0.408205 27.0754 1.28031 25.68 4.24547C24.4591 7.21062 22.366 13.4898 20.4474 18.548C18.5288 23.4318 23.0637 30.2342 27.2498 35.2924C31.4359 40.3506 38.2384 43.3158 43.6454 38.7808C49.0525 34.2459 57.9479 27.0946 56.9014 20.641C55.8549 14.3619 54.9828 8.25715 51.3199 4.24547C50.2734 3.02452 43.2966 0.233784 39.8081 0.408205Z" fill="#3A3635"/>
<path d="M49.2275 27.4431C43.8204 26.7454 45.7391 23.7802 39.2855 22.5593C32.3087 21.1639 31.9598 27.0942 26.2039 27.0942C24.8086 27.0942 21.8434 25.35 20.7969 24.6523C22.0178 28.3152 24.8086 32.1524 27.4249 35.292C31.611 40.3502 38.4134 43.3154 43.8204 38.7804C47.6577 35.4664 53.4136 30.9315 55.8555 26.2221C54.1113 27.0942 51.1461 27.7919 49.2275 27.4431Z" fill="#BB8D51"/>
<path d="M46.0875 30.9314C44.6922 30.4081 43.6456 29.3616 42.2503 29.0128C41.2037 28.6639 40.1572 28.4895 38.9363 28.4895C37.8897 28.3151 37.1921 27.9662 36.6688 27.2686C35.7967 28.8383 34.2269 29.536 32.1339 30.2337C30.3896 30.757 29.1687 30.9314 27.2501 31.1058C25.8547 30.9314 25.6803 32.85 25.5059 33.1989C26.0291 33.8966 26.7268 34.7687 27.2501 35.4663C31.4362 40.5246 38.2386 43.4897 43.6456 38.9548C45.2154 37.5594 47.3085 35.9896 49.2271 34.2454C49.7504 30.4081 46.7852 31.1058 46.0875 30.9314Z" fill="#717870"/>
<path d="M46.786 28.3153C46.0883 27.2688 45.0418 26.2223 44.1697 25.1757C43.1231 24.1292 42.5999 23.2571 39.1115 22.5594C37.1928 22.2106 35.7975 22.385 34.5765 22.9083C32.4835 24.478 30.216 25.699 28.8206 27.9665C28.1229 28.8386 26.902 30.5828 27.2508 31.4549C28.4718 34.5945 33.0067 37.5596 34.9254 34.9433C36.3207 33.0247 38.7626 33.0247 40.3324 34.9433C41.5534 36.5131 43.8208 35.8154 45.3906 35.1177C47.3093 33.0247 48.5302 31.106 46.786 28.3153Z" fill="#D0B691"/>
<path d="M41.3789 18.0249C41.3789 18.0249 43.472 13.8388 45.9138 14.1876C48.3557 14.5365 50.2744 17.1528 50.2744 17.1528C50.2744 17.1528 48.1813 20.9901 45.565 20.9901C42.9487 20.9901 41.3789 18.0249 41.3789 18.0249Z" fill="#111B1D"/>
<path d="M48.5299 17.6761C48.5299 19.2459 47.1346 20.6413 45.5648 20.6413C43.995 20.6413 42.5996 19.2459 42.5996 17.6761C42.5996 16.1063 43.995 14.7109 45.5648 14.7109C47.309 14.7109 48.5299 16.1063 48.5299 17.6761Z" fill="#5C504D"/>
<path d="M45.5645 19.4201C46.5278 19.4201 47.3087 18.6392 47.3087 17.6759C47.3087 16.7125 46.5278 15.9316 45.5645 15.9316C44.6012 15.9316 43.8203 16.7125 43.8203 17.6759C43.8203 18.6392 44.6012 19.4201 45.5645 19.4201Z" fill="#111B1D"/>
<path d="M47.4833 16.4555C47.4833 16.8043 47.1344 17.1532 46.7856 17.1532C46.4367 17.1532 46.0879 16.8043 46.0879 16.4555C46.0879 16.1067 46.4367 15.7578 46.7856 15.7578C47.1344 15.7578 47.4833 16.1067 47.4833 16.4555Z" fill="#EBEBEB"/>
<path d="M35.9716 17.3267C35.9716 17.3267 33.8786 13.1406 31.4367 13.4894C28.9948 13.8382 27.0762 16.4546 27.0762 16.4546C27.0762 16.4546 28.9948 20.2918 31.7855 20.2918C34.5763 20.2918 35.9716 17.3267 35.9716 17.3267Z" fill="#111B1D"/>
<path d="M34.7506 16.803C34.7506 18.3728 33.3553 19.7682 31.7855 19.7682C30.2157 19.7682 28.8203 18.3728 28.8203 16.803C28.8203 15.2333 30.2157 13.8379 31.7855 13.8379C33.5297 13.8379 34.7506 15.2333 34.7506 16.803Z" fill="#5C504D"/>
<path d="M31.9591 18.548C32.9224 18.548 33.7033 17.7671 33.7033 16.8038C33.7033 15.8405 32.9224 15.0596 31.9591 15.0596C30.9958 15.0596 30.2148 15.8405 30.2148 16.8038C30.2148 17.7671 30.9958 18.548 31.9591 18.548Z" fill="#111B1D"/>
<path d="M33.8778 15.5824C33.8778 15.9313 33.5289 16.2801 33.1801 16.2801C32.8313 16.2801 32.4824 15.9313 32.4824 15.5824C32.4824 15.2336 32.8313 14.8848 33.1801 14.8848C33.5289 14.8848 33.8778 15.2336 33.8778 15.5824Z" fill="#EBEBEB"/>
<path d="M47.3083 31.1062C46.4362 31.4551 47.1339 32.676 46.4362 33.0249C45.3897 33.897 44.1688 34.7691 42.7734 34.7691C40.6803 34.9435 38.4129 31.2806 37.5408 31.2806C36.6687 31.2806 34.75 34.9435 32.3081 34.7691C31.436 34.5946 30.7383 34.2458 30.0407 33.897C29.5174 33.5481 28.6453 33.0248 28.122 32.5016C27.7732 32.1527 28.122 31.2806 27.4243 31.1062C26.5522 30.7574 25.1569 31.6295 26.9011 33.0249C27.2499 33.1993 28.122 34.0714 28.2965 34.4202C29.1686 35.4667 30.7383 36.5133 32.657 36.3388C34.75 36.1644 35.971 34.7691 36.8431 33.7225C37.1919 33.3737 37.7152 33.3737 38.064 33.7225C38.9361 34.9435 40.1571 36.1644 42.2501 36.3388C44.3432 36.5133 45.7386 35.4667 46.7851 34.2458C47.1339 33.897 47.6572 33.1993 47.6572 33.1993C49.7502 31.6295 48.1804 30.7574 47.3083 31.1062Z" fill="#111B1D"/>
<path d="M37.5412 30.4087C37.5412 30.4087 30.041 26.7459 33.0062 23.2575C36.3202 19.2458 44.6924 21.1644 44.1691 25.6994C43.8203 29.1878 38.4133 30.4087 37.5412 30.4087Z" fill="#111B1D"/>
<path d="M32.6564 10.001C33.3541 10.8731 35.0983 12.4429 35.6216 11.9197C36.3193 11.222 37.1914 8.78009 33.5285 9.30336C33.1797 9.30336 32.482 9.6522 32.6564 10.001Z" fill="#BB8D51"/>
<path d="M45.3904 10.6993C44.6928 11.5714 42.9485 13.1412 42.4253 12.6179C41.7276 11.9202 40.8555 9.47834 44.5183 10.0016C45.0416 10.0016 45.7393 10.3504 45.3904 10.6993Z" fill="#BB8D51"/>
</g>
<defs>
<clipPath id="clip0_158_4568">
<rect width="192.91" height="141.63" fill="white" transform="translate(7.88867 0.408203)"/>
</clipPath>
</defs>
</svg>
